<?xml version="1.0" encoding="iso-8859-1"?>
<!-- Generator: Adobe Illustrator 19.0.0, SVG Export Plug-In . SVG Version: 6.00 Build 0)  -->
<svg version="1.1" id="Capa_1" xmlns="http://www.w3.org/2000/svg" xmlns:xlink="http://www.w3.org/1999/xlink" x="0px" y="0px"
	 viewBox="0 0 470 470" style="enable-background:new 0 0 470 470;" xml:space="preserve">
<g>
	<path d="M179.797,177.872c-4.143,0-7.5,3.358-7.5,7.5s3.357,7.5,7.5,7.5h110.406c4.143,0,7.5-3.358,7.5-7.5s-3.357-7.5-7.5-7.5
		H179.797z"/>
	<path d="M175.631,282.007c-10.269-3.342-19.993-7.569-28.905-12.564c-3.611-2.024-8.184-0.739-10.209,2.875
		s-0.738,8.184,2.875,10.209c9.766,5.475,20.396,10.099,31.597,13.744c0.771,0.251,1.554,0.37,2.323,0.37
		c3.159,0,6.099-2.014,7.13-5.181C181.724,287.521,179.569,283.289,175.631,282.007z"/>
	<path d="M323.271,269.444C297.917,283.657,267.394,291.17,235,291.17c-10.563,0-21.107-0.826-31.34-2.455
		c-4.091-0.651-7.935,2.138-8.586,6.228c-0.65,4.091,2.138,7.935,6.229,8.586c11.009,1.752,22.347,2.641,33.697,2.641
		c34.956,0,68.017-8.175,95.606-23.643c3.613-2.025,4.9-6.596,2.875-10.209C331.457,268.706,326.887,267.418,323.271,269.444z"/>
	<path d="M331.268,124.521c-3.269-2.543-7.98-1.956-10.524,1.313c-2.544,3.269-1.956,7.981,1.313,10.525
		c17.658,13.739,27.383,31.146,27.383,49.012c0,41.795-51.337,75.799-114.439,75.799s-114.439-34.003-114.439-75.799
		c0-17.861,9.726-35.265,27.386-49.007c3.27-2.543,3.857-7.256,1.313-10.525c-2.543-3.269-7.257-3.855-10.524-1.313
		c-21.394,16.646-33.175,38.255-33.175,60.845v193.83c0,24.803,13.845,47.921,38.984,65.094C168.811,460.871,200.935,470,235,470
		s66.189-9.129,90.455-25.705c25.14-17.173,38.984-40.291,38.984-65.094v-193.83C364.439,162.776,352.659,141.165,331.268,124.521z
		 M349.439,379.201C349.439,420.997,298.103,455,235,455s-114.439-34.003-114.439-75.799V228.063
		c6.202,8.194,14.24,15.747,23.984,22.403c24.266,16.576,56.39,25.705,90.455,25.705s66.189-9.129,90.455-25.705
		c9.744-6.656,17.782-14.209,23.984-22.403V379.201z"/>
	<path d="M235,162.904c44.913,0,81.452-36.539,81.452-81.452S279.913,0,235,0s-81.452,36.539-81.452,81.452
		S190.087,162.904,235,162.904z M235,15c36.642,0,66.452,29.81,66.452,66.452S271.642,147.904,235,147.904
		s-66.452-29.81-66.452-66.452S198.358,15,235,15z"/>
	<path d="M229.019,128.713c1.418,1.874,3.632,2.975,5.981,2.975s4.563-1.101,5.981-2.975l34.642-45.789
		c3.733-4.934,5.707-10.818,5.707-17.015c0-15.561-12.66-28.221-28.221-28.221c-6.723,0-13.107,2.4-18.109,6.586
		c-5.002-4.186-11.387-6.586-18.109-6.586c-15.561,0-28.221,12.66-28.221,28.221c0,6.198,1.974,12.081,5.706,17.015L229.019,128.713
		z M216.891,52.688c4.791,0,9.22,2.608,11.557,6.806c1.323,2.378,3.831,3.852,6.553,3.852s5.229-1.474,6.553-3.852
		c2.337-4.198,6.766-6.806,11.557-6.806c7.29,0,13.221,5.931,13.221,13.221c0,2.903-0.923,5.657-2.669,7.965L235,111.757
		l-28.662-37.884c-1.745-2.307-2.668-5.061-2.668-7.965C203.67,58.618,209.601,52.688,216.891,52.688z"/>
</g>
<g>
</g>
<g>
</g>
<g>
</g>
<g>
</g>
<g>
</g>
<g>
</g>
<g>
</g>
<g>
</g>
<g>
</g>
<g>
</g>
<g>
</g>
<g>
</g>
<g>
</g>
<g>
</g>
<g>
</g>
</svg>
