<?xml version="1.0" encoding="iso-8859-1"?>
<!-- Generator: Adobe Illustrator 19.0.0, SVG Export Plug-In . SVG Version: 6.00 Build 0)  -->
<svg version="1.1" id="Capa_1" xmlns="http://www.w3.org/2000/svg" xmlns:xlink="http://www.w3.org/1999/xlink" x="0px" y="0px"
	 viewBox="0 0 470 470" style="enable-background:new 0 0 470 470;" xml:space="preserve">
<g>
	<path d="M270.152,271.338c-13.513,0-26.221,5.737-35.152,15.463c-8.932-9.726-21.64-15.463-35.152-15.463
		c-26.313,0-47.721,21.408-47.721,47.722c0,10.479,3.336,20.428,9.646,28.77l67.245,88.881c1.418,1.874,3.632,2.975,5.981,2.975
		s4.563-1.101,5.981-2.975l67.245-88.881c6.311-8.341,9.646-18.29,9.646-28.77C317.873,292.746,296.466,271.338,270.152,271.338z
		 M296.264,338.779L235,419.754l-61.264-80.975c-4.324-5.715-6.609-12.534-6.609-19.72c0-18.043,14.679-32.722,32.721-32.722
		c11.86,0,22.818,6.451,28.599,16.836c1.324,2.378,3.832,3.853,6.554,3.853s5.229-1.474,6.554-3.853
		c5.78-10.385,16.738-16.836,28.599-16.836c18.042,0,32.721,14.679,32.721,32.722C302.873,326.246,300.588,333.064,296.264,338.779z
		"/>
	<path d="M444.604,181.084c0-1.042-0.217-2.072-0.638-3.025l-31.744-72.003c-1.198-2.72-3.891-4.475-6.862-4.475h-54.825v-15h12.5
		c4.143,0,7.5-3.358,7.5-7.5V7.5c0-4.142-3.357-7.5-7.5-7.5h-256.07c-4.143,0-7.5,3.358-7.5,7.5v71.582c0,4.142,3.357,7.5,7.5,7.5
		h12.5v15H64.64c-2.972,0-5.664,1.755-6.862,4.475l-31.744,72.003c-0.421,0.953-0.638,1.983-0.638,3.025
		c0,25.257,12.561,47.619,31.744,61.202V462.5c0,4.142,3.357,7.5,7.5,7.5H405.36c4.143,0,7.5-3.358,7.5-7.5V242.286
		C432.044,228.703,444.604,206.341,444.604,181.084z M114.465,15h241.07v56.582h-241.07V15z M134.465,86.582h201.07v15h-201.07
		V86.582z M40.415,182.621l29.114-66.039h330.941l29.114,66.039c-0.818,32.342-27.351,58.403-59.849,58.403
		c-30.473,0-55.683-22.918-59.383-52.439h96.751c4.143,0,7.5-3.358,7.5-7.5s-3.357-7.5-7.5-7.5H62.896c-4.143,0-7.5,3.358-7.5,7.5
		s3.357,7.5,7.5,7.5h96.751c-3.7,29.521-28.91,52.439-59.383,52.439C67.766,241.023,41.233,214.963,40.415,182.621z
		 M294.383,188.584c-3.7,29.521-28.91,52.439-59.383,52.439s-55.683-22.918-59.383-52.439H294.383z M397.86,455H72.14V250.517
		c8.69,3.539,18.179,5.507,28.124,5.507c29.586,0,55.219-17.265,67.368-42.26c12.15,24.995,37.782,42.26,67.368,42.26
		s55.218-17.265,67.368-42.26c12.149,24.995,37.782,42.26,67.368,42.26c9.945,0,19.434-1.968,28.124-5.507V455z"/>
</g>
<g>
</g>
<g>
</g>
<g>
</g>
<g>
</g>
<g>
</g>
<g>
</g>
<g>
</g>
<g>
</g>
<g>
</g>
<g>
</g>
<g>
</g>
<g>
</g>
<g>
</g>
<g>
</g>
<g>
</g>
</svg>
