<?xml version="1.0" encoding="iso-8859-1"?>
<!-- Generator: Adobe Illustrator 19.0.0, SVG Export Plug-In . SVG Version: 6.00 Build 0)  -->
<svg version="1.1" id="Capa_1" xmlns="http://www.w3.org/2000/svg" xmlns:xlink="http://www.w3.org/1999/xlink" x="0px" y="0px"
	 viewBox="0 0 470 470" style="enable-background:new 0 0 470 470;" xml:space="preserve">
<g>
	<path d="M194.996,405h80.513c11.86,0,21.509-9.649,21.509-21.509v-80.218c0-3.589,2.919-6.508,6.508-6.508h80.218
		c11.86,0,21.509-9.649,21.509-21.509v-80.513c0-11.86-9.648-21.509-21.509-21.509h-80.218c-3.589,0-6.508-2.919-6.508-6.508V86.509
		c0-11.86-9.648-21.509-21.509-21.509h-80.513c-11.86,0-21.509,9.649-21.509,21.509v80.218c0,3.589-2.92,6.508-6.509,6.508H86.761
		c-11.86,0-21.509,9.649-21.509,21.509v80.513c0,11.86,9.649,21.509,21.509,21.509h80.217c3.589,0,6.509,2.919,6.509,6.508v80.218
		C173.487,395.351,183.136,405,194.996,405z M166.978,281.765H86.761c-3.589,0-6.509-2.92-6.509-6.509v-80.513
		c0-3.589,2.92-6.509,6.509-6.509h80.217c11.86,0,21.509-9.648,21.509-21.508V86.509c0-3.589,2.92-6.509,6.509-6.509h80.513
		c3.589,0,6.509,2.92,6.509,6.509v80.218c0,11.86,9.648,21.508,21.508,21.508h80.218c3.589,0,6.509,2.92,6.509,6.509v80.513
		c0,3.589-2.92,6.509-6.509,6.509h-80.218c-11.859,0-21.508,9.648-21.508,21.508v80.218c0,3.589-2.92,6.509-6.509,6.509h-80.513
		c-3.589,0-6.509-2.92-6.509-6.509v-80.218C188.487,291.414,178.838,281.765,166.978,281.765z"/>
	<path d="M462.735,242.516c-4.129-0.263-7.702,2.864-7.972,6.997C447.26,364.739,350.84,455,235.252,455
		c-121.309,0-220-98.691-220-220s98.691-220,220-220c115.588,0,212.008,90.261,219.511,205.487c0.27,4.134,3.834,7.266,7.972,6.997
		c4.134-0.27,7.266-3.838,6.997-7.972c-3.872-59.464-29.979-114.767-73.514-155.719C352.487,22.656,295.322,0,235.252,0
		c-62.771,0-121.784,24.444-166.17,68.83S0.252,172.229,0.252,235c0,62.771,24.444,121.785,68.83,166.17
		C113.468,445.556,172.482,470,235.252,470c60.069,0,117.234-22.656,160.966-63.793c43.534-40.953,69.642-96.255,73.514-155.719
		C470,246.354,466.868,242.785,462.735,242.516z"/>
</g>
<g>
</g>
<g>
</g>
<g>
</g>
<g>
</g>
<g>
</g>
<g>
</g>
<g>
</g>
<g>
</g>
<g>
</g>
<g>
</g>
<g>
</g>
<g>
</g>
<g>
</g>
<g>
</g>
<g>
</g>
</svg>
