<?xml version="1.0" encoding="iso-8859-1"?>
<!-- Generator: Adobe Illustrator 19.0.0, SVG Export Plug-In . SVG Version: 6.00 Build 0)  -->
<svg version="1.1" id="Capa_1" xmlns="http://www.w3.org/2000/svg" xmlns:xlink="http://www.w3.org/1999/xlink" x="0px" y="0px"
	 viewBox="0 0 470 470" style="enable-background:new 0 0 470 470;" xml:space="preserve">
<g>
	<path d="M341,204.292h-57.263c-1.355,0-2.5-1.145-2.5-2.5v-57.263c0-9.649-7.851-17.5-17.5-17.5h-57.474
		c-9.649,0-17.5,7.851-17.5,17.5v57.263c0,1.355-1.145,2.5-2.5,2.5H129c-9.649,0-17.5,7.851-17.5,17.5v57.474
		c0,9.649,7.851,17.5,17.5,17.5h57.263c1.355,0,2.5,1.145,2.5,2.5v57.263c0,9.649,7.851,17.5,17.5,17.5h57.474
		c9.649,0,17.5-7.851,17.5-17.5v-19.263c0-4.142-3.358-7.5-7.5-7.5s-7.5,3.358-7.5,7.5v19.263c0,1.355-1.145,2.5-2.5,2.5h-57.474
		c-1.355,0-2.5-1.145-2.5-2.5v-57.263c0-9.649-7.851-17.5-17.5-17.5H129c-1.355,0-2.5-1.145-2.5-2.5v-57.474
		c0-1.355,1.145-2.5,2.5-2.5h57.263c9.649,0,17.5-7.851,17.5-17.5v-57.263c0-1.355,1.145-2.5,2.5-2.5h57.474
		c1.355,0,2.5,1.145,2.5,2.5v57.263c0,9.649,7.851,17.5,17.5,17.5H341c1.355,0,2.5,1.145,2.5,2.5v57.474c0,1.355-1.145,2.5-2.5,2.5
		h-57.263c-9.649,0-17.5,7.851-17.5,17.5v8c0,4.142,3.358,7.5,7.5,7.5s7.5-3.358,7.5-7.5v-8c0-1.355,1.145-2.5,2.5-2.5H341
		c9.649,0,17.5-7.851,17.5-17.5v-57.474C358.5,212.142,350.649,204.292,341,204.292z"/>
	<path d="M433.5,68.764H299.427V51.036c0-15.88-12.92-28.8-28.8-28.8h-71.254c-15.88,0-28.8,12.919-28.8,28.8l0,17.729H36.5
		c-20.126,0-36.5,16.374-36.5,36.5v290.529c0,20.126,16.374,36.5,36.5,36.5h36v7.971c0,4.142,3.358,7.5,7.5,7.5s7.5-3.358,7.5-7.5
		v-7.971h295v7.971c0,4.142,3.358,7.5,7.5,7.5s7.5-3.358,7.5-7.5v-7.971h36c20.126,0,36.5-16.374,36.5-36.5V105.264
		C470,85.138,453.626,68.764,433.5,68.764z M185.573,51.036c0-7.609,6.19-13.8,13.8-13.8h71.254c7.609,0,13.8,6.19,13.8,13.8v17.729
		h-98.854L185.573,51.036z M455,395.793c0,11.855-9.645,21.5-21.5,21.5h-397c-11.855,0-21.5-9.645-21.5-21.5V105.264
		c0-11.855,9.645-21.5,21.5-21.5h397c11.855,0,21.5,9.645,21.5,21.5V395.793z"/>
	<path d="M80,63.764h30.618c4.142,0,7.5-3.358,7.5-7.5s-3.358-7.5-7.5-7.5H80c-4.142,0-7.5,3.358-7.5,7.5S75.858,63.764,80,63.764z"
		/>
	<path d="M359.382,63.764H390c4.142,0,7.5-3.358,7.5-7.5s-3.358-7.5-7.5-7.5h-30.618c-4.142,0-7.5,3.358-7.5,7.5
		S355.24,63.764,359.382,63.764z"/>
</g>
<g>
</g>
<g>
</g>
<g>
</g>
<g>
</g>
<g>
</g>
<g>
</g>
<g>
</g>
<g>
</g>
<g>
</g>
<g>
</g>
<g>
</g>
<g>
</g>
<g>
</g>
<g>
</g>
<g>
</g>
</svg>
