<?xml version="1.0" encoding="iso-8859-1"?>
<!-- Generator: Adobe Illustrator 19.0.0, SVG Export Plug-In . SVG Version: 6.00 Build 0)  -->
<svg version="1.1" id="Capa_1" xmlns="http://www.w3.org/2000/svg" xmlns:xlink="http://www.w3.org/1999/xlink" x="0px" y="0px"
	 viewBox="0 0 470 470" style="enable-background:new 0 0 470 470;" xml:space="preserve">
<g>
	<path d="M415.137,94.727h-10.35c10.587-10.075,17.217-24.363,17.217-40.197c0-30.068-24.462-54.53-54.53-54.53
		c-7.883,0-15.428,1.624-22.427,4.828c-16.8,7.69-59.669,28.265-78.317,37.234C262.154,28.94,249.663,19.495,235,19.495
		s-27.154,9.444-31.73,22.567c-18.647-8.969-61.516-29.544-78.317-37.234C117.954,1.624,110.409,0,102.526,0
		c-30.068,0-54.53,24.462-54.53,54.53c0,15.834,6.631,30.122,17.217,40.197h-10.35c-4.143,0-7.5,3.358-7.5,7.5v56.243
		c0,4.142,3.357,7.5,7.5,7.5h78.881c4.143,0,7.5-3.358,7.5-7.5s-3.357-7.5-7.5-7.5H62.363v-41.243h93.881v195.302
		c0,2.659,1.408,5.12,3.701,6.467c2.294,1.347,5.129,1.379,7.451,0.084l24.47-13.642l24.47,13.642
		c1.137,0.633,2.395,0.949,3.652,0.949c1.313,0,2.627-0.345,3.799-1.033c2.293-1.347,3.701-3.807,3.701-6.467V109.727h16.396
		v195.302c0,2.659,1.408,5.12,3.701,6.467c2.294,1.347,5.13,1.379,7.451,0.084l24.47-13.642l24.47,13.642
		c1.137,0.633,2.395,0.949,3.652,0.949c1.313,0,2.627-0.345,3.799-1.033c2.293-1.347,3.701-3.807,3.701-6.467V165.97h100.008
		c4.143,0,7.5-3.358,7.5-7.5v-56.243C422.637,98.085,419.279,94.727,415.137,94.727z M351.289,18.467
		C356.315,16.167,361.761,15,367.474,15c21.797,0,39.53,17.733,39.53,39.53c0,22.165-17.733,40.197-39.53,40.197h-98.873V57.808
		C283.42,50.674,332.999,26.839,351.289,18.467z M235,34.495c10.257,0,18.601,8.344,18.601,18.601v41.631h-37.201V53.096
		C216.399,42.839,224.743,34.495,235,34.495z M62.996,54.53c0-21.797,17.733-39.53,39.53-39.53c5.713,0,11.158,1.167,16.185,3.467
		c18.29,8.372,67.869,32.207,82.688,39.341v36.919h-98.873C80.729,94.727,62.996,76.695,62.996,54.53z M212.488,292.261
		l-16.97-9.461c-2.271-1.266-5.033-1.266-7.305,0l-16.97,9.461V109.727h41.244V292.261z M300.129,292.261l-16.97-9.461
		c-2.271-1.266-5.033-1.266-7.305,0l-16.97,9.461V109.727h41.244V292.261z M407.637,150.97h-92.508v-41.243h92.508V150.97z"/>
	<path d="M400.137,180.97c-4.143,0-7.5,3.358-7.5,7.5V455H77.363V188.47c0-4.142-3.357-7.5-7.5-7.5s-7.5,3.358-7.5,7.5V462.5
		c0,4.142,3.357,7.5,7.5,7.5h330.273c4.143,0,7.5-3.358,7.5-7.5V188.47C407.637,184.328,404.279,180.97,400.137,180.97z"/>
</g>
<g>
</g>
<g>
</g>
<g>
</g>
<g>
</g>
<g>
</g>
<g>
</g>
<g>
</g>
<g>
</g>
<g>
</g>
<g>
</g>
<g>
</g>
<g>
</g>
<g>
</g>
<g>
</g>
<g>
</g>
</svg>
