<?xml version="1.0" encoding="iso-8859-1"?>
<!-- Generator: Adobe Illustrator 19.0.0, SVG Export Plug-In . SVG Version: 6.00 Build 0)  -->
<svg version="1.1" id="Capa_1" xmlns="http://www.w3.org/2000/svg" xmlns:xlink="http://www.w3.org/1999/xlink" x="0px" y="0px"
	 viewBox="0 0 470 470" style="enable-background:new 0 0 470 470;" xml:space="preserve">
<g>
	<path d="M359.384,125.522c10.357-13.691,15.831-30.014,15.831-47.204C375.215,35.133,340.082,0,296.896,0
		c-24.575,0-47.361,11.543-61.924,30.757C220.766,12.084,198.323,0,173.104,0c-43.185,0-78.319,35.133-78.319,78.318
		c0,17.189,5.474,33.512,15.831,47.204c13.16,17.397,31.534,41.147,50.987,66.292c20.375,26.336,43.321,55.996,63.985,83.157
		c-21.999,29.049-41.291,55.195-52.656,72.268c-10.101,15.175-15.194,30.685-15.137,46.097C157.952,435.669,192.441,470,234.684,470
		c0.194,0,0.383,0,0.577,0c42.295-0.003,76.788-34.333,76.944-76.665c0.057-15.413-5.036-30.922-15.137-46.097
		c-8.035-12.072-20.232-29.036-37.288-51.863c-2.48-3.318-7.178-3.998-10.498-1.519c-3.318,2.479-3.998,7.179-1.519,10.498
		c16.891,22.606,28.935,39.353,36.818,51.196c8.541,12.831,12.67,25.173,12.624,37.73c-0.126,34.082-27.892,61.721-62,61.72
		c-0.077,0-0.155,0-0.233,0c-34.115,0.113-62.051-27.561-62.177-61.72c-0.046-12.557,4.083-24.899,12.624-37.73
		c22.782-34.226,78.345-106.045,122.991-163.752C327.858,166.66,346.228,142.916,359.384,125.522z M235.003,262.575
		c-20.033-26.292-41.968-54.646-61.536-79.939c-19.427-25.111-37.777-48.83-50.888-66.162c-8.37-11.065-12.794-24.259-12.794-38.155
		c0-34.914,28.405-63.318,63.319-63.318c34.58,0,62.712,28.133,62.712,62.712c0,4.142,3.358,7.5,7.5,7.5s7.5-3.358,7.5-7.5
		c0-11.749-2.635-22.89-7.323-32.885C254.886,26.34,275.014,15,296.896,15c34.914,0,63.319,28.404,63.319,63.318
		c0,13.896-4.424,27.089-12.794,38.155c-13.108,17.329-31.453,41.041-50.875,66.146
		C276.911,207.998,255.173,236.096,235.003,262.575z"/>
	<path d="M208.305,361.774c-3.449-2.295-8.104-1.362-10.399,2.087c-6.839,10.274-10.146,19.879-10.111,29.363
		C187.891,419.017,208.95,440,234.741,440l0.294-0.001l0.223,0.001c4.142,0,7.426-3.358,7.426-7.5c0-4.143-3.432-7.5-7.574-7.5
		h-0.222c-0.024,0-0.124,0-0.148,0c-17.55,0-31.881-14.279-31.946-31.832c-0.024-6.412,2.461-13.279,7.597-20.996
		C212.688,368.725,211.753,364.069,208.305,361.774z"/>
</g>
<g>
</g>
<g>
</g>
<g>
</g>
<g>
</g>
<g>
</g>
<g>
</g>
<g>
</g>
<g>
</g>
<g>
</g>
<g>
</g>
<g>
</g>
<g>
</g>
<g>
</g>
<g>
</g>
<g>
</g>
</svg>
