<?xml version="1.0" encoding="iso-8859-1"?>
<!-- Generator: Adobe Illustrator 19.0.0, SVG Export Plug-In . SVG Version: 6.00 Build 0)  -->
<svg version="1.1" id="Capa_1" xmlns="http://www.w3.org/2000/svg" xmlns:xlink="http://www.w3.org/1999/xlink" x="0px" y="0px"
	 viewBox="0 0 470 470" style="enable-background:new 0 0 470 470;" xml:space="preserve">
<g>
	<path d="M235,217.4c59.938,0,108.7-48.763,108.7-108.7S294.938,0,235,0S126.3,48.763,126.3,108.7S175.063,217.4,235,217.4z M235,15
		c51.667,0,93.7,42.034,93.7,93.7s-42.034,93.7-93.7,93.7s-93.7-42.034-93.7-93.7S183.333,15,235,15z"/>
	<path d="M235,165.16c18.911,0,36.545-9.384,47.173-25.102c2.32-3.432,1.419-8.094-2.012-10.414
		c-3.433-2.321-8.095-1.42-10.414,2.012c-7.834,11.587-20.824,18.504-34.748,18.504s-26.913-6.917-34.748-18.504
		c-2.319-3.431-6.981-4.332-10.414-2.012c-3.432,2.32-4.333,6.982-2.012,10.414C198.455,155.776,216.089,165.16,235,165.16z"/>
	<path d="M271.201,297.075c-13.936,0-27.037,5.953-36.201,16.033c-9.164-10.08-22.265-16.033-36.201-16.033
		c-26.976,0-48.922,21.946-48.922,48.922c0,10.744,3.42,20.943,9.89,29.493l69.252,91.535C230.437,468.899,232.65,470,235,470
		s4.563-1.101,5.981-2.975l69.251-91.534c6.471-8.551,9.891-18.75,9.891-29.494C320.124,319.021,298.177,297.075,271.201,297.075z
		 M298.271,366.44L235,450.069l-63.271-83.629c-4.483-5.924-6.852-12.993-6.852-20.443c0-18.705,15.217-33.922,33.922-33.922
		c12.295,0,23.656,6.688,29.648,17.453c1.324,2.378,3.832,3.853,6.553,3.853s5.229-1.474,6.553-3.853
		c5.992-10.765,17.353-17.453,29.648-17.453c18.705,0,33.922,15.217,33.922,33.922C305.124,353.447,302.754,360.516,298.271,366.44z
		"/>
	<path d="M235,252.6c-115.739,0-209.9,94.161-209.9,209.9c0,4.142,3.358,7.5,7.5,7.5s7.5-3.358,7.5-7.5
		c0-107.468,87.432-194.9,194.9-194.9s194.9,87.432,194.9,194.9c0,4.142,3.358,7.5,7.5,7.5s7.5-3.358,7.5-7.5
		C444.9,346.761,350.739,252.6,235,252.6z"/>
</g>
<g>
</g>
<g>
</g>
<g>
</g>
<g>
</g>
<g>
</g>
<g>
</g>
<g>
</g>
<g>
</g>
<g>
</g>
<g>
</g>
<g>
</g>
<g>
</g>
<g>
</g>
<g>
</g>
<g>
</g>
</svg>
