<?xml version="1.0" encoding="iso-8859-1"?>
<!-- Generator: Adobe Illustrator 19.0.0, SVG Export Plug-In . SVG Version: 6.00 Build 0)  -->
<svg version="1.1" id="Capa_1" xmlns="http://www.w3.org/2000/svg" xmlns:xlink="http://www.w3.org/1999/xlink" x="0px" y="0px"
	 viewBox="0 0 470 470" style="enable-background:new 0 0 470 470;" xml:space="preserve">
<g>
	<path d="M359.633,391.659c-3.45-2.296-8.105-1.36-10.399,2.088C323.71,432.102,281.006,455,235,455
		c-46.005,0-88.71-22.898-114.234-61.253c-2.295-3.448-6.951-4.383-10.399-2.088c-3.448,2.295-4.383,6.95-2.088,10.399
		C136.59,444.601,183.963,470,235,470c51.038,0,98.41-25.399,126.721-67.942C364.016,398.609,363.081,393.954,359.633,391.659z"/>
	<path d="M402.058,108.279c-3.449-2.296-8.105-1.36-10.399,2.088c-2.295,3.449-1.36,8.104,2.088,10.399
		C432.102,146.29,455,188.994,455,235c0,46.005-22.898,88.71-61.253,114.234c-3.448,2.294-4.383,6.95-2.088,10.399
		c1.445,2.171,3.825,3.346,6.25,3.346c1.427,0,2.871-0.407,4.148-1.257C444.601,333.41,470,286.037,470,235
		C470,183.962,444.601,136.59,402.058,108.279z"/>
	<path d="M110.367,78.341c3.448,2.295,8.104,1.359,10.399-2.088C146.29,37.898,188.994,15,235,15
		c46.005,0,88.71,22.898,114.234,61.253c1.445,2.171,3.825,3.346,6.25,3.346c1.427,0,2.871-0.407,4.148-1.257
		c3.448-2.295,4.383-6.95,2.088-10.399C333.41,25.399,286.037,0,235,0c-51.038,0-98.41,25.399-126.721,67.942
		C105.984,71.391,106.919,76.046,110.367,78.341z"/>
	<path d="M76.252,349.234C37.898,323.71,15,281.006,15,235c0-46.005,22.898-88.71,61.253-114.234
		c3.448-2.294,4.383-6.95,2.088-10.399c-2.295-3.448-6.951-4.383-10.399-2.088C25.399,136.59,0,183.963,0,235
		c0,51.038,25.399,98.41,67.942,126.721c1.278,0.851,2.721,1.257,4.148,1.257c2.426,0,4.806-1.175,6.25-3.346
		C80.636,356.184,79.701,351.528,76.252,349.234z"/>
	<path d="M374.102,363.496C405.344,329.7,424.468,284.544,424.468,235s-19.124-94.7-50.366-128.496l5.336-5.336
		c2.929-2.929,2.929-7.678,0-10.606c-2.929-2.929-7.678-2.929-10.606,0l-5.336,5.336C329.7,64.656,284.544,45.532,235,45.532
		s-94.7,19.124-128.496,50.366l-5.336-5.336c-2.929-2.929-7.678-2.929-10.606,0c-2.929,2.929-2.929,7.678,0,10.606l5.336,5.336
		C64.656,140.3,45.532,185.456,45.532,235s19.124,94.7,50.366,128.496l-5.336,5.336c-2.929,2.929-2.929,7.678,0,10.606
		c1.464,1.464,3.384,2.197,5.303,2.197s3.839-0.732,5.303-2.197l5.336-5.336C140.3,405.344,185.456,424.468,235,424.468
		s94.7-19.124,128.496-50.366l5.336,5.336c1.464,1.464,3.384,2.197,5.303,2.197s3.839-0.732,5.303-2.197
		c2.929-2.929,2.929-7.678,0-10.606L374.102,363.496z M308.625,393.148l-24.137-58.272c21.788-10.84,39.548-28.6,50.388-50.388
		l58.273,24.137C375.795,345.75,345.75,375.795,308.625,393.148z M76.852,308.625l58.273-24.137
		c10.84,21.788,28.6,39.548,50.388,50.388l-24.137,58.272C124.25,375.795,94.205,345.75,76.852,308.625z M138.518,235
		c0-53.2,43.282-96.482,96.482-96.482S331.482,181.8,331.482,235S288.2,331.482,235,331.482S138.518,288.2,138.518,235z
		 M393.148,161.375l-58.273,24.137c-10.84-21.788-28.6-39.548-50.388-50.388l24.137-58.272
		C345.75,94.205,375.795,124.25,393.148,161.375z M398.917,294.778l-58.276-24.139c3.787-11.195,5.842-23.182,5.842-35.639
		s-2.055-24.444-5.842-35.639l58.276-24.139c6.824,18.655,10.552,38.789,10.552,59.778S405.741,276.123,398.917,294.778z
		 M294.778,71.083l-24.139,58.276c-11.195-3.787-23.182-5.842-35.639-5.842c-12.458,0-24.444,2.055-35.639,5.842l-6.405-15.463
		c-1.585-3.827-5.972-5.643-9.799-4.059c-3.827,1.585-5.644,5.973-4.059,9.799l6.416,15.488
		c-21.788,10.84-39.548,28.6-50.388,50.388l-58.273-24.137c17.353-37.125,47.398-67.17,84.523-84.523l6.241,15.068
		c1.196,2.888,3.989,4.632,6.932,4.632c0.957,0,1.929-0.184,2.867-0.573c3.827-1.585,5.644-5.973,4.059-9.799l-6.253-15.096
		c18.655-6.825,38.789-10.552,59.778-10.552C255.989,60.532,276.123,64.259,294.778,71.083z M71.083,175.222l58.276,24.139
		c-3.787,11.195-5.842,23.182-5.842,35.639s2.055,24.444,5.842,35.639l-58.276,24.139C64.259,276.123,60.532,255.989,60.532,235
		S64.259,193.877,71.083,175.222z M175.222,398.917l24.139-58.276c11.195,3.787,23.182,5.842,35.639,5.842
		s24.444-2.055,35.639-5.842l24.139,58.276c-18.655,6.824-38.789,10.552-59.778,10.552S193.877,405.741,175.222,398.917z"/>
</g>
<g>
</g>
<g>
</g>
<g>
</g>
<g>
</g>
<g>
</g>
<g>
</g>
<g>
</g>
<g>
</g>
<g>
</g>
<g>
</g>
<g>
</g>
<g>
</g>
<g>
</g>
<g>
</g>
<g>
</g>
</svg>
