<?xml version="1.0" encoding="iso-8859-1"?>
<!-- Generator: Adobe Illustrator 19.0.0, SVG Export Plug-In . SVG Version: 6.00 Build 0)  -->
<svg version="1.1" id="Capa_1" xmlns="http://www.w3.org/2000/svg" xmlns:xlink="http://www.w3.org/1999/xlink" x="0px" y="0px"
	 viewBox="0 0 470 470" style="enable-background:new 0 0 470 470;" xml:space="preserve">
<g>
	<path d="M462.5,401.184H7.5c-4.142,0-7.5,3.358-7.5,7.5s3.358,7.5,7.5,7.5h455c4.142,0,7.5-3.358,7.5-7.5
		S466.642,401.184,462.5,401.184z"/>
	<path d="M462.5,371.184H7.5c-4.142,0-7.5,3.358-7.5,7.5s3.358,7.5,7.5,7.5h455c4.142,0,7.5-3.358,7.5-7.5
		S466.642,371.184,462.5,371.184z"/>
	<path d="M462.5,53.816H7.5c-4.142,0-7.5,3.358-7.5,7.5v287.368c0,4.142,3.358,7.5,7.5,7.5h455c4.142,0,7.5-3.358,7.5-7.5V61.316
		C470,57.174,466.642,53.816,462.5,53.816z M455,341.184H15V68.816h440V341.184z"/>
	<path d="M37.5,278.746c22.022,0,39.938,17.916,39.938,39.938c0,4.142,3.358,7.5,7.5,7.5h300.124c4.142,0,7.5-3.358,7.5-7.5
		c0-22.022,17.916-39.938,39.938-39.938c4.142,0,7.5-3.358,7.5-7.5V138.754c0-4.142-3.358-7.5-7.5-7.5
		c-22.022,0-39.938-17.916-39.938-39.938c0-4.142-3.358-7.5-7.5-7.5h-30c-4.142,0-7.5,3.358-7.5,7.5s3.358,7.5,7.5,7.5h23.01
		c3.333,24.304,22.624,43.595,46.928,46.928v118.512c-24.304,3.333-43.595,22.625-46.928,46.928H91.928
		C88.596,286.88,69.304,267.589,45,264.256V145.744c24.304-3.333,43.595-22.624,46.928-46.928l233.133,0c4.142,0,7.5-3.358,7.5-7.5
		s-3.358-7.5-7.5-7.5l-240.124,0c-4.142,0-7.5,3.358-7.5,7.5c0,22.022-17.916,39.938-39.938,39.938c-4.142,0-7.5,3.358-7.5,7.5
		v132.492C30,275.388,33.358,278.746,37.5,278.746z"/>
	<path d="M235,113.816c-50.279,0-91.184,40.905-91.184,91.184s40.905,91.184,91.184,91.184s91.184-40.905,91.184-91.184
		S285.279,113.816,235,113.816z M235,281.184c-42.008,0-76.184-34.176-76.184-76.184s34.176-76.184,76.184-76.184
		s76.184,34.176,76.184,76.184S277.008,281.184,235,281.184z"/>
	<path d="M256.548,157.5c-8.075,0-15.723,3.04-21.548,8.298c-5.825-5.259-13.473-8.298-21.548-8.298
		c-17.73,0-32.155,14.425-32.155,32.155c0,7.061,2.249,13.765,6.502,19.387l41.22,54.483c1.417,1.874,3.631,2.975,5.981,2.975
		s4.563-1.101,5.981-2.975l41.22-54.482c4.253-5.622,6.502-12.326,6.502-19.387C288.703,171.925,274.278,157.5,256.548,157.5z
		 M270.239,199.992L235,246.569l-35.239-46.578c-2.266-2.995-3.464-6.569-3.464-10.336c0-9.459,7.696-17.155,17.155-17.155
		c6.218,0,11.963,3.383,14.995,8.829c1.324,2.378,3.832,3.853,6.553,3.853s5.229-1.474,6.553-3.853
		c3.031-5.446,8.777-8.829,14.995-8.829c9.459,0,17.155,7.696,17.155,17.155C273.703,193.422,272.505,196.997,270.239,199.992z"/>
</g>
<g>
</g>
<g>
</g>
<g>
</g>
<g>
</g>
<g>
</g>
<g>
</g>
<g>
</g>
<g>
</g>
<g>
</g>
<g>
</g>
<g>
</g>
<g>
</g>
<g>
</g>
<g>
</g>
<g>
</g>
</svg>
