<?xml version="1.0" encoding="iso-8859-1"?>
<!-- Generator: Adobe Illustrator 19.0.0, SVG Export Plug-In . SVG Version: 6.00 Build 0)  -->
<svg version="1.1" id="Capa_1" xmlns="http://www.w3.org/2000/svg" xmlns:xlink="http://www.w3.org/1999/xlink" x="0px" y="0px"
	 viewBox="0 0 470 470" style="enable-background:new 0 0 470 470;" xml:space="preserve">
<g>
	<path d="M220.716,354.75c-3.305-2.5-8.008-1.847-10.507,1.456l-69.447,91.792l-12.547-27.18c-1.05-2.273-3.164-3.873-5.637-4.264
		l-29.566-4.682l82.214-108.666c2.499-3.303,1.847-8.007-1.456-10.506c-3.305-2.499-8.007-1.847-10.507,1.456L73.502,412.798
		c-1.59,2.102-1.96,4.884-0.975,7.328c0.984,2.444,3.18,4.193,5.783,4.605l37.965,6.012l16.11,34.9
		c1.104,2.393,3.384,4.03,6.004,4.313c0.27,0.029,0.539,0.043,0.807,0.043c2.333,0,4.554-1.09,5.98-2.975l76.995-101.769
		C224.671,361.953,224.018,357.249,220.716,354.75z"/>
	<path d="M396.498,412.799L291.349,273.819l48.208-63.719c17.343-22.92,26.51-50.249,26.51-79.032C366.067,58.797,307.27,0,235,0
		c-72.271,0-131.068,58.797-131.068,131.067c0,28.785,9.167,56.113,26.508,79.03l194.383,256.927
		c1.427,1.885,3.646,2.975,5.98,2.975c0.268,0,0.537-0.014,0.807-0.043c2.62-0.283,4.899-1.92,6.004-4.313l16.11-34.9l37.966-6.012
		c2.604-0.412,4.799-2.16,5.784-4.605C398.458,417.682,398.088,414.9,396.498,412.799z M347.421,416.554
		c-2.473,0.392-4.587,1.991-5.637,4.264l-12.547,27.18L142.401,201.047c-15.354-20.291-23.47-44.489-23.47-69.979
		C118.932,67.068,171,15,235,15s116.067,52.068,116.067,116.067c0,25.489-8.116,49.688-23.472,69.982l-45.65,60.339l-37.541-49.62
		l35.442-46.847c7.421-9.807,11.344-21.514,11.344-33.854c0-30.984-25.207-56.191-56.19-56.191
		c-30.984,0-56.191,25.207-56.191,56.191c0,12.34,3.922,24.046,11.341,33.852l38.78,51.258c0.056,0.077,0.113,0.153,0.173,0.228
		l46.766,61.812c0.061,0.084,0.123,0.167,0.188,0.248l100.932,133.407L347.421,416.554z M235,199.338l-32.889-43.47
		c-5.432-7.179-8.303-15.755-8.303-24.801c0-22.713,18.479-41.191,41.191-41.191s41.19,18.478,41.19,41.191
		c0,9.046-2.872,17.623-8.306,24.803L235,199.338z"/>
</g>
<g>
</g>
<g>
</g>
<g>
</g>
<g>
</g>
<g>
</g>
<g>
</g>
<g>
</g>
<g>
</g>
<g>
</g>
<g>
</g>
<g>
</g>
<g>
</g>
<g>
</g>
<g>
</g>
<g>
</g>
</svg>
