<?xml version="1.0" encoding="iso-8859-1"?>
<!-- Generator: Adobe Illustrator 19.0.0, SVG Export Plug-In . SVG Version: 6.00 Build 0)  -->
<svg version="1.1" id="Capa_1" xmlns="http://www.w3.org/2000/svg" xmlns:xlink="http://www.w3.org/1999/xlink" x="0px" y="0px"
	 viewBox="0 0 470 470" style="enable-background:new 0 0 470 470;" xml:space="preserve">
<g>
	<path d="M229.019,177.372c1.418,1.874,3.632,2.975,5.981,2.975s4.563-1.101,5.981-2.975l72.506-95.835
		c6.729-8.891,10.284-19.496,10.284-30.667C323.771,22.82,300.952,0,272.902,0c-14.669,0-28.448,6.344-37.993,17.062
		C225.651,6.603,212.131,0,197.098,0c-28.05,0-50.869,22.82-50.869,50.869c0,11.172,3.556,21.776,10.283,30.667L229.019,177.372z
		 M197.098,15c19.573,0,35.497,15.924,35.497,35.498c0,4.142,3.357,7.5,7.5,7.5s7.5-3.358,7.5-7.5
		c0-7.126-1.483-13.911-4.158-20.064C250.103,20.833,261.095,15,272.902,15c19.778,0,35.869,16.091,35.869,35.869
		c0,7.877-2.505,15.352-7.246,21.617L235,160.417l-66.526-87.932c-4.74-6.264-7.245-13.738-7.245-21.616
		C161.229,31.091,177.319,15,197.098,15z"/>
	<path d="M412.781,280.679l-174.506-84.701c-2.068-1.004-4.482-1.004-6.551,0L57.219,280.679c-3.726,1.809-5.28,6.295-3.472,10.022
		s6.297,5.282,10.022,3.472l5.058-2.455V462.5c0,4.142,3.357,7.5,7.5,7.5h110.985c4.143,0,7.5-3.358,7.5-7.5V320.504h80.375v22.5
		c0,4.142,3.357,7.5,7.5,7.5s7.5-3.358,7.5-7.5v-30c0-4.142-3.357-7.5-7.5-7.5h-95.375c-4.143,0-7.5,3.358-7.5,7.5V455H83.827
		V284.438L235,211.062l151.173,73.375V455h-95.985v-81.996c0-4.142-3.357-7.5-7.5-7.5s-7.5,3.358-7.5,7.5V462.5
		c0,4.142,3.357,7.5,7.5,7.5h110.985c4.143,0,7.5-3.358,7.5-7.5V291.718l5.058,2.455c1.056,0.512,2.171,0.755,3.27,0.755
		c2.783,0,5.456-1.556,6.753-4.227C418.062,286.974,416.507,282.487,412.781,280.679z"/>
</g>
<g>
</g>
<g>
</g>
<g>
</g>
<g>
</g>
<g>
</g>
<g>
</g>
<g>
</g>
<g>
</g>
<g>
</g>
<g>
</g>
<g>
</g>
<g>
</g>
<g>
</g>
<g>
</g>
<g>
</g>
</svg>
