<?xml version="1.0" encoding="iso-8859-1"?>
<!-- Generator: Adobe Illustrator 19.0.0, SVG Export Plug-In . SVG Version: 6.00 Build 0)  -->
<svg version="1.1" id="Capa_1" xmlns="http://www.w3.org/2000/svg" xmlns:xlink="http://www.w3.org/1999/xlink" x="0px" y="0px"
	 viewBox="0 0 470 470" style="enable-background:new 0 0 470 470;" xml:space="preserve">
<g>
	<path d="M459.752,108.252L343.191,51.677V7.5c0-4.142-3.358-7.5-7.5-7.5s-7.5,3.358-7.5,7.5v36.896L238.275,0.753
		c-2.068-1.004-4.481-1.004-6.55,0l-221.478,107.5c-3.727,1.809-5.281,6.295-3.472,10.022c1.808,3.726,6.295,5.281,10.022,3.472
		l9.32-4.524V462.5c0,4.142,3.358,7.5,7.5,7.5h402.766c4.142,0,7.5-3.358,7.5-7.5V117.223l9.32,4.524
		c1.055,0.512,2.17,0.754,3.27,0.754c2.782,0,5.456-1.555,6.752-4.227C465.034,114.548,463.479,110.061,459.752,108.252z
		 M428.883,455H41.117V109.942L235,15.837l193.883,94.105V455z"/>
	<path d="M165,301.501h-50c-4.142,0-7.5,3.358-7.5,7.5s3.358,7.5,7.5,7.5h50c4.142,0,7.5-3.358,7.5-7.5S169.142,301.501,165,301.501
		z"/>
	<path d="M92.5,190.006v-52.24c0-4.142-3.358-7.5-7.5-7.5s-7.5,3.358-7.5,7.5V432.5c0,4.142,3.358,7.5,7.5,7.5s7.5-3.358,7.5-7.5
		v-31.109H195c4.142,0,7.5-3.358,7.5-7.5v-47.39h175v39.89H225c-4.142,0-7.5,3.358-7.5,7.5s3.358,7.5,7.5,7.5h152.5V432.5
		c0,4.142,3.358,7.5,7.5,7.5s7.5-3.358,7.5-7.5V137.767c0-4.142-3.358-7.5-7.5-7.5s-7.5,3.358-7.5,7.5v52.24H92.5z M187.5,205.006
		v39.89h-95v-39.89H187.5z M187.5,386.391h-95v-39.89h95V386.391z M92.5,331.501v-71.605H195c4.142,0,7.5-3.358,7.5-7.5v-47.39h175
		v39.89H225c-4.142,0-7.5,3.358-7.5,7.5s3.358,7.5,7.5,7.5h152.5v71.605H92.5z"/>
	<path d="M115,175.006h50c4.142,0,7.5-3.358,7.5-7.5s-3.358-7.5-7.5-7.5h-50c-4.142,0-7.5,3.358-7.5,7.5
		S110.858,175.006,115,175.006z"/>
</g>
<g>
</g>
<g>
</g>
<g>
</g>
<g>
</g>
<g>
</g>
<g>
</g>
<g>
</g>
<g>
</g>
<g>
</g>
<g>
</g>
<g>
</g>
<g>
</g>
<g>
</g>
<g>
</g>
<g>
</g>
</svg>
