<?xml version="1.0" encoding="iso-8859-1"?>
<!-- Generator: Adobe Illustrator 19.0.0, SVG Export Plug-In . SVG Version: 6.00 Build 0)  -->
<svg version="1.1" id="Capa_1" xmlns="http://www.w3.org/2000/svg" xmlns:xlink="http://www.w3.org/1999/xlink" x="0px" y="0px"
	 viewBox="0 0 470 470" style="enable-background:new 0 0 470 470;" xml:space="preserve">
<g>
	<path d="M334.63,181.032c-3.327-2.469-8.023-1.774-10.492,1.553c-14.058,18.939-45.132,33.127-83.126,37.953
		c-3.746,0.476-6.555,3.664-6.555,7.44v46.702c0,4.114-3.348,7.461-7.462,7.461s-7.461-3.347-7.461-7.461v-44.887
		c0-4.133-3.344-7.487-7.476-7.5c-9.874-0.032-19.685-0.697-29.16-1.978c-2.141-0.29-4.311,0.36-5.94,1.785
		s-2.564,3.483-2.564,5.647v97.499c0,7.954-6.472,14.425-14.427,14.425c-7.954,0-14.426-6.471-14.426-14.425V216.628
		c0-3.078-1.88-5.843-4.742-6.975c-16.87-6.67-30.051-15.49-38.118-25.505c-2.598-3.226-7.318-3.736-10.546-1.136
		c-3.226,2.598-3.734,7.319-1.136,10.545c8.883,11.029,22.488,20.677,39.542,28.08v103.608c0,16.225,13.2,29.425,29.426,29.425
		s29.427-13.2,29.427-29.425v-89.079c4.995,0.486,10.053,0.816,15.141,0.988v37.525c0,12.385,10.076,22.461,22.461,22.461
		c12.386,0,22.462-10.076,22.462-22.461v-40.193c39.024-6.139,71.146-21.972,86.726-42.962
		C338.651,188.198,337.956,183.5,334.63,181.032z"/>
	<path d="M56.84,134.554h356.32c4.143,0,7.5-3.358,7.5-7.5s-3.357-7.5-7.5-7.5h-6.523c-41.314-48.594-100.595-77.18-164.136-79.27
		V15.147h30.187c4.143,0,7.5-3.358,7.5-7.5s-3.357-7.5-7.5-7.5h-75.374c-4.143,0-7.5,3.358-7.5,7.5s3.357,7.5,7.5,7.5h30.188v25.136
		c-63.542,2.09-122.823,30.676-164.137,79.27H56.84c-4.143,0-7.5,3.358-7.5,7.5S52.697,134.554,56.84,134.554z M235.001,55.147
		c57.553,0,111.871,23.292,151.431,64.407H83.57C123.129,78.44,177.447,55.147,235.001,55.147z"/>
	<path d="M447.5,212.775h-36.84v-48.221h2.5c4.143,0,7.5-3.358,7.5-7.5s-3.357-7.5-7.5-7.5H56.84c-4.143,0-7.5,3.358-7.5,7.5
		s3.357,7.5,7.5,7.5h2.5v48.221H22.5c-12.406,0-22.5,10.093-22.5,22.5s10.094,22.5,22.5,22.5h14.34c4.143,0,7.5-3.358,7.5-7.5
		s-3.357-7.5-7.5-7.5H22.5c-4.136,0-7.5-3.364-7.5-7.5s3.364-7.5,7.5-7.5h36.84v158.387c0,46.147,37.544,83.691,83.691,83.691
		h183.938c46.147,0,83.691-37.543,83.691-83.691V227.775h36.84c4.136,0,7.5,3.364,7.5,7.5s-3.364,7.5-7.5,7.5h-14.34
		c-4.143,0-7.5,3.358-7.5,7.5s3.357,7.5,7.5,7.5h14.34c12.406,0,22.5-10.093,22.5-22.5S459.906,212.775,447.5,212.775z
		 M395.66,386.162c0,37.876-30.814,68.691-68.691,68.691H143.031c-37.877,0-68.691-30.814-68.691-68.691V227.775h12.57
		c4.143,0,7.5-3.358,7.5-7.5s-3.357-7.5-7.5-7.5H74.34v-48.221h321.32v48.221h-12.57c-4.143,0-7.5,3.358-7.5,7.5s3.357,7.5,7.5,7.5
		h12.57V386.162z"/>
</g>
<g>
</g>
<g>
</g>
<g>
</g>
<g>
</g>
<g>
</g>
<g>
</g>
<g>
</g>
<g>
</g>
<g>
</g>
<g>
</g>
<g>
</g>
<g>
</g>
<g>
</g>
<g>
</g>
<g>
</g>
</svg>
