<?xml version="1.0" encoding="iso-8859-1"?>
<!-- Generator: Adobe Illustrator 19.0.0, SVG Export Plug-In . SVG Version: 6.00 Build 0)  -->
<svg version="1.1" id="Capa_1" xmlns="http://www.w3.org/2000/svg" xmlns:xlink="http://www.w3.org/1999/xlink" x="0px" y="0px"
	 viewBox="0 0 470 470" style="enable-background:new 0 0 470 470;" xml:space="preserve">
<g>
	<path d="M359.521,212.758H110.479c-9.262,0-16.796,7.535-16.796,16.796v44.597c0,4.142,3.357,7.5,7.5,7.5h1.494V462.5
		c0,4.142,3.357,7.5,7.5,7.5H359.22c4.143,0,7.5-3.358,7.5-7.5V281.652h2.097c4.143,0,7.5-3.358,7.5-7.5v-44.597
		C376.316,220.293,368.782,212.758,359.521,212.758z M351.72,455H117.678V281.652H299.22c4.143,0,7.5-3.358,7.5-7.5
		s-3.357-7.5-7.5-7.5H108.684v-37.097c0-0.991,0.806-1.796,1.796-1.796h249.041c0.99,0,1.796,0.806,1.796,1.796v37.097H329.22
		c-4.143,0-7.5,3.358-7.5,7.5s3.357,7.5,7.5,7.5h22.5V455z"/>
	<path d="M412.716,14.461H301.475V7.5c0-4.142-3.357-7.5-7.5-7.5s-7.5,3.358-7.5,7.5v6.961h-15.987V7.5c0-4.142-3.357-7.5-7.5-7.5
		s-7.5,3.358-7.5,7.5v6.961H242.5V7.5c0-4.142-3.357-7.5-7.5-7.5s-7.5,3.358-7.5,7.5v6.961h-12.987V7.5c0-4.142-3.357-7.5-7.5-7.5
		s-7.5,3.358-7.5,7.5v6.961h-12.987V7.5c0-4.142-3.357-7.5-7.5-7.5s-7.5,3.358-7.5,7.5v6.961H57.284c-4.143,0-7.5,3.358-7.5,7.5
		s3.357,7.5,7.5,7.5h5.11V462.5c0,4.142,3.357,7.5,7.5,7.5s7.5-3.358,7.5-7.5V29.461h94.131v6.961c0,4.142,3.357,7.5,7.5,7.5
		s7.5-3.358,7.5-7.5v-6.961h12.987v6.961c0,4.142,3.357,7.5,7.5,7.5s7.5-3.358,7.5-7.5v-6.961H227.5v49.165
		c-18.7,3.167-33.489,17.955-36.656,36.656h-3.14c-4.143,0-7.5,3.358-7.5,7.5s3.357,7.5,7.5,7.5h3.547l9.071,60.109
		c0.554,3.668,3.706,6.381,7.416,6.381h54.523c3.71,0,6.862-2.712,7.416-6.381l9.071-60.109h3.547c4.143,0,7.5-3.358,7.5-7.5
		s-3.357-7.5-7.5-7.5h-3.14c-3.167-18.7-17.956-33.489-36.656-36.656V29.461h12.987v6.961c0,4.142,3.357,7.5,7.5,7.5
		s7.5-3.358,7.5-7.5v-6.961h15.987v6.961c0,4.142,3.357,7.5,7.5,7.5s7.5-3.358,7.5-7.5v-6.961h90.528V462.5
		c0,4.142,3.357,7.5,7.5,7.5s7.5-3.358,7.5-7.5V29.461h5.713c4.143,0,7.5-3.358,7.5-7.5S416.858,14.461,412.716,14.461z
		 M255.809,181.771h-41.617l-7.77-51.49h57.158L255.809,181.771z M263.833,115.281h-57.666c2.71-10.413,10.92-18.627,21.333-21.337
		v1.87c0,4.142,3.357,7.5,7.5,7.5s7.5-3.358,7.5-7.5v-1.87C252.913,96.655,261.123,104.869,263.833,115.281z"/>
	<path d="M161.495,424.013h-20c-4.143,0-7.5,3.358-7.5,7.5s3.357,7.5,7.5,7.5h20c4.143,0,7.5-3.358,7.5-7.5
		S165.638,424.013,161.495,424.013z"/>
	<path d="M307.902,328.627c-4.143,0-7.5,3.358-7.5,7.5s3.357,7.5,7.5,7.5h20c4.143,0,7.5-3.358,7.5-7.5s-3.357-7.5-7.5-7.5H307.902z
		"/>
	<path d="M192.482,393.025h-20c-4.143,0-7.5,3.358-7.5,7.5s3.357,7.5,7.5,7.5h20c4.143,0,7.5-3.358,7.5-7.5
		S196.625,393.025,192.482,393.025z"/>
</g>
<g>
</g>
<g>
</g>
<g>
</g>
<g>
</g>
<g>
</g>
<g>
</g>
<g>
</g>
<g>
</g>
<g>
</g>
<g>
</g>
<g>
</g>
<g>
</g>
<g>
</g>
<g>
</g>
<g>
</g>
</svg>
