<?xml version="1.0" encoding="utf-8"?>
<!-- Generator: Adobe Illustrator 21.1.0, SVG Export Plug-In . SVG Version: 6.00 Build 0)  -->
<svg version="1.1" id="Layer_1" xmlns="http://www.w3.org/2000/svg" xmlns:xlink="http://www.w3.org/1999/xlink" x="0px" y="0px"
	 width="280px" height="450px" viewBox="0 0 280 450" style="enable-background:new 0 0 280 450;" xml:space="preserve">
<style type="text/css">
	.st0{clip-path:url(#SVGID_2_);fill:#FFC23F;}
	.st1{clip-path:url(#SVGID_4_);fill:#FFC23F;}
	.st2{clip-path:url(#SVGID_6_);fill:#FFC23F;}
	.st3{clip-path:url(#SVGID_8_);fill:#FFC23F;}
	.st4{clip-path:url(#SVGID_10_);fill:#FFC23F;}
	.st5{clip-path:url(#SVGID_12_);fill:#FFC23F;}
	.st6{clip-path:url(#SVGID_14_);fill:#FFC23F;}
	.st7{clip-path:url(#SVGID_16_);fill:#FFC23F;}
	.st8{clip-path:url(#SVGID_18_);fill:#FFC23F;}
	.st9{clip-path:url(#SVGID_20_);fill:#FFC23F;}
	.st10{clip-path:url(#SVGID_22_);fill:#FFC23F;}
	.st11{clip-path:url(#SVGID_24_);fill:#FFC23F;}
	.st12{clip-path:url(#SVGID_26_);fill:#FFC23F;}
	.st13{clip-path:url(#SVGID_28_);fill:#FFC23F;}
	.st14{clip-path:url(#SVGID_30_);fill:#FFC23F;}
	.st15{clip-path:url(#SVGID_32_);fill:#FFC23F;}
	.st16{clip-path:url(#SVGID_34_);fill:#FFC23F;}
	.st17{clip-path:url(#SVGID_36_);fill:#FFC23F;}
	.st18{clip-path:url(#SVGID_38_);fill:#FFC23F;}
	.st19{clip-path:url(#SVGID_40_);fill:#FFC23F;}
	.st20{clip-path:url(#SVGID_42_);fill:#FFC23F;}
	.st21{clip-path:url(#SVGID_44_);fill:#FFC23F;}
	.st22{clip-path:url(#SVGID_46_);fill:#FFC23F;}
	.st23{clip-path:url(#SVGID_48_);fill:#FFC23F;}
	.st24{clip-path:url(#SVGID_50_);fill:#FFC23F;}
	.st25{clip-path:url(#SVGID_52_);fill:#FFC23F;}
	.st26{clip-path:url(#SVGID_54_);fill:#FFC23F;}
	.st27{clip-path:url(#SVGID_56_);fill:#FFC23F;}
	.st28{clip-path:url(#SVGID_58_);fill:#FFC23F;}
	.st29{clip-path:url(#SVGID_60_);fill:#FFC23F;}
	.st30{clip-path:url(#SVGID_62_);fill:#FFC23F;}
</style>
<g>
	<g>
		<defs>
			<rect id="SVGID_1_" width="280" height="450"/>
		</defs>
		<clipPath id="SVGID_2_">
			<use xlink:href="#SVGID_1_"  style="overflow:visible;"/>
		</clipPath>
		<path class="st0" d="M213,449.2c0.4,0,0.8,0.1,1.3,0.1L213,449.2z"/>
	</g>
	<g>
		<defs>
			<rect id="SVGID_3_" width="280" height="450"/>
		</defs>
		<clipPath id="SVGID_4_">
			<use xlink:href="#SVGID_3_"  style="overflow:visible;"/>
		</clipPath>
		<path class="st1" d="M278.5,382.2c0,1,0.1,1.4,0.1,1.4C278.6,382.7,278.5,382,278.5,382.2"/>
	</g>
	<g>
		<defs>
			<rect id="SVGID_5_" width="280" height="450"/>
		</defs>
		<clipPath id="SVGID_6_">
			<use xlink:href="#SVGID_5_"  style="overflow:visible;"/>
		</clipPath>
		<path class="st2" d="M279.1,360.9c0,0.5,0,0.9,0,1.3C279.1,361.7,279.2,361.2,279.1,360.9"/>
	</g>
	<g>
		<defs>
			<rect id="SVGID_7_" width="280" height="450"/>
		</defs>
		<clipPath id="SVGID_8_">
			<use xlink:href="#SVGID_7_"  style="overflow:visible;"/>
		</clipPath>
		<path class="st3" d="M214.3,449.2l3.4,0.2C217.9,449.2,215.9,449.3,214.3,449.2"/>
	</g>
	<g>
		<defs>
			<rect id="SVGID_9_" width="280" height="450"/>
		</defs>
		<clipPath id="SVGID_10_">
			<use xlink:href="#SVGID_9_"  style="overflow:visible;"/>
		</clipPath>
		<path class="st4" d="M158.9,449.7h-1c-0.3,0.1-0.6,0.2-0.8,0.2L158.9,449.7z"/>
	</g>
	<g>
		<defs>
			<rect id="SVGID_11_" width="280" height="450"/>
		</defs>
		<clipPath id="SVGID_12_">
			<use xlink:href="#SVGID_11_"  style="overflow:visible;"/>
		</clipPath>
		<path class="st5" d="M116.4,449.8c1,0,1.3-0.5,1.7-0.7c-0.5,0.2-1.3,0.3-2.1,0.4C116,449.6,116.1,449.7,116.4,449.8"/>
	</g>
	<g>
		<defs>
			<rect id="SVGID_13_" width="280" height="450"/>
		</defs>
		<clipPath id="SVGID_14_">
			<use xlink:href="#SVGID_13_"  style="overflow:visible;"/>
		</clipPath>
		<path class="st6" d="M49,448.9l-1.2,0.1C48.1,449,48.6,448.9,49,448.9"/>
	</g>
	<g>
		<defs>
			<rect id="SVGID_15_" width="280" height="450"/>
		</defs>
		<clipPath id="SVGID_16_">
			<use xlink:href="#SVGID_15_"  style="overflow:visible;"/>
		</clipPath>
		<path class="st7" d="M189.3,449.8c0.1,0.1,0.2,0.1,0.4,0.2C189.7,450,189.6,449.9,189.3,449.8"/>
	</g>
	<g>
		<defs>
			<rect id="SVGID_17_" width="280" height="450"/>
		</defs>
		<clipPath id="SVGID_18_">
			<use xlink:href="#SVGID_17_"  style="overflow:visible;"/>
		</clipPath>
		<path class="st8" d="M2.6,439.3v-0.7c-0.1-0.1-0.2-0.1-0.3-0.1L2.6,439.3z"/>
	</g>
	<g>
		<defs>
			<rect id="SVGID_19_" width="280" height="450"/>
		</defs>
		<clipPath id="SVGID_20_">
			<use xlink:href="#SVGID_19_"  style="overflow:visible;"/>
		</clipPath>
		<path class="st9" d="M279.8,321.9c0,0.1,0,0.1,0,0.2C279.8,323.1,279.8,322.6,279.8,321.9"/>
	</g>
	<g>
		<defs>
			<rect id="SVGID_21_" width="280" height="450"/>
		</defs>
		<clipPath id="SVGID_22_">
			<use xlink:href="#SVGID_21_"  style="overflow:visible;"/>
		</clipPath>
		<path class="st10" d="M234,0.8c4.1,0.5-6.6,0.6-0.5,1.1C232.9,1.7,239.1,1.1,234,0.8"/>
	</g>
	<g>
		<defs>
			<rect id="SVGID_23_" width="280" height="450"/>
		</defs>
		<clipPath id="SVGID_24_">
			<use xlink:href="#SVGID_23_"  style="overflow:visible;"/>
		</clipPath>
		<path class="st11" d="M279.3,232.9c0.1,0,0.1-0.2,0.2-0.9C279.4,232.2,279.3,232.5,279.3,232.9"/>
	</g>
	<g>
		<defs>
			<rect id="SVGID_25_" width="280" height="450"/>
		</defs>
		<clipPath id="SVGID_26_">
			<use xlink:href="#SVGID_25_"  style="overflow:visible;"/>
		</clipPath>
		<path class="st12" d="M278.7,299l0.1-1.7C278.8,298,278.8,298.6,278.7,299"/>
	</g>
	<g>
		<defs>
			<rect id="SVGID_27_" width="280" height="450"/>
		</defs>
		<clipPath id="SVGID_28_">
			<use xlink:href="#SVGID_27_"  style="overflow:visible;"/>
		</clipPath>
		<path class="st13" d="M278.8,196.5c0,0.2,0,0.4,0,0.7C278.8,197,278.8,196.7,278.8,196.5"/>
	</g>
	<g>
		<defs>
			<rect id="SVGID_29_" width="280" height="450"/>
		</defs>
		<clipPath id="SVGID_30_">
			<use xlink:href="#SVGID_29_"  style="overflow:visible;"/>
		</clipPath>
		<path class="st14" d="M278.8,196.5c0-0.5,0-0.9,0-1.7c0,0.1,0,0.2-0.1,0.4C278.8,195.5,278.8,195.9,278.8,196.5"/>
	</g>
	<g>
		<defs>
			<rect id="SVGID_31_" width="280" height="450"/>
		</defs>
		<clipPath id="SVGID_32_">
			<use xlink:href="#SVGID_31_"  style="overflow:visible;"/>
		</clipPath>
		<path class="st15" d="M278.7,161.1c0,0.2-0.1,0.5-0.1,0.7c0,0.4,0,0.8,0,1.2L278.7,161.1z"/>
	</g>
	<g>
		<defs>
			<rect id="SVGID_33_" width="280" height="450"/>
		</defs>
		<clipPath id="SVGID_34_">
			<use xlink:href="#SVGID_33_"  style="overflow:visible;"/>
		</clipPath>
		<path class="st16" d="M182.2,449.3c2.7,0.1,6.1,0.3,7.2,0.6c-0.2-0.2,0-0.5,2-0.5c5.2,0,1.8,0.4,4.8,0.6c1.3-0.3,4.6,0,4.7-0.5
			c1.5,0,1.8,0.3,2.4,0.4c2.7-0.2,12.6-0.1,9.5-0.6h-0.7c0.1,0,0.3,0,0.4,0c8.8-0.5,18.3,0.3,27.1,0.1v0.2
			c5.2-0.2,11.6-0.1,15.4-0.5c1.5,0,3.6,0.3,3,0.6c4-0.1,4.4-0.3,10.2,0c-4,0.3,1.4,0.3-4.1,0.2c1.3,0.1,2.3,0.1,3.3,0.1
			c0.9,0.1,1.9,0.1,2.8-0.1c0.9-0.2,1.9-0.5,2.8-1c1-0.6,2-1.4,2.9-2.7c-0.3,0.5-0.2,0.5,0.1,0.3c0.2-0.1,0.4-0.3,0.6-0.6
			c0.2-0.3,0.5-0.6,0.7-1c0.5-0.7,0.9-1.7,1.2-2.7c0.3-1,0.3-2,0.3-2.7c-0.1,1.4-0.5,2.8-1.2,3.9c0.6-1.5,0.8-3,0.8-4.3
			c0-1.3,0-2.5,0-3.7l0.6,1.3c0.7-10.5-1.3-19,0-27.1c-0.4-2.8-0.3,5.7-0.8,3.2c0.1-4.8,1-9.9,1-11.4c0.3-6.7-0.9-6.2-0.7-13.2
			c-0.2,0.9-0.8,1.8-1-3.4c0.1-4.8,0.9-6,1.1-3c0,1.2-0.1,1.8-0.1,1.7c0.1,1.6,0.2,3.6,0.4,1.7l-0.2-0.6c0.2-2.4,0.2-9.1,0.6-7.5
			c-0.2-3.1-0.3-2.1-0.4,0c0.2-5.5,0-9.1,0.2-15.1c-0.1,1-0.4,2-0.4,1c0.3-9.4-0.4-4.1-0.5-10.5c0.3-3.6,0.8,1.3,0.5-5.1
			c0.2-3.9,0.6-0.8,0.8,0.7c-0.4-5.8,0.3-10.9,0.4-14.3l0.2,3.1c-0.1-1.9-0.1-3.3-0.1-4.9l-0.4,1.8c0.1-1.8,0.1-3.3,0.3-3.3
			c-0.3-1.9-0.7,1.4-1.1-2.3c0.2-2.4-0.2-7.4,0.3-8.2c-0.2,6.9,0.4,0.6,0.6,4.1c0-0.9,0-2,0.1-3.1c0.1-0.3,0.1,0.3,0.2,0.8
			c0.5-7.3-0.7-3.3-0.6-10.8c0.3,1,0.6-1.8,0.5-3c0,3.1-0.5,1.5-0.8-1.4c0.3-4.8-0.2-5.2-0.2-7.8l-0.1,2.9c-0.3-1-0.3-3.3-0.4-6.8
			c0.3-0.3,0.2,3.1,0.3,1.9c-0.6-3.7,0.6-8.5,0.2-13.7c0.2-2.5,0.6-0.2,0.8-2.4c-0.4-5.8,0.4-6.3,0.1-12.4c-0.4,1.8-0.3,2.1-0.8-2.3
			l0.3,10l-0.6-6.5c0,3.1,0.3,6.4,0.2,8.3c-0.4-3.1-0.2-2.8-0.6-1.3c0.7-4.1-0.4-8.3,0.1-13.1l1.1,0.1c0.5-7.3-0.6-12.9-0.3-22.2
			l-0.2,3.1c-0.4-1.3-0.1-5.8-0.2-8.9c0.4,0.3,0.5-1.6,0.7-3c-0.3,0.2,0-6.9-0.7-7.8l0.5-4.2c0.2-7.6-1-8.7-0.9-15.9
			c0.4,2.2,0.6-1.1,0.9,3.7c0-2.5,0.1-4.6-0.2-4.6c0.2-1.4-0.5-6.8-0.1-9c-0.2-1-0.5-1.4-0.5-4.1c0-0.2,0.1-0.1,0.1-0.1
			c-0.1-0.6-0.2-4-0.6-1.8c1.1-7.5-0.1-21,0.9-27.5c-0.1-5.3-0.2-11.7-0.3-16.5c0.1,0.3,0.2,0,0.1,0.9c0.3-6.7-1-4.1-0.7-11.6
			c0.6-3.8,0.3,4,0.5,1.6c1.2-1.1-0.2-9.2,0.5-14.3l0.1,1.3c0.4-3.9-0.4-9.5-0.4-15.8c0,0,0.1,0.3,0.2,0c-0.6-4.3-0.8-12.6-1-18.7
			c0.5,1.9,0.2,2.8,0.7,1.6c-0.1-2.8-0.8,0.8-0.9-4.6c0.3-1.8,0.5-5.7,1-6.3V84c0.7-2.7,0-6.7,0.1-9.4l0.3,0.4
			c-0.1-7.9-0.8-8.1-0.8-16.5l-0.2,0.9c-0.7-4.6,0.4-3.9-0.1-8.6l0.7-1.4c-0.2-3.1-0.7-10.7-0.8-16.2c0.5,3.1,0.8,9.5,1.1,13.6
			c0-3.1-0.1-10.3-0.4-11.9c0.1,1.2,0.2,2.8,0.1,3.9c-0.6-3.7-0.8-8.7-0.8-14.7c0.7,0.5,0.8-3.4,0.8-8.1c0-1.2,0-2.4,0-3.5
			c0-0.3,0-0.6,0-0.9c0-0.3,0-0.7,0-1c0-0.3-0.1-0.7-0.1-1c-0.1-0.3-0.1-0.6-0.2-1c-0.7-2.5-2.1-4.3-2.9-5.3c-1.3-1-2.8-1.8-4.3-2.2
			C270.8,1.1,270.4,1,270,1c-0.4-0.1-0.8-0.1-1.2-0.1h-0.6h-0.5h-1c-2.7,0-5.4,0-8.2-0.1c-5.6-0.1-11.4-0.3-17.7-0.2
			c4.5,1.1-3.7,0-2.9,1.2c-2.9,0.1-4,0.1-4.3,0h0.6c-0.3,0-0.4,0-0.6-0.1l0,0L224.7,1c-2.1-0.3,2.8-0.2,2.5-0.5
			c-6.4-0.1-2.7-0.5-6.9-0.8c0.9,0.4-2.2,0.6-5.9,0.4l5.1,0.5c-9,0.6-7.7-0.9-16.8-0.4l2.9-0.4C201,0,188.5-0.2,184,0.7
			c-0.9,0.3-2,0,0-0.1c-11.1-0.1-24.6,1-33.3,0.4l0.8-0.3c-2.1,0.1-3.6,0.5-6.2,0.2c0.1-0.1,0.8-0.3-0.1-0.3
			c-1.1,0.1-5.5,0.5-8.2,0.3l2.3-0.3c-10.8-0.4-16.6,0.8-25.6,0.9c0-0.8-8.5-1.1-12.7-1.2l0.1-0.1c-12.6-0.1-21.4,0.7-33,1
			C61,0.4,43.7,1,32.1,0.5c1.8,0.1-0.3,0.6-2.4,0.7C27,1,22.2,1.7,22.7,1h1c-1-0.4-2.9-0.5-5.1-0.5c-1.1,0-2.3,0-3.4,0
			c-0.6,0-1.2,0-1.7,0c-0.3,0-0.6,0-0.9,0c-0.3,0-0.5,0-0.9,0c-0.3,0.3-0.6,0.7-0.8,1C9,1.5,7.2,2,5.5,3.1C4.7,3.5,3.9,4.2,3.2,5
			C2.6,5.8,2,6.7,1.6,7.7s-0.7,2-0.8,3.1c-0.1,0.5-0.1,1.1-0.1,1.6v1.3c0,1.8,0.1,3.4,0.1,5.2c0.1,6.8,0.3,12.9-0.3,16
			c0.2,2.8,0.2,6.1,0.5,8.9l-0.5-0.1C0.4,51.2,0.3,55,0.4,64.4l-0.4-2c0,5.3,1.5,6.7,1.5,11.6l-0.8,1.5c0,9.2-0.7,18.6,0,27.7
			c-0.1-0.2-0.3-0.4-0.4-2c0,4.2-0.5,15.9,0.4,15.4c-0.5,1.1,0.1,9.7,0.3,14.5l-0.5-0.8c0.7,4.2,0.8,4.3,1,10.2
			c-0.1,1.4-0.4,1.2-0.3-0.6c-0.3,4.6,0.5,3.6,0.2,9.2l-0.3-2.1c0,4.8,0.1,4.4,0.5,7.1c0.2,3.1-0.1,9.1-0.6,9.7
			c0.3,0.7,0.7,3.2,0.5,6.1c-0.2,0.4-0.3-0.7-0.3-1.2c-0.3,8,0.6,11.9,0.1,17.4c-0.2,0.1-0.3,0.5-0.3,0.9c0-5.8,0-10.6,0.1-11
			c-0.5,0.1-0.5,5.1-1.2,1.1c0.4,4.1,1.1,11.1,0.9,16.1c0,0.2-0.1,0.5-0.2,0.7l-0.1-0.5c0,1.2,0,2.2,0.1,3.1
			c-0.1,1.6-0.1,2.7-0.1,4.1c-0.4,0.6-0.2,5.9-0.2,8.5c0.5-0.2,0.4,3.1,0.8,0.1c0,0.1-0.1-0.8-0.1-2.3c0-0.4,0-0.9-0.1-1.1
			c0,0.1,0,0.1,0,0.2c0-1.7,0-3.8,0-6.4c0.3,2.1,0.5,4.1,0.2,7c0.3,1.3,0.7,2.8,0.8,3.5c-0.7,3.5-1.1,10.2-1.5,11.2
			c0.3,7.8,0.2,18.4,1.2,23.3c0.1,2.3-0.3,2.6-0.4,3.3c-0.1-1.3-0.1-2.9-0.2-3.5c0.2,4.4,0.1,13.2,0.8,14.3
			c-0.3,5.6-0.6-3.1-0.5,4.5l-0.2-1.1C0,277.6,2.8,287,1.4,303.9c0.1-1.2,0.1-1.8,0.2-2C1,321,2.2,341.4,1.2,360.2
			c-0.2,5.4,0.2,5.9,0.6,9.2l-0.6,1.2l0.6,5.6c0.5,8-1.4,13.8-0.5,23.8l0.4-1.3c-0.1,3.6,0.2,11.4-0.2,10.8c0.1,0.4,0.4,1.2,0.2,2.6
			l-0.3,0.1l0.5,8.9c-0.2,6.9-1.1-1.1-1.2,9c0.1,3.7,0.8,10.6,1,9.2c0-1.5,0.2-3.8,0.5-3.9l0.2,3.4c0.1,0,0.1,0.1,0.2,0.1v0.6
			c0,5,4.1,9.1,9.2,9.1H38l-0.4,0.1l1.2-0.1h5.3c-0.2,0.1-0.7,0.2-1.7,0.2c3.8,0.4,3.4-0.3,6.6,0.2c0.4,0.1,0.2,0.1-0.1,0.1l3.7-0.2
			c-0.7,0.2,0.6,0.5-1.7,0.4c6.7,0.4,10.8-0.6,13.3,0h-0.6c6.9-0.2,4-0.4,5-0.8h4.3l3.2,1l0.9-0.6c1,0,2.8,0.1,2.5,0.3
			c3.6-0.4-0.6-0.2,1.5-0.6c4.6,0.5,12.7-0.2,13.7,0.7c1.7-0.4-4.4-0.3,0.5-0.6c1.4,1,5.7-0.2,9.9,0.3c-1.3,0.5-5.3,0.2-1.1,0.7
			c2.5-0.8,8.2,0.2,11.7,0c0.2-0.7,7.7-0.3,13.7-0.5c-0.4,0.2,11.2,0.4,16.7,0.6l-0.2,0.1c1.1-0.7,6.8-0.5,10.9-0.7
			c-0.2,0.4-0.9,0.6-3.2,0.7h3.9c0.9-0.2,2.1-0.3,4.7-0.4l-1,0.5c5.2,0,10.5-0.6,17.2-0.3c0.3-0.3-2.3-0.8-1.7-1.2h3.6
			c-0.1,0.2-0.5,0.3-1.5,0.4c0.6,0,2.2-0.2,3.4-0.1l-2.8,0.4c3,0.2,1.6-0.4,4-0.3c0,0.4,1.8,0.3,1.5,0.5
			C184.6,449.3,183.1,449.1,182.2,449.3 M0.8,204.5c0,0,0,0.2,0.1,0.2c-0.1-0.2-0.2-0.4-0.3-0.7c-0.1-1.7,0-2.3,0.1-2.5
			C0.7,202.3,0.7,203.2,0.8,204.5 M50.6,448.5c-0.2,0-0.4-0.1-0.5-0.1h2.2C51.8,448.4,51.2,448.4,50.6,448.5"/>
	</g>
	<g>
		<defs>
			<rect id="SVGID_35_" width="280" height="450"/>
		</defs>
		<clipPath id="SVGID_36_">
			<use xlink:href="#SVGID_35_"  style="overflow:visible;"/>
		</clipPath>
		<path class="st17" d="M1.3,209.2C1.3,209.3,1.3,209.3,1.3,209.2C1.3,209.3,1.3,209.3,1.3,209.2"/>
	</g>
	<g>
		<defs>
			<rect id="SVGID_37_" width="280" height="450"/>
		</defs>
		<clipPath id="SVGID_38_">
			<use xlink:href="#SVGID_37_"  style="overflow:visible;"/>
		</clipPath>
		<path class="st18" d="M279.6,324.2c0,0.5,0,1,0,1.5C279.6,325.1,279.6,324.6,279.6,324.2"/>
	</g>
	<g>
		<defs>
			<rect id="SVGID_39_" width="280" height="450"/>
		</defs>
		<clipPath id="SVGID_40_">
			<use xlink:href="#SVGID_39_"  style="overflow:visible;"/>
		</clipPath>
		<path class="st19" d="M1.3,176.1L1.3,176.1C1.3,176,1.3,176,1.3,176.1"/>
	</g>
	<g>
		<defs>
			<rect id="SVGID_41_" width="280" height="450"/>
		</defs>
		<clipPath id="SVGID_42_">
			<use xlink:href="#SVGID_41_"  style="overflow:visible;"/>
		</clipPath>
		<path class="st20" d="M278.4,191C278.4,191.1,278.4,191.1,278.4,191C278.4,191.1,278.4,191.1,278.4,191"/>
	</g>
	<g>
		<defs>
			<rect id="SVGID_43_" width="280" height="450"/>
		</defs>
		<clipPath id="SVGID_44_">
			<use xlink:href="#SVGID_43_"  style="overflow:visible;"/>
		</clipPath>
		<path class="st21" d="M1.2,207c0,0.3,0,0.4,0,0.7c0-0.4,0.1-0.7,0.1-1c-0.1-0.2-0.1-0.4-0.2-0.6C1.2,206.5,1.2,206.7,1.2,207"/>
	</g>
	<g>
		<defs>
			<rect id="SVGID_45_" width="280" height="450"/>
		</defs>
		<clipPath id="SVGID_46_">
			<use xlink:href="#SVGID_45_"  style="overflow:visible;"/>
		</clipPath>
		<path class="st22" d="M213,449.2c-0.1,0-0.3,0-0.4-0.1c0.1,0,0.1,0,0.2,0L213,449.2z"/>
	</g>
	<g>
		<defs>
			<rect id="SVGID_47_" width="280" height="450"/>
		</defs>
		<clipPath id="SVGID_48_">
			<use xlink:href="#SVGID_47_"  style="overflow:visible;"/>
		</clipPath>
		<path class="st23" d="M212.5,449.1C212.5,449.1,212.6,449.1,212.5,449.1C212.6,449.1,212.6,449.1,212.5,449.1"/>
	</g>
	<g>
		<defs>
			<rect id="SVGID_49_" width="280" height="450"/>
		</defs>
		<clipPath id="SVGID_50_">
			<use xlink:href="#SVGID_49_"  style="overflow:visible;"/>
		</clipPath>
		<path class="st24" d="M89.2,449.3l-6.7-0.1c1.2,0.2,2.7,0.5-0.3,0.5C90.6,450.2,80.5,449.2,89.2,449.3"/>
	</g>
	<g>
		<defs>
			<rect id="SVGID_51_" width="280" height="450"/>
		</defs>
		<clipPath id="SVGID_52_">
			<use xlink:href="#SVGID_51_"  style="overflow:visible;"/>
		</clipPath>
		<path class="st25" d="M109.9,449.6c-3.6,0.1,0,0.3-0.1,0.4C112.1,449.8,112.6,449.7,109.9,449.6"/>
	</g>
	<g>
		<defs>
			<rect id="SVGID_53_" width="280" height="450"/>
		</defs>
		<clipPath id="SVGID_54_">
			<use xlink:href="#SVGID_53_"  style="overflow:visible;"/>
		</clipPath>
		<path class="st26" d="M259.5,449.6l-0.4,0.5C261.9,450,259.1,449.9,259.5,449.6"/>
	</g>
	<g>
		<defs>
			<rect id="SVGID_55_" width="280" height="450"/>
		</defs>
		<clipPath id="SVGID_56_">
			<use xlink:href="#SVGID_55_"  style="overflow:visible;"/>
		</clipPath>
		<polygon class="st27" points="279.4,418.2 279.3,413.7 279.4,417 		"/>
	</g>
	<g>
		<defs>
			<rect id="SVGID_57_" width="280" height="450"/>
		</defs>
		<clipPath id="SVGID_58_">
			<use xlink:href="#SVGID_57_"  style="overflow:visible;"/>
		</clipPath>
		<path class="st28" d="M279.2,167.5l-0.6,0.8C278.7,170.2,279.4,170.6,279.2,167.5"/>
	</g>
	<g>
		<defs>
			<rect id="SVGID_59_" width="280" height="450"/>
		</defs>
		<clipPath id="SVGID_60_">
			<use xlink:href="#SVGID_59_"  style="overflow:visible;"/>
		</clipPath>
		<path class="st29" d="M278.6,59.8c0.3-1.2,0.5-4.2,0.2-6.1C278.8,56.2,278.5,58.6,278.6,59.8"/>
	</g>
	<g>
		<defs>
			<rect id="SVGID_61_" width="280" height="450"/>
		</defs>
		<clipPath id="SVGID_62_">
			<use xlink:href="#SVGID_61_"  style="overflow:visible;"/>
		</clipPath>
		<path class="st30" d="M4.5,3.4c0.3-0.3,0.7-0.6,1-0.9C5.9,2.3,6.2,2,6.7,1.8c-1.5,0.8-2.8,2-3.8,3.3C3.3,4.5,3.9,3.9,4.5,3.4"/>
	</g>
</g>
</svg>
