<?xml version="1.0" encoding="utf-8"?>
<!-- Generator: Adobe Illustrator 21.1.0, SVG Export Plug-In . SVG Version: 6.00 Build 0)  -->
<svg version="1.1" id="Layer_1" xmlns="http://www.w3.org/2000/svg" xmlns:xlink="http://www.w3.org/1999/xlink" x="0px" y="0px"
	 width="1010px" height="300px" viewBox="0 0 1010 300" style="enable-background:new 0 0 1010 300;" xml:space="preserve">
<style type="text/css">
	.st0{clip-path:url(#SVGID_2_);}
	.st1{clip-path:url(#SVGID_2_);fill:#FFC23F;}
</style>
<g>
	<defs>
		<rect id="SVGID_1_" width="1010" height="300"/>
	</defs>
	<clipPath id="SVGID_2_">
		<use xlink:href="#SVGID_1_"  style="overflow:visible;"/>
	</clipPath>
	<path class="st0" d="M918,2.1c-0.6,0-1.5-0.1-2.4-0.1L918,2.1z"/>
	<path class="st0" d="M688,1.7c1.7,0,2.5-0.1,2.5-0.1C689,1.6,687.7,1.6,688,1.7"/>
	<path class="st0" d="M649.2,0.9c0.8,0,1.5,0,2.3,0C650.6,0.9,649.7,0.9,649.2,0.9"/>
	<path class="st0" d="M915.6,2l-6.1-0.2C909.1,2,912.7,2,915.6,2"/>
	<path class="st0" d="M1009.7,14.7l0,1.8c0.1,0.5,0.2,1,0.3,1.5L1009.7,14.7z"/>
	<path class="st0" d="M1009.8,90.5c0-1.7-0.5-2.3-0.8-3c0.2,1,0.3,2.2,0.4,3.7C1009.5,91.3,1009.7,91.1,1009.8,90.5"/>
	<path class="st0" d="M1008.8,210.8l0.1,2.1C1008.9,212.4,1008.9,211.5,1008.8,210.8"/>
	<path class="st0" d="M960.8,1.4c-0.1-0.1-0.4-0.2-0.7-0.2C960.1,1.2,960.4,1.3,960.8,1.4"/>
	<path class="st0" d="M996.8,297.5l1.5-0.3l-1.2,0C997,297.3,996.8,297.4,996.8,297.5"/>
	<path class="st0" d="M578.1,0.2c0.1,0,0.2,0,0.3,0C580.3,0.2,579.2,0.2,578.1,0.2"/>
	<path class="st0" d="M0.9,83.9c0.5-7.3,0.6,11.9,1.2,0.9C1.9,85.8,1.2,74.8,0.9,83.9"/>
	<path class="st0" d="M415.9,0.8c-0.1-0.1-0.4-0.1-1.7-0.2C414.6,0.7,415.2,0.7,415.9,0.8"/>
	<path class="st0" d="M536.3,1.3l-3-0.1C534.5,1.3,535.4,1.3,536.3,1.3"/>
	<path class="st0" d="M349.5,1.3c-0.8,0-1.6,0-3.1,0c0.2,0,0.4,0,0.7,0.1C347.7,1.3,348.4,1.3,349.5,1.3"/>
	<path class="st0" d="M349.5,1.3c0.4,0,0.8,0,1.3,0C350.4,1.3,349.9,1.3,349.5,1.3"/>
	<path class="st0" d="M284.9,1.3c0.3,0,0.8,0.1,1.2,0.1c0.7,0,1.4,0,2.1,0L284.9,1.3z"/>
	<path class="st0" d="M339.5,1.8c0.1,0,0.2,0,0.2,0C339.7,1.7,339.6,1.7,339.5,1.8"/>
	<path class="st0" d="M518.5,298.6C518.5,298.6,518.5,298.6,518.5,298.6C518.4,298.6,518.5,298.6,518.5,298.6"/>
	<path class="st0" d="M453.2,298.5c-0.2,0-0.5,0-0.8,0C452.8,298.5,453,298.5,453.2,298.5"/>
	<path class="st0" d="M749.6,298.2c0.5,0,1,0,1.7,0.1C750.7,298.3,750.1,298.3,749.6,298.2"/>
	<path class="st0" d="M582.4,0.4c0.9,0,1.8,0,2.6,0C583.9,0.4,583.1,0.4,582.4,0.4"/>
	<path class="st1" d="M1009.3,162.1l-0.6-1.6c0-1.7,0.1-5.1,0.3-4.5c-0.4-6.4-0.3,1.1-0.7-2.6c0.6-8.2-0.3-22.6,0.7-24.5
		c-0.5-2.9-0.4,7.9-0.7-0.9c1-2.5-0.2-10.1,0.3-17.6c0.5,2.3,0.3,9.4,0.7,1.9c-0.9-4.5,0.2-14.6,0-20.9c-0.7-0.3-0.3-13.8-0.5-24.4
		c0.2,0.7,0.4-20,0.7-29.9l0.1,0.3c-0.7-1.9-0.6-12.1-0.7-19.5c0.4,0.3,0.6,1.6,0.8,5.6l0-7c-0.1-0.8-0.2-1.8-0.3-3.1
		c-0.1-1.3-0.1-3.3-1.3-5.5c0.5,0.5,0.9,1,1.2,1.6c-0.8-2.6-2.5-4.9-4.9-6.3c-1.2-0.7-2.5-1.2-3.9-1.5l-1-0.1c-0.4,0-0.7,0-1.1,0
		c-0.6,0-1.3,0-1.9,0c-5.1,0.1-10.5,0.2-16.6,0c-0.5,0.3,4.1,0.9,3.1,1.3h-6.6c0.2-0.2,0.9-0.3,2.7-0.4c-1.1,0-3.9,0.2-6.1,0.1
		l5.1-0.5c-5.5-0.2-2.9,0.4-7.3,0.3c0.1-0.4-3.3-0.3-2.6-0.6c1.1,0,3.8,0.2,5.5,0c-5-0.1-11-0.3-13-0.6c0.4,0.2,0,0.5-3.6,0.6
		c-9.4,0-3.2-0.5-8.7-0.7c-2.3,0.3-8.3,0-8.5,0.6c-2.8,0-3.3-0.3-4.3-0.4c-4.9,0.3-22.8,0.1-17.3,0.7l1.3,0c-0.2,0-0.5,0-0.8,0
		c-16,0.6-33.2-0.3-49.1-0.1l0-0.2C860.3,2.1,848.7,2,842,2.4c-2.8,0-6.6-0.4-5.4-0.6c-7.2,0.1-8,0.4-18.5,0
		c7.3-0.3-2.5-0.3,7.5-0.2c-9.4-0.2-11.5-0.5-21.6,0.1c3.4-0.5-7.1-0.6-11.6-0.5l6.6,0.4c-5,0.1-9.4,0-13.9,0l2.4-0.7
		c-19.2-0.8-34.7,1.4-49.4,0c-5.1,0.5,10.5,0.3,5.9,0.9c-8.9-0.1-18.1-1-20.8-1c-12.1-0.4-11.3,1-24,0.7c1.6,0.2,3.2,0.9-6.3,1.1
		c-8.9-0.1-10.9-1-5.3-1.2c2.1,0,3.1,0.1,3.1,0.1c2.9-0.1,6.6-0.2,3.1-0.4l-1.2,0.2c-4.4-0.2-16.6-0.2-13.7-0.6
		c-5.7,0.2-3.8,0.3,0,0.4c-10.1-0.2-16.4,0-27.4-0.2c1.9,0.1,3.6,0.4,1.7,0.4C636,1.1,645.6,1.8,634,1.9c-6.6-0.4,2.4-0.8-9.3-0.6
		c-7.1-0.2-1.5-0.6,1.3-0.8c-10.7,0.4-19.9-0.3-26-0.4l5.6-0.2c-3.4,0.1-6.1,0.1-8.9,0.1l3.2,0.5c-3.3-0.1-6.1-0.1-6-0.3
		c-3.4,0.3,2.6,0.8-4.1,1.2c-4.4-0.2-13.4,0.3-14.9-0.4c12.5,0.2,1.1-0.5,7.5-0.7c-1.7,0-3.6,0-5.7-0.1c-0.5-0.1,0.5-0.1,1.4-0.2
		c-13.2-0.6-6.1,0.7-19.8,0.7c1.7-0.3-3.2-0.7-5.4-0.6c5.5,0,2.6,0.6-2.4,0.8c-8.8-0.3-9.6,0.2-14.2,0.2l5.3,0.1
		c-1.8,0.3-6.2,0.3-12.3,0.4c-0.5-0.3,5.6-0.2,3.4-0.3c-6.8,0.6-15.4-0.6-24.9-0.2c-4.4-0.2-0.4-0.7-4.3-0.8
		C492.8,1,492,0.1,480.8,0.4c3.2,0.5,3.8,0.4-4.1,0.8l18.4-0.3l-11.8,0.7c5.5,0,11.7-0.3,15-0.2c-5.6,0.4-5,0.3-2.4,0.7
		c-7.6-0.7-15,0.4-23.8-0.1l0.3-1.2c-13.2-0.5-23.4,0.6-40.5,0.3l5.5,0.2c-2.3,0.5-10.6,0.1-16.1,0.3c0.5-0.4-2.9-0.5-5.3-0.8
		c0.3,0.3-12.5,0-14.1,0.7L394.2,1c-13.8-0.2-15.8,1.1-29.1,1c4-0.4-2-0.7,6.9-1c-4.4,0-8.4-0.1-8.5,0.2c-2.6-0.2-12.3,0.5-16.4,0.2
		c-1.9,0.2-2.5,0.6-7.5,0.5c-0.3,0-0.3-0.1-0.1-0.1c-1.1,0.2-7.3,0.3-3.3,0.6c-13.7-1.2-38.2,0.1-50.1-1c-9.7,0.1-21.3,0.3-30.1,0.3
		c0.6-0.1,0-0.2,1.7-0.2c-12.1-0.4-7.5,1.1-21.3,0.7c-7-0.6,7.3-0.3,2.9-0.6c-1.9-1.3-16.7,0.2-25.9-0.6l2.2-0.1
		c-7.1-0.4-17.3,0.5-28.9,0.4c0,0,0.6-0.1,0.1-0.2c-7.9,0.6-22.9,0.9-34.1,1c3.5-0.5,5.1-0.3,3-0.8c-5,0.1,1.5,0.8-8.5,1
		c-3.2-0.3-10.4-0.5-11.4-1.1l9.4,0c-4.8-0.7-12.2,0-17.1-0.1l0.6-0.3C114.2,1.1,114,1.9,98.5,1.8l1.6,0.2C91.6,2.8,93,1.6,84.5,2.2
		L82,1.4c-5.6,0.2-19.6,0.7-29.6,0.9C58,1.7,69.8,1.5,77,1.1c-5.5,0-18.8,0.1-21.7,0.4c2.2-0.1,5-0.3,7.3-0.1
		C55.8,2,46.8,2.3,35.8,2.3c1-0.8-6.2-0.8-14.7-0.9c-2.1,0-4.3,0-6.5,0c-0.5,0-1.1,0-1.6,0c-0.6,0-1.2,0-1.8,0.2
		C10,1.7,8.8,2.1,7.8,2.6c-2.1,1-3.7,2.6-4.7,4.1C2,8.3,1.5,9.8,1.2,11c-0.1,0.4-0.1,0.7-0.1,1.1l0,0.5l0,0.5l0,1.8l0.1,3.6
		c0,2.4,0,4.8,0,7.2c0,4.8,0,9.7-0.1,14.7C1,50.4,0.8,60.7,0.9,71.9c1.2-8,0,6.5,1.3,5.2c0.1,5.2,0.1,7.2,0,7.7l0.1-1.1
		c0,0.5,0,0.7-0.1,1.1h0l-0.7,15.8c-0.4,3.8-0.3-5-0.5-4.5c-0.1,11.4-0.5,4.8-0.8,12.4c0.4-1.6,0.6,4,0.5,10.5l0.6-9.2
		c0.6,16-1,13.8-0.4,29.9l-0.4-5.1c0.2,8.3,0,30.5,1,38.6c-0.1,1.5-0.5,3.4-0.6-0.2c-0.1,19.8,1,44,0.4,59.3l-0.3-1.5
		c0.1,3.7,0.6,6.4,0.3,11c-0.1-0.2-0.3-1.5-0.3,0.2c0.1,2,0.5,9.8,0.3,14.7l-0.3-4.2c-0.2,9.6,0,17,0.3,24c0.1,3.5,0.3,6.9,0.4,10.4
		c0.1,2,0.6,4.2,1.8,6c0.6,0.9,1.3,1.8,2.2,2.5c0.8,0.7,1.8,1.4,2.9,1.8c-0.1,0.2,0.8,0.9,2.6,1.4c0.5,0.1,1,0.2,1.5,0.3
		c0.3,0,0.6,0.1,0.8,0.1c0.2,0,0.5,0,0.8,0c1,0.1,2.2,0.1,3.4,0.2c4.8,0.2,10.6,0.3,14.4,0.4l-0.3,0.1c22.8,0.1,38.7-0.7,59.8-1.1
		c13.1,0.9,44.4,0.4,65.4,0.9c-3.2-0.2,0.5-0.7,4.3-0.8c4.9,0.2,13.7-0.6,12.9,0.2l-1.8,0c3.7,0.8,13.9,0.6,21.8,0.6l1.3-1
		c20.7,1.5,54.3-0.6,65.6,0.8c5-0.3,11.2-0.3,16.2-0.5l-0.3,0.6c13.9,0.1,20.8,0.2,37.9,0.1l-3.5,0.4c9.7,0,12.2-1.6,21.1-1.6
		l2.7,0.8c16.9,0,33.9,0.7,50.6,0c-0.3,0.1-0.8,0.4-3.5,0.4c7.7,0,29.1,0.5,28-0.5c1.9,0.6,17.7-0.1,26.3-0.4l-1.4,0.5
		c7.7-0.7,7.9-0.9,18.7-1.1c2.3,0.1,2.3,0.4-0.4,0.3c7.6,0.2,6.2-0.5,16.1-0.3l-3.8,0.3c8.7,0,8-0.1,12.8-0.6
		c5.5-0.2,16.5,0.1,17.8,0.6c1.2-0.3,6-0.7,11.1-0.6c0.7,0.2-1.2,0.3-2.1,0.4c14.6,0.4,21.7-0.6,31.7-0.1c0.2,0.2,0.9,0.3,1.7,0.3
		c-10.6,0-19.2,0-20-0.1c0.1,0.5,9.3,0.6,1.9,1.3c7.5-0.4,20.4-1.2,29.5-1c0.4,0,0.9,0.1,1.2,0.2l-0.9,0.1c2.1,0.1,4,0,5.8-0.1
		c2.9,0.1,4.8,0.1,7.6,0.2c1.1,0.4,10.7,0.2,15.4,0.2c-0.4-0.6,5.7-0.5,0-0.9c0.7,0-0.9,0.1-4,0.1c-0.7,0-1.5,0-2,0.1
		c0.1,0,0.2,0,0.3,0c-3.1,0-7.1,0-11.6,0c3.7-0.3,7.5-0.5,12.7-0.2c2.4-0.4,5-0.7,6.5-0.9c6.4,0.8,18.7,1.2,20.4,1.7
		c14.2-0.3,33.6-0.2,42.5-1.2c4-0.1,4.7,0.3,6.2,0.5c-2.3,0.1-5.1,0.1-6.4,0.2c8.1-0.3,24-0.1,25.9-0.8c10.2,0.3-5.7,0.7,8.3,0.5
		l-1.9,0.2c27.1,1.1,44.2-1.7,73.7-0.4c-1,0-1.6-0.1-1.9-0.2c34.9,0.7,71.9-0.6,106.3,0.4c9.8,0.2,10.8-0.3,16.8-0.6l2.1,0.6
		l10.2-0.7c14.5-0.5,25.1,1.5,43.4,0.5l-2.4-0.4c6.6,0.1,20.8-0.2,19.7,0.2c0.7-0.1,2.2-0.4,4.7-0.2l0.2,0.3l16.2-0.5
		c12.5,0.2-2,1.2,16.3,1.3c6.8-0.1,19.4-0.9,16.8-1.1c-2.7,0-7-0.2-7.2-0.5l6.2-0.2c0.1-0.1,0.2-0.1,0.3-0.2h1c5.5,0,10-4.4,10-9.8
		v-57l0.2,0.7l-0.2-2.2v-9.4c0.1,0.3,0.2,1.2,0.3,3c0.4-6.8-0.3-6,0.2-11.9c0.1-0.6,0.1-0.4,0.1,0.2l-0.2-6.6c0.2,1.3,0.6-1.1,0.5,3
		c0.5-11.9-0.6-19.2,0-23.7l0,1c-0.2-12.4-0.4-7.1-0.8-8.9v-7.7L1009.3,162.1z M570.2,299.2c0.1,0,0.3-0.1,0.4-0.1
		c-0.3,0.1-0.6,0.2-1.2,0.3c-3.1,0.1-4.1,0-4.6-0.1C566.2,299.2,567.9,299.2,570.2,299.2 M1008.4,207.9c0,0.4-0.1,0.7-0.1,0.9v-4
		C1008.3,205.8,1008.3,206.8,1008.4,207.9"/>
	<path class="st0" d="M574.9,298.7c0.4,0,0.7,0,1.3,0c-0.6,0-1.2-0.1-1.8-0.1c-0.4,0.1-0.8,0.1-1.1,0.2
		C573.8,298.7,574.4,298.7,574.9,298.7"/>
	<path class="st0" d="M918,2.1c0.3,0,0.5,0,0.7,0.1c-0.1,0-0.2,0-0.3,0L918,2.1z"/>
	<path class="st0" d="M918.9,2.2c0,0-0.1,0-0.2,0C918.7,2.1,918.8,2.2,918.9,2.2"/>
	<path class="st0" d="M1009.2,139l-0.2,11.9c0.2-2.1,0.5-4.8,0.6,0.6C1010.3,136.5,1009.1,154.6,1009.2,139"/>
	<path class="st0" d="M1009.6,102.1c0.1,6.4,0.3-0.1,0.4,0.3C1009.8,98.3,1009.7,97.3,1009.6,102.1"/>
	<path class="st0" d="M833.9,1.6l0.6-0.5C829.7,1.2,834.1,1.3,833.9,1.6"/>
	<path class="st0" d="M833.9,1.6L833.9,1.6C833.9,1.6,833.9,1.6,833.9,1.6"/>
	<polygon class="st0" points="753.7,0.6 745.3,0.8 751.5,0.7 	"/>
	<path class="st0" d="M296.6,0.9l1.5,0.6C301.5,1.4,302.2,0.7,296.6,0.9"/>
	<path class="st0" d="M100.3,1.5C98.1,1.2,92.6,1,89.2,1.3C93.6,1.3,98,1.6,100.3,1.5"/>
	<polygon class="st0" points="201.2,299.7 208.6,299.5 205.1,299.5 	"/>
</g>
</svg>
