<?xml version="1.0" encoding="utf-8"?>
<!-- Generator: Adobe Illustrator 21.1.0, SVG Export Plug-In . SVG Version: 6.00 Build 0)  -->
<svg version="1.1" id="Layer_1" xmlns="http://www.w3.org/2000/svg" xmlns:xlink="http://www.w3.org/1999/xlink" x="0px" y="0px"
	 width="1010px" height="300px" viewBox="0 0 1010 300" style="enable-background:new 0 0 1010 300;" xml:space="preserve">
<style type="text/css">
	.st0{clip-path:url(#SVGID_44_);fill:#FFC23F;}
</style>
<g>
	<g>
		<defs>
			<rect id="SVGID_1_" width="1010" height="300"/>
		</defs>
		<clipPath id="SVGID_2_">
			<use xlink:href="#SVGID_1_"  style="overflow:visible;"/>
		</clipPath>
	</g>
	<g>
		<defs>
			<rect id="SVGID_3_" width="1010" height="300"/>
		</defs>
		<clipPath id="SVGID_4_">
			<use xlink:href="#SVGID_3_"  style="overflow:visible;"/>
		</clipPath>
	</g>
	<g>
		<defs>
			<rect id="SVGID_5_" width="1010" height="300"/>
		</defs>
		<clipPath id="SVGID_6_">
			<use xlink:href="#SVGID_5_"  style="overflow:visible;"/>
		</clipPath>
	</g>
	<g>
		<defs>
			<rect id="SVGID_7_" width="1010" height="300"/>
		</defs>
		<clipPath id="SVGID_8_">
			<use xlink:href="#SVGID_7_"  style="overflow:visible;"/>
		</clipPath>
	</g>
	<g>
		<defs>
			<rect id="SVGID_9_" width="1010" height="300"/>
		</defs>
		<clipPath id="SVGID_10_">
			<use xlink:href="#SVGID_9_"  style="overflow:visible;"/>
		</clipPath>
	</g>
	<g>
		<defs>
			<rect id="SVGID_11_" width="1010" height="300"/>
		</defs>
		<clipPath id="SVGID_12_">
			<use xlink:href="#SVGID_11_"  style="overflow:visible;"/>
		</clipPath>
	</g>
	<g>
		<defs>
			<rect id="SVGID_13_" width="1010" height="300"/>
		</defs>
		<clipPath id="SVGID_14_">
			<use xlink:href="#SVGID_13_"  style="overflow:visible;"/>
		</clipPath>
	</g>
	<g>
		<defs>
			<rect id="SVGID_15_" width="1010" height="300"/>
		</defs>
		<clipPath id="SVGID_16_">
			<use xlink:href="#SVGID_15_"  style="overflow:visible;"/>
		</clipPath>
	</g>
	<g>
		<defs>
			<rect id="SVGID_17_" width="1010" height="300"/>
		</defs>
		<clipPath id="SVGID_18_">
			<use xlink:href="#SVGID_17_"  style="overflow:visible;"/>
		</clipPath>
	</g>
	<g>
		<defs>
			<rect id="SVGID_19_" width="1010" height="300"/>
		</defs>
		<clipPath id="SVGID_20_">
			<use xlink:href="#SVGID_19_"  style="overflow:visible;"/>
		</clipPath>
	</g>
	<g>
		<defs>
			<rect id="SVGID_21_" width="1010" height="300"/>
		</defs>
		<clipPath id="SVGID_22_">
			<use xlink:href="#SVGID_21_"  style="overflow:visible;"/>
		</clipPath>
	</g>
	<g>
		<defs>
			<rect id="SVGID_23_" width="1010" height="300"/>
		</defs>
		<clipPath id="SVGID_24_">
			<use xlink:href="#SVGID_23_"  style="overflow:visible;"/>
		</clipPath>
	</g>
	<g>
		<defs>
			<rect id="SVGID_25_" width="1010" height="300"/>
		</defs>
		<clipPath id="SVGID_26_">
			<use xlink:href="#SVGID_25_"  style="overflow:visible;"/>
		</clipPath>
	</g>
	<g>
		<defs>
			<rect id="SVGID_27_" width="1010" height="300"/>
		</defs>
		<clipPath id="SVGID_28_">
			<use xlink:href="#SVGID_27_"  style="overflow:visible;"/>
		</clipPath>
	</g>
	<g>
		<defs>
			<rect id="SVGID_29_" width="1010" height="300"/>
		</defs>
		<clipPath id="SVGID_30_">
			<use xlink:href="#SVGID_29_"  style="overflow:visible;"/>
		</clipPath>
	</g>
	<g>
		<defs>
			<rect id="SVGID_31_" width="1010" height="300"/>
		</defs>
		<clipPath id="SVGID_32_">
			<use xlink:href="#SVGID_31_"  style="overflow:visible;"/>
		</clipPath>
	</g>
	<g>
		<defs>
			<rect id="SVGID_33_" width="1010" height="300"/>
		</defs>
		<clipPath id="SVGID_34_">
			<use xlink:href="#SVGID_33_"  style="overflow:visible;"/>
		</clipPath>
	</g>
	<g>
		<defs>
			<rect id="SVGID_35_" width="1010" height="300"/>
		</defs>
		<clipPath id="SVGID_36_">
			<use xlink:href="#SVGID_35_"  style="overflow:visible;"/>
		</clipPath>
	</g>
	<g>
		<defs>
			<rect id="SVGID_37_" width="1010" height="300"/>
		</defs>
		<clipPath id="SVGID_38_">
			<use xlink:href="#SVGID_37_"  style="overflow:visible;"/>
		</clipPath>
	</g>
	<g>
		<defs>
			<rect id="SVGID_39_" width="1010" height="300"/>
		</defs>
		<clipPath id="SVGID_40_">
			<use xlink:href="#SVGID_39_"  style="overflow:visible;"/>
		</clipPath>
	</g>
	<g>
		<defs>
			<rect id="SVGID_41_" width="1010" height="300"/>
		</defs>
		<clipPath id="SVGID_42_">
			<use xlink:href="#SVGID_41_"  style="overflow:visible;"/>
		</clipPath>
	</g>
	<g>
		<defs>
			<rect id="SVGID_43_" width="1010" height="300"/>
		</defs>
		<clipPath id="SVGID_44_">
			<use xlink:href="#SVGID_43_"  style="overflow:visible;"/>
		</clipPath>
		<path class="st0" d="M1009.3,162.1l-0.6-1.6c0-1.7,0.1-5.1,0.3-4.5c-0.4-6.4-0.3,1.1-0.7-2.6c0.6-8.2-0.3-22.6,0.7-24.5
			c-0.5-2.9-0.4,7.9-0.7-0.9c1-2.5-0.2-10.1,0.3-17.6c0.5,2.3,0.3,9.4,0.7,1.9c-0.9-4.5,0.2-14.6,0-20.9c-0.7-0.3-0.3-13.8-0.5-24.4
			c0.2,0.7,0.4-20,0.7-29.9l0.1,0.3c-0.7-1.9-0.6-12.1-0.7-19.5c0.4,0.3,0.6,1.6,0.8,5.6v-7c-0.1-0.8-0.2-1.8-0.3-3.1
			s-0.1-3.3-1.3-5.5c0.5,0.5,0.9,1,1.2,1.6c-0.8-2.6-2.5-4.9-4.9-6.3c-1.2-0.7-2.5-1.2-3.9-1.5l-1-0.1c-0.4,0-0.7,0-1.1,0
			c-0.6,0-1.3,0-1.9,0c-5.1,0.1-10.5,0.2-16.6,0c-0.5,0.3,4.1,0.9,3.1,1.3h-6.6c0.2-0.2,0.9-0.3,2.7-0.4c-1.1,0-3.9,0.2-6.1,0.1
			l5.1-0.5c-5.5-0.2-2.9,0.4-7.3,0.3c0.1-0.4-3.3-0.3-2.6-0.6c1.1,0,3.8,0.2,5.5,0c-5-0.1-11-0.3-13-0.6c0.4,0.2,0,0.5-3.6,0.6
			c-9.4,0-3.2-0.5-8.7-0.7c-2.3,0.3-8.3,0-8.5,0.6c-2.8,0-3.3-0.3-4.3-0.4c-4.9,0.3-22.8,0.1-17.3,0.7h1.3c-0.2,0-0.5,0-0.8,0
			c-16,0.6-33.2-0.3-49.1-0.1V1.7c-9.4,0.4-21,0.3-27.7,0.7c-2.8,0-6.6-0.4-5.4-0.6c-7.2,0.1-8,0.4-18.5,0c7.3-0.3-2.5-0.3,7.5-0.2
			c-9.4-0.2-11.5-0.5-21.6,0.1c3.4-0.5-7.1-0.6-11.6-0.5l6.6,0.4c-5,0.1-9.4,0-13.9,0l2.4-0.7c-19.2-0.8-34.7,1.4-49.4,0
			c-5.1,0.5,10.5,0.3,5.9,0.9c-8.9-0.1-18.1-1-20.8-1c-12.1-0.4-11.3,1-24,0.7c1.6,0.2,3.2,0.9-6.3,1.1c-8.9-0.1-10.9-1-5.3-1.2
			c2.1,0,3.1,0.1,3.1,0.1c2.9-0.1,6.6-0.2,3.1-0.4l-1.2,0.2c-4.4-0.2-16.6-0.2-13.7-0.6c-5.7,0.2-3.8,0.3,0,0.4
			c-10.1-0.2-16.4,0-27.4-0.2c1.9,0.1,3.6,0.4,1.7,0.4C636,1.1,645.6,1.8,634,1.9c-6.6-0.4,2.4-0.8-9.3-0.6
			c-7.1-0.2-1.5-0.6,1.3-0.8c-10.7,0.4-19.9-0.3-26-0.4l5.6-0.2C602.2,0,599.5,0,596.7,0l3.2,0.5c-3.3-0.1-6.1-0.1-6-0.3
			c-3.4,0.3,2.6,0.8-4.1,1.2c-4.4-0.2-13.4,0.3-14.9-0.4c12.5,0.2,1.1-0.5,7.5-0.7c-1.7,0-3.6,0-5.7-0.1c-0.5-0.1,0.5-0.1,1.4-0.2
			c-13.2-0.6-6.1,0.7-19.8,0.7c1.7-0.3-3.2-0.7-5.4-0.6c5.5,0,2.6,0.6-2.4,0.8c-8.8-0.3-9.6,0.2-14.2,0.2l5.3,0.1
			c-1.8,0.3-6.2,0.3-12.3,0.4c-0.5-0.3,5.6-0.2,3.4-0.3c-6.8,0.6-15.4-0.6-24.9-0.2c-4.4-0.2-0.4-0.7-4.3-0.8
			C492.8,1,492,0.1,480.8,0.4c3.2,0.5,3.8,0.4-4.1,0.8l18.4-0.3l-11.8,0.7c5.5,0,11.7-0.3,15-0.2c-5.6,0.4-5,0.3-2.4,0.7
			c-7.6-0.7-15,0.4-23.8-0.1l0.3-1.2c-13.2-0.5-23.4,0.6-40.5,0.3l5.5,0.2c-2.3,0.5-10.6,0.1-16.1,0.3c0.5-0.4-2.9-0.5-5.3-0.8
			c0.3,0.3-12.5,0-14.1,0.7L394.2,1c-13.8-0.2-15.8,1.1-29.1,1c4-0.4-2-0.7,6.9-1c-4.4,0-8.4-0.1-8.5,0.2
			c-2.6-0.2-12.3,0.5-16.4,0.2c-1.9,0.2-2.5,0.6-7.5,0.5c-0.3,0-0.3-0.1-0.1-0.1c-1.1,0.2-7.3,0.3-3.3,0.6
			c-13.7-1.2-38.2,0.1-50.1-1c-9.7,0.1-21.3,0.3-30.1,0.3c0.6-0.1,0-0.2,1.7-0.2c-12.1-0.4-7.5,1.1-21.3,0.7c-7-0.6,7.3-0.3,2.9-0.6
			c-1.9-1.3-16.7,0.2-25.9-0.6l2.2-0.1c-7.1-0.4-17.3,0.5-28.9,0.4c0,0,0.6-0.1,0.1-0.2c-7.9,0.6-22.9,0.9-34.1,1
			c3.5-0.5,5.1-0.3,3-0.8c-5,0.1,1.5,0.8-8.5,1C144,2,136.8,1.8,135.8,1.2h9.4c-4.8-0.7-12.2,0-17.1-0.1l0.6-0.3
			c-14.5,0.3-14.7,1.1-30.2,1l1.6,0.2C91.6,2.8,93,1.6,84.5,2.2L82,1.4c-5.6,0.2-19.6,0.7-29.6,0.9C58,1.7,69.8,1.5,77,1.1
			c-5.5,0-18.8,0.1-21.7,0.4c2.2-0.1,5-0.3,7.3-0.1C55.8,2,46.8,2.3,35.8,2.3c1-0.8-6.2-0.8-14.7-0.9c-2.1,0-4.3,0-6.5,0
			c-0.5,0-1.1,0-1.6,0c-0.6,0-1.2,0-1.8,0.2c-1.2,0.1-2.4,0.5-3.4,1c-2.1,1-3.7,2.6-4.7,4.1C2,8.3,1.5,9.8,1.2,11
			c-0.1,0.4-0.1,0.7-0.1,1.1v0.5v0.5v1.8l0.1,3.6c0,2.4,0,4.8,0,7.2c0,4.8,0,9.7-0.1,14.7C1,50.4,0.8,60.7,0.9,71.9
			c1.2-8,0,6.5,1.3,5.2c0.1,5.2,0.1,7.2,0,7.7l0.1-1.1c0,0.5,0,0.7-0.1,1.1l0,0l-0.7,15.8c-0.4,3.8-0.3-5-0.5-4.5
			c-0.1,11.4-0.5,4.8-0.8,12.4c0.4-1.6,0.6,4,0.5,10.5l0.6-9.2c0.6,16-1,13.8-0.4,29.9l-0.4-5.1c0.2,8.3,0,30.5,1,38.6
			c-0.1,1.5-0.5,3.4-0.6-0.2c-0.1,19.8,1,44,0.4,59.3L1,230.8c0.1,3.7,0.6,6.4,0.3,11C1.2,241.6,1,240.3,1,242
			c0.1,2,0.5,9.8,0.3,14.7L1,252.5c-0.2,9.6,0,17,0.3,24c0.1,3.5,0.3,6.9,0.4,10.4c0.1,2,0.6,4.2,1.8,6c0.6,0.9,1.3,1.8,2.2,2.5
			c0.8,0.7,1.8,1.4,2.9,1.8c-0.1,0.2,0.8,0.9,2.6,1.4c0.5,0.1,1,0.2,1.5,0.3c0.3,0,0.6,0.1,0.8,0.1s0.5,0,0.8,0
			c1,0.1,2.2,0.1,3.4,0.2c4.8,0.2,10.6,0.3,14.4,0.4l-0.3,0.1c22.8,0.1,38.7-0.7,59.8-1.1c13.1,0.9,44.4,0.4,65.4,0.9
			c-3.2-0.2,0.5-0.7,4.3-0.8c4.9,0.2,13.7-0.6,12.9,0.2h-1.8c3.7,0.8,13.9,0.6,21.8,0.6l1.3-1c20.7,1.5,54.3-0.6,65.6,0.8
			c5-0.3,11.2-0.3,16.2-0.5l-0.3,0.6c13.9,0.1,20.8,0.2,37.9,0.1l-3.5,0.4c9.7,0,12.2-1.6,21.1-1.6l2.7,0.8c16.9,0,33.9,0.7,50.6,0
			c-0.3,0.1-0.8,0.4-3.5,0.4c7.7,0,29.1,0.5,28-0.5c1.9,0.6,17.7-0.1,26.3-0.4l-1.4,0.5c7.7-0.7,7.9-0.9,18.7-1.1
			c2.3,0.1,2.3,0.4-0.4,0.3c7.6,0.2,6.2-0.5,16.1-0.3l-3.8,0.3c8.7,0,8-0.1,12.8-0.6c5.5-0.2,16.5,0.1,17.8,0.6
			c1.2-0.3,6-0.7,11.1-0.6c0.7,0.2-1.2,0.3-2.1,0.4c14.6,0.4,21.7-0.6,31.7-0.1c0.2,0.2,0.9,0.3,1.7,0.3c-10.6,0-19.2,0-20-0.1
			c0.1,0.5,9.3,0.6,1.9,1.3c7.5-0.4,20.4-1.2,29.5-1c0.4,0,0.9,0.1,1.2,0.2l-0.9,0.1c2.1,0.1,4,0,5.8-0.1c2.9,0.1,4.8,0.1,7.6,0.2
			c1.1,0.4,10.7,0.2,15.4,0.2c-0.4-0.6,5.7-0.5,0-0.9c0.7,0-0.9,0.1-4,0.1c-0.7,0-1.5,0-2,0.1c0.1,0,0.2,0,0.3,0
			c-3.1,0-7.1,0-11.6,0c3.7-0.3,7.5-0.5,12.7-0.2c2.4-0.4,5-0.7,6.5-0.9c6.4,0.8,18.7,1.2,20.4,1.7c14.2-0.3,33.6-0.2,42.5-1.2
			c4-0.1,4.7,0.3,6.2,0.5c-2.3,0.1-5.1,0.1-6.4,0.2c8.1-0.3,24-0.1,25.9-0.8c10.2,0.3-5.7,0.7,8.3,0.5l-1.9,0.2
			c27.1,1.1,44.2-1.7,73.7-0.4c-1,0-1.6-0.1-1.9-0.2c34.9,0.7,71.9-0.6,106.3,0.4c9.8,0.2,10.8-0.3,16.8-0.6l2.1,0.6l10.2-0.7
			c14.5-0.5,25.1,1.5,43.4,0.5l-2.4-0.4c6.6,0.1,20.8-0.2,19.7,0.2c0.7-0.1,2.2-0.4,4.7-0.2l0.2,0.3l16.2-0.5
			c12.5,0.2-2,1.2,16.3,1.3c6.8-0.1,19.4-0.9,16.8-1.1c-2.7,0-7-0.2-7.2-0.5l6.2-0.2c0.1-0.1,0.2-0.1,0.3-0.2h1c5.5,0,10-4.4,10-9.8
			v-57l0.2,0.7l-0.2-2.2V219c0.1,0.3,0.2,1.2,0.3,3c0.4-6.8-0.3-6,0.2-11.9c0.1-0.6,0.1-0.4,0.1,0.2l-0.2-6.6c0.2,1.3,0.6-1.1,0.5,3
			c0.5-11.9-0.6-19.2,0-23.7v1c-0.2-12.4-0.4-7.1-0.8-8.9v-7.7L1009.3,162.1z M570.2,299.2c0.1,0,0.3-0.1,0.4-0.1
			c-0.3,0.1-0.6,0.2-1.2,0.3c-3.1,0.1-4.1,0-4.6-0.1C566.2,299.2,567.9,299.2,570.2,299.2 M1008.4,207.9c0,0.4-0.1,0.7-0.1,0.9v-4
			C1008.3,205.8,1008.3,206.8,1008.4,207.9"/>
	</g>
	<g>
		<defs>
			<rect id="SVGID_45_" width="1010" height="300"/>
		</defs>
		<clipPath id="SVGID_46_">
			<use xlink:href="#SVGID_45_"  style="overflow:visible;"/>
		</clipPath>
	</g>
	<g>
		<defs>
			<rect id="SVGID_47_" width="1010" height="300"/>
		</defs>
		<clipPath id="SVGID_48_">
			<use xlink:href="#SVGID_47_"  style="overflow:visible;"/>
		</clipPath>
	</g>
	<g>
		<defs>
			<rect id="SVGID_49_" width="1010" height="300"/>
		</defs>
		<clipPath id="SVGID_50_">
			<use xlink:href="#SVGID_49_"  style="overflow:visible;"/>
		</clipPath>
	</g>
	<g>
		<defs>
			<rect id="SVGID_51_" width="1010" height="300"/>
		</defs>
		<clipPath id="SVGID_52_">
			<use xlink:href="#SVGID_51_"  style="overflow:visible;"/>
		</clipPath>
	</g>
	<g>
		<defs>
			<rect id="SVGID_53_" width="1010" height="300"/>
		</defs>
		<clipPath id="SVGID_54_">
			<use xlink:href="#SVGID_53_"  style="overflow:visible;"/>
		</clipPath>
	</g>
	<g>
		<defs>
			<rect id="SVGID_55_" width="1010" height="300"/>
		</defs>
		<clipPath id="SVGID_56_">
			<use xlink:href="#SVGID_55_"  style="overflow:visible;"/>
		</clipPath>
	</g>
	<g>
		<defs>
			<rect id="SVGID_57_" width="1010" height="300"/>
		</defs>
		<clipPath id="SVGID_58_">
			<use xlink:href="#SVGID_57_"  style="overflow:visible;"/>
		</clipPath>
	</g>
	<g>
		<defs>
			<rect id="SVGID_59_" width="1010" height="300"/>
		</defs>
		<clipPath id="SVGID_60_">
			<use xlink:href="#SVGID_59_"  style="overflow:visible;"/>
		</clipPath>
	</g>
	<g>
		<defs>
			<rect id="SVGID_61_" width="1010" height="300"/>
		</defs>
		<clipPath id="SVGID_62_">
			<use xlink:href="#SVGID_61_"  style="overflow:visible;"/>
		</clipPath>
	</g>
	<g>
		<defs>
			<rect id="SVGID_63_" width="1010" height="300"/>
		</defs>
		<clipPath id="SVGID_64_">
			<use xlink:href="#SVGID_63_"  style="overflow:visible;"/>
		</clipPath>
	</g>
	<g>
		<defs>
			<rect id="SVGID_65_" width="1010" height="300"/>
		</defs>
		<clipPath id="SVGID_66_">
			<use xlink:href="#SVGID_65_"  style="overflow:visible;"/>
		</clipPath>
	</g>
</g>
</svg>
