<?xml version="1.0" encoding="utf-8"?>
<!-- Generator: Adobe Illustrator 21.1.0, SVG Export Plug-In . SVG Version: 6.00 Build 0)  -->
<svg version="1.1" id="Layer_1" xmlns="http://www.w3.org/2000/svg" xmlns:xlink="http://www.w3.org/1999/xlink" x="0px" y="0px"
	 width="2275.5px" height="888px" viewBox="0 0 2275.5 888" style="enable-background:new 0 0 2275.5 888;" xml:space="preserve">
<style type="text/css">
	.st0{fill:#FFC23F;}
</style>
<g>
	<path class="st0" d="M2270.8,73.1c0.2-1.3,0.3-3,0.4-4.9L2270.8,73.1z"/>
	<path class="st0" d="M1751.7,6.7c4.5-0.1,6.3-0.3,6.5-0.6C1754.1,6.3,1750.7,6.5,1751.7,6.7z"/>
	<path class="st0" d="M1651.8,3.8c2.1,0.1,3.9,0.1,5.9,0.2C1655.5,3.8,1653.2,3.6,1651.8,3.8z"/>
	<path class="st0" d="M2271.2,68.2l1-12.5C2271.2,54.8,2271.5,62.1,2271.2,68.2z"/>
	<path class="st0" d="M2273.9,278.4c0.4,1.1,0.8,2.2,1.3,3.2l-1.4-7L2273.9,278.4z"/>
	<path class="st0" d="M2274.4,433c0.1-3.6-2.7-4.8-3.9-6.2c1.2,2,1.7,4.7,1.9,7.8C2273,434.7,2273.6,434.2,2274.4,433z"/>
	<path class="st0" d="M2269.5,684.2l0.3,3C2269.7,686.2,2269.6,685.1,2269.5,684.2z"/>
	<path class="st0" d="M2269.7,687.2c0,0.5,0.1,1,0.1,1.4L2269.7,687.2z"/>
	<path class="st0" d="M2274.5,161.2c0.4-0.3,0.8-0.8,1-1.4C2275.2,159.8,2274.8,160.4,2274.5,161.2z"/>
	<path class="st0" d="M2266.6,876.5l-3.2,0.1c-0.3,0.4-0.7,0.8-0.7,1.3L2266.6,876.5z"/>
	<path class="st0" d="M1468.9,0.9c0.4,0,0.5,0,0.8,0C1474.6,0.7,1471.8,0.8,1468.9,0.9z"/>
	<path class="st0" d="M4.5,192.7c2.5-15.2,3.2,24.8,6,1.9C9.5,196.7,6.2,173.8,4.5,192.7z"/>
	<path class="st0" d="M1047.6,2.3c0.9,0.4,2.5,0.7,4.3,1C1051.7,3,1050.8,2.8,1047.6,2.3z"/>
	<path class="st0" d="M1361.5,5.5l-7.8-0.3C1356.8,5.4,1359.3,5.5,1361.5,5.5z"/>
	<path class="st0" d="M881.2,5.3c1,0.1,2.1,0.1,3.4,0.2C883.3,5.4,882.2,5.3,881.2,5.3z"/>
	<path class="st0" d="M881.2,5.3c-2.2-0.1-4.1-0.2-8,0c0.5,0.1,1.1,0.2,1.8,0.3C876.5,5.3,878.4,5.2,881.2,5.3z"/>
	<path class="st0" d="M715,5.5c0.9,0.2,2.1,0.3,3.1,0.5c1.7,0,3.6-0.1,5.4-0.1L715,5.5z"/>
	<path class="st0" d="M1032.7,882.4C1032.7,882.4,1032.7,882.4,1032.7,882.4C1032.5,882.4,1032.5,882.4,1032.7,882.4z"/>
	<path class="st0" d="M1188.3,882.2c-0.1,0-0.2,0-0.4-0.1C1188.1,882.2,1188.2,882.2,1188.3,882.2z"/>
	<path class="st0" d="M2268.5,198.3c0,0.1,0,0.2,0,0.2C2268.5,198.5,2268.5,198.4,2268.5,198.3z"/>
	<path class="st0" d="M1626.8,880.8c1.2,0.1,2.7,0.2,4.5,0.3C1629.8,881,1628.3,880.9,1626.8,880.8z"/>
	<path class="st0" d="M864.8,881.9c-0.6,0-1.3-0.1-1.9-0.1C863.6,881.9,864.2,881.9,864.8,881.9z"/>
	<path class="st0" d="M1352,6.4c-1.7,0.2-3.4,0.4-5.1,0.5C1350.7,6.7,1355.6,6.7,1352,6.4z"/>
	<path class="st0" d="M1479.7,1.9c2.6,0,4.9-0.1,7.1-0.2C1483.8,1.7,1481.5,1.8,1479.7,1.9z"/>
	<path class="st0" d="M2274.4,264.6c-0.2-19.4-3.2-39-1.4-64c-1.7-0.9-4.4,8.5-6.5,6.5v-13.5c0.8,0.4,1.5,1.7,1.9,4.7
		c-0.3-2.6-1-7.8-0.5-11.9l2.3,10.5c1-11.4-1.9-5.9-1.7-15c2,0.2,1.4-6.7,3-5.4c0.2,2.3-0.8,7.9,0,11.4c0.4-10.2,1.5-22.6,3-26.7
		c-1.1,0.9-2.7,0-2.9-7.5c-0.1-19.4,2.4-6.6,3.4-17.9c-1.4-4.7,0.1-17.1-2.9-17.4c0-5.7,1.4-6.7,2.2-8.9c-1.3-10-0.4-46.9-3.5-35.6
		l-0.2,2.6c-0.1-0.5-0.1-1-0.1-1.6c-0.9-10.2-1.1-20.7-1-31.2c0.1-5.3,0.2-10.6,0.4-15.9c0.2-6.3,0.4-12.7,0.6-19
		c-5-0.1-9.9-0.2-14.8-0.3c-4.4-0.1-8.7-0.1-13-0.2c-7.9-0.1-15.8,0-23.5,0.1l0.1-0.8c-24.4,0.9-54.2,0.5-71.6,2.2
		c-7.2,0-17-1.4-13.9-2.4c-18.6,0.6-20.7,1.5-47.6,0.2c18.7-1.4-6.5-1.2,19.2-1c-24.2-0.7-29.7-1.9-55.6,0.2
		c8.8-2-18.2-2.5-29.7-1.9l16.9,1.4c-12.9,0.3-24.2,0.1-35.7-0.1l6.2-2.7c-49.5-3.2-89.3,5.5-126.9,0.1c-13.1,1.9,26.9,1.3,15.2,3.5
		c-22.8-0.4-46.5-4.2-53.6-4.2c-31.2-1.5-29.1,3.9-61.7,2.9c4.2,0.9,8.1,3.5-16.3,4.4c-22.8-0.4-28-4-13.6-4.7
		c5.5-0.1,8.1,0.2,7.9,0.5c7.4-0.3,17-0.8,8-1.8l-3,0.9c-11.3-1-42.6-0.9-35.3-2.4c-14.7,0.8-9.7,1.4,0,1.8c-26-1-42.2,0.1-70.4-0.7
		c4.8,0.5,9.2,1.6,4.4,1.6c-44.1-1.2-19.4,1.8-49.3,2.2c-17-1.4,6.1-3.5-24-2.2c-18.4-1-3.9-2.5,3.4-3.3
		c-27.4,1.8-51.2-1.2-66.9-1.5l14.4-0.8c-8.6,0.5-15.7,0.4-22.9,0.4l8.2,1.9c-8.5-0.3-15.7-0.3-15.5-1.1c-8.7,1.2,6.7,3.2-10.7,4.9
		c-11.3-1-34.4,1-38.3-1.5c32,0.8,3.3-1.9,19.1-2.7c-4.2,0-9,0-14.3-0.3c-1.3-0.3,1.2-0.5,3.5-0.7c-34-2.3-15.6,2.8-50.9,2.8
		c4.5-1.4-8.2-2.7-13.9-2.4c14.2,0,6.8,2.4-6.2,3.5c-22.6-1.1-24.6,0.8-36.4,0.7L1375,6c-4.6,1.4-15.9,1.2-31.6,1.7
		c-0.4-0.3,0.8-0.5,2.5-0.7c-16.4,0.8-36.2-3-57.8-1.5c-11.3-1-1.1-2.7-11-3.3c-27.3,1.8-29.6-1.9-58.4-0.4
		c8.3,1.9,9.7,1.4-10.5,3.3l47.2-1.3l-30.3,2.8c14.3,0,30.1-1.2,38.6-0.9c-14.4,1.6-13,1.1-6.1,2.7c-19.5-2.9-38.7,1.7-61.2-0.3
		l0.7-4.7c-33.9-2.1-60.2,2.4-104.3,1.2l14.1,0.8c-5.9,1.9-27.2,0.3-41.4,1c1.3-1.6-7.6-2.2-13.7-3.1c0.7,1.2-32.2-0.1-36.2,3
		L996,4.2c-35.6-0.9-40.6,4.5-74.7,4c10.3-1.7-5.2-2.8,17.7-4.1c-11.4,0-21.7-0.3-21.9,0.8c-6.7-1-31.6,2.1-42.1,0.6
		c-4.8,0.7-6.4,2.3-19.2,2.2c-0.8-0.2-0.7-0.4-0.4-0.6c-2.8,0.6-18.7,1-8.4,2.6c-35.1-4.9-98.2,0.4-128.8-3.9
		c-24.9,0.5-54.9,1-77.5,1.2c1.4-0.5,0.1-0.8,4.3-0.6C613.7,5,625.8,11,590.3,9.3C572.1,6.8,609.1,8,597.8,7
		c-4.9-5.2-42.8,0.7-66.7-2.3l5.8-0.3c-18.3-1.8-44.5,2-74.4,1.6c0,0,1.4-0.5,0.2-0.8c-20.4,2.7-59,3.5-87.7,4.3
		c8.9-2,13-1.1,7.6-3.1c-12.9,0.3,3.8,3.3-21.9,3.9c-8.3-1.1-26.9-2.1-29.3-4.3l24.2-0.1c-12.4-2.9-31.3,0.1-44.1-0.4l1.6-1.2
		c-37.1,0.4-37.6,3.5-77.5,3.3l4.1,0.9c-21.8,3.1-18.3-1.8-40,0.6l-6.6-3.2c-14.4,0.8-50.4,3.1-76.2,3.6c14.6-2.3,44.8-3.5,63.5-4.9
		c-14.3,0-48.4,0.2-55.9,1.8c5.7-0.3,13-1.1,18.7-0.6c-17.5,2.5-40.5,3.7-68.9,3.6c1.6-2-5.7-2.9-17.1-3.3
		c-5.7-0.2-12.4-0.3-19.4-0.4C28.2,5.7,18,5.6,8.2,5.5C8.1,10,8,14.4,7.9,18.7C7.8,20.9,7.7,23,7.6,25c-0.1,1.4-0.2,2.7-0.3,3.9
		C6.9,34,6.2,38.2,5.2,41.1C8,81.3,4,120.9,4.4,167.7c6-16.6,0.2,13.7,6.3,10.8c0.4,10.8,0.3,15-0.1,16l0.3-2.3
		c-0.1,1-0.2,1.5-0.3,2.4h0l-3.6,33c-1.8,7.8-1.3-10.4-2.7-9.4c-0.5,23.9-2.6,10-4.2,25.8c2.2-3.2,3.1,8.3,2.3,21.9l2.8-19.2
		c3.3,33.4-5.1,28.9-1.9,62.5l-1.9-10.6c1.1,17.3,0,63.7,4.9,80.6c-0.7,3.1-2.4,7.1-2.8-0.5C2.6,420,8.6,470.6,5.5,502.7L4,499.5
		c0.4,7.7,2.8,13.4,1.3,23c-0.6-0.5-1.5-3.1-1.6,0.5c0.5,4.1,2.6,20.4,1.7,30.6L3.8,545c-2,40.2,4.1,61.8,5.1,95.5
		c-4.4-0.1-5.8,31.6-6.5,47.4l-0.6-0.6c-0.5,46.9,3.6,79.6,5.4,123c-1.3,7.1-2,16.9-2.4,28.2c-0.2,5.6-0.4,11.7-0.5,17.9
		c0,1.6,0,3.2-0.1,4.8c0,2.4,0,4.7-0.1,7.1c0,5.7-0.1,11.5-0.1,17.3c11.4,0,22.9,0.1,34.5,0.1c7.5,0.1,14.9,0.1,22.3,0.2
		c14.7,0.2,28.9,0.4,41.6,0.9c-8.3-0.6,1.3-2.7,11-3.1c12.7,0.7,35.1-2.4,33.1,0.8l-4.5-0.1c9.6,3.2,35.7,2.3,56.1,2.4l3.4-4.2
		c53.3,6.1,139.7-2.3,168.8,3.2c12.9-1.1,28.8-1,41.6-2.1l-0.7,2.3c35.6,0.6,53.4,0.9,97.5,0.3l-9,1.6c24.9,0.1,31.4-6.5,54.3-6.7
		l6.9,3.4c43.4-0.1,87.2,2.9,130.1-0.2c-0.7,0.5-2,1.5-9,1.6c19.7,0.1,74.7,2.1,72.1-1.9c5.1,2.2,45.6-0.3,67.6-1.5l-3.6,2.2
		c19.8-2.8,20.4-3.6,48-4.4c6,0.3,5.8,1.5-1,1.3c19.6,0.9,15.9-2.2,41.5-1l-9.8,1.4c22.4,0.2,20.6-0.6,33-2.3
		c14.1-0.9,42.5,0.6,45.8,2.6c3-1.2,15.3-2.9,28.5-2.3c1.8,0.8-3,1.2-5.4,1.5c37.5,1.5,55.8-2.6,81.5-0.4c0.5,0.7,2.2,1.1,4.4,1.3
		c-27.2-0.1-49.5-0.2-51.5-0.3c0.3,2,23.9,2.4,4.9,5.2c19.3-1.5,52.3-4.9,75.8-3.9c1.1,0.2,2.2,0.4,3.1,0.7l-2.4,0.2
		c5.4,0.2,10.3,0,14.8-0.3c7.5,0.3,12.2,0.6,19.4,0.6c2.8,1.7,27.6,0.9,39.6,1c-1-2.2,14.4-1.9,0.4-3.7c0.5,0.1-3.6,0.2-10.7,0.3
		c-1.8,0.1-3.9,0.1-5.1,0.2c0.2-0.1,0.5-0.1,0.8-0.2c-7.9,0-18.1,0.1-29.8,0.2c9.5-1.1,19.4-2.1,32.6-0.9c6.2-1.4,12.9-2.9,16.8-3.6
		c16.4,3.1,48.1,4.8,52.5,6.8c36.6-1.3,86.3-0.8,109.3-5.1c10.4-0.5,12,1.2,15.9,1.9c-6,0.4-13.2,0.4-16.4,1
		c20.8-1.1,61.7-0.4,66.7-3.4c26.2,1.3-14.8,2.7,21.3,2.2l-4.9,0.9c69.6,4.6,113.6-7,189.5-1.8c-2.5-0.2-4-0.4-4.7-0.7
		c89.7,2.7,184.8-2.5,273.3,1.7c25.2,0.9,27.9-1,43.2-2.5l5.4,2.4l26.2-2.8c37.2-2,64.5,5.9,111.6,2.1l-6.1-1.6
		c16.9,0.3,53.6-1,50.8,0.9c1.7-0.3,5.5-1.7,12.2-0.8l0.5,1.3l41.6-2.2c32.2,0.9-5,5,42,5.3c17.5-0.5,49.8-3.7,43.2-4.5
		c-7.1-0.1-18-0.8-18.6-2.1l12.9-0.5c0.4,0.6,0.9,0.6,1.3-0.1l1.9-0.1c0.2-0.2,0.4-0.5,0.6-0.7h2.5v-2.3c1-1,1.5-2,0-3V724.7
		l0.8,1.5l-0.8-4.5v-19.6c0.6,0.6,1.1,2.5,1.3,6.3c2.1-14.2-1.5-12.6,0.8-24.8c0.4-1.3,0.6-0.7,0.7,0.5l-1.2-13.9
		c0.9,2.7,2.9-2.3,2.3,6.2c2.4-24.9-3.1-40.1,0-49.5l0.3,2.1c-1.1-25.8-2.2-14.9-4.3-18.6v-16.2l5.2-11.9l-3.1-3.4
		c0.1-3.6,0.3-10.6,1.6-9.3c-2.1-13.3-1.3,2.3-3.3-5.4c2.8-17.2-1.3-47.3,3.6-51.2c-2.3-6.2-1.8,16.4-3.4-1.9
		c5.2-5.2-0.9-21.2,1.5-36.8c2.7,4.8,1.3,19.7,3.7,4c-4.6-9.5,1-30.5,0.1-43.7c-3.6-0.6-1.5-28.7-2.7-50.9c1.2,1.4,2-41.7,3.3-62.4
		l0.6,0.6c-3.7-4-3-25.3-3.7-40.8c2.2,0.6,3.1,3.4,4.1,11.8l0-14.6c-1.2-3.4-1.8-8-2.2-17.4L2274.4,264.6z M1165.5,884.6
		c0.2-0.1,0.7-0.2,0.9-0.3c-0.8,0.4-1.6,0.8-3.2,1.1c-8,0.3-10.7-0.1-11.7-0.6C1155.3,884.9,1159.8,884.8,1165.5,884.6z M2267,678.1
		c-0.1,0.9-0.3,1.5-0.4,1.9v-8.3C2266.7,673.8,2266.9,675.9,2267,678.1z"/>
	<path class="st0" d="M1345.9,7c0.3,0,0.7,0,1-0.1C1346.6,7,1346.2,7,1345.9,7z"/>
	<path class="st0" d="M2268.5,198.6c0,0.2,0,0.3,0,0.5C2268.5,198.9,2268.5,198.7,2268.5,198.6z"/>
	<path class="st0" d="M855.8,7c0,0-0.2,0.1-0.4,0.2C855.6,7.1,855.8,7.1,855.8,7z"/>
	<path class="st0" d="M1177.7,882.6c1.2-0.1,1.8-0.1,3.3-0.2c-1.6-0.2-3.2-0.4-4.8-0.5c-1,0.2-2,0.5-2.8,0.7
		C1174.8,882.6,1176.3,882.6,1177.7,882.6z"/>
	<path class="st0" d="M2270.4,74.9c0.1-0.1,0.1-0.3,0.2-0.5C2270.5,74.5,2270.5,74.6,2270.4,74.9z"/>
	<path class="st0" d="M2270.8,73.1c-0.1,0.5-0.2,0.9-0.2,1.3c0.1-0.1,0.1-0.2,0.2-0.4L2270.8,73.1z"/>
	<path class="st0" d="M2271.4,534.3l-0.8,24.9c1.1-4.3,2.5-10.1,2.8,1.2C2276.7,529,2271,566.8,2271.4,534.3z"/>
	<path class="st0" d="M2273,457.2c0.5,13.4,1.6-0.2,2.2,0.6C2274.2,449.2,2274,447.2,2273,457.2z"/>
	<path class="st0" d="M2126.8,6.6l1.6-1.9C2116,5,2127.3,5.5,2126.8,6.6z"/>
	<path class="st0" d="M2126.8,6.6l-0.1,0.1C2126.7,6.7,2126.8,6.7,2126.8,6.6z"/>
	<polygon class="st0" points="1920.5,2.5 1899,3.2 1914.9,2.8 	"/>
	<path class="st0" d="M745.1,3.5L749,6C757.7,5.6,759.5,2.7,745.1,3.5z"/>
	<path class="st0" d="M240.1,6.1c-5.5-1.3-19.7-2.1-28.5-0.8C223,5.4,234.4,6.4,240.1,6.1z"/>
	<polygon class="st0" points="216.6,886.7 235.7,886 226.7,885.8 	"/>
</g>
</svg>
