<?xml version="1.0" encoding="utf-8"?>
<!-- Generator: Adobe Illustrator 21.1.0, SVG Export Plug-In . SVG Version: 6.00 Build 0)  -->
<svg version="1.1" id="Layer_1" xmlns="http://www.w3.org/2000/svg" xmlns:xlink="http://www.w3.org/1999/xlink" x="0px" y="0px"
	 width="320.2px" height="1800px" viewBox="0 0 320.2 1800" style="enable-background:new 0 0 320.2 1800;" xml:space="preserve">
<style type="text/css">
	.st0{fill:#F5F5F5;}
</style>
<path class="st0" d="M309.9,9.5c-6.7-1.1-11.8-2-17.4-3c-5.7-1-12-1.7-21.4-2.8c-4.7-0.5-10.1-1-16.5-1.8c-6.4-0.6-14-1-22.8-1.7
	c-3.1-0.2-5.9-0.3-8.5-0.3c-1.5,0-2.9,0-4.3,0.1c-3.9,0.2-7.6,0.6-11.4,0.9c-3.8,0.4-7.8,0.7-12.2,1.1c-2.2,0.2-4.6,0.3-7.1,0.4
	c-2.5,0.1-5.2,0.2-8.1,0.3l-0.6-2.6c0,0-7.9,0.8-15.9,1.6c-4,0.4-7.9,0.8-10.9,1.1s-4.9,0.6-4.9,0.6l-17-2.3c0,0-5.5,0.5-11,0.8
	c-2.7,0.2-5.5,0.5-7.5,0.7c-1.3,0.2-2.4,0.3-3,0.4c2-0.1,4.2-0.2,6.1-0.2c2.1,0,4.1,0.1,5.8,0.2c3.4,0.2,5.6,0.6,4.9,0.9
	c-8.5,0.6-18,1.4-27.4,2C94.2,6.3,89.5,6.6,85,6.9c-4.6,0.3-9,0.7-13.1,0.8c-8.3,0.6-15.7,0.8-21,0.9c-5.3,0.2-8.5,0.3-8.8-0.1
	c0,0-5,0.8-12.5,2c-3.7,0.7-8.1,1.3-12.8,2.1s-9.6,1.9-14.6,2.8C1.5,15.7,0.7,15.9,0,16v1784c19-6.2,38.9-12.8,62.8-19.4
	c-7.5,4.4-2.5,3.1,4.9,1.1c3.7-0.9,7.9-2.1,11.6-3c3.7-0.7,6.7-1.1,7.8-0.6c0,0,1.9-0.6,4.7-1.5c2.8-0.9,6.6-2,10.4-3.1
	s7.6-2.2,10.5-3c2.5-0.7,4.3-1.1,4.7-1.2c-0.5,0-3.5,0.4-6.5,0.7c-2.7,0.3-5.4,0.7-6.3,0.7c26.9-6.7,50.5-13.5,75-16.4
	c-0.3,0.1-1.5,0.4-3.2,0.7c-1.9,0.5-4.5,0.9-7,1.6c-4.2,1-8.4,2-9.7,2.3c1-0.2,3.9-0.7,7.7-1.4c4.9-0.9,11.4-2,18-3.2
	c6.5-1.1,13.2-2,18.1-2.8c2.5-0.4,4.5-0.7,6-0.8c1-0.1,1.6-0.2,2-0.3c-0.6,0.1-2.3,0.2-4.5,0.4c-2.8,0.3-6.6,0.7-10.4,1
	c-7.6,0.7-15.2,1.6-15.2,1.6c7-1.5,10.2-2.4,11.7-3.1c1.5-0.7,1.3-1.1,1.3-1.5c0.1-0.4,0.4-0.7,3.2-1.2c2.7-0.6,7.8-1.2,17.4-2.1
	c-0.6,0.1-0.9,0.2-1,0.2c0.3,0.1,6.4-0.7,14.4-1.4c10-0.9,23-1.8,30.8-1.5c14-2.1,28.3-4.5,50-4.7c5.8,0.7-3.6,3.7,0.2,4.3
	c2.4-0.7,6.2-1.1,10.8-1.6V11.2C316.2,10.5,312.9,10,309.9,9.5z"/>
</svg>
