<?xml version="1.0" encoding="utf-8"?>
<!-- Generator: Adobe Illustrator 21.1.0, SVG Export Plug-In . SVG Version: 6.00 Build 0)  -->
<svg version="1.1" id="Layer_1" xmlns="http://www.w3.org/2000/svg" xmlns:xlink="http://www.w3.org/1999/xlink" x="0px" y="0px"
	 width="1920px" height="1776.5px" viewBox="0 0 1920 1776.5" style="enable-background:new 0 0 1920 1776.5;" xml:space="preserve"
	>
<style type="text/css">
	.st0{fill:#F5F5F5;}
</style>
<path class="st0" d="M1920,284.6c-21-11-42.3-22.4-63.7-33.4c-34.3-18-68.5-35.1-100.2-50.8c0,0-1.6-0.6-4-1.4
	c-2.4-0.8-5.6-1.9-8.8-3c-6.4-2.2-12.8-4.3-12.8-4.3c-5.7-2.6-10.1-5.8-3.7-3.5c-24.7-12.1-2,0.9-14.4-3.5c-14.4-6-18.4-9.5-9-6.4
	c-11.3-4.3-25.1-9.6-40.1-15.3c-7.5-2.8-15.3-5.8-23.3-8.8c-4-1.5-8-3.1-12-4.6c-4.1-1.5-8.1-3-12.2-4.5
	c-16.3-6.2-32.7-12.4-48-18.1c-7.6-2.9-15-5.8-21.9-8.5c-7-2.7-13.4-5.3-19.3-7.7l9.7,2.6c-18.6-7.1-29.6-9.7-40.3-12
	c-5.4-1.2-10.6-2.4-16.6-4.1c-6-1.8-12.9-4.2-21.5-7.5l6.9,1.7c-40.9-13.8-84.6-26.3-126.2-37.2c-41.5-11-80.9-19.8-112.9-28.1
	c-3.3,0.3-10.2-0.6-18.7-2c-4.3-0.8-9-1.7-13.9-2.5c-4.9-0.9-10-1.7-15.1-2.6c-20.2-3.7-39.8-6.1-42.9-3.9c-6.1-1.1-11.2-2.2-15.6-3
	s-8.2-1.4-11.5-2c-6.6-1.2-11.6-2.1-17.2-3.1c-5.6-1.1-11.9-1.8-21.1-2.9c-4.6-0.5-9.9-1.1-16.3-1.9c-6.4-0.6-13.8-1.1-22.5-1.8
	c-4.7-0.3-8.7-0.3-12.6-0.2c-3.9,0.2-7.5,0.6-11.3,1s-7.7,0.8-12.1,1.1c-2.2,0.2-4.5,0.3-7,0.4c-2.5,0.1-5.2,0.2-8,0.3l-0.6-2.7
	c0,0-7.8,0.9-15.7,1.7c-3.9,0.4-7.8,0.9-10.7,1.2c-2.9,0-4.9,0.4-4.9,0.4l-16.8-2.4c0,0-5.4,0.5-10.8,0.9c-2.7,0.2-5.4,0.5-7.4,0.7
	c-1.3,0.2-2.4,0.3-2.9,0.4c2-0.1,4.1-0.2,6-0.2c2.1,0,4.1,0.1,5.8,0.2c3.4,0.2,5.5,0.6,4.8,1c-8.4,0.6-17.7,1.5-27,2.2
	c-4.6,0.3-9.3,0.6-13.8,0.8c-4.5,0.2-8.9,0.7-13,0.9c-8.2,0.6-15.4,0.9-20.7,1c-5.2,0.2-8.4,0.3-8.7-0.1c0,0-4.9,0.9-12.3,2.2
	c-3.7,0.7-8,1.4-12.6,2.2c-4.6,0.9-9.5,2-14.4,3c-9.8,2.1-19.6,4-26.9,5.8c-7.3,1.8-12.1,2.9-12.1,2.9c0.7-0.7,4.4-1.9,9.1-3.2
	c1.8-0.5,3.8-1,5.8-1.6c-0.8,0.2-1.6,0.4-2.4,0.6c-3.1,0.8-5.4,1.3-7,1.5c-3.3,0.6-4.2,0.4-5,0.2c-0.8-0.2-1.5-0.5-4.4,0
	c-1.4,0.2-3.4,0.6-6.2,1.3c-1.4,0.3-3,0.7-4.8,1.3c-1.8,0.6-3.9,1.2-6.2,1.9c5.2-0.6-2.4,2.2-3.1,3c-19.4,2.6-62.3,14.2-93.4,24.9
	c0,0,1.4-0.9,2.7-1.9c1.4-1,2.7-1.9,2.7-1.9c-7.1,2.2-14.2,4.6-21.4,7c-3.6,1.2-7.3,2.4-10.9,3.6c-3.7,1.2-7.3,2.6-10.9,3.9
	c-7.3,2.7-14.7,5.4-22.1,8.1c-7.4,2.8-14.8,5.9-22.3,8.8c-3.7,1.5-7.5,3-11.2,4.5c-3.7,1.6-7.5,3.2-11.2,4.8
	c-7.5,3.2-15,6.5-22.5,9.7c-14.9,6.9-30.1,13.5-45,20.8c21.9-9.5,18.3-4.1,0.9,4.5l-8.3,0.7c-10.5,7,18.8-7.8-3.5,5.3
	c-5.7,2.5-9.4,4.2-11.8,5.1c-2.4,0.8-3.3,0.8-3.2,0.3c0.2-1,4.6-4.4,10.5-7.9c-0.6,0.3-2,1-3.8,2c-2.5,1.4-5.8,3.2-9.1,5
	c-6.6,3.6-13.2,7.3-13.2,7.3c-2,0,4.1-3.6,5.3-5.4c-2.6,1.8-6.8,4-12,6.5s-11.2,5.4-17.4,8.4c-6.2,3-12.5,6.1-18.1,9.2
	c-5.6,3.2-10.5,6.3-14,9.2l-1.9,0.1c-28.9,16.4-49.3,29.3-68.3,41.6c-2.4,1.5-4.7,3-7.1,4.6c-2.3,1.6-4.6,3.1-6.9,4.7
	c-4.6,3.1-9.3,6.2-14,9.4c-9.6,6.3-19.4,13.3-30.5,21c0.3,1.4-4.1,4.8-9.8,9.5c-5.8,4.7-13.1,10.4-19,15.9
	c-32.5,22.7-68.6,48.2-105,79.2c-24.8,22.7-6.1,7.9-16.6,18.9c-3.3-0.1-38.9,31.8-21.5,14.1c-2.7,2.4-5.2,4.7-7.7,6.9
	c-2.4,2.3-4.7,4.4-6.9,6.5c-4.4,4.2-8.5,8-12.4,11.6c-7.9,7.3-14.7,14.1-21.9,21.2c-3.6,3.6-7.3,7.2-11.1,11.1
	c-3.8,4-8,8.1-12.4,12.7c-1.4,1.5-2.6,3-4.6,4.6v1265c5,2.2,9.7,4.4,13.7,6.7c41,12.6,80.8,20.8,119.2,26.3s75.6,8.4,111.9,9.1
	c-0.5,1-5.8,1.3-13.4,1.2c-3.8,0-8.2-0.1-12.8-0.3c-4.7-0.3-9.6-0.7-14.5-1.1s-9.7-0.7-14.2-1s-8.6-0.8-12.1-1
	c-7-0.5-11.3-0.4-10.4,0.7c4.4,0.4,8.6,0.8,12.8,1.2c2.1,0.2,4.1,0.4,6.1,0.5c2,0.2,4,0.2,6,0.3c7.9,0.4,15.4,0.7,22.7,1.1
	c3.6,0.2,7.2,0.2,10.7,0.2s7,0.1,10.5,0.1c3.4,0,6.9,0.1,10.3,0.1c3.4,0,6.8,0.1,10.1,0c6.7-0.1,13.5-0.2,20.3-0.3
	c3.4,0,6.8-0.1,10.3-0.1c3.5-0.1,7-0.2,10.5-0.4c7.1-0.2,14.5-0.4,22.2-0.5c7.6-0.3,15.6-0.6,24.1-0.9c17.6-0.2-9.5,2.2-15.3,3.2
	c67.6-4.4,130.5-9.8,188.1-22c-11-0.5,37.9-11.8,45.9-15.2c-6.2,3.7,7.4,1.3,19.7-0.7c3.3-0.5,6.4-1,9.1-1.4
	c2.7-0.4,4.9-0.6,6.3-0.6c2.8,0.1,2.2,1.3-4.9,4.6c7.3-2,16.3-5,14.2-5.8c11.1-2.1,14.9-2.2,4.2,1.7c20-5,26.3-7.2,32-9.4
	c5.8-2.1,11.1-3.9,29.2-8.4c0.2,0.9-7,3.1-10.3,5c8.9-3.1,17.7-6.2,28.1-9.7c10.4-3.5,22.5-6.9,37.8-10.8c-1.3,0.8,0.9,0.8-2.9,2.1
	c24.1-7.2,44.7-14.3,65.7-21.9c22.2-7.7,44.8-16.1,73.1-24.5c-7.4,4.6-2.4,3.3,4.8,1.2c3.6-1,7.8-2.3,11.4-3.1
	c3.6-0.8,6.6-1.1,7.7-0.5c0,0,1.8-0.6,4.6-1.6s6.5-2,10.3-3.2s7.5-2.3,10.3-3.1c2.5-0.7,4.2-1.2,4.6-1.3c-0.5,0.1-3.4,0.4-6.4,0.7
	c-2.7,0.3-5.3,0.6-6.2,0.8c26.6-7.1,49.9-14.3,74-17.3c-0.3,0.1-1.4,0.4-3.1,0.7c-1.9,0.5-4.4,1-6.9,1.7c-4.5,1.2-9,2.3-9.8,2.6
	c0.7-0.1,3.7-0.7,7.9-1.6c4.8-1,11.3-2.1,17.7-3.3c6.5-1.2,13-2.2,17.9-3c2.4-0.4,4.5-0.7,5.9-0.9c0.9-0.1,1.6-0.2,2-0.3
	c-0.6,0.1-2.2,0.2-4.4,0.4c-2.8,0.3-6.6,0.7-10.3,1.1c-7.5,0.8-15,1.7-15,1.7c6.9-1.6,10.1-2.6,11.5-3.3c1.5-0.7,1.2-1.1,1.3-1.5
	s0.4-0.7,3.1-1.3c2.7-0.6,7.7-1.3,17.2-2.3c-0.6,0.1-0.9,0.2-1,0.2c0.3,0,6.3-0.8,14.2-1.5c9.9-1,22.7-1.9,30.4-1.6
	c13.8-2.3,28-4.7,49.3-5c5.7,0.7-3.6,4,0.1,4.5c6.6-1.9,23.4-2.9,40.7-3.7c16.4-0.7,33.2-1.2,42.3-2.5c-4.3,0.8-4.2,2.3-2.3,2.6
	l11.4-2.3c13.5,0.7,15.6,1.1,13.6,2.5c20.2,0.3,16.9-0.7,14.4-1.6c-2.4-0.9-3.8-1.7,20.3-0.4c-3.8,0.1-1.9,0.5-9.7,0.7
	c48.4,1.7,93.3,1.4,138.1,5.5c6.8,2.1-3,1.7-12.4,1.2c-9.5-0.4-18.8-0.9-11.1,1c64.2,3.1,133,5.8,195.7,13.1l-11.7-1.6
	c8.2-3.9,45.9,6.9,77.2,8.5c-6.9-0.3-8.8,1.5-6.9,1.3c42.9,5.6,87.6,8.9,152.6,15.5l-8,0.2c25.4,4.2,66.7,9,94,13
	c8.1-0.2,23.5,1.9,13.9-1c20.7,4.3,41.4,7.6,60.4,10V289.7c-1-0.4-3.2-1.3-5.9-2.8c3.6,1.2-10.8-6.8-19.7-12.2
	c7.2,3.9,16.5,8.4,25.5,13.5v-3.6H1920z"/>
</svg>
