<?xml version="1.0" encoding="utf-8"?>
<!-- Generator: Adobe Illustrator 21.1.0, SVG Export Plug-In . SVG Version: 6.00 Build 0)  -->
<svg version="1.1" id="Layer_1" xmlns="http://www.w3.org/2000/svg" xmlns:xlink="http://www.w3.org/1999/xlink" x="0px" y="0px"
	 width="490px" height="300px" viewBox="0 0 490 300" style="enable-background:new 0 0 490 300;" xml:space="preserve">
<style type="text/css">
	.st0{clip-path:url(#SVGID_2_);fill:#FFC23F;}
</style>
<g>
	<defs>
		<rect id="SVGID_1_" width="490" height="300"/>
	</defs>
	<clipPath id="SVGID_2_">
		<use xlink:href="#SVGID_1_"  style="overflow:visible;"/>
	</clipPath>
	<path class="st0" d="M489.1,71.8c0-0.4,0.1-0.9,0.1-1.4L489.1,71.8z"/>
	<path class="st0" d="M416.2,1.7c1,0,1.5-0.1,1.5-0.1C416.7,1.6,415.9,1.6,416.2,1.7"/>
	<path class="st0" d="M393,0.9c0.5,0,0.9,0,1.4,0C393.8,0.9,393.3,0.9,393,0.9"/>
	<path class="st0" d="M489.1,70.4l0.2-3.6C489.1,66.5,489.2,68.6,489.1,70.4"/>
	<path class="st0" d="M489.7,129.7l0,1.1c0.1,0.3,0.2,0.6,0.3,0.9L489.7,129.7z"/>
	<path class="st0" d="M489.8,175.3c0-1-0.5-1.4-0.8-1.8c0.2,0.6,0.3,1.3,0.4,2.2C489.5,175.8,489.6,175.6,489.8,175.3"/>
	<path class="st0" d="M488.8,247.5l0.1,1.3C488.9,248.4,488.8,247.9,488.8,247.5"/>
	<path class="st0" d="M489.8,97.1c0.1-0.1,0.2-0.2,0.2-0.4C489.9,96.7,489.9,96.9,489.8,97.1"/>
	<path class="st0" d="M478.3,297.2l-0.7,0c-0.1,0.1-0.2,0.2-0.2,0.3L478.3,297.2z"/>
	<path class="st0" d="M350.5,0.2c0.1,0,0.1,0,0.2,0C351.8,0.2,351.2,0.2,350.5,0.2"/>
	<path class="st0" d="M0.9,49.3c0.5-4.4,0.6,7.1,1.2,0.5C1.9,50.5,1.2,43.9,0.9,49.3"/>
	<path class="st0" d="M253.6,0.8c0-0.1-0.3-0.1-1-0.2C252.8,0.7,253.2,0.7,253.6,0.8"/>
	<path class="st0" d="M325.5,1.3l-1.8-0.1C324.5,1.3,325,1.3,325.5,1.3"/>
	<path class="st0" d="M214,1.3c0.2,0,0.5,0,0.8,0C214.5,1.3,214.2,1.3,214,1.3"/>
	<path class="st0" d="M214,1.3c-0.5,0-0.9-0.1-1.9,0c0.1,0,0.2,0,0.4,0.1C212.9,1.3,213.3,1.3,214,1.3"/>
	<path class="st0" d="M175.4,1.3c0.2,0,0.5,0.1,0.7,0.1c0.4,0,0.8,0,1.2,0L175.4,1.3z"/>
	<path class="st0" d="M489.2,104.8c0.1-2.9,0.3-6.5,0.6-7.7c-0.2,0.3-0.5,0-0.6-2.2c0-5.6,0.5-1.9,0.7-5.2c-0.3-1.4,0-4.9-0.6-5
		c0-1.6,0.3-1.9,0.4-2.6c-0.3-2.9-0.1-13.5-0.7-10.2l0,0.7c0-0.1,0-0.3,0-0.5c-0.6-9.5,0.3-19.6,0.1-29l0.2,0
		c-0.2-5.6-0.1-12.5-0.6-16.5c0-1.7,0.4-3.9,0.6-3.2c-0.1-4.3-0.4-4.8,0-10.9c0.3,4.3,0.3-1.5,0.3,4.4c0.1-1.4,0.1-2.5,0.1-3.5
		c0.1-0.9,0.1-2-0.1-3c-0.2-1-0.5-2-1.1-3c-0.6-1-1.5-2.1-2.8-3.2c0.5,0.3,0.6,0.2,0.3-0.1c-0.1-0.2-0.3-0.4-0.6-0.6
		c-0.3-0.2-0.6-0.5-1-0.8c-0.8-0.5-1.9-1-2.9-1.3c-1.1-0.3-2.1-0.4-2.9-0.3c1.5,0.1,3,0.6,4.3,1.3c-1.6-0.7-3.2-0.9-4.7-0.9
		c-1.4,0-2.7,0-4-0.1l1.4-0.7c-11.5-0.8-20.7,1.4-29.5,0c-3,0.5,6.2,0.3,3.5,0.9c-5.3-0.1-10.8-1-12.5-1c-7.2-0.4-6.8,1-14.3,0.7
		c1,0.2,1.9,0.9-3.8,1.1c-5.3-0.1-6.5-1-3.2-1.2c1.3,0,1.9,0.1,1.8,0.1c1.7-0.1,4-0.2,1.9-0.4l-0.7,0.2c-2.6-0.2-9.9-0.2-8.2-0.6
		c-3.4,0.2-2.2,0.3,0,0.4c-6-0.2-9.8,0-16.4-0.2c1.1,0.1,2.1,0.4,1,0.4c-10.2-0.3-4.5,0.4-11.5,0.5c-3.9-0.4,1.4-0.8-5.6-0.6
		c-4.3-0.2-0.9-0.6,0.8-0.8c-6.4,0.4-11.9-0.3-15.5-0.4l3.4-0.2c-2,0.1-3.6,0.1-5.3,0.1l1.9,0.5c-2-0.1-3.6-0.1-3.6-0.3
		c-2,0.3,1.6,0.8-2.5,1.2c-2.6-0.2-8,0.3-8.9-0.4c7.5,0.2,0.7-0.5,4.5-0.7c-1,0-2.1,0-3.4-0.1c-0.3-0.1,0.3-0.1,0.8-0.2
		c-7.9-0.6-3.6,0.7-11.8,0.7c1-0.3-1.9-0.7-3.2-0.6c3.3,0,1.6,0.6-1.4,0.8c-5.3-0.3-5.7,0.2-8.5,0.2l3.1,0.1
		c-1.1,0.3-3.7,0.3-7.3,0.4c-0.3-0.3,3.3-0.2,2-0.3c-4.1,0.6-9.2-0.6-14.8-0.2c-2.6-0.2-0.3-0.7-2.6-0.8c-6.3,0.5-6.9-0.5-13.6-0.1
		c1.9,0.5,2.3,0.4-2.4,0.8l11-0.3l-7,0.7c3.3,0,7-0.3,9-0.2c-3.4,0.4-3,0.3-1.4,0.7c-4.5-0.7-9,0.4-14.2-0.1l0.2-1.2
		c-7.9-0.5-14,0.6-24.2,0.3l3.3,0.2c-1.4,0.5-6.3,0.1-9.6,0.3c0.3-0.4-1.8-0.5-3.2-0.8c0.2,0.3-7.5,0-8.4,0.7L240.7,1
		c-8.3-0.2-9.4,1.1-17.4,1c2.4-0.4-1.2-0.7,4.1-1c-2.7,0-5-0.1-5.1,0.2c-1.5-0.2-7.3,0.5-9.8,0.2c-1.1,0.2-1.5,0.6-4.5,0.5
		c-0.2,0-0.1-0.1-0.1-0.1c-0.6,0.2-4.4,0.3-2,0.6c-8.2-1.2-22.8,0.1-29.9-1c-5.8,0.1-12.8,0.3-18,0.3c0.3-0.1,0-0.2,1-0.2
		c-7.2-0.4-4.5,1.1-12.7,0.7c-4.2-0.6,4.4-0.3,1.8-0.6c-1.1-1.3-9.9,0.2-15.5-0.6l1.3-0.1c-4.2-0.4-10.3,0.5-17.3,0.4
		c0,0,0.3-0.1,0-0.2c-4.7,0.6-13.7,0.9-20.4,1c2.1-0.5,3-0.3,1.8-0.8c-3,0.1,0.9,0.8-5.1,1c-1.9-0.3-6.2-0.5-6.8-1.1l5.6,0
		c-2.9-0.7-7.3,0-10.2-0.1L82.1,1c-8.6,0.1-8.7,0.9-18,0.8l1,0.2c-5.1,0.8-4.2-0.4-9.3,0.1l-1.5-0.8c-3.3,0.2-11.7,0.7-17.7,0.9
		c3.4-0.6,10.4-0.9,14.7-1.2c-3.3,0-11.3,0.1-13,0.4c1.3-0.1,3-0.3,4.3-0.1c-4.1,0.6-9.4,0.9-16,0.9c0.6-0.8-3.7-0.8-8.8-0.9
		c-1.3,0-2.6,0-3.9,0c-0.3,0-0.7,0-1,0c-0.4,0-0.7,0-1.1,0c-0.4,0-0.7,0.1-1.1,0.1c-0.4,0.1-0.7,0.2-1,0.2C7.1,2.5,5.1,4,4,4.9
		c-1.1,1.4-1.9,3-2.4,4.7c-0.1,0.4-0.2,0.8-0.3,1.3c-0.1,0.4-0.1,0.9-0.1,1.3l0,0.6l0,0.5l0,1.1c0,2.9,0,5.8-0.1,8.8
		c-0.1,6-0.3,12.2-0.3,18.9c1.2-4.8,0,3.9,1.2,3.1c0.1,3.1,0.1,4.3,0,4.6l0.1-0.7c0,0.3,0,0.4-0.1,0.7h0l-0.7,9.5
		c-0.4,2.3-0.3-3-0.5-2.7c-0.1,6.9-0.5,2.9-0.8,7.4c0.4-0.9,0.6,2.4,0.5,6.3L1,64.9c0.6,9.6-1,8.3-0.4,18l-0.4-3.1
		c0.2,5,0,18.3,1,23.2c-0.1,0.9-0.5,2-0.6-0.1c-0.1,11.9,1,26.4,0.4,35.6l-0.3-0.9c0.1,2.2,0.6,3.9,0.3,6.6
		c-0.1-0.1-0.3-0.9-0.3,0.1c0.1,1.2,0.5,5.9,0.3,8.8l-0.3-2.5c-0.4,11.6,0.8,17.8,1,27.5c-0.9,0-1.2,9.1-1.3,13.6l-0.1-0.2
		c-0.1,13.5,0.7,22.9,1.1,35.4c-0.9,7.7-0.4,26.2-0.9,38.7c0.2-1.9,0.7,0.3,0.8,2.5c-0.2,2.9,0.6,8.1-0.2,7.6l0-1
		c-0.4,1.1-0.5,3.2-0.6,5.5c0,1.2,0,2.4,0,3.7c0,0.6,0,1.3,0,1.9c0,0.3,0,0.6,0,0.9c0,0.3,0,0.6,0,1c0.4,0.3,0.7,0.6,1.1,0.9
		c0,1.8,0.6,3.8,1.7,5.5c0.6,0.9,1.3,1.7,2.1,2.4c0.9,0.7,1.8,1.3,2.9,1.8c1.1,0.4,2.2,0.8,3.3,0.9c0.6,0.1,1.2,0.1,1.7,0.1l1.4,0
		c1.9,0,3.8-0.1,5.6-0.1c7.4-0.2,14.1-0.3,17.5,0.3c3-0.3,6.7-0.3,9.6-0.5l-0.2,0.6c8.3,0.1,12.4,0.2,22.6,0.1l-2.1,0.4
		c5.8,0,7.3-1.6,12.6-1.6l1.6,0.8c10.1,0,20.3,0.7,30.2,0c-0.2,0.1-0.5,0.4-2.1,0.4c4.6,0,17.4,0.5,16.7-0.5
		c1.2,0.6,10.6-0.1,15.7-0.4l-0.8,0.5c4.6-0.7,4.7-0.9,11.1-1.1c1.5,0.1,1.3,0.4-0.7,0.3c5.1,0.3,3.9-0.5,10.1-0.2l-2.3,0.4
		c5.2,0,4.8-0.1,7.7-0.6c3.3-0.2,9.9,0.1,10.6,0.6c0.7-0.3,3.6-0.7,6.6-0.6c0.4,0.2-0.7,0.3-1.3,0.4c8.7,0.4,12.9-0.6,18.9-0.1
		c0.1,0.2,0.5,0.3,1,0.3c-6.4,0-11.6,0-12-0.1c0.1,0.5,5.6,0.6,1.1,1.3c4.5-0.4,12.2-1.2,17.6-1c0.3,0,0.5,0.1,0.7,0.2l-0.6,0.1
		c1.3,0.1,2.4,0,3.4-0.1c1.7,0.1,2.8,0.1,4.5,0.2c0.6,0.4,6.4,0.2,9.2,0.2c-0.2-0.5,3.3-0.5,0.1-0.9c0.1,0-0.9,0.1-2.5,0.1
		c-0.4,0-0.9,0-1.2,0.1c0.1,0,0.1,0,0.2,0c-1.8,0-4.2,0-6.9,0c2.2-0.3,4.5-0.5,7.6-0.2c1.4-0.4,3-0.7,3.9-0.9
		c3.8,0.8,11.2,1.2,12.2,1.7c8.5-0.3,20-0.2,25.4-1.2c2.4-0.1,2.8,0.3,3.7,0.5c-1.4,0.1-3.1,0.1-3.8,0.2c4.8-0.3,14.3-0.1,15.5-0.8
		c6.1,0.3-3.4,0.7,4.9,0.5l-1.1,0.2c16.5,1.2,26.8-1.8,45.1-0.4c-1.3-0.1-1.9-0.1-2.2-0.3c20.8,0.7,42.9-0.6,63.5,0.4
		c5.8,0.2,6.5-0.3,10-0.6l1.3,0.6l6.1-0.7c8.6-0.5,15,1.5,25.9,0.5l-1.4-0.4c3.9,0.1,12.5-0.2,11.8,0.2c0.4-0.1,1.3-0.4,2.8-0.2
		l0.1,0.3l9.7-0.5c7.5,0.2-1.2,1.2,9.8,1.3c4.1-0.1,11.6-0.9,10-1.1c-1.6,0-4.2-0.2-4.3-0.5l3.7-0.2c0-0.1,0.1-0.1,0.1-0.2h0.6
		c5.5,0,9.9-4.4,9.9-9.8v-28.1l0.2,0.4l-0.2-1.3v-5.6c0.1,0.2,0.2,0.7,0.3,1.8c0.4-4.1-0.3-3.6,0.2-7.1c0.1-0.4,0.1-0.2,0.1,0.1
		l-0.2-4c0.2,0.8,0.6-0.7,0.5,1.8c0.5-7.2-0.6-11.5,0-14.2l0.1,0.6c-0.2-7.4-0.4-4.3-0.8-5.3v-4.6l1-3.4l-0.6-1c0-1,0.1-3.1,0.3-2.7
		c-0.4-3.8-0.3,0.7-0.7-1.6c0.5-4.9-0.3-13.6,0.7-14.7c-0.5-1.8-0.4,4.7-0.7-0.5c1-1.5-0.2-6.1,0.3-10.6c0.5,1.4,0.3,5.7,0.7,1.1
		c-0.9-2.7,0.2-8.8,0-12.6c-0.7-0.2-0.3-8.3-0.5-14.6c0.2,0.4,0.4-12,0.7-17.9l0.1,0.2c-0.7-1.1-0.6-7.3-0.7-11.7
		c0.4,0.2,0.6,1,0.8,3.4l0-4.2c-0.2-1-0.4-2.3-0.4-5l0.5,1.1c0-5.6-0.6-11.2-0.3-18.4c-0.3-0.3-0.9,2.4-1.3,1.9v-3.9
		c0.2,0.1,0.3,0.5,0.4,1.6c0-0.6-0.2-2.3-0.1-3.6l0.5,3c0.2-3.3-0.4-1.7-0.3-4.3c0.4,0.1,0.3-1.9,0.6-1.6
		C489.2,102.2,489,103.8,489.2,104.8 M222.6,299.2c0.1,0,0.2,0,0.2-0.1c-0.2,0.1-0.4,0.2-0.7,0.3c-1.9,0.1-2.5,0-2.7-0.1
		C220.2,299.2,221.3,299.2,222.6,299.2 M488.3,245.8c0,0.2-0.1,0.4-0.1,0.5v-2.4C488.3,244.5,488.3,245.1,488.3,245.8"/>
	<path class="st0" d="M227.8,298.6c0,0,0.1,0,0.1,0C227.9,298.6,227.9,298.6,227.8,298.6"/>
	<path class="st0" d="M353.1,0.4c0.6,0,1.1,0,1.6,0C354,0.4,353.5,0.4,353.1,0.4"/>
	<path class="st0" d="M191.8,298.6C191.8,298.6,191.8,298.6,191.8,298.6C191.7,298.6,191.7,298.6,191.8,298.6"/>
	<path class="st0" d="M208,1.8C208.1,1.7,208.1,1.7,208,1.8C208.1,1.7,208,1.7,208,1.8"/>
	<path class="st0" d="M225.4,298.7c0.3,0,0.4,0,0.8,0c-0.4,0-0.7-0.1-1.1-0.1c-0.2,0.1-0.5,0.1-0.7,0.2
		C224.8,298.7,225.1,298.7,225.4,298.7"/>
	<path class="st0" d="M489.1,71.8c0,0.2,0,0.3-0.1,0.4c0-0.1,0-0.1,0-0.2L489.1,71.8z"/>
	<path class="st0" d="M489,72.3c0,0,0-0.1,0-0.1C489,72.2,489,72.3,489,72.3"/>
	<path class="st0" d="M489.2,204.4l-0.2,7.1c0.2-1.3,0.5-2.9,0.6,0.4C490.2,202.9,489.1,213.8,489.2,204.4"/>
	<path class="st0" d="M489.5,182.2c0.1,3.8,0.3,0,0.4,0.2C489.7,179.9,489.7,179.4,489.5,182.2"/>
	<path class="st0" d="M489.5,22l0.5,0.4C489.9,19.4,489.8,22.4,489.5,22"/>
	<polygon class="st0" points="455.4,0.6 450.4,0.8 454.1,0.7 	"/>
	<path class="st0" d="M182.4,0.9l0.9,0.6C185.3,1.4,185.7,0.7,182.4,0.9"/>
	<path class="st0" d="M65.1,1.5c-1.3-0.3-4.6-0.5-6.6-0.2C61.1,1.3,63.8,1.6,65.1,1.5"/>
	<path class="st0" d="M3.7,295.2c-0.4-0.3-0.7-0.7-1-1.1c-0.3-0.4-0.6-0.8-0.8-1.2c0.9,1.6,2.2,3,3.7,4.1
		C4.9,296.5,4.3,295.8,3.7,295.2"/>
</g>
</svg>
