<?xml version="1.0" encoding="utf-8"?>
<!-- Generator: Adobe Illustrator 21.1.0, SVG Export Plug-In . SVG Version: 6.00 Build 0)  -->
<svg version="1.1" id="Layer_1" xmlns="http://www.w3.org/2000/svg" xmlns:xlink="http://www.w3.org/1999/xlink" x="0px" y="0px"
	 width="156.7px" height="57.5px" viewBox="0 0 156.7 57.5" style="enable-background:new 0 0 156.7 57.5;" xml:space="preserve">
<style type="text/css">
	.st0{fill:none;stroke:#FFC23F;stroke-width:3;stroke-linejoin:round;stroke-miterlimit:10;}
</style>
<g>
	<path class="st0" d="M110.9,2.8c0.3,0,0.4-0.1,0.4-0.1C111.1,2.7,110.9,2.7,110.9,2.8z"/>
	<path class="st0" d="M105,2.2c0.1,0,0.2,0,0.3,0C105.3,2.2,105.1,2.2,105,2.2z"/>
	<path class="st0" d="M145.3,3l-0.9-0.2C144.3,3,144.9,3,145.3,3z"/>
	<path class="st0" d="M155,12.4l0,0.3c0.1,0.1,0.1,0.2,0.2,0.2L155,12.4z"/>
	<path class="st0" d="M154.5,23.6c0.2,0.1,0.3,0.3,0.3,0.6c0.1,0,0.2,0,0.3-0.1C155.1,23.8,154.7,23.7,154.5,23.6z"/>
	<path class="st0" d="M154.4,42.5c0,0.1,0,0.2,0.1,0.3L154.4,42.5z"/>
	<path class="st0" d="M152.6,3.8c0-0.1,0-0.1,0-0.2C152.6,3.6,152.6,3.7,152.6,3.8z"/>
	<path class="st0" d="M148.9,53.8l-0.2,0c0,0.1,0,0.2,0,0.2L148.9,53.8z"/>
	<path class="st0" d="M94.3,1.7C94.3,1.7,94.3,1.7,94.3,1.7C94.6,1.6,94.5,1.6,94.3,1.7z"/>
	<path class="st0" d="M2.2,14.2C2.6,13,2.7,16,3.1,14.3C2.9,14.5,2.4,12.8,2.2,14.2z"/>
	<path class="st0" d="M69.5,1.9c0.1,0.1,0.1,0.1,0.3,0.2C69.8,2.1,69.7,2,69.5,1.9z"/>
	<path class="st0" d="M60,2.5c-0.2,0-0.3-0.1-0.7,0c0,0,0.1,0,0.1,0.1C59.5,2.5,59.7,2.5,60,2.5z"/>
	<path class="st0" d="M50,2.5c0.1,0,0.1,0.1,0.2,0.1c0.1,0,0.2,0,0.3,0L50,2.5z"/>
	<path class="st0" d="M154.7,35l-0.5-0.2c0-0.3,0.1-0.8,0.2-0.7c-0.3-1-0.2,0.2-0.5-0.4c0.4-1.3-0.2-3.5,0.5-3.8
		c-0.3-0.5-0.3,1.2-0.5-0.1c0.8-0.4-0.1-1.6,0.2-2.7c0.4,0.4,0.2,1.4,0.6,0.3c-0.7-0.7,0.1-2.2,0-3.2c-0.5,0-0.2-2.1-0.4-3.7
		c0.2,0.1,0.3-3.1,0.5-4.6l0.1,0c-0.6-0.3-0.4-1.9-0.6-3c0.3,0,0.5,0.2,0.6,0.9l0-1.1c-0.2-0.3-0.3-0.6-0.3-1.3l0.4,0.3
		c0-0.7-0.1-1.4-0.2-2.2c-0.1-0.7-0.1-1.7-0.4-2.8c-0.2,0-0.3,0.5-0.5,0.7c-0.1,0.1-0.2,0.1-0.3,0.1c-0.1-0.3-0.2-0.6-0.3-0.9
		c0.1,0,0.3,0,0.4,0.3c-0.1-0.2-0.4-0.5-0.5-0.8c0.2,0.2,0.5,0.4,0.7,0.6c-0.3-0.9-0.5-0.3-0.8-0.9c0.3-0.2-0.2-0.6,0.1-0.6
		c0.2,0.1,0.3,0.6,0.6,0.8c-0.4-0.8-1-1.6-1.2-2c0,0.2-0.2,0.3-0.8,0c-0.7-0.4-0.8-0.5-0.8-0.6c0-0.1,0.1-0.3-0.4-0.5
		c-0.5,0-1.6-0.2-1.6,0.2c-0.4,0-0.5-0.2-0.7-0.3c-0.7,0.2-3.4,0.1-2.6,0.5l0.2,0c0,0-0.1,0-0.1,0c-2.4,0.4-5-0.3-7.4-0.1l0-0.1
		c-1.4,0.2-3.2,0.1-4.2,0.4c-0.4,0-1-0.3-0.8-0.4c-1.1,0.1-1.2,0.3-2.8,0c1.1-0.3-0.4-0.2,1.1-0.2c-1.4-0.1-1.7-0.4-3.3,0
		c0.5-0.4-1.1-0.5-1.7-0.4l1,0.3c-0.8,0.1-1.4,0-2.1,0l0.4-0.5c-2.9-0.6-5.2,1-7.5,0c-0.8,0.3,1.6,0.2,0.9,0.7
		c-1.3-0.1-2.7-0.8-3.2-0.8c-1.8-0.3-1.7,0.7-3.6,0.5c0.2,0.2,0.5,0.7-1,0.8c-1.3-0.1-1.6-0.7-0.8-0.9c0.3,0,0.5,0,0.5,0.1
		c0.4-0.1,1-0.1,0.5-0.3l-0.2,0.2c-0.7-0.2-2.5-0.2-2.1-0.5c-1,0.2-0.4,0.3,0.3,0.4c-1.7-0.3-2.7,0-4.4-0.2c0.3,0.1,0.5,0.3,0.3,0.3
		c-2.6-0.2-1.1,0.3-2.9,0.4c-1-0.3,0.4-0.6-1.4-0.4c-1.1-0.2-0.2-0.5,0.2-0.6c-1.6,0.3-3-0.2-3.9-0.3l0.8-0.1
		c-0.5,0.1-0.9,0.1-1.3,0.1l0.5,0.4c-0.5-0.1-0.9-0.1-0.9-0.2c-0.5,0.2,0.4,0.6-0.6,0.9c-0.7-0.2-2,0.2-2.3-0.3
		c2.1,0.2-0.2-0.5,1.5-0.6c-0.3,0.1-0.8,0.1-1.3,0c-0.1-0.1,0.1-0.1,0.2-0.1c-2-0.4-0.9,0.5-3,0.5c0.3-0.3-0.5-0.5-0.8-0.4
		c0.8,0,0.4,0.4-0.4,0.6c-1.3-0.2-1.4,0.2-2.1,0.1l0.8,0.1c-0.3,0.3-0.9,0.2-1.9,0.3c-0.1-0.2,0.8-0.1,0.5-0.2
		c-1,0.5-2.3-0.5-3.8-0.2C83,2.4,83.6,2,83,1.9c-1.6,0.3-1.7-0.4-3.4-0.1c0.5,0.4,0.6,0.3-0.6,0.6l2.8-0.3L80,2.7
		c0.8,0,1.8-0.2,2.3-0.2c-0.8,0.3-0.8,0.2-0.4,0.5c-1.1-0.5-2.3,0.3-3.6,0l0-0.9c-2-0.4-3.5,0.5-6.1,0.2L73,2.5
		c-0.3,0.4-1.6,0-2.4,0.2c0.1-0.3-0.4-0.4-0.8-0.6c0,0.2-1.9,0-2.1,0.6l-1.2-0.4c-2.1-0.2-2.4,0.8-4.4,0.7c0.6-0.3-0.3-0.5,1-0.8
		c-0.7,0-1.3-0.1-1.3,0.1c-0.4-0.2-1.9,0.4-2.5,0.1C59.1,2.7,59,3,58.3,3c-0.1-0.1,0-0.1,0-0.1c0,0.1-1.2,0.2-0.5,0.5
		c-2.1-0.9-5.8,0.1-7.6-0.7c-1.5,0.1-3.2,0.2-4.6,0.2c0.1-0.1,0-0.1,0.3-0.1c-1.8-0.3-1.1,0.9-3.2,0.5c-1.1-0.5,1.1-0.3,0.4-0.4
		c-0.3-1-2.5,0.1-3.9-0.4l0.3-0.1c-1.1-0.3-2.6,0.4-4.4,0.3c0,0,0.1-0.1,0-0.1C34,3,31.7,3.1,30,3.3c0.5-0.4,0.8-0.2,0.4-0.6
		c-0.8,0.1,0.2,0.6-1.3,0.7c-0.5-0.2-1.6-0.4-1.7-0.8l1.4,0c-0.7-0.5-1.8,0-2.6-0.1l0.1-0.2c-2.2,0.1-2.2,0.7-4.6,0.6l0.2,0.2
		c-1.3,0.6-1.1-0.3-2.4,0.1l-0.4-0.6c-0.8,0.1-3,0.6-4.5,0.7c0.9-0.4,2.6-0.7,3.7-0.9c-0.8,0-2.8,0-3.3,0.3c0.3-0.1,0.8-0.2,1.1-0.1
		c-1,0.5-2.4,0.7-4,0.7c0.1-0.6-0.9-0.6-2.2-0.7c-0.3,0-0.7,0-1,0c-0.3,0-0.8,0-1.1,0c-0.8,0-1.4,0.2-1.9,0.1c-1.7,1-3,2.5-3.6,4.4
		c-0.2,0.5-0.2,1-0.3,1.5c0,0.4,0,0.8-0.1,1.2c0,0.8-0.1,1.6,0,2.5c0.9-1.2,0,1,0.9,0.8c0.1,0.8,0,1.1,0,1.2l0-0.2
		c0,0.1,0,0.1,0,0.2h0l-0.5,2.4C2.3,17.3,2.3,16,2.1,16c-0.1,1.8-0.4,0.7-0.6,1.9c0.3-0.2,0.5,0.6,0.3,1.6l0.4-1.4
		c0.5,2.5-0.8,2.1-0.3,4.6l-0.3-0.8c0.2,1.3,0,4.7,0.7,5.9c-0.1,0.2-0.4,0.5-0.4,0c-0.1,3,0.8,6.7,0.3,9.1l-0.2-0.2
		c0.1,0.6,0.4,1,0.2,1.7c-0.1,0-0.2-0.2-0.2,0c0.1,0.3,0.4,1.5,0.3,2.3L2.1,40c-0.3,3,0.6,4.5,0.8,7c-0.3,0-0.5,0.6-0.7,1.3
		c-0.1,0.3-0.1,0.9-0.1,1.4c0,0.5,0.1,1,0.3,1.4l-0.1,0C3,53.6,5,54.9,6.9,55.3c0.9,0.2,2.1,0.1,2.7,0c0.7-0.1,1.5-0.2,2.3-0.2
		c2,0.7,6.7,0.3,9.9,0.7c-0.5-0.1,0.1-0.5,0.6-0.6c0.7,0.1,2.1-0.5,1.9,0.1l-0.3,0c0.6,0.6,2.1,0.4,3.3,0.5l0.2-0.8
		c3.1,1.2,8.2-0.4,9.9,0.6c0.8-0.2,1.7-0.2,2.4-0.4l0,0.4c2.1,0.1,3.1,0.2,5.7,0.1L45.1,56c1.5,0,1.8-1.2,3.2-1.2l0.4,0.6
		c2.5,0,5.1,0.5,7.6,0c0,0.1-0.1,0.3-0.5,0.3c1.2,0,4.6,0.4,4.2-0.4c0,0.6,2.6,0.1,4-0.2l-0.2,0.4c1.2-0.5,1.2-0.7,2.8-0.8
		c0.4,0.1,0.3,0.3-0.2,0.2c1.3,0.2,1-0.4,2.6-0.2l-0.6,0.3c1.3,0,1.2-0.1,1.9-0.4c0.8-0.2,2.5,0.1,2.7,0.5c0.2-0.2,0.9-0.5,1.7-0.4
		c0.1,0.1-0.2,0.2-0.3,0.3c2.2,0.3,3.3-0.5,4.8-0.1c0,0.1,0.1,0.2,0.3,0.2c-1.8,0-3.2,0-3-0.1c0,0.4,1.4,0.5,0.3,1
		c1.1-0.3,3.1-0.9,4.5-0.7c0.1,0,0.1,0.1,0.2,0.1l-0.1,0c0.3,0,0.6,0,0.9-0.1c0.4,0.1,0.7,0.1,1.1,0.1c0.2,0.3,1.6,0.2,2.3,0.2
		c-0.1-0.4,0.9-0.4,0-0.7c0.1,0-0.1,0.1-0.6,0.1c-0.1,0-0.2,0-0.3,0c0,0,0,0,0,0c-0.5,0-1.1,0-1.8,0c0.6-0.2,1.1-0.4,1.9-0.2
		c0.4-0.3,0.8-0.5,1-0.7c1,0.6,2.8,0.9,3.1,1.3c2.2-0.2,5.1-0.2,6.4-0.9c0.6-0.1,0.7,0.2,0.9,0.4c-0.4,0.1-0.8,0.1-1,0.2
		c1.2-0.2,3.6-0.1,3.9-0.6c1.5,0.2-0.9,0.5,1.3,0.4l-0.3,0.2c4.2,0.9,6.8-1.4,11.4-0.3c-0.3-0.1-0.5-0.1-0.5-0.2
		c5.3,0.5,10.9-0.5,16.1,0.3c1.5,0.2,1.6-0.2,2.5-0.5l0.3,0.5l1.5-0.5c2.2-0.4,3.8,1.1,6.6,0.4l-0.4-0.3c1,0.1,3.1-0.2,3,0.2
		c0.1-0.1,0.3-0.3,0.7-0.2l0,0.2l2.4-0.4c1.9,0.2-0.3,0.9,2.5,1c1-0.1,2.9-0.7,2.5-0.8c-0.4,0-1.1-0.1-1.1-0.4l0.9-0.1
		c0,0,0-0.1,0-0.1h0.1c2.8,0,5-2.2,5-5v-3.3l0.1,0.1l-0.1-0.3v-1.4c0.1,0,0.2,0.2,0.2,0.5c0.3-1-0.2-0.9,0.1-1.8
		c0.1-0.1,0.1-0.1,0.1,0l-0.2-1c0.1,0.2,0.4-0.2,0.3,0.5c0.4-1.8-0.5-2.9,0-3.6l0,0.2c-0.2-1.9-0.3-1.1-0.6-1.4v-1.2L154.7,35z
		 M84.2,55.4C84.2,55.4,84.3,55.3,84.2,55.4c0,0,0,0.1-0.1,0.2c-0.5,0.1-0.6,0-0.7-0.1C83.6,55.4,83.9,55.4,84.2,55.4z M154,42.1
		c0,0.1,0,0.1-0.1,0.1v-0.6C153.9,41.8,154,41.9,154,42.1z"/>
	<path class="st0" d="M84.9,55c0.1,0,0.1,0,0.2,0c-0.1,0-0.2-0.1-0.3-0.1c-0.1,0-0.1,0.1-0.2,0.1C84.8,55,84.9,55,84.9,55z"/>
	<path class="st0" d="M145.7,3.1c0.1,0,0.1,0,0.1,0.1C145.8,3.1,145.8,3.1,145.7,3.1L145.7,3.1z"/>
	<path class="st0" d="M154.7,31.5l-0.1,1.8c0.2-0.3,0.4-0.7,0.4,0.1C155.4,31.1,154.6,33.9,154.7,31.5z"/>
	<path class="st0" d="M154.9,25.8c0.1,1,0.2,0,0.3,0C155.1,25.2,155,25.1,154.9,25.8z"/>
	<path class="st0" d="M132.9,2.8l0.1-0.4C132.3,2.4,133,2.5,132.9,2.8z"/>
	<polygon class="st0" points="120.8,2 119.6,2.1 120.5,2 	"/>
	<path class="st0" d="M51.8,2.2L52,2.6C52.5,2.5,52.6,2,51.8,2.2z"/>
	<path class="st0" d="M22.1,2.6c-0.3-0.2-1.2-0.4-1.7-0.2C21.1,2.5,21.7,2.7,22.1,2.6z"/>
	<polygon class="st0" points="28.5,55.8 29.6,55.6 29.1,55.6 	"/>
</g>
</svg>
