<?xml version="1.0" encoding="utf-8"?>
<!-- Generator: Adobe Illustrator 21.1.0, SVG Export Plug-In . SVG Version: 6.00 Build 0)  -->
<svg version="1.1" id="Layer_1" xmlns="http://www.w3.org/2000/svg" xmlns:xlink="http://www.w3.org/1999/xlink" x="0px" y="0px"
	 viewBox="0 0 141 50" style="enable-background:new 0 0 141 50;" xml:space="preserve">
<style type="text/css">
	.st0{fill:#FFC23F;}
</style>
<g>
	<path class="st0" d="M100.4,1.2c0.3,0,0.4-0.1,0.4-0.1C100.6,1.1,100.4,1.1,100.4,1.2z"/>
	<path class="st0" d="M131.9,1.4l-0.8-0.2C131,1.4,131.6,1.4,131.9,1.4z"/>
	<path class="st0" d="M140.8,10v0.3c0.1,0.1,0.1,0.2,0.2,0.2L140.8,10z"/>
	<path class="st0" d="M140.4,20.3c0.2,0.1,0.3,0.3,0.3,0.6c0.1,0,0.2,0,0.3-0.1C140.9,20.5,140.6,20.4,140.4,20.3z"/>
	<path class="st0" d="M140.3,37.6c0,0.1,0,0.2,0.1,0.3L140.3,37.6z"/>
	<path class="st0" d="M135.2,48H135c0,0.1,0,0.2,0,0.2L135.2,48z"/>
	<path class="st0" d="M85.1,0.2L85.1,0.2C85.4,0.1,85.3,0.1,85.1,0.2z"/>
	<path class="st0" d="M0.6,11.7c0.4-1,0.5,1.7,0.8,0.1C1.3,11.9,0.8,10.4,0.6,11.7z"/>
	<path class="st0" d="M62.4,0.4c0.1,0.1,0.1,0.1,0.3,0.2C62.7,0.6,62.6,0.5,62.4,0.4z"/>
	<path class="st0" d="M53.7,0.9c-0.2,0-0.3-0.1-0.6,0c0,0,0.1,0,0.1,0.1C53.2,0.9,53.4,0.9,53.7,0.9z"/>
	<path class="st0" d="M44.5,0.9c0.1,0,0.1,0.1,0.2,0.1c0.1,0,0.2,0,0.3,0L44.5,0.9z"/>
	<path class="st0" d="M140.6,30.7l-0.5-0.2c0-0.3,0.1-0.7,0.2-0.6c-0.3-0.9-0.2,0.2-0.5-0.4c0.4-1.2-0.2-3.2,0.5-3.5
		c-0.3-0.5-0.3,1.1-0.5-0.1c0.7-0.4-0.1-1.5,0.2-2.5c0.4,0.4,0.2,1.3,0.6,0.3c-0.6-0.6,0.2-2,0-2.9c-0.5,0-0.2-1.9-0.4-3.4
		c0.2,0.1,0.3-2.8,0.5-4.2h0.1c-0.6-0.3-0.4-1.7-0.6-2.8c0.3,0,0.5,0.2,0.6,0.8v-1c-0.2-0.3-0.3-0.6-0.3-1.2l0.4,0.3
		c0-0.6-0.1-1.3-0.2-2c-0.1-0.6-0.1-1.6-0.4-2.6c-0.2,0-0.3,0.5-0.5,0.6c0,0.1-0.1,0.1-0.2,0.1c-0.1-0.3-0.2-0.6-0.3-0.8
		c0.1,0,0.3,0,0.4,0.3c-0.1-0.2-0.4-0.5-0.5-0.7c0.2,0.2,0.5,0.4,0.6,0.6c-0.3-0.8-0.5-0.3-0.7-0.8c0.3-0.2-0.2-0.6,0.1-0.6
		c0.2,0.1,0.3,0.6,0.6,0.7c-0.4-0.7-0.9-1.5-1.1-1.8c0,0.2-0.2,0.3-0.7,0c-0.6-0.4-0.7-0.5-0.7-0.6s0.1-0.3-0.4-0.5
		c-0.5,0-1.4-0.2-1.5,0.2c-0.4,0-0.5-0.2-0.6-0.3c-0.6,0.2-3.1,0.1-2.4,0.5h0.2h-0.1c-2.2,0.4-4.6-0.3-6.8-0.1V1.5
		c-1.3,0.2-2.9,0.1-3.9,0.4c-0.4,0-0.9-0.3-0.7-0.4c-1,0.1-1.1,0.3-2.6,0c1-0.3-0.4-0.2,1-0.2c-1.3-0.1-1.6-0.4-3,0
		c0.5-0.4-1-0.5-1.6-0.4l0.9,0.3c-0.7,0.1-1.3,0-1.9,0l0.4-0.5c-2.7-0.6-4.8,0.9-6.9,0c-0.7,0.3,1.5,0.2,0.8,0.6
		c-1.2-0.1-2.5-0.7-2.9-0.7c-1.7-0.3-1.6,0.6-3.3,0.5c0.2,0.2,0.5,0.6-0.9,0.7c-1.2-0.1-1.5-0.6-0.7-0.8c0.3,0,0.5,0,0.5,0.1
		c0.4-0.1,0.9-0.1,0.5-0.3L101,0.9c-0.6-0.2-2.3-0.2-1.9-0.5c-0.9,0.2-0.4,0.3,0.3,0.4c-1.6-0.3-2.5,0-4-0.2
		c0.3,0.1,0.5,0.3,0.3,0.3c-2.4-0.2-1,0.3-2.7,0.4C92,1,93.3,0.7,91.7,0.9c-1-0.2-0.2-0.5,0.2-0.6c-1.5,0.3-2.8-0.2-3.6-0.3L89,0
		c-0.5,0.1-0.8,0.1-1.2,0.1l0.5,0.4c-0.5-0.1-0.8-0.1-0.8-0.2c-0.5,0.2,0.4,0.6-0.6,0.8c-0.6-0.2-1.8,0.2-2.1-0.3
		c1.9,0.2-0.2-0.5,1.4-0.6c-0.3,0.1-0.7,0.1-1.2,0c-0.1-0.1,0.1-0.1,0.2-0.1c-1.8-0.4-0.8,0.5-2.8,0.5c0.3-0.3-0.5-0.5-0.7-0.4
		c0.7,0,0.4,0.4-0.4,0.6C80.1,0.6,80,1,79.4,0.9L80.1,1c-0.3,0.3-0.8,0.2-1.7,0.3c-0.1-0.2,0.7-0.1,0.5-0.2
		c-0.9,0.5-2.1-0.5-3.5-0.2c-0.6-0.2-0.1-0.5-0.6-0.6c-1.5,0.3-1.6-0.4-3.1-0.1c0.5,0.4,0.6,0.3-0.6,0.6l2.6-0.3L72,1
		c0.7,0,1.7-0.2,2.1-0.2c-0.7,0.3-0.7,0.2-0.4,0.5c-1-0.5-2.1,0.3-3.3,0V0.5c-1.8-0.4-3.2,0.5-5.6,0.2l0.7,0.3
		c-0.3,0.4-1.5,0-2.2,0.2c0.1-0.3-0.4-0.4-0.7-0.6c0,0.2-1.7,0-1.9,0.6l-1.1-0.4c-1.9-0.2-2.2,0.7-4,0.6c0.6-0.3-0.3-0.5,0.9-0.7
		c-0.6,0-1.2-0.1-1.2,0.1c-0.3-0.1-1.7,0.5-2.2,0.2c-0.3,0.1-0.4,0.4-1,0.4c-0.1-0.1,0-0.1,0-0.1c0,0.1-1.1,0.2-0.5,0.5
		c-1.9-0.8-5.3,0.1-7-0.6c-1.4,0.1-2.9,0.2-4.2,0.2c0.1-0.1,0-0.1,0.3-0.1c-1.7-0.3-1,0.8-2.9,0.5c-1-0.5,1-0.3,0.4-0.4
		c-0.3-0.9-2.3,0.1-3.6-0.4l0.3-0.1c-1-0.3-2.4,0.4-4,0.3c0,0,0.1-0.1,0-0.1c-1.1,0.5-3.2,0.6-4.8,0.7c0.6-0.4,0.8-0.2,0.6-0.6
		c-0.7,0.1,0.2,0.6-1.2,0.6C25,1.6,23.9,1.4,23.9,1h1.3c-0.6-0.5-1.7,0-2.4-0.1l0.1-0.2c-2,0.1-2,0.6-4.2,0.6l0.2,0.2
		c-1.2,0.6-1-0.3-2.2,0.1L16.2,1c-0.7,0.1-2.8,0.6-4.1,0.6c0.8-0.4,2.4-0.6,3.4-0.8c-0.7,0-2.6,0-3,0.3c0.3-0.1,0.7-0.2,1-0.1
		c-0.9,0.5-2.2,0.6-3.7,0.6C10.1,1.1,9.1,1,7.9,1C7.6,1,7.3,1,7,1C6.8,0.9,6.3,0.9,6,0.9C5.2,0.9,4.7,1.1,4.2,1
		C2.7,1.9,1.5,3.3,0.9,5C0.7,5.5,0.7,6,0.6,6.4c0,0.4,0,0.7-0.1,1.1c0,0.7-0.1,1.5,0,2.3c0.8-1.1,0,0.9,0.8,0.7c0.1,0.7,0,1,0,1.1
		v-0.2c0,0.1,0,0.1,0,0.2l0,0l-0.5,2.3c-0.3,0.6-0.2-0.7-0.4-0.6C0.5,15,0.2,13.9,0,15c0.3-0.2,0.5,0.6,0.3,1.5l0.4-1.3
		c0.5,2.3-0.7,1.9-0.3,4.2l-0.3-0.7c0.2,1.2,0,4.3,0.6,5.4c-0.1,0.2-0.4,0.5-0.4,0c-0.1,2.8,0.7,6.1,0.3,8.3l-0.2-0.2
		c0.1,0.6,0.4,0.9,0.2,1.6c-0.1,0-0.2-0.2-0.2,0c0.1,0.3,0.4,1.4,0.3,2.1l-0.3-0.6c-0.3,2.8,0.6,4.1,0.7,6.4c-0.3,0-0.5,0.6-0.6,1.2
		c-0.1,0.3-0.1,0.8-0.1,1.3c0,0.5,0.1,0.9,0.3,1.3H0.6C1.4,47.8,3.2,49,5,49.4c0.8,0.2,1.9,0.1,2.5,0c0.6-0.1,1.4-0.2,2.1-0.2
		c1.8,0.6,6.1,0.3,9.1,0.6c-0.5-0.1,0.1-0.5,0.6-0.6c0.6,0.1,1.9-0.5,1.7,0.1h-0.3c0.6,0.6,1.9,0.4,3,0.5l0.2-0.7
		c2.8,1.1,7.5-0.4,9.1,0.6c0.7-0.2,1.6-0.2,2.2-0.4v0.4c1.9,0.1,2.8,0.2,5.2,0.1L39.9,50c1.4,0,1.7-1.1,2.9-1.1l0.4,0.6
		c2.3,0,4.7,0.5,7,0c0,0.1-0.1,0.3-0.5,0.3c1.1,0,4.2,0.4,3.9-0.4c0,0.6,2.4,0.1,3.7-0.2l-0.2,0.4c1.1-0.5,1.1-0.6,2.6-0.7
		c0.4,0.1,0.3,0.3-0.2,0.2c1.2,0.2,0.9-0.4,2.4-0.2l-0.6,0.3c1.2,0,1.1-0.1,1.7-0.4c0.7-0.2,2.3,0.1,2.5,0.5
		c0.2-0.2,0.8-0.5,1.6-0.4c0.1,0.1-0.2,0.2-0.3,0.3c2,0.3,3-0.5,4.4-0.1c0,0.1,0.1,0.2,0.3,0.2c-1.7,0-2.9,0-2.8-0.1
		c0,0.4,1.3,0.5,0.3,0.9c1-0.3,2.8-0.8,4.1-0.6c0.1,0,0.1,0.1,0.2,0.1h-0.1c0.3,0,0.6,0,0.8-0.1c0.4,0.1,0.6,0.1,1,0.1
		c0.2,0.3,1.5,0.2,2.1,0.2c-0.1-0.4,0.8-0.4,0-0.6c0.1,0-0.1,0.1-0.6,0.1c-0.1,0-0.2,0-0.3,0l0,0c-0.5,0-1,0-1.7,0
		c0.6-0.2,1-0.4,1.7-0.2c0.4-0.3,0.7-0.5,0.9-0.6c0.9,0.6,2.6,0.8,2.8,1.2c2-0.2,4.7-0.2,5.9-0.8c0.6-0.1,0.6,0.2,0.8,0.4
		c-0.4,0.1-0.7,0.1-0.9,0.2c1.1-0.2,3.3-0.1,3.6-0.6c1.4,0.2-0.8,0.5,1.2,0.4l-0.3,0.2c3.9,0.8,6.2-1.3,10.5-0.3
		c-0.3-0.1-0.5-0.1-0.5-0.2c4.9,0.5,10-0.5,14.8,0.3c1.4,0.2,1.5-0.2,2.3-0.5l0.3,0.5l1.4-0.5c2-0.4,3.5,1,6.1,0.4l-0.4-0.3
		c0.9,0.1,2.9-0.2,2.8,0.2c0.1-0.1,0.3-0.3,0.6-0.2v0.2l2.2-0.4c1.7,0.2-0.3,0.8,2.3,0.9c0.9-0.1,2.7-0.6,2.3-0.7
		c-0.4,0-1-0.1-1-0.4l0.8-0.1v-0.1h0.1c2.6,0,4.6-2,4.6-4.6v-3.1l0.1,0.1l-0.1-0.3v-1.3c0.1,0,0.2,0.2,0.2,0.5
		c0.3-0.9-0.2-0.8,0.1-1.7c0.1-0.1,0.1-0.1,0.1,0l-0.2-0.9c0.1,0.2,0.4-0.2,0.4,0.5c0.4-1.7-0.5-2.7,0-3.3v0.2
		c-0.2-1.7-0.3-1-0.6-1.3v-1.1L140.6,30.7z M75.9,49.4C75.9,49.4,76,49.4,75.9,49.4c0,0,0,0.1-0.1,0.2c-0.5,0.1-0.6,0-0.6-0.1
		C75.3,49.4,75.6,49.4,75.9,49.4z M139.9,37.2C139.9,37.3,139.9,37.3,139.9,37.2l-0.1-0.5C139.8,37,139.9,37.1,139.9,37.2z"/>
	<path class="st0" d="M76.5,49.1c0.1,0,0.1,0,0.2,0C76.6,49.1,76.5,49,76.5,49.1c-0.2-0.1-0.2,0-0.3,0
		C76.4,49.1,76.5,49.1,76.5,49.1z"/>
	<path class="st0" d="M132.3,1.5C132.4,1.5,132.4,1.5,132.3,1.5C132.4,1.5,132.4,1.5,132.3,1.5L132.3,1.5z"/>
	<path class="st0" d="M140.6,27.5l-0.1,1.7c0.2-0.3,0.4-0.6,0.4,0.1C141.2,27.2,140.5,29.7,140.6,27.5z"/>
	<path class="st0" d="M140.7,22.3c0.1,0.9,0.2,0,0.3,0C140.9,21.7,140.8,21.7,140.7,22.3z"/>
	<path class="st0" d="M120.6,1.2l0.1-0.4C120,0.8,120.6,0.9,120.6,1.2z"/>
	<polygon class="st0" points="109.4,0.5 108.3,0.6 109.2,0.5 	"/>
	<path class="st0" d="M46.1,0.6l0.2,0.5C46.8,0.9,46.9,0.5,46.1,0.6z"/>
	<path class="st0" d="M18.9,1c-0.3-0.2-1.1-0.4-1.6-0.2C18,0.9,18.5,1.1,18.9,1z"/>
	<polygon class="st0" points="24.8,49.8 25.8,49.6 25.3,49.6 	"/>
</g>
</svg>
