<?xml version="1.0" encoding="utf-8"?>
<!-- Generator: Adobe Illustrator 21.1.0, SVG Export Plug-In . SVG Version: 6.00 Build 0)  -->
<svg version="1.1" id="Layer_1" xmlns="http://www.w3.org/2000/svg" xmlns:xlink="http://www.w3.org/1999/xlink" x="0px" y="0px"
	 viewBox="0 0 144.3 53" style="enable-background:new 0 0 144.3 53;" xml:space="preserve">
<style type="text/css">
	.st0{fill:none;stroke:#000000;stroke-width:3;stroke-linejoin:round;stroke-miterlimit:10;}
</style>
<g>
	<path class="st0" d="M102.1,2.6c0.3,0,0.4-0.1,0.4-0.1C102.2,2.5,102.1,2.5,102.1,2.6z"/>
	<path class="st0" d="M96.6,2.1c0.1,0,0.2,0,0.3,0C96.9,2.1,96.7,2.1,96.6,2.1z"/>
	<path class="st0" d="M133.7,2.8l-0.8-0.2C132.8,2.8,133.3,2.8,133.7,2.8z"/>
	<path class="st0" d="M142.6,11.4v0.3c0.1,0.1,0.1,0.2,0.2,0.2L142.6,11.4z"/>
	<path class="st0" d="M142.1,21.7c0.2,0.1,0.3,0.3,0.3,0.6c0.1,0,0.2,0,0.3-0.1C142.7,21.9,142.3,21.8,142.1,21.7z"/>
	<path class="st0" d="M142,39.1c0,0.1,0,0.2,0.1,0.3L142,39.1z"/>
	<path class="st0" d="M140.4,3.5c0-0.1,0-0.1,0-0.2C140.4,3.3,140.4,3.4,140.4,3.5z"/>
	<path class="st0" d="M137,49.5h-0.2c0,0.1,0,0.2,0,0.2L137,49.5z"/>
	<path class="st0" d="M86.8,1.6L86.8,1.6C87.1,1.5,87,1.5,86.8,1.6z"/>
	<path class="st0" d="M2.1,13.1C2.5,12,2.6,14.7,3,13.2C2.8,13.4,2.3,11.8,2.1,13.1z"/>
	<path class="st0" d="M64,1.8c0.1,0.1,0.1,0.1,0.3,0.2C64.3,2,64.2,1.9,64,1.8z"/>
	<path class="st0" d="M55.3,2.3c-0.2,0-0.3-0.1-0.6,0c0,0,0.1,0,0.1,0.1C54.8,2.3,55,2.3,55.3,2.3z"/>
	<path class="st0" d="M46.1,2.3c0.1,0,0.1,0.1,0.2,0.1c0.1,0,0.2,0,0.3,0L46.1,2.3z"/>
	<path class="st0" d="M142.3,32.2l-0.5-0.2c0-0.3,0.1-0.7,0.2-0.6c-0.3-0.9-0.2,0.2-0.5-0.4c0.4-1.2-0.2-3.2,0.5-3.5
		c-0.3-0.5-0.3,1.1-0.5-0.1c0.7-0.4-0.1-1.5,0.2-2.5c0.4,0.4,0.2,1.3,0.6,0.3c-0.6-0.6,0.1-2,0-2.9c-0.5,0-0.2-1.9-0.4-3.4
		c0.2,0.1,0.3-2.8,0.5-4.2h0.1c-0.6-0.3-0.4-1.7-0.6-2.8c0.3,0,0.5,0.2,0.6,0.8v-1c-0.2-0.3-0.3-0.6-0.3-1.2l0.4,0.3
		c0-0.6-0.1-1.3-0.2-2c-0.1-0.6-0.1-1.6-0.4-2.6c-0.2,0-0.3,0.5-0.5,0.6c-0.1,0.1-0.2,0.1-0.3,0.1c-0.1-0.3-0.2-0.6-0.3-0.8
		c0.1,0,0.3,0,0.4,0.3c-0.1-0.2-0.4-0.5-0.5-0.7c0.2,0.2,0.5,0.4,0.6,0.6c-0.3-0.8-0.5-0.3-0.7-0.8c0.3-0.2-0.2-0.6,0.1-0.6
		c0.2,0.1,0.3,0.6,0.6,0.7c-0.4-0.7-0.9-1.5-1.1-1.8c0,0.2-0.2,0.3-0.7,0c-0.6-0.4-0.7-0.5-0.7-0.6c0-0.1,0.1-0.3-0.4-0.5
		c-0.5,0-1.5-0.2-1.5,0.2c-0.4,0-0.5-0.2-0.6-0.3c-0.6,0.2-3.1,0.1-2.4,0.5h0.2h-0.1c-2.2,0.4-4.6-0.3-6.8-0.1V2.9
		c-1.3,0.2-2.9,0.1-3.9,0.4c-0.4,0-0.9-0.3-0.7-0.4c-1,0.1-1.1,0.3-2.6,0c1-0.3-0.4-0.2,1-0.2c-1.3-0.1-1.6-0.4-3,0
		c0.5-0.4-1-0.5-1.6-0.4l0.9,0.3c-0.7,0.1-1.3,0-1.9,0l0.4-0.5c-2.7-0.6-4.8,0.9-6.9,0c-0.7,0.3,1.5,0.2,0.8,0.6
		c-1.2-0.1-2.5-0.7-2.9-0.7c-1.7-0.3-1.6,0.6-3.3,0.5c0.2,0.2,0.5,0.6-0.9,0.7c-1.2-0.1-1.5-0.6-0.7-0.8c0.3,0,0.5,0,0.5,0.1
		c0.4-0.1,0.9-0.1,0.5-0.3l-0.2,0.2c-0.6-0.2-2.3-0.2-1.9-0.5c-0.9,0.2-0.4,0.3,0.3,0.4c-1.6-0.3-2.5,0-4-0.2
		c0.3,0.1,0.5,0.3,0.3,0.3c-2.4-0.2-1,0.3-2.7,0.4c-0.9-0.3,0.4-0.6-1.3-0.4c-1-0.2-0.2-0.5,0.2-0.6c-1.5,0.3-2.8-0.2-3.6-0.3
		l0.7-0.1c-0.5,0.1-0.8,0.1-1.2,0.1L89.9,2c-0.5-0.1-0.8-0.1-0.8-0.2c-0.5,0.2,0.4,0.6-0.6,0.8c-0.6-0.2-1.8,0.2-2.1-0.3
		c1.9,0.2-0.2-0.5,1.4-0.6c-0.3,0.1-0.7,0.1-1.2,0c-0.1-0.1,0.1-0.1,0.2-0.1C85,1.3,86,2.1,84,2.1c0.3-0.3-0.5-0.5-0.7-0.4
		c0.7,0,0.4,0.4-0.4,0.6c-1.2-0.2-1.3,0.2-1.9,0.1l0.7,0.1c-0.3,0.3-0.8,0.2-1.7,0.3c-0.1-0.2,0.7-0.1,0.5-0.2
		c-0.9,0.5-2.1-0.5-3.5-0.2c-0.6-0.2,0-0.6-0.6-0.6c-1.5,0.3-1.6-0.4-3.1-0.1c0.5,0.4,0.6,0.3-0.6,0.6L75.3,2l-1.7,0.6
		c0.7,0,1.7-0.2,2.1-0.2C75,2.6,75,2.5,75.4,2.8c-1-0.5-2.1,0.3-3.3,0V2c-1.8-0.4-3.2,0.5-5.6,0.2l0.7,0.2c-0.3,0.4-1.5,0-2.2,0.2
		c0.1-0.3-0.4-0.4-0.7-0.6c0,0.2-1.7,0-1.9,0.6l-1.1-0.4c-1.9-0.2-2.2,0.7-4,0.6c0.6-0.3-0.3-0.5,0.9-0.7c-0.6,0-1.2-0.1-1.2,0.1
		c-0.4-0.2-1.7,0.4-2.3,0.1c-0.2,0.3-0.3,0.6-0.9,0.6c-0.1-0.1,0-0.1,0-0.1c0,0.1-1.1,0.2-0.5,0.5c-1.9-0.8-5.3,0.1-7-0.6
		c-1.4,0.1-2.9,0.2-4.2,0.2c0.1-0.1,0-0.1,0.3-0.1c-1.7-0.3-1,0.8-2.9,0.5c-1-0.5,1-0.3,0.4-0.4c-0.3-0.9-2.3,0.1-3.6-0.4l0.3-0.1
		c-1-0.3-2.4,0.4-4,0.3c0,0,0.1-0.1,0-0.1c-1,0.4-3.1,0.5-4.7,0.6c0.5-0.4,0.7-0.2,0.4-0.6c-0.7,0.1,0.2,0.6-1.2,0.6
		c-0.5-0.2-1.5-0.4-1.6-0.7h1.3c-0.6-0.5-1.7,0-2.4-0.1l0.1-0.2c-2,0.1-2,0.6-4.2,0.6l0.2,0.2c-1.2,0.6-1-0.3-2.2,0.1l-0.4-0.6
		c-0.7,0.1-2.8,0.6-4.1,0.6c0.8-0.4,2.4-0.6,3.4-0.8c-0.7,0-2.6,0-3,0.3c0.3-0.1,0.7-0.2,1-0.1c-0.9,0.5-2.2,0.6-3.7,0.6
		c0.1-0.6-0.8-0.6-2-0.6c-0.3,0-0.6,0-0.9,0c-0.3,0-0.7,0-1,0C6.6,2.4,6,2.6,5.5,2.5C4,3.4,2.8,4.8,2.2,6.6C2.1,7,2.1,7.5,2,7.9
		C2,8.3,2,8.7,1.9,9c0,0.7-0.1,1.5,0,2.3c0.8-1.1,0,0.9,0.8,0.7c0.1,0.7,0,1,0,1.1V13c0,0.1,0,0.1,0,0.2l0,0l-0.5,2.2
		c0,0.6,0-0.6-0.2-0.6c-0.1,1.7-0.4,0.6-0.6,1.7C1.8,16.3,2,17,1.8,18l0.4-1.3c0.5,2.3-0.7,1.9-0.3,4.2l-0.3-0.7
		c0.2,1.2,0,4.3,0.6,5.4c-0.1,0.2-0.4,0.5-0.4,0c-0.1,2.8,0.7,6.2,0.3,8.4L2,33.8c0.1,0.6,0.4,0.9,0.2,1.6c-0.1,0-0.2-0.2-0.2,0
		c0.1,0.3,0.4,1.4,0.3,2.1l-0.2-0.6c-0.3,2.8,0.6,4.1,0.7,6.4c-0.3,0-0.5,0.6-0.6,1.2c-0.1,0.3-0.1,0.8-0.1,1.3
		c0,0.5,0.1,0.9,0.3,1.3H2.2c0.6,2.3,2.5,3.5,4.2,3.9c0.8,0.2,1.9,0.1,2.5,0c0.6-0.1,1.4-0.2,2.1-0.2c1.8,0.6,6.2,0.3,9.1,0.6
		c-0.5-0.1,0.1-0.5,0.6-0.6c0.6,0.1,1.9-0.5,1.7,0.1h-0.3c0.6,0.6,1.9,0.4,3,0.5l0.2-0.7c2.8,1.1,7.5-0.4,9.1,0.6
		c0.7-0.2,1.6-0.2,2.2-0.4v0.4c1.9,0.1,2.8,0.2,5.2,0.1l-0.4,0.3c1.4,0,1.7-1.1,2.9-1.1l0.4,0.6c2.3,0,4.7,0.5,7,0
		c0,0.1-0.1,0.3-0.5,0.3c1.1,0,4.2,0.4,3.9-0.4c0,0.6,2.4,0.1,3.7-0.2L58.8,51c1.1-0.5,1.1-0.6,2.6-0.7c0.4,0.1,0.3,0.3-0.2,0.2
		c1.2,0.2,0.9-0.4,2.4-0.2L63,50.6c1.2,0,1.1-0.1,1.7-0.4c0.7-0.2,2.3,0.1,2.5,0.5c0.2-0.2,0.8-0.5,1.6-0.4c0.1,0.1-0.2,0.2-0.3,0.3
		c2,0.3,3-0.5,4.4-0.1c0,0.1,0.1,0.2,0.3,0.2c-1.7,0-2.9,0-2.8-0.1c0,0.4,1.3,0.5,0.3,0.9c1-0.3,2.8-0.8,4.1-0.6
		c0.1,0,0.1,0.1,0.2,0.1h-0.1c0.3,0,0.6,0,0.8-0.1c0.4,0.1,0.6,0.1,1,0.1c0.2,0.3,1.5,0.2,2.1,0.2c-0.1-0.4,0.8-0.4,0-0.6
		c0.1,0-0.1,0.1-0.6,0.1c-0.1,0-0.2,0-0.3,0l0,0c-0.5,0-1,0-1.7,0c0.6-0.2,1-0.4,1.7-0.2c0.4-0.3,0.7-0.5,0.9-0.6
		c0.9,0.6,2.6,0.8,2.8,1.2c2-0.2,4.7-0.2,5.9-0.8c0.6-0.1,0.6,0.2,0.8,0.4c-0.4,0.1-0.7,0.1-0.9,0.2c1.1-0.2,3.3-0.1,3.6-0.6
		c1.4,0.2-0.8,0.5,1.2,0.4l-0.3,0.2c3.9,0.8,6.3-1.3,10.5-0.3c-0.3-0.1-0.5-0.1-0.5-0.2c4.9,0.5,10-0.5,14.8,0.3
		c1.4,0.2,1.5-0.2,2.3-0.5l0.3,0.5L121,50c2-0.4,3.5,1,6.1,0.4l-0.4-0.3c0.9,0.1,2.8-0.2,2.8,0.2c0.1-0.1,0.3-0.3,0.6-0.2v0.2
		l2.2-0.4c1.7,0.2-0.3,0.8,2.3,0.9c0.9-0.1,2.7-0.6,2.3-0.7c-0.4,0-1-0.1-1-0.4l0.8-0.1v-0.1h0.1c2.6,0,4.6-2,4.6-4.6v-3l0.1,0.1
		l-0.1-0.3v-1.3c0.1,0,0.2,0.2,0.2,0.5c0.3-0.9-0.2-0.8,0.1-1.7c0.1-0.1,0.1-0.1,0.1,0l-0.2-0.9c0.1,0.2,0.4-0.2,0.3,0.5
		c0.4-1.7-0.5-2.7,0-3.3v0.2c-0.2-1.7-0.3-1-0.6-1.3v-1.1L142.3,32.2z M77.5,50.9C77.5,50.9,77.6,50.9,77.5,50.9c0,0,0,0.1-0.1,0.2
		c-0.5,0.1-0.6,0-0.6-0.1C77,50.9,77.2,50.9,77.5,50.9z M141.7,38.7C141.7,38.8,141.7,38.8,141.7,38.7l-0.1-0.5
		C141.6,38.4,141.7,38.5,141.7,38.7z"/>
	<path class="st0" d="M78.2,50.6c0.1,0,0.1,0,0.2,0C78.2,50.6,78.2,50.5,78.2,50.6c-0.2-0.1-0.2,0-0.3,0
		C78.1,50.6,78.2,50.6,78.2,50.6z"/>
	<path class="st0" d="M134,2.9C134.1,2.9,134.1,2.9,134,2.9C134.1,2.9,134.1,2.9,134,2.9L134,2.9z"/>
	<path class="st0" d="M142.3,29l-0.1,1.7c0.2-0.3,0.4-0.6,0.4,0.1C143,28.6,142.2,31.2,142.3,29z"/>
	<path class="st0" d="M142.5,23.7c0.1,0.9,0.2,0,0.3,0C142.7,23.2,142.6,23.1,142.5,23.7z"/>
	<path class="st0" d="M122.3,2.6l0.1-0.4C121.7,2.2,122.4,2.3,122.3,2.6z"/>
	<polygon class="st0" points="111.2,1.9 110,2 110.9,1.9 	"/>
	<path class="st0" d="M47.7,2.1l0.2,0.4C48.4,2.3,48.5,1.9,47.7,2.1z"/>
	<path class="st0" d="M20.4,2.4c-0.3-0.2-1.1-0.4-1.6-0.2C19.5,2.3,20.1,2.5,20.4,2.4z"/>
	<polygon class="st0" points="26.3,51.3 27.3,51.1 26.9,51.1 	"/>
</g>
</svg>
