<?xml version="1.0" encoding="utf-8"?>
<!-- Generator: Adobe Illustrator 21.1.0, SVG Export Plug-In . SVG Version: 6.00 Build 0)  -->
<svg version="1.1" id="Layer_1" xmlns="http://www.w3.org/2000/svg" xmlns:xlink="http://www.w3.org/1999/xlink" x="0px" y="0px"
	 width="141px" height="50px" viewBox="0 0 141 50" style="enable-background:new 0 0 141 50;" xml:space="preserve">
<g>
	<path d="M100.4,1.2c0.2,0,0.3-0.1,0.4-0.1C100.5,1.1,100.3,1.1,100.4,1.2"/>
	<path d="M95,0.7c0.1,0,0.2,0,0.3,0C95.2,0.6,95.1,0.6,95,0.7"/>
	<path d="M131.9,1.4l-0.8-0.1C131,1.4,131.5,1.4,131.9,1.4"/>
	<path d="M140.8,10l0,0.3c0.1,0.1,0.1,0.1,0.2,0.2L140.8,10z"/>
	<path d="M140.4,20.3c0.2,0.1,0.2,0.3,0.3,0.5c0.1,0,0.2,0,0.3-0.1C140.9,20.4,140.5,20.4,140.4,20.3"/>
	<path d="M140.2,37.6c0,0.1,0,0.2,0.1,0.3L140.2,37.6z"/>
	<path d="M138.6,2.1c0-0.1,0-0.1,0-0.2C138.6,1.9,138.6,2,138.6,2.1"/>
	<path d="M135.2,48l-0.2,0c0,0.1,0,0.1,0,0.2L135.2,48z"/>
	<path d="M85.1,0.2C85.1,0.2,85.2,0.2,85.1,0.2C85.4,0.1,85.3,0.1,85.1,0.2"/>
	<path d="M0.6,11.6c0.3-1,0.4,1.7,0.8,0.1C1.3,11.9,0.9,10.3,0.6,11.6"/>
	<path d="M62.4,0.4c0,0.1,0.1,0.1,0.2,0.2C62.6,0.5,62.6,0.5,62.4,0.4"/>
	<path d="M53.6,0.9c-0.2,0-0.3-0.1-0.6,0c0,0,0.1,0,0.1,0C53.2,0.9,53.4,0.9,53.6,0.9"/>
	<path d="M44.5,0.9c0,0,0.1,0.1,0.2,0.1c0.1,0,0.2,0,0.3,0L44.5,0.9z"/>
	<path d="M140.5,30.8l-0.4-0.2c0-0.2,0-0.7,0.2-0.6c-0.3-0.9-0.2,0.2-0.5-0.4c0.4-1.2-0.2-3.2,0.5-3.4c-0.3-0.4-0.2,1.1-0.5-0.1
		c0.7-0.4-0.1-1.4,0.2-2.5c0.4,0.3,0.2,1.3,0.5,0.3c-0.6-0.6,0.1-2.1,0-2.9c-0.5,0-0.2-1.9-0.4-3.4c0.2,0.1,0.3-2.8,0.5-4.2l0.1,0
		c-0.5-0.3-0.4-1.7-0.5-2.7c0.3,0,0.4,0.2,0.6,0.8l0-1c-0.2-0.2-0.2-0.5-0.3-1.2l0.4,0.2c0-0.7-0.1-1.3-0.2-2
		c-0.1-0.6-0.1-1.6-0.3-2.6c-0.2,0-0.3,0.5-0.5,0.6c-0.1,0.1-0.2,0.1-0.2,0.1c-0.1-0.3-0.2-0.6-0.3-0.8c0.1,0,0.3,0,0.4,0.2
		c-0.1-0.1-0.4-0.5-0.5-0.8c0.2,0.1,0.4,0.3,0.6,0.5c-0.2-0.8-0.4-0.3-0.7-0.8c0.2-0.1-0.1-0.5,0.1-0.6c0.1,0.1,0.3,0.5,0.5,0.7
		c-0.3-0.7-1-1.5-1.1-1.9c0,0.2-0.2,0.3-0.7,0c-0.7-0.4-0.8-0.4-0.8-0.6c0-0.1,0.1-0.2-0.4-0.4c-0.4,0-1.4-0.2-1.5,0.2
		c-0.4,0-0.5-0.2-0.6-0.3c-0.7,0.2-3.2,0.1-2.4,0.5l0.2,0c0,0-0.1,0-0.1,0c-2.2,0.4-4.6-0.2-6.8-0.1l0-0.1c-1.3,0.2-2.9,0.1-3.9,0.4
		c-0.4,0-0.9-0.2-0.8-0.4c-1,0.1-1.1,0.3-2.6,0c1-0.2-0.3-0.2,1-0.2c-1.3-0.1-1.6-0.3-3,0c0.5-0.3-1-0.4-1.6-0.3l0.9,0.2
		c-0.7,0.1-1.3,0-1.9,0l0.3-0.5c-2.7-0.6-4.8,0.9-6.8,0c-0.7,0.3,1.4,0.2,0.8,0.6c-1.2-0.1-2.5-0.7-2.9-0.7
		c-1.7-0.3-1.6,0.7-3.3,0.5c0.2,0.2,0.4,0.6-0.9,0.8c-1.2-0.1-1.5-0.7-0.7-0.8c0.3,0,0.4,0,0.4,0.1c0.4-0.1,0.9-0.1,0.4-0.3L101,0.9
		c-0.6-0.2-2.3-0.1-1.9-0.4c-0.9,0.2-0.4,0.3,0.3,0.4c-1.6-0.2-2.5,0-4.1-0.2C95.6,0.8,95.8,1,95.5,1c-2.4-0.2-1,0.3-2.7,0.4
		C92,1.1,93.2,0.8,91.6,1c-1-0.2-0.2-0.4,0.2-0.6c-1.5,0.3-2.8-0.2-3.6-0.3L88.9,0c-0.5,0.1-0.8,0.1-1.2,0.1l0.4,0.3
		c-0.5-0.1-0.8-0.1-0.8-0.2c-0.5,0.2,0.4,0.5-0.6,0.8c-0.6-0.2-1.9,0.2-2.1-0.3c1.9,0.1-0.2-0.4,1.4-0.5c-0.3,0.1-0.7,0.1-1.2,0
		c-0.1,0,0.1-0.1,0.2-0.1c-1.8-0.4-0.8,0.5-2.7,0.5c0.2-0.2-0.4-0.5-0.8-0.4c0.8,0,0.4,0.4-0.3,0.6c-1.2-0.2-1.3,0.1-2,0.1L80.1,1
		c-0.2,0.2-0.9,0.2-1.7,0.3c-0.1-0.2,0.8-0.1,0.5-0.2c-0.9,0.4-2.1-0.4-3.4-0.2c-0.6-0.2-0.1-0.5-0.6-0.6c-1.5,0.3-1.6-0.3-3.1-0.1
		c0.4,0.3,0.5,0.2-0.6,0.6l2.5-0.2L72,1.1c0.8,0,1.6-0.2,2.1-0.2c-0.8,0.3-0.7,0.2-0.3,0.5c-1.1-0.5-2.1,0.3-3.3,0l0-0.8
		c-1.8-0.4-3.2,0.4-5.6,0.2l0.8,0.1c-0.3,0.3-1.5,0-2.2,0.2c0.1-0.3-0.4-0.4-0.7-0.5c0,0.2-1.7,0-2,0.5l-1.1-0.4
		c-1.9-0.1-2.2,0.8-4,0.7c0.6-0.3-0.3-0.5,1-0.7c-0.6,0-1.2-0.1-1.2,0.1C55,0.7,53.7,1.2,53.1,1c-0.3,0.1-0.3,0.4-1,0.4
		c-0.1-0.1,0-0.1,0-0.1c0,0.1-1.1,0.2-0.5,0.5c-1.9-0.8-5.3,0.1-6.9-0.7c-1.3,0.1-3,0.2-4.2,0.2c0.1-0.1,0-0.1,0.2-0.1
		c-1.7-0.3-1,0.8-2.9,0.5c-1-0.4,1-0.2,0.4-0.4c-0.3-0.9-2.3,0.1-3.6-0.4l0.3-0.1c-1-0.3-2.4,0.3-4,0.3c0,0,0.1-0.1,0-0.1
		c-1.1,0.5-3.2,0.6-4.7,0.7c0.5-0.3,0.7-0.2,0.4-0.5c-0.7,0.1,0.2,0.6-1.2,0.7c-0.5-0.2-1.4-0.4-1.6-0.7l1.3,0
		c-0.7-0.5-1.7,0-2.4-0.1l0.1-0.2c-2,0.1-2,0.6-4.2,0.6l0.2,0.2c-1.2,0.5-1-0.3-2.2,0.1L16.4,1c-0.8,0.1-2.7,0.5-4.1,0.6
		C13,1.2,14.7,1,15.7,0.8c-0.8,0-2.6,0-3,0.3C13,1,13.4,0.9,13.7,1c-0.9,0.4-2.2,0.6-3.7,0.6C10.1,1.1,9.1,1,7.9,1C7.6,1,7.3,1,7,1
		c-0.3,0-0.7,0-1,0C5.3,1,4.7,1.1,4.3,1.1C2.7,2,1.5,3.4,1,5.2C0.8,5.6,0.8,6.1,0.7,6.5c0,0.4,0,0.7-0.1,1.1c0,0.7-0.1,1.5,0,2.3
		c0.8-1.1,0,0.9,0.9,0.7c0.1,0.7,0,1,0,1.1l0-0.2c0,0.1,0,0.1,0,0.2h0L1,14c-0.2,0.5-0.2-0.7-0.4-0.6C0.5,14.9,0.2,14,0,15.1
		c0.3-0.2,0.4,0.6,0.3,1.5l0.4-1.3c0.4,2.2-0.7,1.9-0.3,4.2l-0.3-0.7c0.2,1.2,0,4.3,0.7,5.4c-0.1,0.2-0.3,0.5-0.4,0
		c-0.1,2.8,0.7,6.2,0.3,8.3l-0.2-0.2c0.1,0.5,0.4,0.9,0.2,1.6c-0.1,0-0.2-0.2-0.2,0c0.1,0.3,0.4,1.4,0.2,2.1l-0.2-0.6
		c-0.3,2.7,0.6,4.2,0.7,6.4c-0.3,0-0.5,0.5-0.6,1.2c-0.1,0.3-0.1,0.8-0.1,1.3c0,0.5,0.1,1,0.2,1.3l-0.1,0C1.4,47.8,3.2,49,5,49.4
		c0.9,0.2,1.9,0.1,2.5,0c0.7-0.1,1.4-0.2,2.1-0.2c1.8,0.7,6.1,0.3,9.1,0.6c-0.4-0.1,0.1-0.5,0.6-0.5c0.7,0.1,1.9-0.4,1.8,0.1l-0.2,0
		c0.5,0.5,1.9,0.4,3,0.4l0.2-0.7c2.9,1.1,7.5-0.4,9.1,0.6c0.7-0.2,1.6-0.2,2.2-0.4l0,0.4c1.9,0.1,2.9,0.1,5.3,0.1L40,50
		c1.3,0,1.7-1.1,2.9-1.1l0.4,0.6c2.3,0,4.7,0.5,7,0c0,0.1-0.1,0.3-0.5,0.3c1.1,0,4.3,0.4,3.9-0.4c0,0.5,2.4,0.1,3.7-0.2l-0.2,0.4
		c1.1-0.5,1.1-0.6,2.6-0.8c0.4,0,0.3,0.3-0.2,0.2c1.2,0.2,0.9-0.4,2.3-0.2L61.4,49c1.2,0,1.1-0.1,1.8-0.4c0.8-0.2,2.3,0.1,2.5,0.4
		c0.2-0.2,0.8-0.5,1.5-0.4c0.1,0.1-0.2,0.2-0.3,0.3c2,0.3,3-0.4,4.4-0.1c0,0.1,0.1,0.2,0.2,0.2c-1.6,0-2.9,0-2.8-0.1
		c0,0.4,1.3,0.4,0.3,0.9c1-0.3,2.8-0.8,4.1-0.7c0.1,0,0.1,0.1,0.2,0.1l-0.1,0c0.3,0,0.6,0,0.8-0.1c0.4,0.1,0.7,0.1,1,0.1
		c0.1,0.3,1.5,0.2,2.1,0.2c-0.1-0.4,0.8-0.3,0-0.6c0.1,0-0.1,0-0.6,0.1c-0.1,0-0.2,0-0.3,0c0,0,0,0,0,0c-0.4,0-1,0-1.6,0
		c0.5-0.2,1-0.4,1.8-0.1c0.3-0.2,0.7-0.5,0.9-0.6c0.9,0.5,2.6,0.8,2.8,1.2c2-0.2,4.7-0.1,5.9-0.9c0.6-0.1,0.6,0.2,0.9,0.3
		c-0.3,0.1-0.7,0.1-0.9,0.2c1.1-0.2,3.3-0.1,3.6-0.6c1.4,0.2-0.8,0.5,1.1,0.4l-0.3,0.2c3.8,0.8,6.2-1.3,10.5-0.3
		c-0.3-0.1-0.4-0.1-0.5-0.2c4.8,0.5,10-0.4,14.7,0.3c1.4,0.1,1.5-0.2,2.3-0.4l0.3,0.4l1.4-0.5c2-0.4,3.5,1,6,0.4l-0.3-0.3
		c0.9,0.1,2.9-0.2,2.7,0.2c0.1-0.1,0.3-0.3,0.7-0.1l0,0.2l2.2-0.4c1.7,0.2-0.3,0.9,2.3,0.9c0.9-0.1,2.7-0.6,2.3-0.8
		c-0.4,0-1-0.1-1-0.4l0.9-0.1c0,0,0-0.1,0-0.1h0.1c2.5,0,4.6-2.1,4.6-4.6v-3l0.1,0.1l-0.1-0.3v-1.3c0.1,0,0.2,0.2,0.2,0.4
		c0.3-1-0.2-0.8,0.1-1.7c0-0.1,0.1,0,0.1,0l-0.2-0.9c0.1,0.2,0.4-0.2,0.3,0.4c0.3-1.7-0.4-2.7,0-3.3l0,0.1c-0.1-1.7-0.3-1-0.6-1.3
		v-1.1L140.5,30.8z M75.9,49.4C75.9,49.4,75.9,49.4,75.9,49.4c0,0,0,0.1-0.1,0.1c-0.4,0.1-0.6,0-0.6-0.1
		C75.3,49.5,75.6,49.5,75.9,49.4 M139.9,37.2c0,0.1,0,0.1-0.1,0.1v-0.5C139.9,36.9,139.9,37.1,139.9,37.2"/>
	<path d="M76.5,49.1c0.1,0,0.1,0,0.2,0c-0.1,0-0.2-0.1-0.3-0.1c-0.1,0-0.1,0.1-0.2,0.1C76.4,49.1,76.5,49.1,76.5,49.1"/>
	<path d="M132.3,1.5c0,0,0.1,0,0.1,0.1C132.3,1.5,132.3,1.5,132.3,1.5L132.3,1.5z"/>
	<path d="M140.5,27.5l-0.1,1.7c0.1-0.3,0.4-0.7,0.4,0.1C141.2,27.2,140.4,29.7,140.5,27.5"/>
	<path d="M140.7,22.3c0.1,0.9,0.2,0,0.3,0C140.9,21.8,140.8,21.6,140.7,22.3"/>
	<path d="M120.6,1.2l0.1-0.4C120,0.9,120.7,0.9,120.6,1.2"/>
	<polygon points="109.5,0.4 108.3,0.6 109.2,0.5 	"/>
	<path d="M46.1,0.6L46.3,1C46.8,1,46.9,0.5,46.1,0.6"/>
	<path d="M18.9,1c-0.3-0.2-1.1-0.4-1.5-0.1C18,0.9,18.6,1.1,18.9,1"/>
	<polygon points="24.7,49.8 25.8,49.6 25.3,49.6 	"/>
</g>
</svg>
