<?xml version="1.0" encoding="utf-8"?>
<!-- Generator: Adobe Illustrator 21.1.0, SVG Export Plug-In . SVG Version: 6.00 Build 0)  -->
<svg version="1.1" id="Layer_1" xmlns="http://www.w3.org/2000/svg" xmlns:xlink="http://www.w3.org/1999/xlink" x="0px" y="0px"
	 width="156.7px" height="57.4px" viewBox="0 0 156.7 57.4" style="enable-background:new 0 0 156.7 57.4;" xml:space="preserve">
<style type="text/css">
	.st0{fill:none;stroke:#000000;stroke-width:3;stroke-linejoin:round;stroke-miterlimit:10;}
</style>
<g>
	<g>
		<path class="st0" d="M110.9,2.7c0.3,0,0.4-0.1,0.4-0.1C111.1,2.6,110.9,2.6,110.9,2.7z"/>
		<path class="st0" d="M105,2.1c0.1,0,0.2,0,0.3,0C105.3,2.1,105.1,2.1,105,2.1z"/>
		<path class="st0" d="M145.3,2.9l-0.9-0.2C144.3,2.9,144.9,2.9,145.3,2.9z"/>
		<path class="st0" d="M155,12.3v0.3c0.1,0.1,0.1,0.2,0.2,0.2L155,12.3z"/>
		<path class="st0" d="M154.5,23.5c0.2,0.1,0.3,0.3,0.3,0.6c0.1,0,0.2,0,0.3-0.1C155.1,23.7,154.7,23.6,154.5,23.5z"/>
		<path class="st0" d="M154.4,42.4c0,0.1,0,0.2,0.1,0.3L154.4,42.4z"/>
		<path class="st0" d="M152.6,3.7c0-0.1,0-0.1,0-0.2C152.6,3.5,152.6,3.6,152.6,3.7z"/>
		<path class="st0" d="M148.9,53.7h-0.2c0,0.1,0,0.2,0,0.2L148.9,53.7z"/>
		<path class="st0" d="M94.3,1.6L94.3,1.6C94.6,1.5,94.5,1.5,94.3,1.6z"/>
		<path class="st0" d="M2.2,14.1c0.4-1.2,0.5,1.8,0.9,0.1C2.9,14.4,2.4,12.7,2.2,14.1z"/>
		<path class="st0" d="M69.5,1.8c0.1,0.1,0.1,0.1,0.3,0.2C69.8,2,69.7,1.9,69.5,1.8z"/>
		<path class="st0" d="M60,2.4c-0.2,0-0.3-0.1-0.7,0c0,0,0.1,0,0.1,0.1C59.5,2.4,59.7,2.4,60,2.4z"/>
		<path class="st0" d="M50,2.4c0.1,0,0.1,0.1,0.2,0.1c0.1,0,0.2,0,0.3,0L50,2.4z"/>
		<path class="st0" d="M154.7,34.9l-0.5-0.2c0-0.3,0.1-0.8,0.2-0.7c-0.3-1-0.2,0.2-0.5-0.4c0.4-1.3-0.2-3.5,0.5-3.8
			c-0.3-0.5-0.3,1.2-0.5-0.1c0.8-0.4-0.1-1.6,0.2-2.7c0.4,0.4,0.2,1.4,0.6,0.3c-0.7-0.7,0.1-2.2,0-3.2c-0.5,0-0.2-2.1-0.4-3.7
			c0.2,0.1,0.3-3.1,0.5-4.6h0.1c-0.6-0.3-0.4-1.9-0.6-3c0.3,0,0.5,0.2,0.6,0.9v-1.1c-0.2-0.3-0.3-0.6-0.3-1.3l0.4,0.3
			c0-0.7-0.1-1.4-0.2-2.2c-0.1-0.7-0.1-1.7-0.4-2.8c-0.2,0-0.3,0.5-0.5,0.7c-0.1,0.1-0.2,0.1-0.3,0.1c-0.1-0.3-0.2-0.6-0.3-0.9
			c0.1,0,0.3,0,0.4,0.3c-0.1-0.2-0.4-0.5-0.5-0.8c0.2,0.2,0.5,0.4,0.7,0.6c-0.3-0.9-0.5-0.3-0.8-0.9c0.3-0.2-0.2-0.6,0.1-0.6
			c0.2,0.1,0.3,0.6,0.6,0.8c-0.4-0.8-1-1.6-1.2-2c0,0.2-0.2,0.3-0.8,0c-0.7-0.4-0.8-0.5-0.8-0.6s0.1-0.3-0.4-0.5
			c-0.5,0-1.6-0.2-1.6,0.2c-0.4,0-0.5-0.2-0.7-0.3c-0.7,0.2-3.4,0.1-2.6,0.5h0.2h-0.1c-2.4,0.4-5-0.3-7.4-0.1V3
			c-1.4,0.2-3.2,0.1-4.2,0.4c-0.4,0-1-0.3-0.8-0.4c-1.1,0.1-1.2,0.3-2.8,0c1.1-0.3-0.4-0.2,1.1-0.2c-1.4-0.1-1.7-0.4-3.3,0
			c0.5-0.4-1.1-0.5-1.7-0.4l1,0.3c-0.8,0.1-1.4,0-2.1,0l0.4-0.5c-2.9-0.6-5.2,1-7.5,0c-0.8,0.3,1.6,0.2,0.9,0.7
			c-1.3-0.1-2.7-0.8-3.2-0.8c-1.8-0.3-1.7,0.7-3.6,0.5c0.2,0.2,0.5,0.7-1,0.8c-1.3-0.1-1.6-0.7-0.8-0.9c0.3,0,0.5,0,0.5,0.1
			c0.4-0.1,1-0.1,0.5-0.3l-0.2,0.2c-0.7-0.2-2.5-0.2-2.1-0.5c-1,0.2-0.4,0.3,0.3,0.4c-1.7-0.3-2.7,0-4.4-0.2
			c0.3,0.1,0.5,0.3,0.3,0.3c-2.6-0.2-1.1,0.3-2.9,0.4c-1-0.3,0.4-0.6-1.4-0.4c-1.1-0.2-0.2-0.5,0.2-0.6c-1.6,0.3-3-0.2-3.9-0.3
			l0.8-0.1c-0.5,0.1-0.9,0.1-1.3,0.1L97.7,2c-0.5-0.1-0.9-0.1-0.9-0.2c-0.5,0.2,0.4,0.6-0.6,0.9c-0.7-0.2-2,0.2-2.3-0.3
			c2.1,0.2-0.2-0.5,1.5-0.6c-0.3,0.1-0.8,0.1-1.3,0c-0.1-0.1,0.1-0.1,0.2-0.1c-2-0.4-0.9,0.5-3,0.5c0.3-0.3-0.5-0.5-0.8-0.4
			c0.8,0,0.4,0.4-0.4,0.6c-1.3-0.2-1.4,0.2-2.1,0.1l0.8,0.1c-0.3,0.3-0.9,0.2-1.9,0.3c-0.1-0.2,0.8-0.1,0.5-0.2
			c-1,0.5-2.3-0.5-3.8-0.2c-0.6-0.2,0-0.6-0.6-0.7c-1.6,0.3-1.7-0.4-3.4-0.1C80.1,2.1,80.2,2,79,2.3L81.8,2L80,2.6
			c0.8,0,1.8-0.2,2.3-0.2c-0.8,0.3-0.8,0.2-0.4,0.5c-1.1-0.5-2.3,0.3-3.6,0V2c-2-0.4-3.5,0.5-6.1,0.2L73,2.4c-0.3,0.4-1.6,0-2.4,0.2
			c0.1-0.3-0.4-0.4-0.8-0.6c0,0.2-1.9,0-2.1,0.6l-1.2-0.4C64.4,2,64.1,3,62.1,2.9c0.6-0.3-0.3-0.5,1-0.8c-0.7,0-1.3-0.1-1.3,0.1
			c-0.4-0.2-1.9,0.4-2.5,0.1c-0.2,0.3-0.3,0.6-1,0.6c-0.1-0.1,0-0.1,0-0.1c0,0.1-1.2,0.2-0.5,0.5c-2.1-0.9-5.8,0.1-7.6-0.7
			c-1.5,0.1-3.2,0.2-4.6,0.2c0.1-0.1,0-0.1,0.3-0.1c-1.8-0.3-1.1,0.9-3.2,0.5c-1.1-0.5,1.1-0.3,0.4-0.4c-0.3-1-2.5,0.1-3.9-0.4
			l0.3-0.1c-1.1-0.3-2.6,0.4-4.4,0.3c0,0,0.1-0.1,0-0.1C34,2.9,31.7,3,30,3.2c0.5-0.4,0.8-0.2,0.4-0.6c-0.8,0.1,0.2,0.6-1.3,0.7
			c-0.5-0.2-1.6-0.4-1.7-0.8h1.4c-0.7-0.5-1.8,0-2.6-0.1l0.1-0.2c-2.2,0.1-2.2,0.7-4.6,0.6L21.9,3c-1.3,0.6-1.1-0.3-2.4,0.1
			l-0.4-0.6c-0.8,0.1-3,0.6-4.5,0.7c0.9-0.4,2.6-0.7,3.7-0.9c-0.8,0-2.8,0-3.3,0.3c0.3-0.1,0.8-0.2,1.1-0.1c-1,0.5-2.4,0.7-4,0.7
			c0.1-0.6-0.9-0.6-2.2-0.7c-0.3,0-0.7,0-1,0s-0.8,0-1.1,0C7,2.5,6.4,2.7,5.9,2.6c-1.7,1-3,2.5-3.6,4.4C2.1,7.5,2.1,8,2,8.5
			c0,0.4,0,0.8-0.1,1.2c0,0.8-0.1,1.6,0,2.5c0.9-1.2,0,1,0.9,0.8c0.1,0.8,0,1.1,0,1.2V14c0,0.1,0,0.1,0,0.2l0,0l-0.5,2.4
			c0,0.6,0-0.7-0.2-0.7c-0.1,1.8-0.4,0.7-0.6,1.9c0.3-0.2,0.5,0.6,0.3,1.6L2.2,18c0.5,2.5-0.8,2.1-0.3,4.6l-0.3-0.8
			c0.2,1.3,0,4.7,0.7,5.9c-0.1,0.2-0.4,0.5-0.4,0c-0.1,3,0.8,6.7,0.3,9.1L2,36.6c0.1,0.6,0.4,1,0.2,1.7c-0.1,0-0.2-0.2-0.2,0
			c0.1,0.3,0.4,1.5,0.3,2.3l-0.2-0.7c-0.3,3,0.6,4.5,0.8,7c-0.3,0-0.5,0.6-0.7,1.3c-0.1,0.3-0.1,0.9-0.1,1.4s0.1,1,0.3,1.4H2.3
			C3,53.5,5,54.8,6.9,55.2c0.9,0.2,2.1,0.1,2.7,0c0.7-0.1,1.5-0.2,2.3-0.2c2,0.7,6.7,0.3,9.9,0.7c-0.5-0.1,0.1-0.5,0.6-0.6
			c0.7,0.1,2.1-0.5,1.9,0.1H24c0.6,0.6,2.1,0.4,3.3,0.5l0.2-0.8c3.1,1.2,8.2-0.4,9.9,0.6c0.8-0.2,1.7-0.2,2.4-0.4v0.4
			c2.1,0.1,3.1,0.2,5.7,0.1l-0.4,0.3c1.5,0,1.8-1.2,3.2-1.2l0.4,0.6c2.5,0,5.1,0.5,7.6,0c0,0.1-0.1,0.3-0.5,0.3
			c1.2,0,4.6,0.4,4.2-0.4c0,0.6,2.6,0.1,4-0.2l-0.2,0.4c1.2-0.5,1.2-0.7,2.8-0.8c0.4,0.1,0.3,0.3-0.2,0.2c1.3,0.2,1-0.4,2.6-0.2
			l-0.6,0.3c1.3,0,1.2-0.1,1.9-0.4c0.8-0.2,2.5,0.1,2.7,0.5c0.2-0.2,0.9-0.5,1.7-0.4c0.1,0.1-0.2,0.2-0.3,0.3
			c2.2,0.3,3.3-0.5,4.8-0.1c0,0.1,0.1,0.2,0.3,0.2c-1.8,0-3.2,0-3-0.1c0,0.4,1.4,0.5,0.3,1c1.1-0.3,3.1-0.9,4.5-0.7
			c0.1,0,0.1,0.1,0.2,0.1h-0.1c0.3,0,0.6,0,0.9-0.1c0.4,0.1,0.7,0.1,1.1,0.1c0.2,0.3,1.6,0.2,2.3,0.2c-0.1-0.4,0.9-0.4,0-0.7
			c0.1,0-0.1,0.1-0.6,0.1c-0.1,0-0.2,0-0.3,0l0,0c-0.5,0-1.1,0-1.8,0c0.6-0.2,1.1-0.4,1.9-0.2c0.4-0.3,0.8-0.5,1-0.7
			c1,0.6,2.8,0.9,3.1,1.3c2.2-0.2,5.1-0.2,6.4-0.9c0.6-0.1,0.7,0.2,0.9,0.4c-0.4,0.1-0.8,0.1-1,0.2c1.2-0.2,3.6-0.1,3.9-0.6
			c1.5,0.2-0.9,0.5,1.3,0.4l-0.3,0.2c4.2,0.9,6.8-1.4,11.4-0.3c-0.3-0.1-0.5-0.1-0.5-0.2c5.3,0.5,10.9-0.5,16.1,0.3
			c1.5,0.2,1.6-0.2,2.5-0.5l0.3,0.5l1.5-0.5c2.2-0.4,3.8,1.1,6.6,0.4l-0.4-0.3c1,0.1,3.1-0.2,3,0.2c0.1-0.1,0.3-0.3,0.7-0.2v0.2
			l2.4-0.4c1.9,0.2-0.3,0.9,2.5,1c1-0.1,2.9-0.7,2.5-0.8c-0.4,0-1.1-0.1-1.1-0.4l0.9-0.1v-0.1h0.1c2.8,0,5-2.2,5-5v-3.3l0.1,0.1
			l-0.1-0.3v-1.4c0.1,0,0.2,0.2,0.2,0.5c0.3-1-0.2-0.9,0.1-1.8c0.1-0.1,0.1-0.1,0.1,0l-0.2-1c0.1,0.2,0.4-0.2,0.3,0.5
			c0.4-1.8-0.5-2.9,0-3.6v0.2c-0.2-1.9-0.3-1.1-0.6-1.4v-1.2L154.7,34.9z M84.2,55.3C84.2,55.3,84.3,55.2,84.2,55.3
			c0,0,0,0.1-0.1,0.2c-0.5,0.1-0.6,0-0.7-0.1C83.6,55.3,83.9,55.3,84.2,55.3z M154,42c0,0.1,0,0.1-0.1,0.1v-0.6
			C153.9,41.7,154,41.8,154,42z"/>
		<path class="st0" d="M84.9,54.9c0.1,0,0.1,0,0.2,0c-0.1,0-0.2-0.1-0.3-0.1c-0.1,0-0.1,0.1-0.2,0.1C84.8,54.9,84.9,54.9,84.9,54.9z
			"/>
		<path class="st0" d="M145.7,3c0.1,0,0.1,0,0.1,0.1C145.8,3,145.8,3,145.7,3L145.7,3z"/>
		<path class="st0" d="M154.7,31.4l-0.1,1.8c0.2-0.3,0.4-0.7,0.4,0.1C155.4,31,154.6,33.8,154.7,31.4z"/>
		<path class="st0" d="M154.9,25.7c0.1,1,0.2,0,0.3,0C155.1,25.1,155,25,154.9,25.7z"/>
		<path class="st0" d="M132.9,2.7l0.1-0.4C132.3,2.3,133,2.4,132.9,2.7z"/>
		<polygon class="st0" points="120.8,1.9 119.6,2 120.5,1.9 		"/>
		<path class="st0" d="M51.8,2.1L52,2.5C52.5,2.4,52.6,1.9,51.8,2.1z"/>
		<path class="st0" d="M22.1,2.5c-0.3-0.2-1.2-0.4-1.7-0.2C21.1,2.4,21.7,2.6,22.1,2.5z"/>
		<polygon class="st0" points="28.5,55.7 29.6,55.5 29.1,55.5 		"/>
	</g>
	<g>
		<path d="M39.3,37.4V35c0.4,0.1,0.7,0.2,1,0.2c0.5,0,0.9-0.1,1.2-0.4s0.4-0.8,0.4-1.6V22.2h-2v-2.3h7.4v2.3h-1.8v11
			c0,1.5-0.4,2.6-1.1,3.4s-1.7,1.1-2.9,1.1C40.7,37.7,40,37.6,39.3,37.4z"/>
		<path d="M56,19.7c2.3,0,4.2,0.7,5.5,2s2,3,2,5c0,2-0.7,3.6-2,5c-1.3,1.4-3.2,2-5.5,2c-2.4,0-4.3-0.7-5.6-2.1c-1.3-1.4-2-3-2-4.9
			c0-1.9,0.7-3.6,2-4.9S53.7,19.7,56,19.7z M56,22.2c-1,0-1.9,0.4-2.7,1.2s-1.1,1.9-1.1,3.4c0,1.3,0.4,2.4,1.1,3.2s1.6,1.2,2.7,1.2
			c1,0,1.9-0.4,2.7-1.2s1.1-1.9,1.1-3.4c0-1.3-0.3-2.4-1-3.2S57.1,22.2,56,22.2z"/>
		<path d="M65,33.5v-2.3h2.1v-9H65v-2.3h7.7v2.3h-2.1v9h2.1v2.3H65z"/>
		<path d="M73.7,33.5v-2.3h1.8v-9h-1.8v-2.3h5.7l5,8.5v-6.2h-1.8v-2.3h6.1v2.3h-1.9v11.4h-3l-5.9-10.1v7.7h1.7v2.3H73.7z"/>
		<path d="M94.3,22.2v-2.3h6.5v2.3h-1.3v6.1c0,0.8,0,1.4,0.1,1.8s0.2,0.7,0.5,0.9s0.7,0.4,1.1,0.4c0.5,0,0.8-0.1,1.2-0.3
			s0.5-0.5,0.6-0.8s0.1-1,0.1-2v-6h-1.3v-2.3h5.4v2.3h-1.7V29c0,0.9,0,1.6-0.1,2s-0.3,0.8-0.7,1.3c-0.4,0.4-0.9,0.7-1.5,1
			s-1.4,0.4-2.3,0.4c-1,0-1.9-0.1-2.6-0.4s-1.2-0.7-1.6-1.1c-0.3-0.5-0.6-0.9-0.7-1.4s-0.1-1.3-0.1-2.4v-6.1H94.3z"/>
		<path d="M108.4,33.5v-4.6h2.3c0,0.8,0.2,1.5,0.7,1.9s0.9,0.6,1.4,0.6c0.4,0,0.8-0.1,1.1-0.4s0.4-0.6,0.4-1c0-0.4-0.1-0.8-0.4-1
			s-0.8-0.6-1.5-1c-1.6-0.8-2.6-1.4-3.2-2c-0.6-0.6-0.8-1.4-0.8-2.3c0-1.2,0.4-2.1,1.1-2.8c0.7-0.7,1.6-1,2.5-1
			c1.1,0,1.9,0.4,2.5,1.3v-1.1h2.3v4.1h-2.3c-0.1-0.6-0.3-1.1-0.7-1.5s-0.8-0.5-1.3-0.5c-0.4,0-0.7,0.1-1,0.3s-0.4,0.5-0.4,0.8
			c0,0.3,0.1,0.5,0.3,0.8s0.8,0.6,1.9,1.1c1,0.4,1.8,0.9,2.3,1.2c0.5,0.4,1,0.8,1.3,1.4c0.3,0.6,0.5,1.2,0.5,2c0,1.3-0.4,2.4-1.2,3
			c-0.8,0.7-1.7,1-2.8,1c-1.2,0-2.1-0.4-2.8-1.3v1.2H108.4z"/>
	</g>
</g>
</svg>
