<?xml version="1.0" encoding="utf-8"?>
<!-- Generator: Adobe Illustrator 21.1.0, SVG Export Plug-In . SVG Version: 6.00 Build 0)  -->
<svg version="1.1" id="Layer_1" xmlns="http://www.w3.org/2000/svg" xmlns:xlink="http://www.w3.org/1999/xlink" x="0px" y="0px"
	 viewBox="0 0 143.4 53" style="enable-background:new 0 0 143.4 53;" xml:space="preserve">
<style type="text/css">
	.st0{fill:none;stroke:#FFC23F;stroke-width:3;stroke-linejoin:round;stroke-miterlimit:10;}
</style>
<g>
	<path class="st0" d="M101.5,2.8c0.2,0,0.3-0.1,0.4-0.1C101.6,2.7,101.4,2.7,101.5,2.8z"/>
	<path class="st0" d="M96.1,2.3c0.1,0,0.2,0,0.3,0C96.3,2.2,96.2,2.2,96.1,2.3z"/>
	<path class="st0" d="M132.9,3l-0.8-0.1C132,3,132.5,3,132.9,3z"/>
	<path class="st0" d="M141.7,11.6v0.3c0.1,0.1,0.1,0.1,0.2,0.2L141.7,11.6z"/>
	<path class="st0" d="M141.3,21.8c0.2,0.1,0.2,0.3,0.3,0.5c0.1,0,0.2,0,0.3-0.1C141.8,21.9,141.4,21.9,141.3,21.8z"/>
	<path class="st0" d="M141.1,39.1c0,0.1,0,0.2,0.1,0.3L141.1,39.1z"/>
	<path class="st0" d="M139.5,3.7c0-0.1,0-0.1,0-0.2C139.5,3.5,139.5,3.6,139.5,3.7z"/>
	<path class="st0" d="M136.2,49.4H136c0,0.1,0,0.1,0,0.2L136.2,49.4z"/>
	<path class="st0" d="M86.3,1.8C86.3,1.8,86.4,1.8,86.3,1.8C86.6,1.7,86.5,1.7,86.3,1.8z"/>
	<path class="st0" d="M2.1,13.2c0.3-1,0.4,1.7,0.8,0.1C2.8,13.5,2.4,11.9,2.1,13.2z"/>
	<path class="st0" d="M63.6,2c0.1,0.1,0.2,0.1,0.2,0.2C63.8,2.1,63.8,2.1,63.6,2z"/>
	<path class="st0" d="M54.9,2.5c-0.2,0-0.3-0.1-0.6,0h0.1C54.5,2.5,54.7,2.5,54.9,2.5z"/>
	<path class="st0" d="M45.8,2.5c0,0,0.1,0.1,0.2,0.1c0.1,0,0.2,0,0.3,0L45.8,2.5z"/>
	<path class="st0" d="M141.4,32.3l-0.4-0.2c0-0.2,0-0.7,0.2-0.6c-0.3-0.9-0.2,0.2-0.5-0.4c0.4-1.2-0.2-3.2,0.5-3.4
		c-0.3-0.4-0.2,1.1-0.5-0.1c0.7-0.4-0.1-1.4,0.2-2.5c0.4,0.3,0.2,1.3,0.5,0.3c-0.6-0.6,0.1-2.1,0-2.9c-0.5,0-0.2-1.9-0.4-3.4
		c0.2,0.1,0.3-2.8,0.5-4.2h0.1c-0.5-0.3-0.4-1.7-0.5-2.7c0.3,0,0.4,0.2,0.6,0.8v-1c-0.2-0.2-0.2-0.5-0.3-1.2l0.4,0.2
		c0-0.7-0.1-1.3-0.2-2c-0.1-0.6-0.1-1.6-0.3-2.6c-0.2,0-0.3,0.5-0.5,0.6c-0.1,0-0.1,0-0.2,0c-0.1-0.3-0.2-0.6-0.3-0.8
		c0.1,0,0.3,0,0.4,0.2c-0.1-0.1-0.4-0.5-0.5-0.8c0.2,0.1,0.4,0.3,0.6,0.5c-0.2-0.8-0.4-0.3-0.7-0.8c0.2-0.1-0.1-0.5,0.1-0.6
		c0.1,0.1,0.3,0.5,0.5,0.7c-0.3-0.7-1-1.5-1.1-1.9c0,0.2-0.2,0.3-0.7,0c-0.7-0.4-0.8-0.4-0.8-0.6c0-0.1,0.1-0.2-0.4-0.4
		c-0.4,0-1.4-0.2-1.5,0.2c-0.4,0-0.5-0.2-0.6-0.3c-0.7,0.2-3.2,0.1-2.4,0.5h0.2h-0.1c-2.2,0.4-4.6-0.2-6.8-0.1V2.8
		c-1.3,0.2-2.9,0.1-3.9,0.4c-0.4,0-0.9-0.2-0.8-0.4c-1,0.1-1.1,0.3-2.6,0c1-0.2-0.3-0.2,1-0.2c-1.3-0.1-1.6-0.3-3,0
		c0.5-0.3-1-0.4-1.6-0.3l0.9,0.2c-0.7,0.1-1.3,0-1.9,0L115,2c-2.7-0.6-4.8,0.9-6.8,0c-0.7,0.3,1.4,0.2,0.8,0.6
		c-1.2-0.1-2.5-0.7-2.9-0.7c-1.7-0.3-1.6,0.7-3.3,0.5c0.2,0.2,0.4,0.6-0.9,0.8c-1.2-0.1-1.5-0.7-0.7-0.8c0.3,0,0.4,0,0.4,0.1
		c0.4-0.1,0.9-0.1,0.4-0.3l-0.2,0.2c-0.6-0.2-2.3-0.1-1.9-0.4c-0.9,0.2-0.4,0.3,0.3,0.4c-1.6-0.2-2.5,0-4.1-0.2
		c0.3,0.1,0.5,0.3,0.2,0.3c-2.4-0.2-1,0.3-2.7,0.4c-0.9-0.2,0.3-0.6-1.3-0.4c-1-0.2-0.2-0.4,0.2-0.6c-1.5,0.3-2.8-0.2-3.6-0.3
		l0.8-0.1c-0.5,0.1-0.8,0.1-1.2,0.1L89,1.9c-0.5-0.1-0.8-0.1-0.8-0.2c-0.5,0.2,0.4,0.5-0.6,0.8c-0.6-0.2-1.9,0.2-2.1-0.3
		c1.9,0.1-0.2-0.4,1.4-0.5c-0.3,0.1-0.7,0.1-1.2,0c-0.1,0,0.1-0.1,0.2-0.1c-1.8-0.4-0.8,0.5-2.7,0.5c0.2-0.2-0.4-0.5-0.8-0.4
		c0.8,0,0.4,0.4-0.3,0.6c-1.2-0.2-1.3,0.1-2,0.1l0.7,0.1c-0.2,0.2-0.9,0.2-1.7,0.3c-0.1-0.2,0.8-0.1,0.5-0.2
		c-0.9,0.4-2.1-0.4-3.4-0.2c-0.6-0.2-0.1-0.5-0.6-0.6c-1.5,0.3-1.6-0.3-3.1-0.1C73,2,73.1,1.9,72,2.3l2.5-0.2l-1.6,0.5
		c0.8,0,1.6-0.2,2.1-0.2c-0.8,0.3-0.7,0.2-0.3,0.5c-1.1-0.5-2.1,0.3-3.3,0V2.1c-1.8-0.4-3.2,0.4-5.6,0.2l0.8,0.1
		c-0.3,0.3-1.5,0-2.2,0.2c0.1-0.3-0.4-0.4-0.7-0.5c0,0.2-1.7,0-2,0.5l-1.1-0.4c-1.9-0.1-2.2,0.8-4,0.7c0.6-0.3-0.3-0.5,1-0.7
		c-0.6,0-1.2-0.1-1.2,0.1c-0.4-0.2-1.7,0.4-2.3,0.1c-0.3,0.1-0.3,0.4-1,0.4c-0.1-0.1,0-0.1,0-0.1c0,0.1-1.1,0.2-0.5,0.5
		c-1.9-0.8-5.3,0.1-6.9-0.7c-1.3,0.1-3,0.2-4.2,0.2c0.1-0.1,0-0.1,0.2-0.1c-1.7-0.3-1,0.8-2.9,0.5c-1-0.4,1-0.2,0.4-0.4
		c-0.3-0.9-2.3,0.1-3.6-0.4l0.3-0.1c-1-0.3-2.4,0.3-4,0.3c0,0,0.1-0.1,0-0.1C31,2.9,28.9,3,27.4,3.1c0.5-0.3,0.7-0.2,0.4-0.5
		c-0.7,0.1,0.2,0.6-1.2,0.7c-0.5-0.2-1.4-0.4-1.6-0.7h1.3c-0.7-0.5-1.7,0-2.4-0.1L24,2.3c-2,0.1-2,0.6-4.2,0.6L20,3.1
		c-1.2,0.5-1-0.3-2.2,0.1l-0.4-0.5c-0.8,0.1-2.7,0.5-4.1,0.6c0.8-0.4,2.4-0.6,3.4-0.8c-0.8,0-2.6,0-3,0.3c0.3-0.1,0.7-0.2,1-0.1
		c-0.9,0.4-2.2,0.6-3.7,0.6c0.1-0.5-0.9-0.6-2-0.6c-0.3,0-0.6,0-0.9,0c-0.3,0-0.7,0-1,0c-0.7,0-1.3,0.2-1.7,0.1C4.2,3.6,3,5,2.5,6.8
		C2.3,7.2,2.3,7.7,2.2,8.1c0,0.4,0,0.7-0.1,1.1c0,0.7-0.1,1.5,0,2.3c0.8-1.1,0,0.9,0.9,0.7c0.1,0.7,0,1,0,1.1v-0.2
		c0,0.1,0,0.1,0,0.2l0,0l-0.5,2.2c-0.2,0.5-0.2-0.7-0.4-0.6c-0.1,1.6-0.4,0.7-0.6,1.7c0.3-0.2,0.4,0.6,0.3,1.5l0.4-1.3
		c0.5,2.3-0.7,2-0.3,4.3l-0.3-0.7c0.2,1.2,0,4.3,0.7,5.4c-0.1,0.2-0.3,0.5-0.4,0c-0.1,2.8,0.7,6.2,0.3,8.3L2,33.8
		c0.1,0.5,0.4,0.9,0.2,1.6c-0.1,0-0.2-0.2-0.2,0c0.1,0.3,0.4,1.4,0.2,2.1L2,36.9c-0.3,2.7,0.6,4.2,0.7,6.4c-0.3,0-0.5,0.5-0.6,1.2
		C2,44.7,2,45.2,2,45.7s0.1,1,0.2,1.3H2.1c0.8,2.2,2.6,3.4,4.3,3.8c0.9,0.2,1.9,0.1,2.5,0c0.7-0.1,1.4-0.2,2.1-0.2
		c1.8,0.7,6.1,0.3,9.1,0.6c-0.4-0.1,0.1-0.5,0.6-0.5c0.7,0.1,1.9-0.4,1.8,0.1h-0.2c0.5,0.5,1.9,0.4,3,0.4l0.2-0.7
		c2.9,1.1,7.5-0.4,9.1,0.6c0.7-0.2,1.6-0.2,2.2-0.4v0.4c1.9,0.1,2.9,0.1,5.3,0.1l-0.5,0.3c1.3,0,1.7-1.1,2.9-1.1l0.4,0.6
		c2.3,0,4.7,0.5,7,0c0,0.1-0.1,0.3-0.5,0.3c1.1,0,4.3,0.4,3.9-0.4c0,0.5,2.4,0.1,3.7-0.2l-0.4,0.2c1.1-0.5,1.1-0.6,2.6-0.8
		c0.4,0,0.3,0.3-0.2,0.2c1.2,0.2,0.9-0.4,2.3-0.2l-0.5,0.2c1.2,0,1.1-0.1,1.8-0.4c0.8-0.2,2.3,0.1,2.5,0.4c0.2-0.2,0.8-0.5,1.5-0.4
		c0.1,0.1-0.2,0.2-0.3,0.3c2,0.3,3-0.4,4.4-0.1c0,0.1,0.1,0.2,0.2,0.2c-1.6,0-2.9,0-2.8-0.1c0,0.4,1.3,0.4,0.3,0.9
		c1-0.3,2.8-0.8,4.1-0.7c0.1,0,0.1,0.1,0.2,0.1h-0.1c0.3,0,0.6,0,0.8-0.1c0.4,0.1,0.7,0.1,1,0.1c0.1,0.3,1.5,0.2,2.1,0.2
		c-0.1-0.4,0.8-0.3,0-0.6c0.1,0-0.1,0-0.6,0.1c-0.1,0-0.2,0-0.3,0l0,0c-0.4,0-1,0-1.6,0c0.5-0.2,1-0.4,1.8-0.1
		c0.3-0.2,0.7-0.5,0.9-0.6c0.9,0.5,2.6,0.8,2.8,1.2c2-0.2,4.7-0.1,5.9-0.9c0.6-0.1,0.6,0.2,0.9,0.3c-0.3,0.1-0.7,0.1-0.9,0.2
		c1.1-0.2,3.3-0.1,3.6-0.6c1.4,0.2-0.8,0.5,1.1,0.4l-0.1,0.4c3.8,0.8,6.2-1.3,10.5-0.3c-0.3-0.1-0.4-0.1-0.5-0.2
		c4.8,0.5,10-0.4,14.6,0.3c1.4,0.1,1.5-0.2,2.3-0.4l0.3,0.4l1.4-0.5c2-0.4,3.5,1,6,0.4l-0.3-0.3c0.9,0.1,2.9-0.2,2.7,0.2
		c0.1-0.1,0.3-0.3,0.7-0.1v0.2l2.2-0.4c1.7,0.2-0.3,0.9,2.3,0.9c0.9-0.1,2.7-0.6,2.3-0.8c-0.4,0-1-0.1-1-0.4l0.9-0.1v-0.1h0.1
		c2.5,0,4.6-2.1,4.6-4.6v-3l0.1,0.1l-0.1-0.3v-1.3c0.1,0,0.2,0.2,0.2,0.4c0.3-1-0.2-0.8,0.1-1.7c0-0.1,0.1,0,0.1,0l-0.2-0.9
		c0.1,0.2,0.4-0.2,0.3,0.4c0.3-1.7-0.4-2.7,0-3.3v0.1c-0.1-1.7-0.3-1-0.6-1.3v-1.1L141.4,32.3z M77.1,50.8L77.1,50.8
		C77.1,50.8,77.1,50.9,77.1,50.8c-0.5,0.2-0.7,0.1-0.7,0C76.5,50.9,76.8,50.9,77.1,50.8z M140.8,38.7
		C140.8,38.8,140.8,38.8,140.8,38.7l-0.1-0.4C140.8,38.4,140.8,38.6,140.8,38.7z"/>
	<path class="st0" d="M77.7,50.5c0.1,0,0.1,0,0.2,0C77.8,50.5,77.7,50.4,77.7,50.5c-0.2-0.1-0.2,0-0.3,0
		C77.6,50.5,77.7,50.5,77.7,50.5z"/>
	<path class="st0" d="M133.3,3.1C133.3,3.1,133.4,3.1,133.3,3.1C133.3,3.1,133.3,3.1,133.3,3.1L133.3,3.1z"/>
	<path class="st0" d="M141.4,29l-0.1,1.7c0.1-0.3,0.4-0.7,0.4,0.1C142.1,28.7,141.3,31.2,141.4,29z"/>
	<path class="st0" d="M141.6,23.8c0.1,0.9,0.2,0,0.3,0C141.8,23.3,141.7,23.1,141.6,23.8z"/>
	<path class="st0" d="M121.6,2.8l0.1-0.4C121,2.5,121.7,2.5,121.6,2.8z"/>
	<polygon class="st0" points="110.6,2 109.4,2.2 110.3,2.1 	"/>
	<path class="st0" d="M47.4,2.2l0.2,0.4C48.1,2.6,48.2,2.1,47.4,2.2z"/>
	<path class="st0" d="M20.3,2.6c-0.3-0.2-1.1-0.4-1.5-0.1C19.4,2.5,20,2.7,20.3,2.6z"/>
	<polygon class="st0" points="26.1,51.2 27.2,51.1 26.7,51 	"/>
</g>
</svg>
