<?xml version="1.0" encoding="utf-8"?>
<!-- Generator: Adobe Illustrator 21.1.0, SVG Export Plug-In . SVG Version: 6.00 Build 0)  -->
<svg version="1.1" id="Layer_1" xmlns="http://www.w3.org/2000/svg" xmlns:xlink="http://www.w3.org/1999/xlink" x="0px" y="0px"
	 width="200px" height="200px" viewBox="0 0 200 200" style="enable-background:new 0 0 200 200;" xml:space="preserve">
<style type="text/css">
	.st0{fill:#E2A726;}
	.st1{fill:#FFFFFF;}
</style>
<g>
	<g>
		<path class="st0" d="M100,200C44.9,200,0,155.1,0,100S44.9,0,100,0s100,44.9,100,100S155.1,200,100,200z M100,18.2
			c-45.1,0-81.8,36.7-81.8,81.8s36.7,81.8,81.8,81.8s81.8-36.7,81.8-81.8S145.1,18.2,100,18.2z"/>
	</g>
	<g>
		<path class="st1" d="M100,200c-32.4,0-63-15.8-81.7-42.3c-2.9-4.1-1.9-9.8,2.2-12.7c4.1-2.9,9.8-1.9,12.7,2.2
			c15.3,21.7,40.3,34.6,66.8,34.6c45.1,0,81.8-36.7,81.8-81.8S145.1,18.2,100,18.2c-5,0-9.1-4.1-9.1-9.1S95,0,100,0
			c55.1,0,100,44.9,100,100S155.1,200,100,200z"/>
	</g>
</g>
</svg>
