<?xml version="1.0" encoding="utf-8"?>
<!-- Generator: Adobe Illustrator 21.1.0, SVG Export Plug-In . SVG Version: 6.00 Build 0)  -->
<svg version="1.1" id="Layer_1" xmlns="http://www.w3.org/2000/svg" xmlns:xlink="http://www.w3.org/1999/xlink" x="0px" y="0px"
	 width="200px" height="66.7px" viewBox="0 0 200 66.7" style="enable-background:new 0 0 200 66.7;" xml:space="preserve">
<style type="text/css">
	.st0{clip-path:url(#SVGID_2_);fill:#FEC240;}
</style>
<g>
	<defs>
		<rect id="SVGID_1_" width="200" height="66.7"/>
	</defs>
	<clipPath id="SVGID_2_">
		<use xlink:href="#SVGID_1_"  style="overflow:visible;"/>
	</clipPath>
	<path class="st0" d="M199.3,41l-0.6-0.3c0-0.3,0.1-1,0.3-0.8c-0.4-1.2-0.3,0.2-0.6-0.5c0.5-1.5-0.3-4.2,0.7-4.6
		c-0.5-0.6-0.3,1.5-0.7-0.2c1-0.5-0.2-1.9,0.3-3.3c0.5,0.4,0.2,1.8,0.7,0.4c-0.9-0.8,0.2-2.7,0-3.9c-0.7-0.1-0.3-2.6-0.5-4.6
		c0.2,0.1,0.4-3.7,0.6-5.6l0.1,0.1c-0.7-0.4-0.6-2.3-0.7-3.7c0.4,0.1,0.6,0.3,0.8,1.1l0-1.3c-0.2-0.3-0.3-0.7-0.4-1.6l0.5,0.3
		c0-0.9-0.2-1.7-0.3-2.7c-0.1-0.9-0.1-2.1-0.5-3.4c-0.3,0-0.4,0.6-0.7,0.8c-0.1,0.1-0.2,0.1-0.3,0.1c-0.1-0.4-0.3-0.8-0.4-1.1
		c0.2,0,0.4,0,0.6,0.3c-0.1-0.2-0.5-0.6-0.7-1c0.3,0.2,0.6,0.4,0.9,0.7c-0.4-1.1-0.6-0.4-1.1-1.1c0.3-0.2-0.2-0.7,0.1-0.8
		c0.2,0.2,0.4,0.7,0.7,1c-0.5-1-1.4-2-1.6-2.5c-0.1,0.2-0.3,0.4-1,0c-0.9-0.5-1.1-0.6-1.1-0.7c0-0.1,0.1-0.3-0.5-0.6
		c-0.6,0-2-0.3-2.1,0.3c-0.6,0-0.6-0.3-0.9-0.4c-1,0.2-4.5,0.1-3.4,0.6l0.2,0c0,0-0.1,0-0.2,0c-3.1,0.5-6.5-0.3-9.6-0.1l0-0.2
		c-1.9,0.2-4.1,0.1-5.5,0.5c-0.6,0-1.3-0.3-1.1-0.5c-1.4,0.1-1.6,0.3-3.6,0c1.4-0.3-0.5-0.3,1.5-0.2c-1.8-0.2-2.3-0.4-4.3,0
		c0.7-0.5-1.4-0.6-2.3-0.4l1.3,0.3c-1,0.1-1.9,0-2.7,0l0.5-0.6c-3.8-0.7-6.8,1.3-9.7,0c-1,0.4,2.1,0.3,1.2,0.8c-1.7-0.1-3.6-1-4.1-1
		c-2.4-0.3-2.2,0.9-4.7,0.7c0.3,0.2,0.6,0.8-1.2,1c-1.7-0.1-2.1-0.9-1-1.1c0.4,0,0.6,0.1,0.6,0.1c0.6-0.1,1.3-0.2,0.6-0.4l-0.2,0.2
		C142.4,1,140,1,140.5,0.7c-1.3,0.2-0.6,0.4,0.4,0.5c-2.2-0.3-3.5,0-5.8-0.2c0.4,0.1,0.7,0.4,0.3,0.4c-3.4-0.3-1.5,0.4-3.8,0.5
		c-1.3-0.3,0.5-0.8-1.8-0.5c-1.4-0.2-0.3-0.6,0.3-0.8c-2.1,0.4-3.9-0.3-5.1-0.4l1.1-0.2c-0.7,0.1-1.2,0.1-1.8,0.1l0.6,0.4
		c-0.6-0.1-1.2-0.1-1.2-0.3c-0.7,0.3,0.5,0.7-0.8,1.1c-0.9-0.2-2.6,0.2-2.9-0.3c2.7,0.2-0.3-0.6,2-0.7c-0.4,0.1-1,0.1-1.6,0
		c-0.1-0.1,0.1-0.1,0.3-0.2c-2.6-0.5-1.2,0.7-3.9,0.6c0.3-0.3-0.6-0.6-1.1-0.5c1.1,0,0.5,0.5-0.5,0.8c-1.7-0.3-1.9,0.2-2.8,0.2
		l1,0.1c-0.3,0.3-1.2,0.3-2.4,0.4c-0.1-0.3,1.1-0.2,0.7-0.3c-1.3,0.6-3-0.6-4.9-0.2c-0.9-0.2-0.1-0.6-0.8-0.8
		c-2.1,0.4-2.3-0.4-4.5-0.1c0.6,0.4,0.7,0.3-0.8,0.8l3.6-0.3l-2.3,0.6c1.1,0,2.3-0.3,3-0.2c-1.1,0.4-1,0.2-0.5,0.6
		c-1.5-0.7-3,0.4-4.7-0.1l0.1-1.1c-2.6-0.5-4.6,0.6-8,0.3l1.1,0.2c-0.5,0.4-2.1,0.1-3.2,0.2c0.1-0.4-0.6-0.5-1-0.7
		c0.1,0.3-2.5,0-2.8,0.7L84.6,1c-2.7-0.2-3.1,1-5.7,0.9c0.8-0.4-0.4-0.7,1.3-0.9c-0.9,0-1.7-0.1-1.7,0.2c-0.5-0.2-2.4,0.5-3.2,0.1
		c-0.4,0.2-0.5,0.5-1.5,0.5c-0.1-0.1,0-0.2,0-0.2c0,0.2-1.5,0.2-0.7,0.6c-2.7-1.1-7.5,0.1-9.8-0.9c-1.9,0.1-4.2,0.2-5.9,0.3
		c0.1-0.1,0-0.2,0.3-0.1c-2.4-0.3-1.5,1-4.2,0.7c-1.4-0.6,1.4-0.3,0.6-0.5c-0.4-1.2-3.3,0.2-5.1-0.5L49.5,1
		c-1.4-0.4-3.4,0.5-5.7,0.4c0,0,0.1-0.1,0-0.2c-1.6,0.6-4.5,0.8-6.7,1c0.7-0.5,1-0.2,0.6-0.7c-1,0.1,0.3,0.8-1.7,0.9
		c-0.6-0.3-2.1-0.5-2.2-1l1.9,0c-0.9-0.7-2.4,0-3.4-0.1L32.4,1c-2.8,0.1-2.9,0.8-5.9,0.8l0.3,0.2c-1.7,0.7-1.4-0.4-3.1,0.1l-0.5-0.7
		c-1.1,0.2-3.9,0.7-5.8,0.8c1.1-0.5,3.4-0.8,4.9-1.1c-1.1,0-3.7,0.1-4.3,0.4c0.4-0.1,1-0.2,1.4-0.1c-1.3,0.6-3.1,0.8-5.3,0.8
		c0.2-0.7-1.2-0.8-2.9-0.8c-0.4,0-0.8,0-1.3,0c-0.4,0-1,0-1.5,0c-1,0-1.8,0.2-2.4,0.2c-2.2,1.2-3.9,3-4.7,5.4C1.2,7.5,1.1,8.1,1,8.7
		c0,0.5-0.1,1-0.1,1.5c-0.1,1-0.1,2-0.1,3c1.2-1.5,0,1.2,1.2,1c0.1,1,0.1,1.3,0,1.4l0-0.2c0,0.1,0,0.1-0.1,0.2h0l-0.7,3
		c-0.3,0.7-0.3-0.9-0.5-0.8c-0.1,2.1-0.5,0.9-0.8,2.3c0.4-0.3,0.6,0.7,0.4,2L1,20.3c0.6,3-1,2.6-0.4,5.6l-0.4-1c0.2,1.5,0,5.7,1,7.2
		c-0.1,0.3-0.5,0.6-0.6,0c-0.1,3.7,1,8.3,0.4,11.1l-0.3-0.3c0.1,0.7,0.5,1.2,0.3,2.1c-0.1,0-0.3-0.3-0.3,0c0.1,0.4,0.5,1.8,0.3,2.8
		l-0.3-0.8c-0.4,3.6,0.8,5.5,1,8.6c-0.4,0-0.7,0.7-0.9,1.6c-0.1,0.4-0.2,1.1-0.1,1.8c0,0.7,0.2,1.3,0.3,1.7l-0.1,0
		c1.1,2.9,3.6,4.5,6.1,5c1.2,0.3,2.7,0.1,3.5,0c0.9-0.1,1.9-0.2,3-0.3c2.6,0.9,8.7,0.4,12.9,0.9c-0.6-0.1,0.1-0.6,0.8-0.7
		c1,0.2,2.7-0.6,2.5,0.2l-0.3,0c0.7,0.7,2.7,0.5,4.3,0.6l0.3-1c4.1,1.4,10.7-0.5,12.9,0.7c1-0.2,2.2-0.2,3.2-0.5l-0.1,0.5
		c2.7,0.1,4.1,0.2,7.5,0.1l-0.7,0.4c1.9,0,2.4-1.5,4.2-1.5l0.5,0.8c3.3,0,6.7,0.7,9.9,0c-0.1,0.1-0.2,0.3-0.7,0.4
		c1.6,0,6,0.5,5.5-0.5c0,0.7,3.4,0.1,5.2-0.2L81,66c1.5-0.7,1.6-0.8,3.7-1c0.5,0.1,0.4,0.4-0.2,0.3c1.7,0.3,1.3-0.5,3.3-0.2
		l-0.8,0.3c1.7,0,1.6-0.1,2.5-0.5c1.1-0.2,3.3,0.1,3.5,0.6c0.2-0.3,1.2-0.7,2.2-0.5c0.1,0.2-0.2,0.3-0.4,0.3
		c2.9,0.3,4.3-0.6,6.2-0.1c0,0.2,0.2,0.3,0.3,0.3c-2.3,0-4.1,0-3.9-0.1c0,0.5,1.8,0.6,0.4,1.2c1.5-0.4,4-1.1,5.8-0.9
		c0.1,0,0.2,0.1,0.2,0.2l-0.2,0.1c0.4,0,0.8,0,1.1-0.1c0.6,0.1,0.9,0.1,1.5,0.1c0.2,0.4,2.1,0.2,3,0.2c-0.1-0.5,1.1-0.4,0-0.9
		c0.1,0-0.2,0.1-0.8,0.1c-0.1,0-0.3,0-0.4,0.1c0,0,0,0,0.1,0c-0.6,0-1.4,0-2.3,0c0.7-0.3,1.5-0.5,2.5-0.2c0.5-0.3,1-0.7,1.3-0.8
		c1.3,0.7,3.7,1.1,4,1.6c2.8-0.3,6.6-0.2,8.4-1.2c0.8-0.1,0.9,0.3,1.2,0.4c-0.5,0.1-1,0.1-1.3,0.2c1.6-0.2,4.7-0.1,5.1-0.8
		c2,0.3-1.1,0.6,1.6,0.5l-0.4,0.2c5.4,1.1,8.8-1.7,14.8-0.3c-0.4-0.1-0.6-0.1-0.7-0.2c6.9,0.6,14.1-0.6,20.9,0.4
		c1.9,0.2,2.1-0.2,3.3-0.6l0.4,0.6l2-0.6c2.8-0.5,4.9,1.4,8.5,0.5l-0.5-0.4c1.3,0.1,4.1-0.2,3.9,0.2c0.1-0.1,0.4-0.4,0.9-0.2l0,0.3
		l3.2-0.5c2.5,0.2-0.4,1.1,3.2,1.2c1.3-0.1,3.8-0.8,3.3-1c-0.5,0-1.4-0.2-1.4-0.5l1.2-0.2c0-0.1,0-0.1,0-0.2h0.2
		c3.6,0,6.5-2.7,6.5-6.1v-4l0.2,0.1l-0.2-0.4v-1.8c0.1,0.1,0.2,0.2,0.3,0.6c0.4-1.3-0.3-1.1,0.2-2.2c0.1-0.1,0.1-0.1,0.1,0l-0.2-1.2
		c0.2,0.2,0.6-0.2,0.5,0.6c0.5-2.2-0.6-3.6,0-4.4l0.1,0.2c-0.2-2.3-0.4-1.3-0.8-1.7v-1.5L199.3,41z M107.6,65.9
		C107.6,65.9,107.7,65.9,107.6,65.9c0,0-0.1,0.1-0.2,0.2c-0.6,0.1-0.8,0-0.9-0.1C106.8,66,107.2,65.9,107.6,65.9 M198.4,49.6
		c0,0.1-0.1,0.1-0.1,0.2v-0.7C198.3,49.2,198.4,49.4,198.4,49.6"/>
</g>
</svg>
