<?xml version="1.0" encoding="utf-8"?>
<!-- Generator: Adobe Illustrator 21.1.0, SVG Export Plug-In . SVG Version: 6.00 Build 0)  -->
<svg version="1.1" id="Layer_1" xmlns="http://www.w3.org/2000/svg" xmlns:xlink="http://www.w3.org/1999/xlink" x="0px" y="0px"
	 width="300px" height="82px" viewBox="0 0 300 82" style="enable-background:new 0 0 300 82;" xml:space="preserve">
<style type="text/css">
	.st0{clip-path:url(#SVGID_2_);fill:#FFC23F;}
</style>
<g>
	<defs>
		<rect id="SVGID_1_" x="0" y="0" width="300" height="82"/>
	</defs>
	<clipPath id="SVGID_2_">
		<use xlink:href="#SVGID_1_"  style="overflow:visible;"/>
	</clipPath>
	<path class="st0" d="M299,50.4l-0.9-0.4c0-0.4,0.1-1.2,0.5-1c-0.6-1.5-0.4,0.2-1-0.6c0.8-1.9-0.4-5.2,1-5.7c-0.7-0.7-0.5,1.8-1-0.2
		c1.5-0.6-0.3-2.3,0.4-4.1c0.8,0.5,0.4,2.2,1.1,0.4c-1.3-1,0.3-3.4,0-4.8c-1.1-0.1-0.4-3.2-0.8-5.6c0.4,0.2,0.6-4.6,1-6.9l0.2,0.1
		c-1.1-0.4-0.9-2.8-1.1-4.5c0.6,0.1,0.9,0.4,1.2,1.3l0-1.6c-0.3-0.4-0.5-0.9-0.6-1.9l0.8,0.4c0-1.1-0.3-2.1-0.4-3.3
		c-0.2-1.1-0.2-2.6-0.7-4.2c-0.4,0-0.6,0.7-1,1C297.4,9,297.3,9,297.1,9c-0.2-0.5-0.4-0.9-0.7-1.4c0.3,0,0.6,0,0.9,0.4
		c-0.2-0.2-0.8-0.7-1-1.2c0.5,0.2,0.9,0.5,1.4,0.9c-0.5-1.4-0.9-0.5-1.6-1.4c0.5-0.2-0.3-0.8,0.2-0.9c0.3,0.2,0.6,0.9,1.1,1.2
		c-0.7-1.2-2-2.5-2.4-3c-0.1,0.3-0.4,0.4-1.5,0c-1.4-0.6-1.6-0.7-1.7-0.9c0-0.2,0.1-0.4-0.8-0.7c-0.9,0.1-3-0.4-3.1,0.3
		c-0.9,0-1-0.3-1.3-0.5c-1.4,0.3-6.7,0.1-5.1,0.8l0.4,0c-0.1,0-0.1,0-0.2,0c-4.7,0.7-9.8-0.4-14.5-0.1l0-0.2
		c-2.8,0.3-6.2,0.2-8.2,0.6c-0.8,0-1.9-0.4-1.6-0.7c-2.1,0.2-2.4,0.4-5.5,0.1c2.1-0.4-0.7-0.3,2.2-0.3c-2.8-0.2-3.4-0.5-6.4,0.1
		c1-0.6-2.1-0.7-3.4-0.5l1.9,0.4c-1.5,0.1-2.8,0-4.1,0l0.7-0.8c-5.7-0.9-10.2,1.6-14.6,0c-1.5,0.5,3.1,0.4,1.7,1
		c-2.6-0.1-5.3-1.2-6.1-1.2c-3.6-0.4-3.3,1.1-7.1,0.8c0.5,0.3,0.9,1-1.9,1.2c-2.6-0.1-3.2-1.1-1.6-1.3c0.6,0,0.9,0.1,0.9,0.2
		c0.8-0.1,2-0.2,0.9-0.5l-0.3,0.3c-1.3-0.3-4.9-0.2-4-0.7c-2,0.3-0.8,0.4,0.6,0.6c-3.4-0.4-5.2,0-8.7-0.3c0.5,0.1,1.1,0.5,0.5,0.5
		c-5.1-0.3-2.2,0.5-5.7,0.6c-1.9-0.4,0.7-1-2.8-0.6c-2.1-0.3-0.4-0.7,0.4-0.9c-3.1,0.5-5.9-0.3-7.7-0.4l1.7-0.2
		c-1,0.1-1.8,0.1-2.6,0.1l0.9,0.5c-1-0.1-1.8-0.1-1.8-0.3c-1,0.4,0.8,0.9-1.2,1.4c-1.3-0.3-3.9,0.3-4.4-0.4c4.1,0.2-0.4-0.7,3-0.8
		c-0.7,0.1-1.5,0.1-2.5,0c-0.1-0.1,0.1-0.1,0.4-0.2c-3.9-0.6-1.8,0.8-5.8,0.8c0.5-0.4-0.9-0.8-1.6-0.7c1.6,0,0.8,0.7-0.7,1
		c-2.6-0.3-2.8,0.2-4.2,0.2l1.5,0.1c-0.5,0.4-1.8,0.3-3.6,0.5c-0.2-0.3,1.6-0.2,1-0.4c-2,0.7-4.5-0.7-7.3-0.3
		c-1.3-0.3-0.1-0.8-1.3-0.9c-3.1,0.5-3.4-0.5-6.7-0.1c0.9,0.5,1.1,0.4-1.2,0.9l5.4-0.4l-3.5,0.8c1.6,0,3.5-0.3,4.4-0.2
		c-1.7,0.4-1.5,0.3-0.7,0.8c-2.2-0.8-4.4,0.5-7-0.1l0.1-1.3c-3.9-0.6-6.9,0.7-12,0.3l1.6,0.2c-0.7,0.5-3.1,0.1-4.8,0.3
		c0.2-0.4-0.9-0.6-1.6-0.9c0.1,0.3-3.7,0-4.2,0.9l-2.3-0.6c-4.1-0.2-4.7,1.3-8.6,1.1c1.2-0.5-0.6-0.8,2-1.1c-1.3,0-2.5-0.1-2.5,0.2
		C117,1.1,114.2,2,113,1.6c-0.6,0.2-0.7,0.7-2.2,0.6c-0.2-0.1,0-0.2,0-0.2c0,0.2-2.3,0.3-1,0.8c-4-1.4-11.3,0.1-14.8-1.1
		C92.1,1.8,88.7,2,86.1,2c0.2-0.1,0-0.2,0.5-0.2c-3.6-0.4-2.2,1.3-6.3,0.8c-2.1-0.7,2.2-0.4,0.9-0.7c-0.6-1.5-4.9,0.2-7.6-0.7
		l0.7-0.1c-2.1-0.5-5.1,0.6-8.5,0.4c0,0,0.2-0.1,0-0.2c-2.3,0.7-6.8,1-10.1,1.2c1-0.6,1.5-0.3,0.9-0.9C55,1.9,56.9,2.7,54,2.9
		c-1-0.3-3.1-0.6-3.4-1.2l2.8,0c-1.4-0.8-3.6,0-5.1-0.1l0.2-0.4c-4.3,0.1-4.3,1-8.9,0.9l0.5,0.3c-2.5,0.9-2.1-0.5-4.6,0.2l-0.8-0.9
		c-1.7,0.2-5.8,0.9-8.7,1c1.7-0.7,5.1-1,7.3-1.4c-1.6,0-5.6,0.1-6.4,0.5c0.7-0.1,1.5-0.3,2.1-0.2c-2,0.7-4.6,1-7.9,1
		c0.3-0.9-1.8-1-4.3-1c-0.6,0-1.3,0-1.9,0c-0.6,0-1.5,0-2.2,0C11.3,1.6,10,1.8,9.1,1.8c-3.3,1.5-5.9,3.7-7,6.7
		c-0.3,0.7-0.5,1.5-0.5,2.3c0,0.6-0.1,1.2-0.1,1.8c-0.1,1.2-0.1,2.5-0.1,3.7c1.7-1.8,0,1.5,1.8,1.2c0.1,1.2,0.1,1.6,0,1.8L3.2,19
		c0,0.1-0.1,0.2-0.1,0.3h0L2,22.9c-0.5,0.9-0.4-1.1-0.8-1C1.1,24.5,0.5,23,0,24.7c0.6-0.4,0.9,0.9,0.7,2.4L1.5,25
		c1,3.7-1.5,3.2-0.6,6.9l-0.6-1.2c0.3,1.9,0,7,1.4,8.9C1.6,40,1.1,40.4,1,39.6c-0.2,4.6,1.5,10.1,0.6,13.7L1.2,53
		c0.1,0.9,0.8,1.5,0.4,2.5c-0.2-0.1-0.4-0.3-0.5,0.1c0.2,0.4,0.8,2.3,0.5,3.4l-0.5-1c-0.6,4.4,1.2,6.8,1.5,10.6
		c-0.6,0-1.1,0.9-1.4,2c-0.1,0.4-0.3,1.4-0.2,2.2c0.1,0.8,0.3,1.6,0.5,2.2l-0.2,0c1.6,3.5,5.5,5.6,9.2,6.2c1.8,0.3,4,0.2,5.2,0
		c1.4-0.1,2.9-0.3,4.4-0.4c3.9,1.1,13.1,0.5,19.3,1.1c-1-0.2,0.2-0.8,1.3-0.9c1.5,0.2,4-0.7,3.8,0.2l-0.5,0c1.1,0.9,4.1,0.7,6.4,0.7
		l0.4-1.2c6.1,1.7,16-0.6,19.4,0.9c1.5-0.3,3.3-0.3,4.8-0.6l-0.1,0.6c4.1,0.2,6.1,0.2,11.2,0.1l-1,0.5c2.8,0,3.6-1.8,6.2-1.9l0.8,1
		c5,0,10,0.8,14.9,0c-0.1,0.1-0.2,0.4-1,0.5c2.3,0,9.1,0.6,8.2-0.7c0.1,0.9,5.1,0.1,7.8-0.3l-0.4,0.6c2.3-0.8,2.3-1,5.5-1.2
		c0.8,0.1,0.7,0.5-0.3,0.3c2.5,0.3,1.9-0.6,5-0.3l-1.1,0.4c2.6,0,2.4-0.2,3.8-0.6c1.6-0.3,4.9,0.2,5.3,0.7c0.3-0.3,1.8-0.8,3.3-0.6
		c0.2,0.2-0.3,0.3-0.6,0.4c4.3,0.4,6.4-0.7,9.4-0.1c0.1,0.2,0.3,0.3,0.5,0.4c-3.4,0-6.2,0-5.9-0.1c0,0.6,2.8,0.7,0.6,1.5
		c2.2-0.4,6-1.4,8.7-1.1c0.1,0.1,0.3,0.1,0.4,0.2l-0.3,0.1c0.6,0.1,1.2,0,1.7-0.1c0.9,0.1,1.4,0.2,2.2,0.2c0.3,0.5,3.2,0.3,4.5,0.3
		c-0.1-0.6,1.7-0.5,0-1.1c0.2,0-0.3,0.1-1.2,0.1c-0.2,0-0.4,0-0.6,0.1c0,0,0.1,0,0.1-0.1c-0.9,0-2.1,0-3.4,0
		c1.1-0.3,2.2-0.6,3.7-0.2c0.7-0.4,1.5-0.8,1.9-1c1.9,0.9,5.5,1.4,6,1.9c4.2-0.4,9.9-0.2,12.5-1.4c1.2-0.2,1.4,0.3,1.8,0.5
		c-0.7,0.1-1.5,0.1-1.9,0.3c2.4-0.3,7.1-0.1,7.6-1c3,0.4-1.7,0.8,2.4,0.6l-0.6,0.3c8.1,1.3,13.2-2.1,22.2-0.4
		c-0.6-0.1-0.9-0.2-1.1-0.3c10.3,0.8,21.2-0.7,31.3,0.5c2.9,0.2,3.2-0.3,5-0.7l0.6,0.7l3-0.8c4.3-0.6,7.4,1.7,12.8,0.6l-0.7-0.5
		c1.9,0.1,6.1-0.3,5.8,0.3c0.2-0.1,0.6-0.5,1.4-0.2l0.1,0.4l4.8-0.6c3.7,0.3-0.6,1.4,4.8,1.5c2-0.1,5.7-1,5-1.3
		c-0.8,0-2.1-0.2-2.1-0.6l1.8-0.2c0-0.1,0-0.1,0.1-0.2h0.3c5.4,0,9.8-3.4,9.8-7.5v-4.9l0.2,0.2l-0.2-0.5v-2.2
		c0.2,0.1,0.3,0.3,0.4,0.7c0.6-1.6-0.4-1.4,0.2-2.7c0.1-0.1,0.2-0.1,0.2,0.1l-0.4-1.5c0.3,0.3,0.9-0.3,0.7,0.7
		c0.7-2.8-0.9-4.4,0-5.5l0.1,0.2c-0.3-2.9-0.7-1.6-1.2-2.1v-1.8L299,50.4z M161.4,81.1c0,0,0.1,0,0.1-0.1c-0.1,0.1-0.2,0.2-0.4,0.3
		c-0.9,0.1-1.2,0-1.3-0.2C160.3,81.1,160.8,81.1,161.4,81.1 M297.6,61c0,0.1-0.1,0.1-0.1,0.2v-0.9C297.5,60.6,297.6,60.8,297.6,61"
		/>
</g>
</svg>
