<?xml version="1.0" encoding="utf-8"?>
<!-- Generator: Adobe Illustrator 21.1.0, SVG Export Plug-In . SVG Version: 6.00 Build 0)  -->
<svg version="1.1" id="Layer_1" xmlns="http://www.w3.org/2000/svg" xmlns:xlink="http://www.w3.org/1999/xlink" x="0px" y="0px"
	 width="348.4px" height="376px" viewBox="0 0 348.4 376" style="enable-background:new 0 0 348.4 376;" xml:space="preserve">
<style type="text/css">
	.st0{fill:#FFC23E;}
</style>
<g>
	<path class="st0" d="M174.2,96.7c3.3,0,6-2.7,6-6V6c0-3.3-2.7-6-6-6s-6,2.7-6,6v84.7C168.2,94,170.9,96.7,174.2,96.7L174.2,96.7z"
		/>
	<path class="st0" d="M198.3,96.7c3.3,0,6-2.7,6-6V6c0-3.3-2.7-6-6-6s-6,2.7-6,6v84.7C192.3,94,194.9,96.7,198.3,96.7L198.3,96.7z"
		/>
	<path class="st0" d="M156.2,110.3V23.4c0-3.3-2.7-6-6-6s-6,2.7-6,6v92.4c0,3.3,2.7,6,6,6c15.5,0,28.2,12.6,28.2,28.2
		c0,3.3,2.7,6,6,6s6-2.7,6-6C190.4,129.9,175.5,113.2,156.2,110.3L156.2,110.3z"/>
	<path class="st0" d="M222.3,26.1c-3.3,0-6,2.7-6,6v100.5c0,15-8.1,28.9-21,36.4c-2.9,1.7-3.8,5.3-2.2,8.2c1.1,1.9,3.1,3,5.2,3
		c1,0,2-0.3,3-0.8c0.5-0.3,1-0.6,1.4-0.9V370c0,3.3,2.7,6,6,6s6-2.7,6-6V168.5c8.6-9.8,13.6-22.5,13.6-35.8V32.1
		C228.3,28.8,225.6,26.1,222.3,26.1L222.3,26.1z"/>
	<path class="st0" d="M153.2,169.1c-13-7.5-21-21.5-21-36.4V67.2c0-3.3-2.7-6-6-6s-6,2.7-6,6v65.4c0,18.1,9.1,35,24,45V370
		c0,3.3,2.7,6,6,6s6-2.7,6-6V174.3C156.2,172.2,155,170.2,153.2,169.1L153.2,169.1z"/>
	<path d="M54.1,194.8c3.3,0,6-2.7,6-6V104c0-3.3-2.7-6-6-6s-6,2.7-6,6v84.7C48.1,192.1,50.8,194.8,54.1,194.8L54.1,194.8z"/>
	<path d="M78.1,194.8c3.3,0,6-2.7,6-6V104c0-3.3-2.7-6-6-6s-6,2.7-6,6v84.7C72.1,192.1,74.8,194.8,78.1,194.8L78.1,194.8z"/>
	<path d="M36,208.3v-86.8c0-3.3-2.7-6-6-6s-6,2.7-6,6v92.4c0,3.3,2.7,6,6,6c15.5,0,28.2,12.6,28.2,28.2c0,3.3,2.7,6,6,6
		c3.3,0,6-2.7,6-6C70.2,227.9,55.3,211.2,36,208.3L36,208.3z"/>
	<path d="M102.1,124.2c-3.3,0-6,2.7-6,6v100.5c0,15-8.1,28.9-21,36.4c-2.9,1.7-3.8,5.3-2.2,8.2c1.1,1.9,3.1,3,5.2,3
		c1,0,2.1-0.3,3-0.8c0.5-0.3,1-0.6,1.4-0.9V370c0,3.3,2.7,6,6,6s6-2.7,6-6V266.5c8.6-9.8,13.6-22.5,13.6-35.8V130.2
		C108.1,126.9,105.4,124.2,102.1,124.2L102.1,124.2z"/>
	<path d="M33,267.1c-13-7.5-21-21.5-21-36.4v-65.4c0-3.3-2.7-6-6-6s-6,2.7-6,6v65.4c0,18.1,9.1,35,24,45V370c0,3.3,2.7,6,6,6
		s6-2.7,6-6v-97.7C36,270.2,34.9,268.2,33,267.1L33,267.1z"/>
	<path d="M294.4,146.8c3.3,0,6-2.7,6-6V56c0-3.3-2.7-6-6-6s-6,2.7-6,6v84.7C288.4,144.1,291.1,146.8,294.4,146.8L294.4,146.8z"/>
	<path d="M270.4,50c-3.3,0-6,2.7-6,6v84.7c0,3.3,2.7,6,6,6s6-2.7,6-6V56C276.4,52.7,273.7,50,270.4,50L270.4,50z"/>
	<path d="M324.4,165.9V73.5c0-3.3-2.7-6-6-6s-6,2.7-6,6v86.9c-19.3,2.9-34.2,19.6-34.2,39.7c0,3.3,2.7,6,6,6s6-2.7,6-6
		c0-15.5,12.6-28.2,28.2-28.2C321.7,171.9,324.4,169.2,324.4,165.9L324.4,165.9z"/>
	<path d="M273.4,219.1c-13-7.5-21-21.5-21-36.4V82.2c0-3.3-2.7-6-6-6s-6,2.7-6,6v100.5c0,13.3,5,26.1,13.6,35.8V370c0,3.3,2.7,6,6,6
		s6-2.7,6-6V228.7c0.5,0.3,0.9,0.6,1.4,0.9c0.9,0.5,2,0.8,3,0.8c2.1,0,4.1-1.1,5.2-3C277.2,224.5,276.2,220.8,273.4,219.1
		L273.4,219.1z"/>
	<path d="M342.4,111.3c-3.3,0-6,2.7-6,6v65.4c0,15-8.1,28.9-21,36.4c-1.9,1.1-3,3.1-3,5.2V370c0,3.3,2.7,6,6,6s6-2.7,6-6V227.7
		c14.9-10,24-26.9,24-45v-65.4C348.4,113.9,345.8,111.3,342.4,111.3L342.4,111.3z"/>
</g>
</svg>
