<?xml version="1.0" encoding="utf-8"?>
<!-- Generator: Adobe Illustrator 21.1.0, SVG Export Plug-In . SVG Version: 6.00 Build 0)  -->
<svg version="1.1" id="Layer_1" xmlns="http://www.w3.org/2000/svg" xmlns:xlink="http://www.w3.org/1999/xlink" x="0px" y="0px"
	 width="328.5px" height="376px" viewBox="0 0 328.5 376" style="enable-background:new 0 0 328.5 376;" xml:space="preserve">
<style type="text/css">
	.st0{fill:#FFC23E;}
</style>
<g>
	<path d="M75,180.8c-4.4-4.4-10.3-6.9-16.6-6.9c-4.1,0-8,1-11.5,3V98.8c0-4-1-7.7-2.7-11c1.1-0.3,2.2-0.5,3.3-0.5
		c6.3,0,11.5,5.1,11.5,11.5v57.7c0,3.3,2.7,6,6,6c3.3,0,6-2.7,6-6V98.8c0-12.9-10.5-23.5-23.5-23.5c-4.3,0-8.4,1.2-12,3.3
		c-3.5-2.1-7.6-3.3-12-3.3C10.5,75.3,0,85.8,0,98.8l0.1,110.1c0,5,1.9,12.1,4.3,16.5c0,0.1,0.1,0.1,0.1,0.2l69.1,111.9
		c1.4,2.6,2.7,7.6,2.7,10.5v22c0,3.3,2.7,6,6,6s6-2.7,6-6v-21.9c0-5-1.9-12.1-4.3-16.5c0-0.1-0.1-0.1-0.1-0.2l-69.1-112
		c-1.4-2.6-2.7-7.6-2.7-10.5L12,98.8c0-6.3,5.1-11.5,11.5-11.5c6.3,0,11.5,5.1,11.5,11.5v98.6c0,0.1,0,0.3,0,0.4
		c0.1,5.9,2.4,11.7,6.9,16.2l53.7,53.7c2.3,2.3,6.1,2.3,8.5,0c2.3-2.3,2.3-6.1,0-8.5l-53.7-53.7c-2.2-2.2-3.4-5-3.4-8.1
		s1.2-5.9,3.4-8.1c4.5-4.5,11.7-4.5,16.2,0l66.1,66.1c7.4,7.4,13.6,22.4,13.6,32.9V370c0,3.3,2.7,6,6,6s6-2.7,6-6v-81.7
		c0-13.6-7.5-31.8-17.1-41.4L75,180.8z"/>
	<path d="M305,75.3c-4.4,0-8.5,1.2-12,3.3c-3.6-2.1-7.7-3.3-12-3.3c-12.9,0-23.5,10.5-23.5,23.5v57.7c0,3.3,2.7,6,6,6s6-2.7,6-6
		V98.8c0-6.3,5.1-11.5,11.5-11.5c1.1,0,2.2,0.2,3.3,0.5c-1.7,3.3-2.7,7-2.7,11v78.1c-3.5-1.9-7.4-3-11.5-3c-6.3,0-12.2,2.4-16.6,6.9
		l-66.1,66.1c-9.6,9.6-17.1,27.8-17.1,41.4V370c0,3.3,2.7,6,6,6s6-2.7,6-6v-81.7c0-10.4,6.2-25.5,13.6-32.9l66.1-66.1
		c4.5-4.5,11.7-4.5,16.2,0c2.2,2.2,3.4,5,3.4,8.1s-1.2,5.9-3.4,8.1l-53.7,53.7c-2.3,2.3-2.3,6.1,0,8.5c2.3,2.3,6.1,2.3,8.5,0
		l53.7-53.7c4.5-4.5,6.8-10.3,6.9-16.2c0-0.1,0-0.3,0-0.4V98.8c0-6.3,5.1-11.5,11.5-11.5c6.3,0,11.5,5.1,11.5,11.5l-0.1,110.1
		c0,2.9-1.3,7.9-2.7,10.5l-69.1,111.9c0,0.1-0.1,0.1-0.1,0.2c-2.5,4.4-4.3,11.5-4.3,16.5v22c0,3.3,2.7,6,6,6s6-2.7,6-6v-21.9
		c0-2.9,1.3-7.9,2.7-10.5l69.1-111.9c0-0.1,0.1-0.1,0.1-0.2c2.5-4.4,4.3-11.5,4.3-16.5l0.1-110.1C328.5,85.8,318,75.3,305,75.3
		L305,75.3z"/>
	<path class="st0" d="M87.8,150c6.8,0,14.2-2.6,22-5.3c8.8-3,17.8-6.2,27-6.2c4.8,0,9,1,12.5,3c2.9,1.6,6.5,0.7,8.2-2.2
		c1.6-2.9,0.7-6.5-2.2-8.2c-5.3-3.1-11.5-4.6-18.4-4.6c-11.2,0-21.6,3.6-30.9,6.8c-4.3,1.5-8.4,2.9-12.1,3.8V22.9
		c5.1-0.9,10.4-2.8,16-4.7c8.8-3,17.8-6.2,27-6.2c15,0,20.3,10.3,21.4,13.1v90.5c0,3.3,2.7,6,6,6s6-2.7,6-6V25.1
		c1.2-2.8,6.4-13.1,21.4-13.1c9.1,0,18.2,3.1,27,6.2c5.6,1.9,10.9,3.8,16,4.7v114.3c-3.7-0.9-7.8-2.3-12.1-3.8
		c-9.3-3.2-19.7-6.8-30.9-6.8c-6.9,0-13.1,1.6-18.4,4.6c-2.9,1.6-3.9,5.3-2.2,8.2c1.6,2.9,5.3,3.9,8.2,2.2c3.5-2,7.7-3,12.5-3
		c9.1,0,18.2,3.1,27,6.2c7.8,2.7,15.2,5.3,22,5.3c3.3,0,6-2.7,6-6V17.4c0-3.3-2.7-6-6-6c-4.8,0-11.2-2.2-18.1-4.6
		c-9.4-3.2-19.9-6.8-31-6.8c-13.3,0-22.1,5.9-27.4,12.2C158.9,5.9,150.1,0,136.8,0c-11.2,0-21.6,3.6-30.9,6.8
		c-6.8,2.4-13.3,4.6-18.1,4.6c-3.3,0-6,2.7-6,6V144C81.8,147.3,84.5,150,87.8,150L87.8,150z"/>
	<path class="st0" d="M191.7,162.4c9.1,0,18.2,3.1,27,6.2c7.8,2.7,15.2,5.3,22,5.3c3.3,0,6-2.7,6-6s-2.7-6-6-6
		c-4.8,0-11.2-2.2-18.1-4.6c-9.3-3.2-19.7-6.8-30.9-6.8c-11.8,0-19.6,4.5-24.4,9h-6c-4.8-4.5-12.6-9-24.4-9
		c-11.2,0-21.6,3.6-30.9,6.8c-6.8,2.4-13.3,4.6-18.1,4.6c-3.3,0-6,2.7-6,6s2.7,6,6,6c6.8,0,14.2-2.6,22-5.3c8.8-3,17.8-6.2,27-6.2
		c7.3,0,13.2,2.4,17.5,7.1c1.1,1.2,2.7,2,4.4,2h11c1.7,0,3.3-0.7,4.4-2C178.5,164.7,184.4,162.4,191.7,162.4L191.7,162.4z"/>
</g>
</svg>
