<?xml version="1.0" encoding="utf-8"?>
<!-- Generator: Adobe Illustrator 21.1.0, SVG Export Plug-In . SVG Version: 6.00 Build 0)  -->
<svg version="1.1" id="Layer_1" xmlns="http://www.w3.org/2000/svg" xmlns:xlink="http://www.w3.org/1999/xlink" x="0px" y="0px"
	 width="376px" height="376px" viewBox="0 0 376 376" style="enable-background:new 0 0 376 376;" xml:space="preserve">
<style type="text/css">
	.st0{fill:#FFC23E;}
</style>
<g>
	<path class="st0" d="M183.2,95.2c1.1,1.5,2.9,2.4,4.8,2.4s3.7-0.9,4.8-2.4l37.5-49.6c3.8-5,5.8-10.9,5.8-17.2
		c0-15.7-12.8-28.5-28.5-28.5c-7.4,0-14.4,2.9-19.6,7.9c-5.2-5-12.2-7.9-19.6-7.9c-15.7,0-28.5,12.8-28.5,28.5
		c0,6.2,2,12.2,5.8,17.2L183.2,95.2z M168.4,12c6,0,11.5,3.2,14.4,8.5c1.1,1.9,3.1,3.1,5.2,3.1c2.2,0,4.2-1.2,5.2-3.1
		c2.9-5.2,8.4-8.5,14.4-8.5c9.1,0,16.5,7.4,16.5,16.5c0,3.6-1.1,7-3.3,9.9L188,81.7l-32.8-43.3c-2.2-2.9-3.3-6.3-3.3-9.9
		C151.9,19.4,159.3,12,168.4,12L168.4,12z"/>
	<path d="M136,182c24.8,0,45-20.2,45-45s-20.2-45-45-45s-45,20.2-45,45S111.2,182,136,182L136,182z M136,104c18.2,0,33,14.8,33,33
		s-14.8,33-33,33s-33-14.8-33-33S117.8,104,136,104L136,104z"/>
	<path d="M135.9,158c7,0,13.5-3.5,17.4-9.3c1.9-2.7,1.1-6.5-1.6-8.3c-2.7-1.9-6.5-1.1-8.3,1.6c-1.7,2.5-4.5,4-7.5,4
		c-2.9,0-5.7-1.5-7.4-3.9c-1.9-2.7-5.6-3.4-8.3-1.5c-2.7,1.9-3.4,5.6-1.5,8.3C122.6,154.6,129.1,158,135.9,158L135.9,158z"/>
	<path d="M143,229c0,24.8,20.2,45,45,45s45-20.2,45-45s-20.2-45-45-45S143,204.2,143,229L143,229z M221,229c0,18.2-14.8,33-33,33
		s-33-14.8-33-33s14.8-33,33-33S221,210.8,221,229L221,229z"/>
	<path d="M180.6,234.1c-1.9-2.7-5.6-3.4-8.4-1.5c-2.7,1.9-3.4,5.6-1.5,8.3c3.9,5.7,10.4,9.1,17.3,9.1c7,0,13.5-3.5,17.4-9.3
		c1.9-2.7,1.1-6.5-1.6-8.3c-2.7-1.9-6.5-1.1-8.3,1.6c-1.7,2.5-4.5,4-7.5,4C185,238,182.2,236.6,180.6,234.1L180.6,234.1z"/>
	<path d="M84,274c24.8,0,45-20.2,45-45s-20.2-45-45-45s-45,20.2-45,45S59.2,274,84,274L84,274z M84,196c18.2,0,33,14.8,33,33
		s-14.8,33-33,33s-33-14.8-33-33S65.8,196,84,196L84,196z"/>
	<path d="M84,250c7,0,13.5-3.5,17.4-9.3c1.9-2.7,1.1-6.5-1.6-8.3c-2.7-1.9-6.5-1.1-8.3,1.6c-1.7,2.5-4.5,4-7.5,4
		c-2.9,0-5.7-1.5-7.4-3.9c-1.9-2.7-5.6-3.4-8.4-1.5c-2.7,1.9-3.4,5.6-1.5,8.3C70.6,246.6,77.1,250,84,250L84,250z"/>
	<path d="M120.8,301c1.3-3,0-6.6-3.1-7.9c-10.7-4.7-22-7.1-33.7-7.1c-46.3,0-84,37.7-84,84c0,3.3,2.7,6,6,6s6-2.7,6-6
		c0-39.7,32.3-72,72-72c10.1,0,19.8,2,28.9,6C115.9,305.4,119.5,304,120.8,301L120.8,301z"/>
	<path d="M247,229c0,24.8,20.2,45,45,45s45-20.2,45-45s-20.2-45-45-45S247,204.2,247,229L247,229z M292,196c18.2,0,33,14.8,33,33
		s-14.8,33-33,33s-33-14.8-33-33S273.8,196,292,196L292,196z"/>
	<path d="M292,250c7,0,13.5-3.5,17.4-9.3c1.9-2.7,1.1-6.5-1.6-8.3c-2.7-1.9-6.5-1.1-8.3,1.6c-1.7,2.5-4.5,4-7.5,4
		c-2.9,0-5.7-1.5-7.4-3.9c-1.9-2.7-5.6-3.4-8.3-1.5c-2.7,1.9-3.4,5.6-1.5,8.3C278.6,246.6,285.1,250,292,250L292,250z"/>
	<path d="M292,286c-11.7,0-23.1,2.4-33.7,7.1c-3,1.3-4.4,4.9-3.1,7.9s4.9,4.4,7.9,3.1c9.1-4,18.8-6,28.9-6c39.7,0,72,32.3,72,72
		c0,3.3,2.7,6,6,6s6-2.7,6-6C376,323.7,338.3,286,292,286L292,286z"/>
	<path d="M188,286c-46.3,0-84,37.7-84,84c0,3.3,2.7,6,6,6s6-2.7,6-6c0-39.7,32.3-72,72-72s72,32.3,72,72c0,3.3,2.7,6,6,6s6-2.7,6-6
		C272,323.7,234.3,286,188,286L188,286z"/>
	<path d="M195,137c0,24.8,20.2,45,45,45s45-20.2,45-45s-20.2-45-45-45S195,112.2,195,137L195,137z M240,104c18.2,0,33,14.8,33,33
		s-14.8,33-33,33s-33-14.8-33-33S221.8,104,240,104L240,104z"/>
	<path d="M240,158c7,0,13.5-3.5,17.4-9.3c1.9-2.7,1.1-6.5-1.6-8.3c-2.7-1.9-6.5-1.1-8.3,1.6c-1.7,2.5-4.5,4-7.5,4
		c-2.9,0-5.7-1.5-7.4-3.9c-1.9-2.7-5.6-3.4-8.3-1.5s-3.4,5.6-1.5,8.3C226.6,154.6,233.1,158,240,158L240,158z"/>
</g>
</svg>
