<?xml version="1.0" encoding="utf-8"?>
<!-- Generator: Adobe Illustrator 21.1.0, SVG Export Plug-In . SVG Version: 6.00 Build 0)  -->
<svg version="1.1" id="Layer_1" xmlns="http://www.w3.org/2000/svg" xmlns:xlink="http://www.w3.org/1999/xlink" x="0px" y="0px"
	 width="90px" height="86px" viewBox="0 0 90 86" style="enable-background:new 0 0 90 86;" xml:space="preserve">
<style type="text/css">
	.st0{fill:#FFC23F;}
</style>
<g>
	<g>
		<path class="st0" d="M88.7,45.7c0.2,0.5,0.4,1,0.8,0.7c-0.3-0.5-0.2-0.6-0.6-1.1c0-0.4,0.1-0.7,0.3-0.6c-0.1-0.1,0.1-0.6-0.2-0.8
			c-0.3,0.5-0.3,1.2-0.1,1.9C88.8,45.9,88.7,45.7,88.7,45.7z"/>
		<path class="st0" d="M89.1,51.1c0-0.1,0-0.3,0-0.4C89,50.9,89,51,89.1,51.1C89,51.1,89,51.1,89.1,51.1z"/>
		<path class="st0" d="M89.3,33.4C89.3,33.4,89.3,33.4,89.3,33.4C89.3,33.4,89.3,33.4,89.3,33.4z"/>
		<path class="st0" d="M89,51.3c0,0.1,0,0.2,0,0.3C89,51.5,89,51.4,89,51.3z"/>
		<path class="st0" d="M80.2,14.2c0.1-0.2,0.9,0.5,0-0.4C80.2,14,80.2,14.1,80.2,14.2z"/>
		<path class="st0" d="M88.9,51.1c0.1,0.1,0.1,0.1,0.1,0.2c0-0.1,0-0.2,0-0.2C89,51.1,88.9,51.1,88.9,51.1z"/>
		<path class="st0" d="M13.4,75.9l-0.8-0.8C12.8,75.4,13.1,75.6,13.4,75.9z"/>
		<path class="st0" d="M33,1.1c-0.1,0-0.2,0-0.2,0.1L33,1.1z"/>
		<path class="st0" d="M10.2,72.7c-0.1-0.2-0.2-0.4-0.3-0.6c-0.1,0-0.1,0-0.1,0L10.2,72.7z"/>
		<path class="st0" d="M88.8,47.4c0,0,0,0.1,0,0.1C88.8,47.5,88.8,47.4,88.8,47.4z"/>
		<path class="st0" d="M39.2,85.5c0,0-0.1,0-0.1,0C39.2,85.5,39.2,85.5,39.2,85.5z"/>
		<path class="st0" d="M29.2,1.9C29.2,1.9,29.3,1.9,29.2,1.9C29.3,1.9,29.2,1.9,29.2,1.9z"/>
		<path class="st0" d="M6.9,68.4c0,0,0.1,0.1,0.1,0.1C6.9,68.5,6.9,68.4,6.9,68.4z"/>
		<path class="st0" d="M29.3,1.9c0,0,0.1-0.1,0.1-0.1C29.4,1.8,29.3,1.8,29.3,1.9z"/>
		<path class="st0" d="M65.7,4.1c0.2,0.1,0.4,0.1,0.5,0.2C66.1,4.3,66,4.2,65.7,4.1C65.7,4.2,65.7,4.1,65.7,4.1z M64.6,3.7
			c0,0.1-0.1,0.2-0.3,0.1c0.1,0-0.3-0.3-0.6-0.4C64,3.5,64.3,3.6,64.6,3.7z M89.9,40.4c0,0.3,0,0.6,0,1c0.2-0.6,0-0.9-0.2-1.3
			c0.1-0.1,0.2-0.3,0.3-0.5c-0.2-0.4-0.4-0.7-0.6-1.1c0.2-0.2,0.4,0.5,0.5-0.3c-0.3-0.5-0.4,0.5-0.6-0.3c0.2-0.6,0.4-0.4,0.1-1.1
			c0.1-0.1,0.2,0,0.3,0.3c-0.2-0.6-0.3-1.5-0.6-1.8c0.2-0.6-0.4-1.9,0.1-1.9c-0.2-0.2-0.5-0.9-0.7-1.4c0.8,0.8-0.4-1.9,0.3-1.8
			c-0.4-0.3-0.6-0.9-0.8-1.6c-0.2-0.7-0.5-1.4-0.8-2c0.1,0.1,0.2,0.2,0.2,0.3c-0.2-0.7-0.1-0.9-0.2-1.4c-0.4,0.1-0.9-0.9-1.4-1.4
			c0-1,0.7,0.3,0.9-0.1c-0.3,0.2-1-1.3-1.1-0.9c0-0.7-0.1-0.6,0.1-1c-0.5,0.1-0.4-0.5-0.9-0.9c-0.2-1,0.3-0.5-0.3-1.3
			c-0.1-0.5,0.4,0.1,0.5,0.2c-0.5-0.9-0.6-0.2-0.9-0.3c-0.8-1.1,0-0.7-0.1-1.2c-0.5-0.7-1.2-1-1.5-1.5c0-0.1,0-0.2,0.1-0.1
			c-0.2-0.1-0.4-0.3-0.6-0.6c-0.2-0.2-0.4-0.5-0.6-0.7c-0.4-0.5-0.8-1-1.3-1.3c0-0.1,0-0.1,0-0.2c-0.1,0.3-0.2,0.4-0.3,0.5
			c-0.3-0.4-0.8-0.5-0.7-0.8c0.2,0.2,0.3,0.2,0.4,0.2l-0.4-0.3c0-0.6,0.6,0.4,0.8,0.2c-0.7-0.7-1.8-1.2-2.2-1.9
			c0.2-0.4,1.3,1.2,0.9,0.2c0.2,0.3,0.5,0.6,0.7,0.9c-0.1-0.5,0-0.4,0.2-0.3c0.1,0.1,0.3,0.3,0.2-0.2c-1-1.2-1.4-1.1-2.4-2.2
			c-0.4-0.1-0.1,0.3-0.5,0.2c-0.9-0.6-1.1-1-1.3-1.4c-0.2-0.4-0.2-0.8-1.1-1c-0.5,0-0.9,0.3-1.7-0.6l0.6-0.1c-1.2-0.9-1.1,0.1-2.2-1
			c0.3,0,1.1,0.5,0.9,0.3c-0.7-0.8-0.7-0.2-1.4-0.6l0-0.4c-0.7-0.4-1.5-0.7-2.3-1c-0.4-0.2-0.8-0.3-1.2-0.4
			c-0.4-0.2-0.8-0.3-1.2-0.4C65.9,4,66.2,4,65.9,3.7C63.8,3,61.4,2,59.4,1.3l-0.9,0.1c-0.2-0.1-0.3-0.2-0.1-0.2
			c-0.8-0.3-0.1,0.2-0.5,0.2c-0.5-0.1-0.6-0.3-0.3-0.3C56.2,1,53.5,0.9,52,0.4l0.3-0.1c-1.2-0.3-1.4,0.5-2.5,0.1l0.2,0
			c-1.3-0.2-2.7-0.2-4-0.2c-1.3,0-2.5-0.1-3.5-0.3c-0.2,0.2-0.8,0.2-1.5,0.2c-0.6,0-1.2,0.1-1.3,0.4c-1.5-0.2-1.1-0.4-3.2-0.3
			c-0.6,0-0.8,0.5-1.4,0.7l-0.1-0.3l-0.9,0.5C34,1,33.8,1,33.6,0.8L33,1.1c0.3,0,0.6,0,0.6,0.1c-0.5,0.2-1.1,0.3-1.6,0.3
			c-0.5,0-0.9,0-0.9-0.1c-0.8,0.3-1.5,0.6-2.3,0.9c0-0.1,0.2-0.2,0.4-0.3c-0.7,0.3-0.1-0.4-1.1,0.2c0.2,0,0,0.2,0,0.3
			c-0.6,0-1.9,0.4-2.8,0.9L25.3,3c-1.7,0.6-3.5,1.6-5.3,2.6c0.7-0.3,0.7,0.2,0.2,0.5L20.1,6c0,0,0,0.1-0.2,0.3
			c-0.7,0.3-0.7-0.1-0.3-0.4c-0.3,0.2-0.5,0.4-0.7,0.6c-0.1-0.1,0.1-0.2,0-0.4c-0.2,0.4-1.6,0.5-1.8,1.2L17,7.2
			c-1.7,1.2-2.3,1.9-3.6,3c0.2,0.3-0.3,0.6-0.5,1.2c-0.9,0.8-2.1,1.5-3,2.7c-0.6,0.9,0,0.4-0.2,0.9c-0.3-0.1-1.1,1.1-0.8,0.3
			c-0.5,0.7-0.9,1.2-1.2,1.7C7.4,17.4,7,18,6.6,19C6.8,18.9,7,18.7,7,18.9c-0.2,0.4-0.6,0.7-0.7,0.6l0-0.1c-0.1,0.3-0.3,0.6-0.4,0.9
			c-0.1,0.3-0.3,0.6-0.5,0.9c-0.2,0.3-0.4,0.6-0.6,0.9c-0.2,0.3-0.4,0.6-0.5,0.9c-0.4,0.6-0.7,1.2-1,1.7c-0.2,0.5-0.4,1-0.4,1.5
			l-0.4,2c-0.3,0.9-0.1-0.6-0.4,0c-0.1,1.1-0.3,2-0.5,2.8c-0.2,0.8-0.4,1.5-0.4,2.5c-0.6,0.6-0.7,1.9-0.8,3.2c0,0.7-0.1,1.3-0.1,2
			c0,0.6-0.1,1.2-0.3,1.7l0.2-0.1c0.2,0.5-0.1,0.6-0.2,1c0.2,0,0.2-0.5,0.3-0.2c0.1,2.1,0,4.2,0,6.3c0,2.2,0.1,4.4,0.5,6.5
			c0.3,1.6,1.2,0.6,1.2,2.7l-0.5-0.4c0.3,0.7,0.6,1.5,0.8,2.3c0.3,0.8,0.5,1.5,0.8,2.3c0.6,1.5,1.2,3,2,4.3
			c-0.2-0.1-0.3-0.1-0.4-0.4c0.1,0.7,1.1,2.2,1.3,2.1c0.2,0.4-0.1,0.2-0.1,0.5c0.1,0.3,0.4,0.6,0.6,0.9c0.3,0.3,0.5,0.5,0.5,0.7
			c0,0-0.1,0-0.2-0.1c0.4,0.4,1,1.5,1,1.1c0.6,1,1.4,1.7,1.9,2.5c0.3,0.1,0.6,0.5,0.9,0.9c0.3,0.3,0.6,0.6,0.8,0.5
			c-0.2,0.1,0.1,0.6,0.5,1c0.4,0.4,1,0.9,1.4,1c-0.3-0.1,0.4,0.6,0,0.5c0.6,0.6,1.3,1,1.4,0.7c0.2,0.4,0.5,0.6,0.8,0.9
			c0.3,0.2,0.6,0.4,1,0.5c0.3,0.2,0.6,0.3,0.8,0.5c0.2,0.2,0.4,0.4,0.5,0.6c0.6,0.3,1.1,0.6,1.7,0.8c0.5,0.2,1.1,0.5,1.6,0.7
			c1.1,0.4,2.1,0.9,3.2,1.2c-0.1,0.2-0.7,0-1.3-0.2c-0.5-0.2-1.1-0.5-1.1-0.2c1,0.4,1.8,0.6,2.7,0.8c0.8,0.2,1.6,0.4,2.6,0.8
			c0.5,0.3-0.4,0.1-0.6,0.1c0.5,0.1,1,0.3,1.5,0.4c0.5,0.1,1,0.3,1.4,0.4c1,0.2,1.9,0.5,2.8,0.6c-0.3-0.4,1.4-0.3,1.7-0.5
			c-0.6,0.5,1.8,0.4,0.7,1.1c0.2,0,0.6-0.1,0.5-0.2c0.4,0.1,0.4,0.2,0.1,0.3c1.3,0.1,0.9-0.2,2.1-0.1c0,0.1-0.3,0.1-0.4,0.2
			c0.6-0.1,1.2-0.3,2.2-0.1c-0.1,0.1,0,0.1-0.1,0.1c0.8,0,1.5,0,2.3-0.1c0.8-0.1,1.5-0.1,2.5,0c-0.6,0.5,0.6,0.2,0.7,0.6l1-0.1
			l-0.4-0.2c0.9,0,1.7-0.3,2.4-0.2c-0.2,0.1-0.4,0.1-0.7,0.2c0.5,0,1.1-0.1,1.7-0.1l-0.9-0.1c0.9-0.3-0.1-0.5,1.1-0.5
			c-0.2,0.1,0.9,0,1.4,0.2c0.4-0.1,0.8-0.3,1.3-0.3c0.1,0,0.1,0,0.2,0c0.2,0.1-0.1,0.5,0,0.5c0.4-0.4,2.1-0.3,2.5-0.8
			c-0.2,0.1-0.1,0.3-0.1,0.4l0.3-0.3c0.4,0,0.5,0.1,0.4,0.2c1.2-0.2-0.5-0.5,1-0.5c-0.1,0,0,0.1-0.3,0.2c1.5-0.2,2.8-0.7,4.1-1
			c0.5,0.3-1.1,0.4-0.6,0.6c1.9-0.5,3.8-1.6,5.6-2.2c-0.1,0-0.2,0.1-0.4,0.1c0-0.6,1.4-0.3,2.2-0.9c-0.2,0.1-0.2,0.4-0.1,0.3
			c1.2-0.4,2.4-1.3,4-2.4l-0.1,0.2c0.4-0.1,0.8-0.4,1.2-0.6c0.4-0.3,0.9-0.5,1.2-0.7c0.1-0.3,0.5-0.5,0.2-0.5c1.3-0.4,2.2-1.2,3-2.1
			c0.4-0.4,0.8-0.9,1.2-1.3c0.4-0.4,0.8-0.8,1.4-1c-0.2,0.2-0.4,0.5-0.2,0.4l0.6-0.7c0.2-0.3,0.4-0.5,0.6-0.8
			c-0.3-0.1-0.3,0.1-0.7,0.3c0-0.3,0.3-0.8,0.6-1.1c-0.4,0.8,0.3,0.3,0.7,0.1c-0.1,0-0.1-0.2-0.2-0.2c1-0.5-0.3-0.5,0.8-1.3l0.1,0.1
			c0.3-0.4,0.4-0.9,0.7-1.4c0.4,0-0.2,0.5,0,0.7c0.4-0.7,0.4-1.6,1-2c-0.1,0.3-0.4,0.7-0.5,1c0.7-0.4,0.7-0.6,1-1l0,0l0,0
			c0-0.1,0.1-0.1,0.2-0.2l0.6-0.8l-0.3,0.2c0-0.3,0-0.6,0.1-0.8c0.1-0.3,0.2-0.5,0.3-0.7c0.2-0.5,0.6-1,0.6-1.7
			c-0.1,1.3,0.2,0.3,0.4,0.5c0.2-0.3,0.5-0.7,0.6-0.5c0-0.7,0.7-0.9,0.6-1.8c0.1,0,0.3-0.6,0.5-0.4c0.2-0.8-0.2,0.1-0.4,0
			c0-0.3,0.1-0.6,0.3-1c0.1-0.3,0.3-0.7,0.5-1.1c0.2-0.4,0.4-0.7,0.5-1.2c0.1-0.4,0.2-0.9,0.2-1.3c0.1-0.8,0.1-1.2,0-1.7
			c0-0.4-0.1-0.8,0-1.3c0-0.1,0-0.3,0.1-0.4c0.2-0.2,0.3,0.5,0.3,0.5c0.3-0.7,0.4-1.3,0.4-2c0.1,0.2,0.2,0,0.3-0.2
			c0.1-0.6-0.3-0.4-0.1-1.2c0.1,0.1,0.3,0.3,0.4,0.6c0-0.7-0.1-1.4-0.2-2.1c0.2-0.2,0.3,0.5,0.4,0.7c0-0.8,0-2.1-0.3-2.4
			c0,0.1-0.1,0.3-0.1,0.4c0.1-0.1,0.2,0,0.3,0.2c0.2,0.7-0.2,1-0.3,1l0-0.5c-0.3,0.2-0.4,0.7-0.3,1.3c0,0.6,0.1,1.2,0,1.7l-0.6-0.4
			c0.4-2.6,0.2-5.2,0.2-7.7v-0.1c0,0.1,0.6,0.1,0.8,0.1c0,0.1,0.1,0.2,0.1,0.3l0.4,0.3L89.3,43c0.2-0.1,0.4-0.4,0.6-1.1
			c-0.1-0.4-0.2-0.8-0.3-1.1L89.9,40.4z M69,23.2c0.4-0.4,0.9-0.4,1.3,0c1.3,1.2,2.4,2.6,3.2,4.1c0.3,0.4,0.1,1-0.3,1.2
			c-0.1,0.1-0.3,0.1-0.5,0.1c-0.3,0-0.6-0.2-0.8-0.4c-0.8-1.3-1.8-2.6-2.9-3.7C68.6,24.1,68.6,23.5,69,23.2z M60.1,19
			c0.1-0.5,0.6-0.8,1.1-0.7c1.7,0.3,3.3,0.9,4.9,1.8c0.4,0.2,0.6,0.8,0.4,1.2c-0.2,0.3-0.5,0.5-0.8,0.5c-0.2,0-0.3,0-0.4-0.1
			c-1.4-0.8-2.9-1.3-4.4-1.6C60.3,19.9,60,19.5,60.1,19z M50.8,19.6l0.2-0.1c0,0,0.1,0,0.1-0.1c1.5-0.6,3-1.1,4.7-1.3
			c0.5-0.1,1,0.3,1,0.8c0.1,0.5-0.3,1-0.8,1c-1.5,0.2-2.8,0.5-4.2,1.1c0,0-0.1,0.1-0.2,0.1l-0.1,0.1c-0.1,0.1-0.2,0.1-0.4,0.1
			c-0.4,0-0.7-0.2-0.8-0.5C50.2,20.3,50.4,19.8,50.8,19.6z M42.6,22.6c0.3-0.4,0.9-0.4,1.3-0.1c0.4,0.4,0.9,0.8,1.3,1.2
			c0.4-0.4,0.8-0.8,1.3-1.2c0.4-0.3,1-0.3,1.3,0.1c0.3,0.4,0.3,1-0.1,1.3c-0.6,0.5-1.1,1.1-1.7,1.7c-0.1,0.1-0.2,0.2-0.3,0.2
			c-0.1,0.1-0.3,0.1-0.5,0.1c-0.1,0-0.2,0-0.2,0c-0.1,0-0.2,0-0.2-0.1c0,0,0,0,0,0c-0.1-0.1-0.2-0.2-0.3-0.3
			c-0.5-0.6-1.1-1.1-1.7-1.6C42.3,23.5,42.3,22.9,42.6,22.6z M33.4,18.9c0.1-0.5,0.5-0.9,1-0.8c1.6,0.2,3.2,0.6,4.7,1.3c0,0,0,0,0,0
			l0,0c0,0,0,0,0,0c0,0,0,0,0,0l0.3,0.1c0.5,0.2,0.7,0.8,0.4,1.2c-0.2,0.3-0.5,0.5-0.8,0.5c-0.1,0-0.3,0-0.4-0.1l-0.3-0.1
			c0,0,0,0-0.1,0c0,0,0,0-0.1,0c-1.4-0.6-2.7-1-4.1-1.1C33.7,19.9,33.4,19.4,33.4,18.9z M24.2,20c1.6-0.9,3.3-1.5,4.9-1.8
			c0.5-0.1,1,0.2,1.1,0.7c0.1,0.5-0.2,1-0.7,1.1c-1.5,0.3-3,0.8-4.4,1.6c-0.1,0.1-0.3,0.1-0.4,0.1c-0.3,0-0.6-0.2-0.8-0.5
			C23.6,20.8,23.8,20.3,24.2,20z M16.8,27.2c0.9-1.5,2-2.9,3.3-4.1c0.4-0.4,0.9-0.3,1.3,0c0.4,0.4,0.3,0.9,0,1.3
			c-1.2,1.1-2.1,2.4-3,3.7c-0.2,0.3-0.5,0.4-0.8,0.4c-0.2,0-0.3,0-0.5-0.1C16.7,28.2,16.5,27.6,16.8,27.2z M14.1,37.2v-0.4
			c0-0.6,0.1-1.3,0.1-1.9c0.1-1,0.2-1.9,0.4-2.9c0.1-0.5,0.7-0.8,1.2-0.7c0.5,0.1,0.8,0.6,0.7,1.1c-0.2,0.9-0.3,1.7-0.4,2.6
			c0,0.6-0.1,1.2-0.1,1.8l0,0.2c0,0.5-0.4,0.7-0.9,0.7c0,0,0,0,0,0C14.7,37.8,14.1,37.7,14.1,37.2z M17.8,47.7
			c-0.1,0.1-0.3,0.1-0.4,0.1c-0.3,0-0.7-0.2-0.8-0.5c-0.8-1.6-1.3-3.2-1.7-4.9c-0.1-0.5,0.2-1,0.7-1.1c0.5-0.1,1,0.2,1.1,0.7
			c0.4,1.5,0.9,3,1.6,4.5C18.5,46.9,18.3,47.5,17.8,47.7z M23.6,55.8C23.5,55.9,23.2,56,23,56c-0.3,0-0.5-0.1-0.7-0.3
			c-0.7-0.8-1.4-1.6-2-2.5c-0.4-0.5-0.8-1-1.1-1.6c-0.3-0.4-0.2-1,0.2-1.3c0.4-0.3,1-0.2,1.3,0.2c0.3,0.5,0.7,1,1.1,1.5
			c0.6,0.8,1.2,1.6,1.9,2.4C24.1,54.9,24,55.5,23.6,55.8z M30.9,62.6c-0.2,0.2-0.4,0.3-0.7,0.3c-0.2,0-0.4-0.1-0.6-0.2
			c-1.3-1.1-2.6-2.2-3.8-3.4c-0.4-0.4-0.4-0.9,0-1.3c0.4-0.4,0.9-0.4,1.3,0c1.2,1.1,2.4,2.2,3.7,3.3C31.2,61.7,31.2,62.3,30.9,62.6z
			 M39.1,68.3c-0.2,0.3-0.5,0.4-0.8,0.4c-0.2,0-0.3,0-0.5-0.1c-0.4-0.2-0.7-0.4-1.1-0.6c-1-0.6-2.1-1.3-3.2-2.1
			c-0.4-0.3-0.5-0.9-0.2-1.3s0.9-0.5,1.3-0.2c1.1,0.8,2.1,1.4,3.1,2c0.4,0.2,0.7,0.4,1,0.6C39.2,67.3,39.4,67.9,39.1,68.3z
			 M47.9,71.1l-0.4,0.2c-0.1,0.1-0.2,0.1-0.3,0.1c-0.6,0.3-1.3,0.4-2,0.4c-0.7,0-1.4-0.1-2.1-0.4c-0.1,0-0.2-0.1-0.3-0.1L42.3,71
			c-0.5-0.2-0.6-0.8-0.4-1.2c0.2-0.4,0.8-0.6,1.2-0.4l0.5,0.2c0.1,0,0.1,0.1,0.2,0.1c0.9,0.4,1.8,0.4,2.7,0c0.1,0,0.1-0.1,0.2-0.1
			l0.5-0.2c0.5-0.2,1,0,1.2,0.4C48.5,70.3,48.3,70.8,47.9,71.1z M56.6,65.9c-1.1,0.8-2.2,1.5-3.2,2.1c-0.3,0.2-0.7,0.4-1,0.6
			c-0.2,0.1-0.3,0.1-0.5,0.1c-0.3,0-0.6-0.2-0.8-0.4c-0.3-0.4-0.2-1,0.3-1.2l0.1,0c0.3-0.2,0.7-0.4,1-0.6c1-0.6,2-1.3,3.1-2
			c0.4-0.3,1-0.2,1.3,0.2C57.1,65,57,65.6,56.6,65.9z M64.4,59.4c-1.2,1.2-2.5,2.3-3.8,3.4C60.4,62.9,60.2,63,60,63
			c-0.3,0-0.5-0.1-0.7-0.3c-0.3-0.4-0.3-1,0.1-1.3c1.3-1.1,2.5-2.2,3.7-3.3c0.4-0.4,0.9-0.3,1.3,0C64.7,58.5,64.7,59.1,64.4,59.4z
			 M71,51.7c-0.4,0.5-0.7,1-1.1,1.5c-0.6,0.8-1.3,1.7-2,2.5c-0.2,0.2-0.4,0.3-0.7,0.3c-0.2,0-0.4-0.1-0.6-0.2
			c-0.4-0.3-0.4-0.9-0.1-1.3c0.7-0.8,1.4-1.6,2-2.4c0.4-0.5,0.7-1,1.1-1.4c0.3-0.4,0.9-0.5,1.3-0.2C71.2,50.8,71.3,51.3,71,51.7z
			 M71.3,44.9C71.3,45,71.3,45,71.3,44.9c-0.3,0.9-0.8,1.8-1.2,2.6c-0.5,0.9-1,1.7-1.6,2.5c-0.6,0.9-1.3,1.7-2,2.5
			c-0.7,0.8-1.5,1.7-2.3,2.5c-0.8,0.8-1.6,1.6-2.4,2.3c-0.8,0.8-1.7,1.5-2.6,2.2c-0.9,0.7-1.8,1.4-2.7,2c-0.8,0.6-1.6,1.2-2.5,1.7
			c-2.3,1.6-4.9,3.1-7.5,4.1c-0.7,0.2-1.5,0.3-2.3,0.2c-1.3-0.3-2.6-1.1-3.7-1.7c-0.5-0.2-0.9-0.5-1.4-0.8c-0.4-0.2-0.8-0.4-1.2-0.7
			c-4.8-2.8-11-7.7-14.9-12.7c-4.1-5.1-5.8-10.1-5.4-15.5c0.5-8.3,9.1-15,16.9-14c1.6,0.1,3.2,0.5,4.7,1.1c0,0,0.1,0,0.1,0
			c2,0.9,4,2.2,5.8,4.1c0,0,0,0,0,0c1.2-1.3,2.4-2.3,3.8-3.1c1.3-0.8,2.6-1.3,4-1.7c0.3-0.1,0.7-0.2,1.1-0.2
			c0.3-0.1,0.6-0.1,0.8-0.1c0.1,0,0.2,0,0.2,0c0.2,0,0.6-0.1,0.9-0.1c0,0-0.8,0,0.3,0v17.5l2.8-2.2l0,0l2.9,2.4V22.9
			c5.7,1.9,10.3,7.3,10.7,13.3c0,0.4,0.1,0.7,0.1,1.1C72.8,40,72.3,42.5,71.3,44.9z M75.4,42.4c-0.4,1.6-1,3.3-1.7,4.9
			c-0.2,0.3-0.5,0.5-0.8,0.5c-0.1,0-0.3,0-0.4-0.1c-0.5-0.2-0.6-0.8-0.4-1.2c0.7-1.5,1.2-3,1.6-4.5c0.1-0.5,0.6-0.8,1.1-0.7
			C75.2,41.5,75.5,41.9,75.4,42.4z M75.5,37.3c0,0.5,0.1,0.5-0.4,0.5h0c-0.5,0-0.7,0-0.7-0.5v-0.4c0-0.6-0.1-1.2-0.2-1.8
			c-0.1-0.9-0.2-1.7-0.4-2.5c-0.1-0.5,0.1-1,0.6-1.1c0.5-0.1,0.9,0.2,1.1,0.7c0.2,0.9,0.1,1.9,0.2,2.8c0,0.6-0.2,1.3-0.2,1.9V37.3z
			 M76.2,74.7c-0.1,0-0.2-0.1-0.2-0.2c0.2-0.2,0.3-0.3,0.5-0.5C76.6,74.1,76.5,74.3,76.2,74.7z M86.7,57.3c0.1-0.3,0.2-0.5,0.2-0.8
			c0.1,0.1,0.1,0.3,0.1,0.6C87,57.1,86.8,57.2,86.7,57.3z M88.1,50.9c0.1,0.3,0.1,0.6,0.2,0.8c-0.1,0.1-0.2,0.2-0.3,0.1
			C88,51.6,88.1,51.2,88.1,50.9z M32.6,84.7C32.5,84.6,32.5,84.6,32.6,84.7c-0.1,0-0.3,0-0.5,0c0.4,0.1,0.8,0.3,0.8,0L32.6,84.7z
			 M19.9,5.9C19.8,6.1,20.1,6,20.1,6L19.9,5.9z"/>
		<polygon class="st0" points="35.1,0.6 35.1,0.6 35.2,0.5 		"/>
		<path class="st0" d="M80.2,71.1c0,0,0.1,0,0.2-0.1C80.3,71.1,80.3,71.1,80.2,71.1z"/>
		<path class="st0" d="M83.1,67.1l0.5-0.6C83.4,66.8,83.2,67,83.1,67.1z"/>
		<path class="st0" d="M85.1,63.8c0-0.1-0.1-0.1-0.1-0.1c0,0,0,0,0,0L85.1,63.8z"/>
		<path class="st0" d="M32.1,84.7c-0.1,0-0.1,0-0.1,0C31.6,84.6,31.8,84.6,32.1,84.7z"/>
		<path class="st0" d="M50.2,85.1c-0.2,0.1-0.4,0.1-0.6,0.2C49.9,85.3,50.2,85.3,50.2,85.1z"/>
		<path class="st0" d="M13.5,76C13.5,76,13.5,76,13.5,76C13.5,76,13.5,76,13.5,76L13.5,76z"/>
		<path class="st0" d="M48.8,85.3c0.3,0,0.6,0,0.8,0C49.4,85.3,49,85.3,48.8,85.3z"/>
		<path class="st0" d="M89.5,47.7l0-0.2c0,0,0,0,0,0L89.5,47.7z"/>
		<path class="st0" d="M89.5,47.5l0-0.2C89.4,47.4,89.4,47.5,89.5,47.5z"/>
		<path class="st0" d="M89.4,46.9l0.1,0.4C89.4,47.2,89.5,47,89.4,46.9z"/>
		<path class="st0" d="M88.4,54.3c0.1-0.2,0.2-0.4,0.3-0.6c0.1-0.2,0.2-0.5,0.2-0.8l-0.1-0.1C88.9,53.1,88.3,53.9,88.4,54.3z"/>
		<path class="st0" d="M58.6,84.3l0.2-0.3c-0.2,0.1-0.5,0.2-0.7,0.3C58.2,84.3,58.4,84.3,58.6,84.3z"/>
	</g>
</g>
</svg>
