<?xml version="1.0" encoding="utf-8"?>
<!-- Generator: Adobe Illustrator 21.1.0, SVG Export Plug-In . SVG Version: 6.00 Build 0)  -->
<svg version="1.1" id="Layer_1" xmlns="http://www.w3.org/2000/svg" xmlns:xlink="http://www.w3.org/1999/xlink" x="0px" y="0px"
	 width="232px" height="90.9px" viewBox="0 0 232 90.9" style="enable-background:new 0 0 232 90.9;" xml:space="preserve">
<style type="text/css">
	.st0{fill:#FFC23F;}
</style>
<g>
	<g>
		<g>
			<path d="M113,24.7c1.8,0,3.2,0.4,4.2,1.2c1,0.8,1.4,1.9,1.4,3.4c0,0.8-0.2,1.5-0.7,2.1c-0.4,0.6-1.1,1.1-1.9,1.5
				c0.9,0.3,1.6,0.8,2,1.4c0.4,0.7,0.6,1.5,0.6,2.5v1.3c0,0.5,0.1,0.9,0.2,1.1c0.1,0.2,0.3,0.4,0.6,0.4l0.5,0.1v1.5h-1.2
				c-0.9,0-1.5-0.3-1.9-0.9c-0.4-0.6-0.6-1.3-0.6-2.2v-1.3c0-0.9-0.3-1.6-0.8-2.2c-0.5-0.5-1.2-0.8-2.1-0.8h-3.6v5.7l1.9,0.3v1.4h-6
				v-1.4l1.9-0.3V26.4l-1.9-0.3v-1.4h1.9H113z M109.8,32.1h3c1.3,0,2.2-0.2,2.7-0.7s0.9-1.2,0.9-2.1c0-0.9-0.3-1.6-0.8-2.1
				c-0.5-0.5-1.4-0.8-2.5-0.8h-3.2V32.1z"/>
			<path d="M127.3,41.5c-1.7,0-3.1-0.6-4.1-1.7c-1-1.1-1.5-2.6-1.5-4.5v-0.5c0-1.8,0.5-3.2,1.6-4.4c1-1.2,2.3-1.8,3.7-1.8
				c1.7,0,2.9,0.5,3.8,1.5c0.9,1,1.3,2.3,1.3,4v1.4h-8l0,0.1c0,1.2,0.3,2.2,0.9,2.9c0.6,0.8,1.4,1.1,2.4,1.1c0.8,0,1.4-0.1,2-0.3
				c0.6-0.2,1.1-0.5,1.5-0.9l0.9,1.5c-0.4,0.4-1,0.8-1.8,1.1C129.2,41.4,128.4,41.5,127.3,41.5z M127,30.5c-0.8,0-1.4,0.3-1.9,1
				c-0.5,0.6-0.9,1.4-1,2.4l0,0.1h5.7v-0.3c0-0.9-0.2-1.6-0.7-2.2C128.6,30.8,127.9,30.5,127,30.5z"/>
			<path d="M142.3,41.3c-0.1-0.3-0.1-0.6-0.2-0.9c0-0.3-0.1-0.5-0.1-0.8c-0.4,0.6-1,1-1.6,1.4c-0.7,0.4-1.3,0.6-2.1,0.6
				c-1.3,0-2.3-0.3-2.9-0.9c-0.7-0.6-1-1.5-1-2.7c0-1.2,0.5-2.1,1.4-2.7c0.9-0.6,2.2-1,3.9-1h2.3v-1.4c0-0.7-0.2-1.3-0.7-1.7
				c-0.5-0.4-1.1-0.6-1.9-0.6c-0.6,0-1.1,0.1-1.5,0.2c-0.4,0.1-0.8,0.3-1,0.6l-0.2,1.3H135v-2.4c0.6-0.4,1.2-0.8,2-1.1
				c0.8-0.3,1.7-0.4,2.6-0.4c1.4,0,2.5,0.4,3.4,1.1c0.9,0.7,1.3,1.7,1.3,3.1v5.9c0,0.2,0,0.3,0,0.5c0,0.2,0,0.3,0,0.5l0.9,0.1v1.4
				H142.3z M138.7,39.6c0.7,0,1.4-0.2,2-0.5c0.6-0.4,1.1-0.8,1.3-1.3v-2h-2.4c-0.9,0-1.6,0.2-2.2,0.6c-0.5,0.4-0.8,0.9-0.8,1.6
				c0,0.5,0.2,1,0.5,1.2C137.5,39.5,138,39.6,138.7,39.6z"/>
			<path d="M155.4,39.8c-0.4,0.6-0.9,1-1.5,1.3c-0.6,0.3-1.3,0.4-2,0.4c-1.5,0-2.7-0.5-3.5-1.6c-0.8-1.1-1.3-2.5-1.3-4.3v-0.2
				c0-2,0.4-3.6,1.3-4.8c0.8-1.2,2-1.8,3.6-1.8c0.7,0,1.4,0.1,1.9,0.4c0.6,0.3,1,0.7,1.4,1.2v-5l-1.9-0.3v-1.4h1.9h2.2v16l1.9,0.3
				v1.4h-3.8L155.4,39.8z M149.4,35.6c0,1.2,0.3,2.2,0.8,3s1.3,1.1,2.4,1.1c0.7,0,1.2-0.2,1.7-0.5s0.8-0.7,1.1-1.3v-5.7
				c-0.3-0.5-0.7-0.9-1.1-1.2c-0.5-0.3-1-0.5-1.7-0.5c-1.1,0-1.9,0.4-2.4,1.3c-0.5,0.9-0.8,2-0.8,3.5V35.6z"/>
			<path d="M171.5,26.1l-1.7,0.3l2.1,9.1l0.3,2.1l0.1,0l0.4-2.1l3.1-10.9h2l3.1,10.9l0.5,2.1h0.1l0.3-2.1l2.1-9.1l-1.7-0.3v-1.4h5.3
				v1.4l-1.3,0.2l-3.6,15h-2l-3.3-11.5l-0.3-1.5h-0.1l-0.3,1.5l-3.3,11.5h-2l-3.6-15l-1.3-0.2v-1.4h5.3V26.1z"/>
			<path d="M194,41.5c-1.7,0-3.1-0.6-4.1-1.7c-1-1.1-1.5-2.6-1.5-4.5v-0.5c0-1.8,0.5-3.2,1.6-4.4c1-1.2,2.3-1.8,3.7-1.8
				c1.7,0,2.9,0.5,3.8,1.5c0.9,1,1.3,2.3,1.3,4v1.4h-8l0,0.1c0,1.2,0.3,2.2,0.9,2.9c0.6,0.8,1.4,1.1,2.4,1.1c0.8,0,1.4-0.1,2-0.3
				c0.6-0.2,1.1-0.5,1.5-0.9l0.9,1.5c-0.4,0.4-1,0.8-1.8,1.1C195.9,41.4,195,41.5,194,41.5z M193.7,30.5c-0.8,0-1.4,0.3-1.9,1
				c-0.5,0.6-0.9,1.4-1,2.4l0,0.1h5.7v-0.3c0-0.9-0.2-1.6-0.7-2.2C195.3,30.8,194.6,30.5,193.7,30.5z"/>
			<path d="M200.6,24.9v-1.4h4.1v16l1.9,0.3v1.4h-6v-1.4l1.9-0.3V25.2L200.6,24.9z"/>
			<path d="M208,24.9v-1.4h4.1v16l1.9,0.3v1.4h-6v-1.4l1.9-0.3V25.2L208,24.9z"/>
		</g>
		<g>
			<path d="M105.7,65.8l1.9-0.3V52.4l-1.9-0.3v-1.4h12.8v4h-1.9l-0.2-2.2h-6.6v5.7h6.4v1.8h-6.4v5.6l1.9,0.3v1.4h-6V65.8z"/>
			<path d="M120.2,60.9c0-1.8,0.5-3.3,1.5-4.5c1-1.2,2.3-1.8,4-1.8c1.7,0,3.1,0.6,4,1.8c1,1.2,1.5,2.7,1.5,4.5v0.3
				c0,1.8-0.5,3.3-1.5,4.5c-1,1.2-2.3,1.8-4,1.8c-1.7,0-3.1-0.6-4-1.8c-1-1.2-1.5-2.7-1.5-4.5V60.9z M122.4,61.2
				c0,1.3,0.3,2.4,0.8,3.2c0.5,0.9,1.4,1.3,2.5,1.3c1.1,0,1.9-0.4,2.4-1.3c0.6-0.9,0.8-1.9,0.8-3.2v-0.3c0-1.3-0.3-2.4-0.8-3.2
				c-0.6-0.9-1.4-1.3-2.5-1.3c-1.1,0-1.9,0.4-2.4,1.3s-0.8,1.9-0.8,3.2V61.2z"/>
			<path d="M142.1,65.4c-0.4,0.7-0.9,1.2-1.5,1.5c-0.6,0.4-1.3,0.5-2.1,0.5c-1.3,0-2.4-0.4-3.1-1.3c-0.8-0.9-1.1-2.2-1.1-4v-5.5
				l-1.4-0.3v-1.4h1.4h2.2v7.3c0,1.3,0.2,2.2,0.6,2.7c0.4,0.5,1,0.7,1.8,0.7c0.8,0,1.5-0.2,2-0.5c0.5-0.3,0.9-0.8,1.2-1.4v-7.1
				l-1.7-0.3v-1.4h1.7h2.2v10.6l1.4,0.3v1.4h-3.4L142.1,65.4z"/>
			<path d="M147.1,65.8l1.9-0.3v-8.8l-1.9-0.3v-1.4h3.9l0.2,1.8c0.4-0.7,0.9-1.2,1.5-1.5c0.6-0.4,1.3-0.5,2.1-0.5
				c1.3,0,2.4,0.4,3.1,1.2c0.7,0.8,1.1,2,1.1,3.6v6l1.9,0.3v1.4h-6v-1.4l1.9-0.3v-6c0-1.1-0.2-1.9-0.6-2.3c-0.4-0.5-1.1-0.7-2-0.7
				c-0.6,0-1.2,0.2-1.7,0.5c-0.5,0.3-0.9,0.7-1.2,1.3v7.2l1.9,0.3v1.4h-6V65.8z"/>
			<path d="M170.7,65.7c-0.4,0.6-0.9,1-1.5,1.3c-0.6,0.3-1.3,0.4-2,0.4c-1.5,0-2.7-0.5-3.5-1.6c-0.8-1.1-1.3-2.5-1.3-4.3v-0.2
				c0-2,0.4-3.6,1.3-4.8c0.8-1.2,2-1.8,3.6-1.8c0.7,0,1.4,0.1,1.9,0.4c0.6,0.3,1,0.7,1.4,1.2v-5l-1.9-0.3v-1.4h1.9h2.2v16l1.9,0.3
				v1.4h-3.8L170.7,65.7z M164.6,61.5c0,1.2,0.3,2.2,0.8,3c0.5,0.8,1.3,1.1,2.4,1.1c0.7,0,1.2-0.2,1.7-0.5s0.8-0.7,1.1-1.3v-5.7
				c-0.3-0.5-0.7-0.9-1.1-1.2c-0.5-0.3-1-0.5-1.7-0.5c-1.1,0-1.9,0.4-2.4,1.3c-0.5,0.9-0.8,2-0.8,3.5V61.5z"/>
			<path d="M184.5,67.2c-0.1-0.3-0.1-0.6-0.2-0.9c0-0.3-0.1-0.5-0.1-0.8c-0.4,0.6-1,1-1.6,1.4c-0.7,0.4-1.3,0.6-2.1,0.6
				c-1.3,0-2.3-0.3-2.9-0.9c-0.7-0.6-1-1.5-1-2.7c0-1.2,0.5-2.1,1.4-2.7c0.9-0.6,2.2-1,3.9-1h2.3v-1.4c0-0.7-0.2-1.3-0.7-1.7
				c-0.5-0.4-1.1-0.6-1.9-0.6c-0.6,0-1.1,0.1-1.5,0.2c-0.4,0.1-0.8,0.3-1,0.6l-0.2,1.3h-1.7v-2.4c0.6-0.4,1.2-0.8,2-1.1
				c0.8-0.3,1.7-0.4,2.6-0.4c1.4,0,2.5,0.4,3.4,1.1c0.9,0.7,1.3,1.7,1.3,3.1v5.9c0,0.2,0,0.3,0,0.5s0,0.3,0,0.5l0.9,0.1v1.4H184.5z
				 M180.8,65.6c0.7,0,1.4-0.2,2-0.5c0.6-0.4,1.1-0.8,1.3-1.3v-2h-2.4c-0.9,0-1.6,0.2-2.2,0.6c-0.5,0.4-0.8,0.9-0.8,1.6
				c0,0.5,0.2,1,0.5,1.2C179.7,65.4,180.2,65.6,180.8,65.6z"/>
			<path d="M193.2,51.9v3h2.3v1.7h-2.3V64c0,0.6,0.1,1,0.4,1.2c0.2,0.2,0.6,0.4,1,0.4c0.2,0,0.4,0,0.7-0.1c0.2,0,0.5-0.1,0.6-0.1
				l0.3,1.5c-0.2,0.1-0.5,0.2-0.9,0.3c-0.4,0.1-0.8,0.1-1.2,0.1c-0.9,0-1.6-0.3-2.2-0.8c-0.5-0.5-0.8-1.4-0.8-2.6v-7.5h-2v-1.7h2v-3
				H193.2z"/>
			<path d="M197.8,65.8l1.9-0.3v-8.8l-1.9-0.3v-1.4h4.1v10.6l1.9,0.3v1.4h-6V65.8z M201.9,51.7h-2.2v-2.3h2.2V51.7z"/>
			<path d="M205.5,60.9c0-1.8,0.5-3.3,1.5-4.5c1-1.2,2.3-1.8,4-1.8c1.7,0,3.1,0.6,4,1.8c1,1.2,1.5,2.7,1.5,4.5v0.3
				c0,1.8-0.5,3.3-1.5,4.5c-1,1.2-2.3,1.8-4,1.8c-1.7,0-3.1-0.6-4-1.8c-1-1.2-1.5-2.7-1.5-4.5V60.9z M207.8,61.2
				c0,1.3,0.3,2.4,0.8,3.2c0.5,0.9,1.4,1.3,2.5,1.3c1.1,0,1.9-0.4,2.4-1.3c0.6-0.9,0.8-1.9,0.8-3.2v-0.3c0-1.3-0.3-2.4-0.8-3.2
				s-1.4-1.3-2.5-1.3s-1.9,0.4-2.4,1.3c-0.5,0.9-0.8,1.9-0.8,3.2V61.2z"/>
			<path d="M218.3,65.8l1.9-0.3v-8.8l-1.9-0.3v-1.4h3.9l0.2,1.8c0.4-0.7,0.9-1.2,1.5-1.5c0.6-0.4,1.3-0.5,2.1-0.5
				c1.3,0,2.4,0.4,3.1,1.2c0.7,0.8,1.1,2,1.1,3.6v6l1.9,0.3v1.4h-6v-1.4l1.9-0.3v-6c0-1.1-0.2-1.9-0.6-2.3c-0.4-0.5-1.1-0.7-2-0.7
				c-0.6,0-1.2,0.2-1.7,0.5c-0.5,0.3-0.9,0.7-1.2,1.3v7.2l1.9,0.3v1.4h-6V65.8z"/>
		</g>
	</g>
	<g>
		<g>
			<path class="st0" d="M93.8,48.3c0.2,0.5,0.5,1.1,0.8,0.8c-0.4-0.5-0.2-0.6-0.6-1.2c0-0.4,0.1-0.7,0.3-0.7
				c-0.1-0.2,0.1-0.7-0.2-0.9c-0.3,0.6-0.3,1.2-0.1,2C93.9,48.5,93.9,48.4,93.8,48.3z"/>
			<path class="st0" d="M94.2,54.1c0-0.1,0-0.3-0.1-0.4C94.2,53.8,94.2,53.9,94.2,54.1C94.2,54.1,94.2,54.1,94.2,54.1z"/>
			<path class="st0" d="M94.5,35.3C94.5,35.3,94.5,35.3,94.5,35.3C94.5,35.4,94.5,35.4,94.5,35.3z"/>
			<path class="st0" d="M94.1,54.3c0,0.1,0,0.2-0.1,0.4C94.1,54.5,94.1,54.4,94.1,54.3z"/>
			<path class="st0" d="M84.8,15c0.1-0.2,0.9,0.6,0-0.5C84.8,14.8,84.8,14.9,84.8,15z"/>
			<path class="st0" d="M94,54.1c0.1,0.1,0.1,0.1,0.1,0.2c0-0.1,0-0.2,0-0.3C94.1,54,94.1,54,94,54.1z"/>
			<path class="st0" d="M14.2,80.3l-0.9-0.9C13.6,79.7,13.9,80,14.2,80.3z"/>
			<path class="st0" d="M34.9,1.1c-0.1,0-0.2,0-0.3,0.1L34.9,1.1z"/>
			<path class="st0" d="M10.8,76.9c-0.1-0.2-0.2-0.5-0.3-0.7c-0.1,0-0.1-0.1-0.2-0.1L10.8,76.9z"/>
			<path class="st0" d="M94,50.1c0,0,0,0.1,0,0.1C93.9,50.2,93.9,50.2,94,50.1z"/>
			<path class="st0" d="M41.5,90.5c0,0-0.1,0-0.1,0C41.4,90.5,41.5,90.5,41.5,90.5z"/>
			<path class="st0" d="M30.9,2C30.9,2,31,2,30.9,2C31,2,30.9,2,30.9,2z"/>
			<path class="st0" d="M7.3,72.4c0,0,0.1,0.1,0.1,0.1C7.3,72.4,7.3,72.4,7.3,72.4z"/>
			<path class="st0" d="M31,2c0,0,0.1-0.1,0.1-0.1C31.1,1.9,31,2,31,2z"/>
			<path class="st0" d="M95.1,43.7c0.3-0.6,0-1-0.2-1.4c0.1-0.1,0.2-0.3,0.3-0.5c-0.2-0.4-0.4-0.8-0.6-1.2c0.2-0.2,0.5,0.5,0.5-0.3
				c-0.3-0.5-0.4,0.6-0.7-0.3c0.2-0.6,0.4-0.5,0.1-1.1c0.1-0.1,0.2,0,0.3,0.3c-0.2-0.6-0.3-1.6-0.6-1.9c0.2-0.6-0.4-2,0.1-2
				c-0.2-0.2-0.6-1-0.7-1.5c0.8,0.9-0.4-2,0.3-1.9c-0.4-0.3-0.6-0.9-0.8-1.7c-0.2-0.7-0.5-1.5-0.9-2.1c0.1,0.1,0.2,0.2,0.2,0.3
				c-0.2-0.7-0.1-1-0.2-1.5c-0.5,0.1-1-1-1.5-1.5c0-1,0.7,0.3,1-0.1c-0.3,0.2-1-1.3-1.2-0.9c0-0.8-0.1-0.6,0.1-1.1
				c-0.6,0.1-0.4-0.6-1-0.9c-0.2-1,0.4-0.5-0.3-1.4c-0.1-0.6,0.6,0.2,0.6,0.2c-0.6-1-0.6-0.3-1-0.4c-0.8-1.1,0-0.7-0.1-1.2
				c-0.5-0.7-1.3-1-1.6-1.6c0-0.1,0-0.2,0.1-0.1c-0.2-0.1-0.4-0.3-0.6-0.6c-0.2-0.2-0.4-0.5-0.6-0.8c-0.4-0.5-0.9-1.1-1.4-1.3
				c0-0.1,0-0.1,0-0.2c-0.1,0.3-0.2,0.4-0.3,0.5c-0.3-0.4-0.8-0.5-0.7-0.9c0.2,0.2,0.3,0.2,0.5,0.2l-0.4-0.3c0-0.6,0.6,0.5,0.8,0.3
				c-0.8-0.7-1.9-1.3-2.4-2c0.2-0.4,1.4,1.2,0.9,0.2c0.3,0.3,0.5,0.6,0.8,1c-0.1-0.6,0-0.4,0.2-0.3c0.1,0.2,0.3,0.3,0.2-0.2
				c-1.1-1.2-1.4-1.2-2.6-2.4c-0.4-0.1-0.1,0.3-0.6,0.2c-1-0.6-1.2-1.1-1.3-1.5c-0.2-0.4-0.2-0.8-1.1-1.1c-0.5,0-1,0.3-1.8-0.6
				L77.5,8c-1.3-0.9-1.1,0.1-2.4-1.1c0.3,0,1.1,0.5,1,0.4c-0.7-0.9-0.8-0.2-1.5-0.6l0-0.4c-0.8-0.4-1.6-0.8-2.4-1
				c-0.4-0.2-0.9-0.3-1.3-0.5c-0.4-0.2-0.9-0.3-1.3-0.5c0.1-0.1,0.5-0.1,0.1-0.3c-2.3-0.7-4.7-1.8-6.9-2.6l-0.9,0.1
				c-0.2-0.1-0.3-0.2-0.1-0.3c-0.8-0.3-0.1,0.2-0.5,0.2c-0.5-0.1-0.6-0.3-0.3-0.4c-1.6-0.1-4.5-0.2-6-0.7l0.3-0.1
				c-1.3-0.3-1.5,0.6-2.6,0.2l0.2,0c-1.4-0.2-2.8-0.2-4.2-0.2c-1.4,0-2.6-0.1-3.7-0.3c-0.2,0.3-0.9,0.2-1.5,0.2
				c-0.7,0-1.3,0.1-1.3,0.4c-1.6-0.2-1.2-0.4-3.4-0.3c-0.6,0-0.8,0.6-1.5,0.7l-0.1-0.4l-0.9,0.5C36,1.1,35.8,1,35.6,0.9l-0.7,0.2
				c0.3,0,0.6,0,0.6,0.2c-0.5,0.2-1.2,0.3-1.7,0.3c-0.5,0-1,0-1-0.1c-0.8,0.3-1.6,0.6-2.4,1c0-0.1,0.2-0.2,0.5-0.4
				c-0.9,0.5-0.2-0.4-1.2,0.3c0.2,0,0,0.2,0,0.3c-0.7,0-2,0.5-3,0.9l0.1-0.3c-1.8,0.7-3.7,1.7-5.6,2.7c0.7-0.3,0.8,0.2,0.3,0.5
				l-0.4-0.2c-0.2,0.4,0.6-0.2,0.1,0.5c-0.7,0.3-0.7-0.1-0.3-0.5c-0.3,0.2-0.5,0.4-0.8,0.6c-0.1-0.1,0.1-0.2,0-0.4
				c-0.2,0.4-1.7,0.6-1.9,1.2L18,7.6c-1.8,1.2-2.5,2-3.8,3.1c0.2,0.3-0.4,0.7-0.6,1.2c-1,0.8-2.2,1.6-3.2,2.8
				c-0.6,0.9,0,0.4-0.2,0.9c-0.3-0.1-1.2,1.1-0.9,0.3c-0.5,0.8-0.9,1.2-1.2,1.8c-0.3,0.6-0.7,1.2-1.2,2.3C7.2,20,7.4,19.8,7.4,20
				c-0.2,0.4-0.6,0.8-0.7,0.6l0-0.1c-0.1,0.3-0.3,0.6-0.4,0.9C6.2,21.7,6,22,5.8,22.3c-0.2,0.3-0.4,0.6-0.6,0.9
				c-0.2,0.3-0.4,0.6-0.6,0.9c-0.4,0.6-0.8,1.2-1,1.8c-0.3,0.6-0.5,1.2-0.5,1.7l0-0.1l-0.4,2.2c-0.3,0.9-0.1-0.6-0.4,0
				C2.3,31,2,31.9,1.8,32.7c-0.2,0.8-0.5,1.6-0.5,2.6c-0.6,0.6-0.8,2-0.9,3.4c0,0.7-0.1,1.4-0.1,2.1C0.2,41.4,0.2,42,0,42.5l0.2-0.1
				c0.2,0.5-0.2,0.6-0.2,1c0.2,0,0.2-0.6,0.3-0.2c0.1,2.2,0,4.4,0,6.7c0,2.3,0.1,4.6,0.5,6.9c0.3,1.6,1.2,0.7,1.3,2.8l-0.5-0.5
				c0.3,0.8,0.6,1.6,0.9,2.4c0.3,0.8,0.5,1.6,0.8,2.4c0.6,1.6,1.2,3.2,2.2,4.5c-0.2-0.1-0.3-0.1-0.4-0.4c0.1,0.7,1.2,2.3,1.4,2.2
				c0.2,0.5-0.1,0.2-0.1,0.5c0.1,0.3,0.4,0.7,0.7,1c0.3,0.3,0.5,0.6,0.5,0.8c0,0.1-0.1,0-0.2-0.1c0.4,0.4,1.1,1.6,1.1,1.1
				c0.6,1.1,1.5,1.8,2,2.7c0.4,0.1,0.7,0.5,1,0.9c0.3,0.4,0.6,0.7,0.9,0.5c-0.2,0.2,0.1,0.6,0.5,1.1c0.5,0.5,1.1,0.9,1.4,1.1
				c-0.3-0.1,0.4,0.6,0,0.5c0.7,0.6,1.4,1,1.4,0.7c0.2,0.4,0.5,0.7,0.8,0.9c0.3,0.2,0.7,0.4,1,0.6c0.3,0.2,0.6,0.3,0.9,0.5
				c0.3,0.2,0.4,0.4,0.5,0.7c0.6,0.3,1.2,0.6,1.8,0.8c0.6,0.3,1.2,0.5,1.7,0.8c1.2,0.4,2.3,0.9,3.4,1.3c-0.1,0.2-0.7,0-1.3-0.2
				c-0.6-0.3-1.1-0.5-1.2-0.2c1.1,0.4,1.9,0.6,2.8,0.8c0.9,0.2,1.7,0.4,2.7,0.9c0.5,0.3-0.4,0.1-0.6,0.1c0.5,0.1,1.1,0.3,1.6,0.4
				c0.5,0.2,1,0.3,1.5,0.5c1,0.3,2,0.5,3,0.6c0,0-0.2,0.1-0.4,0.1c0.4,0.1,0.9,0.3,0.9,0l-0.4,0c-0.5-0.5,1.7-0.4,1.8-0.6
				c-0.8,0.6,1.9,0.5,0.7,1.2c0.3,0,0.6-0.1,0.6-0.2c0.4,0.1,0.5,0.2,0.1,0.3c1.4,0.1,0.9-0.3,2.2-0.1c0,0.1-0.3,0.1-0.4,0.2
				c0.7-0.2,1.3-0.3,2.4-0.1c-0.1,0.1,0,0.1-0.2,0.1c0.9,0,1.6,0,2.4-0.1c0.8-0.1,1.6-0.1,2.6,0c-0.6,0.5,0.7,0.2,0.8,0.6l1.1-0.1
				l-0.4-0.2c0.9,0,1.8-0.3,2.6-0.2c-0.2,0.1-0.5,0.1-0.7,0.2c0.6,0,1.2-0.1,1.8-0.1l-1-0.1c0.9-0.3-0.1-0.6,1.1-0.5
				c-0.2,0.1,0.9,0,1.4,0.2l0,0c0.5-0.2,0.9-0.4,1.6-0.3c0.2,0.1-0.1,0.5,0,0.6c0.4-0.4,2.2-0.4,2.7-0.8c-0.2,0.1-0.2,0.4-0.1,0.4
				l0.3-0.4c0.4,0,0.5,0.1,0.5,0.3c1.3-0.2-0.5-0.5,1.1-0.5c-0.1,0,0,0.1-0.3,0.2c1.6-0.2,2.9-0.8,4.3-1c0.5,0.3-1.2,0.4-0.6,0.7
				c2-0.6,4-1.7,5.9-2.3c-0.1,0-0.2,0.1-0.4,0.1c0-0.7,1.5-0.3,2.3-0.9c-0.2,0.1-0.2,0.4-0.1,0.4c1.3-0.5,2.5-1.3,4.2-2.5L74.4,84
				c0.4-0.1,0.9-0.4,1.3-0.7c0.5-0.3,0.9-0.6,1.3-0.8c0.1-0.3,0.5-0.6,0.2-0.6c1.4-0.4,2.3-1.3,3.2-2.2c0.4-0.5,0.8-0.9,1.2-1.4
				c0.4-0.4,0.9-0.8,1.5-1.1c-0.2,0.2-0.4,0.6-0.2,0.4l0.7-0.8c0.2-0.3,0.4-0.5,0.6-0.8c-0.3-0.1-0.3,0.1-0.7,0.3
				c0.1-0.3,0.3-0.8,0.7-1.2c-0.5,0.8,0.3,0.3,0.7,0.1c-0.1,0-0.1-0.2-0.2-0.2c1-0.5-0.3-0.5,0.8-1.4l0.1,0.1c0.3-0.5,0.4-1,0.8-1.4
				c0.4,0-0.2,0.6,0,0.7c0.4-0.7,0.4-1.7,1.1-2.1c-0.1,0.3-0.4,0.8-0.5,1.1c0.8-0.5,0.7-0.6,1.1-1.1l0,0l0.9-1.1l-0.3,0.3
				c0-0.3,0-0.6,0.1-0.9c0.1-0.3,0.2-0.5,0.3-0.8c0.2-0.5,0.6-1,0.6-1.8c-0.1,1.4,0.2,0.3,0.5,0.6c0.2-0.3,0.6-0.7,0.6-0.5
				c0-0.7,0.7-0.9,0.6-1.9c0.1,0,0.3-0.7,0.5-0.4c0.2-0.8-0.3,0.1-0.4,0c0-0.3,0.1-0.7,0.3-1c0.1-0.4,0.3-0.7,0.5-1.1
				c0.2-0.4,0.4-0.8,0.5-1.2c0.1-0.4,0.2-0.9,0.2-1.4c0.1-0.8,0.1-1.3,0-1.8c0-0.4-0.1-0.8,0-1.3c0-0.1,0.1-0.3,0.1-0.4
				c0.2-0.2,0.3,0.6,0.3,0.6c0.3-0.8,0.4-1.4,0.4-2.2c0.1,0.2,0.2,0,0.3-0.2c0.1-0.6-0.4-0.5-0.1-1.3c0.1,0.2,0.3,0.4,0.4,0.7
				c0-0.7-0.1-1.5-0.2-2.3c0.2-0.2,0.3,0.5,0.4,0.8c0-0.9,0-2.2-0.3-2.5c0,0.1-0.1,0.3-0.1,0.4c0.1-0.1,0.3,0,0.3,0.2
				c0.2,0.7-0.2,1-0.3,1.1l0-0.5c-0.4,0.2-0.4,0.8-0.3,1.4c0,0.6,0.1,1.3,0,1.8l-0.3-0.4c0.4-2.7,0.6-5.5,0.5-8.2c0,0,0-0.1,0-0.1
				c0.2,0.1,0.4,0.1,0.5,0.2c0,0.1,0,0.2,0,0.3l0.4,0.3l-0.1-0.6c0.2-0.1,0.4-0.4,0.6-1.2c-0.1-0.4-0.2-0.8-0.3-1.2l0.2-0.4
				C95.1,43,95.1,43.4,95.1,43.7z M69.5,4.4c0.2,0.1,0.4,0.1,0.5,0.2C69.9,4.5,69.8,4.5,69.5,4.4C69.5,4.4,69.5,4.4,69.5,4.4z
				 M68.3,3.9c0,0.1-0.1,0.2-0.3,0.1c0.1,0-0.3-0.3-0.6-0.5C67.7,3.7,68,3.8,68.3,3.9z M80.6,79c-0.1,0-0.2-0.1-0.2-0.2
				c0.2-0.2,0.4-0.3,0.5-0.5C81,78.4,80.9,78.6,80.6,79z M92.1,60.4c-0.1,0.1-0.2,0.1-0.3,0.2c0.1-0.3,0.2-0.6,0.2-0.8
				C92,59.8,92.1,60,92.1,60.4z M93.4,54.7c-0.1,0.1-0.3,0.2-0.3,0.2c0.1-0.3,0.1-0.7,0.2-1C93.3,54.1,93.4,54.4,93.4,54.7z"/>
			<polygon class="st0" points="37.1,0.6 37.1,0.7 37.3,0.6 			"/>
			<path class="st0" d="M84.8,75.2c0,0,0.1,0,0.2-0.1C85,75.2,84.9,75.2,84.8,75.2z"/>
			<path class="st0" d="M87.9,71l0.5-0.6C88.2,70.6,88.1,70.8,87.9,71z"/>
			<path class="st0" d="M90,67.5c0-0.1-0.1-0.1-0.1-0.1c0,0,0,0,0,0L90,67.5z"/>
			<path class="st0" d="M33.9,89.5c-0.1,0-0.1,0-0.2,0C33.4,89.5,33.7,89.5,33.9,89.5z"/>
			<path class="st0" d="M53.1,90c-0.2,0.1-0.4,0.2-0.6,0.2C52.8,90.2,53.1,90.2,53.1,90z"/>
			<path class="st0" d="M14.3,80.4C14.3,80.4,14.3,80.4,14.3,80.4C14.3,80.4,14.2,80.3,14.3,80.4L14.3,80.4z"/>
			<path class="st0" d="M51.6,90.3c0.3,0.1,0.6,0,0.9,0C52.2,90.2,51.9,90.2,51.6,90.3z"/>
			<path class="st0" d="M94.6,50.5l0-0.2c0,0,0,0-0.1,0L94.6,50.5z"/>
			<path class="st0" d="M94.6,50.3l0-0.2C94.6,50.1,94.6,50.2,94.6,50.3z"/>
			<path class="st0" d="M94.5,49.6l0.1,0.5C94.6,49.9,94.6,49.7,94.5,49.6z"/>
			<path class="st0" d="M93.5,57.4c0.1-0.2,0.2-0.4,0.3-0.7c0.1-0.3,0.2-0.5,0.2-0.8l-0.1-0.1C94,56.2,93.4,57,93.5,57.4z"/>
			<path class="st0" d="M61.9,89.2l0.2-0.3c-0.3,0.1-0.5,0.2-0.8,0.3C61.6,89.1,61.7,89.1,61.9,89.2z"/>
		</g>
		<g>
			<g>
				<g>
					<path d="M47.7,27.4c-0.1,0-0.2,0-0.3,0c-0.1,0-0.2,0-0.2-0.1l0,0c0,0,0,0,0,0c-0.1-0.1-0.2-0.2-0.3-0.3
						c-0.6-0.6-1.2-1.2-1.8-1.7c-0.4-0.4-0.4-1-0.1-1.4c0.4-0.4,1-0.4,1.4-0.1c0.5,0.4,0.9,0.8,1.3,1.3c0.4-0.4,0.9-0.9,1.3-1.3
						c0.4-0.4,1-0.3,1.4,0.1c0.4,0.4,0.3,1-0.1,1.4c-0.6,0.5-1.2,1.1-1.8,1.8c-0.1,0.1-0.2,0.2-0.3,0.3
						C48.1,27.3,47.9,27.4,47.7,27.4z"/>
				</g>
				<g>
					<path d="M47.7,76c-0.8,0-1.5-0.2-2.2-0.5c-0.1,0-0.2-0.1-0.3-0.1l-0.5-0.2c-0.5-0.2-0.7-0.8-0.4-1.3c0.2-0.5,0.8-0.7,1.3-0.4
						l0.5,0.2c0.1,0,0.1,0.1,0.2,0.1c0.9,0.4,2,0.4,2.8,0c0.1,0,0.1-0.1,0.2-0.1l0.5-0.2c0.5-0.2,1.1,0,1.3,0.4
						c0.2,0.5,0,1.1-0.4,1.3l-0.5,0.2c-0.1,0.1-0.2,0.1-0.3,0.1C49.2,75.8,48.5,76,47.7,76z M40.6,72.7c-0.2,0-0.3,0-0.5-0.1
						c-0.4-0.2-0.7-0.4-1.1-0.7c-1.1-0.6-2.2-1.4-3.4-2.2c-0.4-0.3-0.5-0.9-0.2-1.3c0.3-0.4,0.9-0.5,1.3-0.2
						c1.1,0.8,2.2,1.5,3.3,2.2c0.4,0.2,0.7,0.5,1.1,0.7c0.5,0.3,0.6,0.9,0.3,1.3C41.2,72.5,40.9,72.7,40.6,72.7z M54.9,72.7
						c-0.3,0-0.7-0.2-0.8-0.5c-0.3-0.5-0.2-1,0.3-1.3l0.1,0c0.3-0.2,0.7-0.4,1.1-0.6c1.1-0.6,2.1-1.3,3.3-2.1c0.4-0.3,1-0.2,1.3,0.2
						c0.3,0.4,0.2,1-0.2,1.3c-1.2,0.8-2.3,1.6-3.4,2.2c-0.3,0.2-0.7,0.4-1.1,0.7C55.3,72.7,55.1,72.7,54.9,72.7z M63.5,66.6
						c-0.3,0-0.6-0.1-0.7-0.3c-0.3-0.4-0.3-1,0.1-1.4c1.3-1.1,2.6-2.3,3.9-3.5c0.4-0.4,1-0.4,1.4,0c0.4,0.4,0.4,1,0,1.4
						c-1.3,1.2-2.6,2.4-4,3.6C63.9,66.6,63.7,66.6,63.5,66.6z M31.9,66.6c-0.2,0-0.4-0.1-0.6-0.2c-1.4-1.1-2.7-2.4-4-3.6
						c-0.4-0.4-0.4-1,0-1.4c0.4-0.4,1-0.4,1.4,0c1.2,1.2,2.5,2.4,3.9,3.5c0.4,0.3,0.5,0.9,0.1,1.4C32.5,66.5,32.2,66.6,31.9,66.6z
						 M71.1,59.3c-0.2,0-0.5-0.1-0.6-0.2c-0.4-0.4-0.4-1-0.1-1.4c0.7-0.9,1.4-1.7,2.1-2.5c0.4-0.5,0.8-1,1.1-1.5
						c0.3-0.4,0.9-0.5,1.3-0.2c0.4,0.3,0.5,0.9,0.2,1.3c-0.4,0.5-0.8,1.1-1.2,1.6c-0.7,0.9-1.4,1.7-2.2,2.6
						C71.6,59.2,71.3,59.3,71.1,59.3z M24.4,59.3c-0.3,0-0.5-0.1-0.7-0.3c-0.8-0.9-1.5-1.7-2.1-2.6c-0.4-0.5-0.8-1.1-1.2-1.6
						c-0.3-0.4-0.2-1,0.2-1.3c0.4-0.3,1-0.2,1.3,0.2c0.4,0.5,0.7,1,1.2,1.6c0.6,0.8,1.3,1.7,2,2.5c0.3,0.4,0.3,1-0.1,1.4
						C24.8,59.2,24.6,59.3,24.4,59.3z M77,50.6c-0.1,0-0.3,0-0.4-0.1c-0.5-0.2-0.7-0.8-0.5-1.3c0.7-1.6,1.3-3.2,1.7-4.8
						c0.1-0.5,0.6-0.8,1.2-0.7c0.5,0.1,0.8,0.6,0.7,1.2c-0.4,1.7-1,3.5-1.8,5.2C77.7,50.4,77.4,50.6,77,50.6z M18.5,50.5
						c-0.4,0-0.7-0.2-0.9-0.6c-0.8-1.7-1.4-3.4-1.8-5.2c-0.1-0.5,0.2-1,0.7-1.2c0.5-0.1,1,0.2,1.2,0.7c0.4,1.6,1,3.2,1.7,4.8
						c0.2,0.5,0,1.1-0.5,1.3C18.7,50.5,18.6,50.5,18.5,50.5z M79.4,40.4C79.4,40.4,79.4,40.4,79.4,40.4c-0.6,0-1-0.5-1-1l0-0.4
						c0-0.6,0-1.3-0.1-1.9c-0.1-0.9-0.2-1.8-0.4-2.7c-0.1-0.5,0.2-1,0.7-1.2c0.5-0.1,1,0.2,1.2,0.7c0.2,1,0.4,2,0.5,3
						c0.1,0.7,0.1,1.4,0.1,2l0,0.5C80.4,40,80,40.4,79.4,40.4z M16,40.3c-0.5,0-1-0.4-1-1l0-0.4c0-0.7,0-1.4,0.1-2
						c0.1-1,0.2-2,0.5-3c0.1-0.5,0.7-0.8,1.2-0.7c0.5,0.1,0.8,0.6,0.7,1.2c-0.2,0.9-0.4,1.8-0.4,2.7C17,37.7,17,38.4,17,39l0,0.4
						C17,39.9,16.6,40.3,16,40.3C16,40.3,16,40.3,16,40.3z M76.9,30.3c-0.3,0-0.7-0.2-0.8-0.5c-0.8-1.4-1.9-2.7-3.1-3.9
						c-0.4-0.4-0.4-1,0-1.4c0.4-0.4,1-0.4,1.4,0c1.3,1.3,2.5,2.8,3.4,4.3c0.3,0.5,0.1,1.1-0.3,1.3C77.3,30.2,77.1,30.3,76.9,30.3z
						 M18.6,30.2c-0.2,0-0.3,0-0.5-0.1c-0.5-0.3-0.6-0.9-0.3-1.3c0.9-1.6,2.1-3,3.4-4.3c0.4-0.4,1-0.4,1.4,0c0.4,0.4,0.4,1,0,1.4
						c-1.2,1.2-2.3,2.5-3.1,3.9C19.2,30.1,18.9,30.2,18.6,30.2z M69.4,23c-0.2,0-0.3,0-0.5-0.1c-1.5-0.8-3.1-1.4-4.7-1.7
						c-0.5-0.1-0.9-0.6-0.8-1.1c0.1-0.5,0.6-0.9,1.1-0.8c1.8,0.3,3.5,1,5.2,1.9c0.5,0.3,0.6,0.8,0.4,1.3C70.1,22.8,69.8,23,69.4,23z
						 M26.1,23c-0.3,0-0.7-0.2-0.8-0.5c-0.3-0.5-0.1-1.1,0.4-1.3c1.7-0.9,3.4-1.6,5.2-1.9c0.5-0.1,1,0.2,1.1,0.8
						c0.1,0.5-0.2,1-0.8,1.1c-1.6,0.3-3.2,0.9-4.7,1.7C26.4,23,26.3,23,26.1,23z M41.4,22.6c-0.1,0-0.3,0-0.4-0.1l-0.3-0.1
						c0,0-0.1,0-0.1-0.1c0,0,0.1,0,0.1,0c-1.5-0.6-2.9-1-4.5-1.2c-0.5-0.1-0.9-0.5-0.8-1.1c0.1-0.5,0.6-0.9,1.1-0.8
						c1.7,0.2,3.3,0.7,4.9,1.4c0,0,0.1,0,0.1,0.1c0,0-0.1,0-0.1,0l0.4,0.2c0.5,0.2,0.7,0.8,0.5,1.3C42.1,22.4,41.7,22.6,41.4,22.6z
						 M54.2,22.5c-0.4,0-0.7-0.2-0.9-0.6c-0.2-0.5,0-1.1,0.5-1.3l0.3-0.1c0,0,0.1,0,0.2-0.1c1.5-0.7,3.2-1.1,4.9-1.3
						c0.5-0.1,1,0.3,1.1,0.8c0.1,0.5-0.3,1-0.8,1.1c-1.6,0.2-3,0.6-4.4,1.2c0,0-0.1,0.1-0.2,0.1l-0.2,0.1
						C54.4,22.5,54.3,22.5,54.2,22.5z"/>
				</g>
			</g>
			<path d="M75.4,47.5C75.4,47.6,75.4,47.6,75.4,47.5c-3.1,8.7-15.3,18.3-22.8,22.1c-0.7,0.4-1.3,0.7-1.9,1
				c-0.3,0.1-0.5,0.3-0.8,0.4c0,0,0,0,0,0c-0.3,0.1-0.5,0.2-0.7,0.3c0,0,0,0,0,0c-0.4,0.1-0.9,0.2-1.4,0.2c-0.6,0-1.1-0.1-1.6-0.3
				c-0.1,0-0.1-0.1-0.2-0.1c-0.3-0.2-0.7-0.3-1.1-0.5c-0.6-0.3-1.3-0.6-1.9-1c-0.5-0.3-1-0.5-1.5-0.8c-0.4-0.2-0.8-0.5-1.2-0.7
				C35,65.2,28.5,60,24.3,54.7C20,49.4,18.2,44,18.7,38.3c0.6-8.8,9.7-15.8,17.9-14.8c1.7,0.1,3.4,0.5,5,1.2c0,0,0.1,0,0.1,0
				c2.2,0.9,4.2,2.3,6.1,4.3c0,0,0,0,0,0c0,0,0,0,0,0c0,0,0,0,0,0c1.2-1.3,2.6-2.4,4-3.3c1.3-0.8,2.7-1.4,4.2-1.8
				c0.4-0.1,0.7-0.2,1.1-0.3c0.3-0.1,0.6-0.1,0.9-0.1c0.1,0,0.2,0,0.2,0c0.2,0,0.5-0.1,0.7-0.1c0.1,0,0.1,0,0.2,0v18.5l3.2-2.3l0,0
				l3.2,2.5V24.2c5.9,2,11,7.7,11.4,14.1c0,0.4,0.1,0.8,0.1,1.2c0,0,0,0,0,0C77,42.3,76.5,44.9,75.4,47.5z"/>
		</g>
	</g>
</g>
</svg>
