<?xml version="1.0" encoding="utf-8"?>
<!-- Generator: Adobe Illustrator 21.1.0, SVG Export Plug-In . SVG Version: 6.00 Build 0)  -->
<svg version="1.1" id="Layer_1" xmlns="http://www.w3.org/2000/svg" xmlns:xlink="http://www.w3.org/1999/xlink" x="0px" y="0px"
	 viewBox="0 0 229.5 90" style="enable-background:new 0 0 229.5 90;" xml:space="preserve">
<style type="text/css">
	.st0{fill:#FFC23F;}
</style>
<g>
	<g>
		<g>
			<path d="M111.8,24.5c1.8,0,3.2,0.4,4.2,1.2c1,0.8,1.4,1.9,1.4,3.4c0,0.8-0.2,1.5-0.7,2.1c-0.4,0.6-1.1,1.1-1.9,1.5
				c0.9,0.3,1.6,0.8,2,1.4c0.4,0.7,0.6,1.5,0.6,2.5v1.3c0,0.5,0.1,0.9,0.2,1.1c0.1,0.2,0.3,0.4,0.6,0.4l0.5,0.1v1.5h-1.2
				c-0.9,0-1.5-0.3-1.9-0.9c-0.4-0.6-0.6-1.3-0.6-2.2v-1.3c0-0.9-0.3-1.6-0.8-2.2c-0.5-0.5-1.2-0.8-2.1-0.8h-3.6v5.6l1.9,0.3v1.4
				h-5.9v-1.4l1.9-0.3v-13l-1.9-0.3v-1.4h1.9H111.8z M108.6,31.8h3c1.3,0,2.2-0.2,2.7-0.7c0.5-0.5,0.9-1.2,0.9-2.1
				c0-0.9-0.3-1.6-0.8-2.1c-0.5-0.5-1.4-0.8-2.5-0.8h-3.2L108.6,31.8L108.6,31.8z"/>
			<path d="M125.9,41.1c-1.7,0-3.1-0.6-4.1-1.7c-1-1.1-1.5-2.6-1.5-4.5v-0.5c0-1.8,0.5-3.2,1.6-4.4c1-1.2,2.3-1.8,3.7-1.8
				c1.7,0,2.9,0.5,3.8,1.5c0.9,1,1.3,2.3,1.3,4v1.4h-7.9v0.1c0,1.2,0.3,2.2,0.9,2.9c0.6,0.8,1.4,1.1,2.4,1.1c0.8,0,1.4-0.1,2-0.3
				c0.6-0.2,1.1-0.5,1.5-0.9l0.9,1.5c-0.4,0.4-1,0.8-1.8,1.1C127.8,41,127,41.1,125.9,41.1z M125.6,30.3c-0.8,0-1.4,0.3-1.9,1
				c-0.5,0.6-0.9,1.4-1,2.4v0.1h5.6v-0.3c0-0.9-0.2-1.6-0.7-2.2C127.2,30.6,126.5,30.3,125.6,30.3z"/>
			<path d="M140.7,40.9c-0.1-0.3-0.1-0.6-0.2-0.9c0-0.3-0.1-0.5-0.1-0.8c-0.4,0.6-1,1-1.6,1.4c-0.7,0.4-1.3,0.6-2.1,0.6
				c-1.3,0-2.3-0.3-2.9-0.9c-0.7-0.6-1-1.5-1-2.7s0.5-2.1,1.4-2.7c0.9-0.6,2.2-1,3.9-1h2.3v-1.4c0-0.7-0.2-1.3-0.7-1.7
				c-0.5-0.4-1.1-0.6-1.9-0.6c-0.6,0-1.1,0.1-1.5,0.2c-0.4,0.1-0.8,0.3-1,0.6l-0.2,1.3h-1.7v-2.4c0.6-0.4,1.2-0.8,2-1.1
				s1.7-0.4,2.6-0.4c1.4,0,2.5,0.4,3.4,1.1s1.3,1.7,1.3,3.1v5.8c0,0.2,0,0.3,0,0.5s0,0.3,0,0.5l0.9,0.1V41L140.7,40.9L140.7,40.9z
				 M137.2,39.3c0.7,0,1.4-0.2,2-0.5c0.6-0.4,1.1-0.8,1.3-1.3v-2h-2.4c-0.9,0-1.6,0.2-2.2,0.6c-0.5,0.4-0.8,0.9-0.8,1.6
				c0,0.5,0.2,1,0.5,1.2C136,39.2,136.5,39.3,137.2,39.3z"/>
			<path d="M153.7,39.5c-0.4,0.6-0.9,1-1.5,1.3c-0.6,0.3-1.3,0.4-2,0.4c-1.5,0-2.7-0.5-3.5-1.6c-0.8-1.1-1.3-2.5-1.3-4.3v-0.2
				c0-2,0.4-3.6,1.3-4.7c0.8-1.2,2-1.8,3.6-1.8c0.7,0,1.4,0.1,1.9,0.4c0.6,0.3,1,0.7,1.4,1.2v-4.9l-1.9-0.3v-1.4h1.9h2.2v15.8
				l1.9,0.3V41h-3.8L153.7,39.5z M147.8,35.3c0,1.2,0.3,2.2,0.8,3c0.5,0.8,1.3,1.1,2.4,1.1c0.7,0,1.2-0.2,1.7-0.5s0.8-0.7,1.1-1.3
				v-5.6c-0.3-0.5-0.7-0.9-1.1-1.2c-0.5-0.3-1-0.5-1.7-0.5c-1.1,0-1.9,0.4-2.4,1.3c-0.5,0.9-0.8,2-0.8,3.5V35.3z"/>
			<path d="M169.6,25.9l-1.7,0.3l2.1,9l0.3,2.1h0.1l0.4-2.1l3.1-10.8h2l3.1,10.8l0.5,2.1h0.1l0.3-2.1l2.1-9l-1.7-0.3v-1.4h5.2v1.4
				l-1.3,0.2l-3.6,14.8h-2l-3.3-11.4l-0.3-1.5H175l-0.3,1.5l-3.3,11.4h-2l-3.6-14.8l-1.3-0.2v-1.4h5.2v1.4H169.6z"/>
			<path d="M191.9,41.1c-1.7,0-3.1-0.6-4.1-1.7c-1-1.1-1.5-2.6-1.5-4.5v-0.5c0-1.8,0.5-3.2,1.6-4.4c1-1.2,2.3-1.8,3.7-1.8
				c1.7,0,2.9,0.5,3.8,1.5c0.9,1,1.3,2.3,1.3,4v1.4h-7.9v0.1c0,1.2,0.3,2.2,0.9,2.9c0.6,0.8,1.4,1.1,2.4,1.1c0.8,0,1.4-0.1,2-0.3
				s1.1-0.5,1.5-0.9l0.9,1.5c-0.4,0.4-1,0.8-1.8,1.1C193.7,41,192.9,41.1,191.9,41.1z M191.6,30.3c-0.8,0-1.4,0.3-1.9,1
				c-0.5,0.6-0.9,1.4-1,2.4v0.1h5.6v-0.3c0-0.9-0.2-1.6-0.7-2.2C193.2,30.6,192.5,30.3,191.6,30.3z"/>
			<path d="M198.4,24.7v-1.4h4.1v15.8l1.9,0.3v1.4h-5.9v-1.4l1.9-0.3V25L198.4,24.7z"/>
			<path d="M205.7,24.7v-1.4h4.1v15.8l1.9,0.3v1.4h-5.9v-1.4l1.9-0.3V25L205.7,24.7z"/>
		</g>
		<g>
			<path d="M104.5,65.2l1.9-0.3v-13l-1.9-0.3v-1.4h12.7v4h-1.9l-0.2-2.2h-6.5v5.6h6.3v1.8h-6.3V65l1.9,0.3v1.4h-5.9
				C104.5,66.7,104.5,65.2,104.5,65.2z"/>
			<path d="M118.9,60.3c0-1.8,0.5-3.3,1.5-4.5c1-1.2,2.3-1.8,4-1.8c1.7,0,3.1,0.6,4,1.8c1,1.2,1.5,2.7,1.5,4.5v0.3
				c0,1.8-0.5,3.3-1.5,4.5c-1,1.2-2.3,1.8-4,1.8c-1.7,0-3.1-0.6-4-1.8c-1-1.2-1.5-2.7-1.5-4.5V60.3z M121.1,60.6
				c0,1.3,0.3,2.4,0.8,3.2c0.5,0.9,1.4,1.3,2.5,1.3c1.1,0,1.9-0.4,2.4-1.3c0.6-0.9,0.8-1.9,0.8-3.2v-0.3c0-1.3-0.3-2.4-0.8-3.2
				c-0.6-0.9-1.4-1.3-2.5-1.3c-1.1,0-1.9,0.4-2.4,1.3s-0.8,1.9-0.8,3.2V60.6z"/>
			<path d="M140.5,64.8c-0.4,0.7-0.9,1.2-1.5,1.5c-0.6,0.4-1.3,0.5-2.1,0.5c-1.3,0-2.4-0.4-3.1-1.3c-0.8-0.9-1.1-2.2-1.1-4v-5.4
				l-1.4-0.3v-1.4h1.4h2.2v7.2c0,1.3,0.2,2.2,0.6,2.7c0.4,0.5,1,0.7,1.8,0.7s1.5-0.2,2-0.5c0.5-0.3,0.9-0.8,1.2-1.4v-7l-1.7-0.3
				v-1.4h1.7h2.2v10.5l1.4,0.3v1.4h-3.4L140.5,64.8z"/>
			<path d="M145.5,65.2l1.9-0.3v-8.7l-1.9-0.3v-1.4h3.9l0.2,1.8c0.4-0.7,0.9-1.2,1.5-1.5c0.6-0.4,1.3-0.5,2.1-0.5
				c1.3,0,2.4,0.4,3.1,1.2c0.7,0.8,1.1,2,1.1,3.6V65l1.9,0.3v1.4h-5.9v-1.4l1.9-0.3V59c0-1.1-0.2-1.9-0.6-2.3
				c-0.4-0.5-1.1-0.7-2-0.7c-0.6,0-1.2,0.2-1.7,0.5c-0.5,0.3-0.9,0.7-1.2,1.3V65l1.9,0.3v1.4h-5.9L145.5,65.2L145.5,65.2z"/>
			<path d="M168.8,65.1c-0.4,0.6-0.9,1-1.5,1.3s-1.3,0.4-2,0.4c-1.5,0-2.7-0.5-3.5-1.6c-0.8-1.1-1.3-2.5-1.3-4.3v-0.2
				c0-2,0.4-3.6,1.3-4.7c0.8-1.2,2-1.8,3.6-1.8c0.7,0,1.4,0.1,1.9,0.4c0.6,0.3,1,0.7,1.4,1.2v-4.9l-1.9-0.3v-1.4h1.9h2.2V65l1.9,0.3
				v1.4H169L168.8,65.1z M162.8,60.9c0,1.2,0.3,2.2,0.8,3c0.5,0.8,1.3,1.1,2.4,1.1c0.7,0,1.2-0.2,1.7-0.5s0.8-0.7,1.1-1.3v-5.6
				c-0.3-0.5-0.7-0.9-1.1-1.2c-0.5-0.3-1-0.5-1.7-0.5c-1.1,0-1.9,0.4-2.4,1.3c-0.5,0.9-0.8,2-0.8,3.5V60.9z"/>
			<path d="M182.5,66.6c-0.1-0.3-0.1-0.6-0.2-0.9c0-0.3-0.1-0.5-0.1-0.8c-0.4,0.6-1,1-1.6,1.4c-0.7,0.4-1.3,0.6-2.1,0.6
				c-1.3,0-2.3-0.3-2.9-0.9c-0.7-0.6-1-1.5-1-2.7c0-1.2,0.5-2.1,1.4-2.7c0.9-0.6,2.2-1,3.9-1h2.3v-1.4c0-0.7-0.2-1.3-0.7-1.7
				c-0.5-0.4-1.1-0.6-1.9-0.6c-0.6,0-1.1,0.1-1.5,0.2c-0.4,0.1-0.8,0.3-1,0.6l-0.2,1.3h-1.7v-2.4c0.6-0.4,1.2-0.8,2-1.1
				c0.8-0.3,1.7-0.4,2.6-0.4c1.4,0,2.5,0.4,3.4,1.1c0.9,0.7,1.3,1.7,1.3,3.1v5.8c0,0.2,0,0.3,0,0.5s0,0.3,0,0.5l0.9,0.1v1.4
				L182.5,66.6L182.5,66.6z M178.8,65c0.7,0,1.4-0.2,2-0.5c0.6-0.4,1.1-0.8,1.3-1.3v-2h-2.4c-0.9,0-1.6,0.2-2.2,0.6
				c-0.5,0.4-0.8,0.9-0.8,1.6c0,0.5,0.2,1,0.5,1.2C177.7,64.8,178.2,65,178.8,65z"/>
			<path d="M191.1,51.4v3h2.3v1.7h-2.3v7.3c0,0.6,0.1,1,0.4,1.2c0.2,0.2,0.6,0.4,1,0.4c0.2,0,0.4,0,0.7-0.1c0.2,0,0.5-0.1,0.6-0.1
				l0.3,1.5c-0.2,0.1-0.5,0.2-0.9,0.3c-0.4,0.1-0.8,0.1-1.2,0.1c-0.9,0-1.6-0.3-2.2-0.8c-0.5-0.5-0.8-1.4-0.8-2.6v-7.4h-2v-1.7h2v-3
				h2.1V51.4z"/>
			<path d="M195.6,65.2l1.9-0.3v-8.7l-1.9-0.3v-1.4h4.1V65l1.9,0.3v1.4h-5.9V65.2z M199.7,51.2h-2.2V49h2.2V51.2z"/>
			<path d="M203.2,60.3c0-1.8,0.5-3.3,1.5-4.5s2.3-1.8,4-1.8c1.7,0,3.1,0.6,4,1.8c1,1.2,1.5,2.7,1.5,4.5v0.3c0,1.8-0.5,3.3-1.5,4.5
				c-1,1.2-2.3,1.8-4,1.8c-1.7,0-3.1-0.6-4-1.8c-1-1.2-1.5-2.7-1.5-4.5V60.3z M205.5,60.6c0,1.3,0.3,2.4,0.8,3.2
				c0.5,0.9,1.4,1.3,2.5,1.3c1.1,0,1.9-0.4,2.4-1.3c0.6-0.9,0.8-1.9,0.8-3.2v-0.3c0-1.3-0.3-2.4-0.8-3.2s-1.4-1.3-2.5-1.3
				c-1.1,0-1.9,0.4-2.4,1.3c-0.5,0.9-0.8,1.9-0.8,3.2V60.6z"/>
			<path d="M215.9,65.2l1.9-0.3v-8.7l-1.9-0.3v-1.4h3.9l0.2,1.8c0.4-0.7,0.9-1.2,1.5-1.5c0.6-0.4,1.3-0.5,2.1-0.5
				c1.3,0,2.4,0.4,3.1,1.2c0.7,0.8,1.1,2,1.1,3.6V65l1.9,0.3v1.4h-5.9v-1.4l1.9-0.3V59c0-1.1-0.2-1.9-0.6-2.3
				c-0.4-0.5-1.1-0.7-2-0.7c-0.6,0-1.2,0.2-1.7,0.5c-0.5,0.3-0.9,0.7-1.2,1.3V65l1.9,0.3v1.4H216L215.9,65.2L215.9,65.2z"/>
		</g>
	</g>
	<g>
		<g>
			<path class="st0" d="M92.8,47.9c0.2,0.5,0.5,1.1,0.8,0.8c-0.4-0.5-0.2-0.6-0.6-1.2c0-0.4,0.1-0.7,0.3-0.7
				c-0.1-0.2,0.1-0.7-0.2-0.9c-0.3,0.6-0.3,1.2-0.1,2C92.9,48.1,92.9,48,92.8,47.9z"/>
			<path class="st0" d="M93.2,53.6c0-0.1,0-0.3-0.1-0.4C93.2,53.3,93.2,53.4,93.2,53.6L93.2,53.6z"/>
			<path class="st0" d="M93.5,35L93.5,35C93.5,35.1,93.5,35.1,93.5,35z"/>
			<path class="st0" d="M93.1,53.8c0,0.1,0,0.2-0.1,0.4C93.1,54,93.1,53.9,93.1,53.8z"/>
			<path class="st0" d="M83.9,14.9c0.1-0.2,0.9,0.6,0-0.5C83.9,14.7,83.9,14.8,83.9,14.9z"/>
			<path class="st0" d="M93,53.6c0.1,0.1,0.1,0.1,0.1,0.2C93.1,53.7,93.1,53.6,93,53.6C93.1,53.5,93.1,53.5,93,53.6z"/>
			<path class="st0" d="M14,79.5l-0.9-0.9C13.5,78.9,13.7,79.2,14,79.5z"/>
			<path class="st0" d="M34.5,1.2c-0.1,0-0.2,0-0.3,0.1L34.5,1.2z"/>
			<path class="st0" d="M10.7,76.2c-0.1-0.2-0.2-0.5-0.3-0.7c-0.1,0-0.1-0.1-0.2-0.1L10.7,76.2z"/>
			<path class="st0" d="M93,49.6L93,49.6C92.9,49.7,92.9,49.7,93,49.6z"/>
			<path class="st0" d="M41,89.6L41,89.6L41,89.6z"/>
			<path class="st0" d="M30.6,2.1C30.6,2.1,30.7,2.1,30.6,2.1C30.7,2.1,30.6,2.1,30.6,2.1z"/>
			<path class="st0" d="M7.2,71.7L7.2,71.7C7.2,71.7,7.2,71.7,7.2,71.7z"/>
			<path class="st0" d="M30.7,2.1L30.7,2.1L30.7,2.1z"/>
			<path class="st0" d="M94.1,43.3c0.3-0.6,0-1-0.2-1.4c0.1-0.1,0.2-0.3,0.3-0.5c-0.2-0.4-0.4-0.8-0.6-1.2c0.2-0.2,0.5,0.5,0.5-0.3
				c-0.3-0.5-0.4,0.6-0.7-0.3c0.2-0.6,0.4-0.5,0.1-1.1c0.1-0.1,0.2,0,0.3,0.3c-0.2-0.6-0.3-1.6-0.6-1.9c0.2-0.6-0.4-2,0.1-2
				c-0.2-0.2-0.6-1-0.7-1.5c0.8,0.9-0.4-2,0.3-1.9c-0.4-0.3-0.6-0.9-0.8-1.7c-0.2-0.7-0.5-1.5-0.9-2.1c0.1,0.1,0.2,0.2,0.2,0.3
				c-0.2-0.7-0.1-1-0.2-1.5c-0.5,0.1-1-1-1.5-1.5c0-1,0.7,0.3,1-0.1c-0.3,0.2-1-1.3-1.2-0.9c0-0.8-0.1-0.6,0.1-1.1
				c-0.6,0.1-0.4-0.6-1-0.9c-0.2-1,0.4-0.5-0.3-1.4c-0.1-0.6,0.6,0.2,0.6,0.2c-0.6-1-0.6-0.3-1-0.4c-0.8-1.1,0-0.7-0.1-1.2
				c-0.5-0.7-1.3-1-1.6-1.6c0-0.1,0-0.2,0.1-0.1c-0.2-0.1-0.4-0.3-0.6-0.6c-0.2-0.2-0.4-0.5-0.6-0.8c-0.4-0.5-0.9-1.1-1.4-1.3
				c0-0.1,0-0.1,0-0.2c-0.1,0.3-0.2,0.4-0.3,0.5c-0.3-0.4-0.8-0.5-0.7-0.9c0.2,0.2,0.3,0.2,0.5,0.2l-0.4-0.3c0-0.6,0.6,0.5,0.8,0.3
				c-0.8-0.7-1.9-1.3-2.4-2c0.2-0.4,1.4,1.2,0.9,0.2c0.3,0.3,0.5,0.6,0.8,1c-0.1-0.6,0-0.4,0.2-0.3c0.1,0.2,0.3,0.3,0.2-0.2
				c-1.1-1.2-1.4-1.2-2.6-2.4c-0.4-0.1-0.1,0.3-0.6,0.2c-1-0.6-1.2-1.1-1.3-1.5c-0.2-0.4-0.2-0.8-1.1-1.1c-0.5,0-1,0.3-1.8-0.6
				L76.6,8c-1.3-0.9-1.1,0.1-2.4-1.1c0.3,0,1.1,0.5,1,0.4c-0.7-0.9-0.8-0.2-1.5-0.6V6.3c-0.8-0.4-1.6-0.8-2.4-1
				C71,5.1,70.5,5,70.1,4.8c-0.4-0.2-0.9-0.3-1.3-0.5c0.1-0.1,0.5-0.1,0.1-0.3c-2.3-0.7-4.6-1.8-6.8-2.6l-0.9,0.1
				c-0.2-0.1-0.3-0.2-0.1-0.3C60.3,1,61,1.5,60.6,1.5c-0.5-0.1-0.6-0.3-0.3-0.4c-1.6-0.1-4.5-0.2-5.9-0.7l0.3-0.1
				c-1.3-0.3-1.5,0.6-2.6,0.2h0.2c-1.4-0.2-2.8-0.2-4.2-0.2c-1.4,0-2.6-0.1-3.7-0.3c-0.2,0.3-0.9,0.2-1.5,0.2
				c-0.7,0-1.3,0.1-1.3,0.4c-1.6-0.2-1.2-0.4-3.4-0.3c-0.6,0-0.8,0.6-1.5,0.7l-0.1-0.4l-0.9,0.5c-0.3,0.1-0.5,0-0.7-0.1l-0.7,0.2
				c0.3,0,0.6,0,0.6,0.2c-0.5,0.2-1.2,0.3-1.7,0.3c-0.5,0-1,0-1-0.1c-0.8,0.3-1.6,0.6-2.4,1c0-0.1,0.2-0.2,0.5-0.4
				c-0.9,0.5-0.2-0.4-1.2,0.3c0.2,0,0,0.2,0,0.3c-0.7,0-2,0.5-3,0.9l0.1-0.3C24.7,4.1,22.8,5,21,6c0.7-0.3,0.8,0.2,0.3,0.5l-0.4-0.2
				c-0.2,0.4,0.6-0.2,0.1,0.5c-0.7,0.3-0.7-0.1-0.3-0.5c-0.3,0.2-0.5,0.4-0.8,0.6c-0.1-0.1,0.1-0.2,0-0.4c-0.2,0.4-1.7,0.6-1.9,1.2
				l-0.2-0.1c-1.8,1.2-2.5,2-3.8,3.1c0.2,0.3-0.4,0.7-0.6,1.2c-1,0.8-2.2,1.6-3.2,2.8c-0.6,0.9,0,0.4-0.2,0.9
				c-0.3-0.1-1.2,1.1-0.9,0.3C8.7,16.6,8.3,17,8,17.6c-0.3,0.6-0.7,1.2-1.2,2.3c0.3,0,0.5-0.2,0.5,0c-0.2,0.4-0.6,0.8-0.7,0.6v-0.1
				c-0.1,0.3-0.3,0.6-0.4,0.9c-0.1,0.3-0.3,0.6-0.5,0.9c-0.2,0.3-0.4,0.6-0.6,0.9c-0.2,0.3-0.4,0.6-0.6,0.9c-0.4,0.6-0.8,1.2-1,1.8
				c-0.3,0.6-0.5,1.2-0.5,1.7v-0.1l-0.4,2.2c-0.3,0.9-0.1-0.6-0.4,0c0,1.3-0.3,2.2-0.5,3C1.6,33.2,1.3,34,1.3,35
				c-0.6,0.6-0.8,2-0.9,3.4c0,0.7-0.1,1.4-0.1,2.1C0.2,41,0.2,41.6,0,42.1L0.2,42C0.4,42.5,0,42.6,0,43c0.2,0,0.2-0.6,0.3-0.2
				c0.1,2.2,0,4.4,0,6.6s0.1,4.5,0.5,6.8C1.1,57.9,2,57,2.1,59l-0.5-0.5c0.3,0.8,0.6,1.6,0.9,2.4s0.5,1.6,0.8,2.4
				c0.6,1.6,1.2,3.2,2.2,4.5c-0.2-0.1-0.3-0.1-0.4-0.4c0.1,0.7,1.2,2.3,1.4,2.2C6.6,70,6.3,69.7,6.3,70c0.1,0.3,0.4,0.7,0.7,1
				c0.3,0.3,0.5,0.6,0.5,0.8c0,0.1-0.1,0-0.2-0.1c0.4,0.4,1.1,1.6,1.1,1.1c0.6,1.1,1.5,1.8,2,2.7c0.4,0.1,0.7,0.5,1,0.9
				c0.3,0.4,0.6,0.7,0.9,0.5c-0.2,0.2,0.1,0.6,0.5,1.1c0.5,0.5,1.1,0.9,1.4,1.1c-0.3-0.1,0.4,0.6,0,0.5c0.7,0.6,1.4,1,1.4,0.7
				c0.2,0.4,0.5,0.7,0.8,0.9c0.3,0.2,0.7,0.4,1,0.6c0.3,0.2,0.6,0.3,0.9,0.5c0.3,0.2,0.4,0.4,0.5,0.7c0.6,0.3,1.2,0.6,1.8,0.8
				c0.6,0.3,1.2,0.5,1.7,0.8c1.2,0.4,2.3,0.9,3.4,1.3c-0.1,0.2-0.7,0-1.3-0.2c-0.6-0.3-1.1-0.5-1.2-0.2c1.1,0.4,1.9,0.6,2.8,0.8
				c0.9,0.2,1.7,0.4,2.7,0.9c0.5,0.3-0.4,0.1-0.6,0.1c0.5,0.1,1.1,0.3,1.6,0.4c0.5,0.2,1,0.3,1.5,0.5c1,0.3,2,0.5,3,0.6
				c0,0-0.2,0.1-0.4,0.1c0.4,0.1,0.9,0.3,0.9,0H34c-0.5-0.5,1.7-0.4,1.8-0.6c-0.8,0.6,1.9,0.5,0.7,1.2c0.3,0,0.6-0.1,0.6-0.2
				c0.4,0.1,0.5,0.2,0.1,0.3c1.4,0.1,0.9-0.3,2.2-0.1c0,0.1-0.3,0.1-0.4,0.2c0.7-0.2,1.3-0.3,2.4-0.1c-0.1,0.1,0,0.1-0.2,0.1
				c0.9,0,1.6,0,2.4-0.1c0.8-0.1,1.6-0.1,2.6,0c-0.6,0.5,0.7,0.2,0.8,0.6l1.1-0.1l-0.4-0.2c0.9,0,1.8-0.3,2.6-0.2
				c-0.2,0.1-0.5,0.1-0.7,0.2c0.6,0,1.2-0.1,1.8-0.1l-1-0.1c0.9-0.3-0.1-0.6,1.1-0.5c-0.2,0.1,0.9,0,1.4,0.2l0,0
				c0.5-0.2,0.9-0.4,1.6-0.3c0.2,0.1-0.1,0.5,0,0.6c0.4-0.4,2.2-0.4,2.7-0.8c-0.2,0.1-0.2,0.4-0.1,0.4l0.3-0.4
				c0.4,0,0.5,0.1,0.5,0.3c1.3-0.2-0.5-0.5,1.1-0.5c-0.1,0,0,0.1-0.3,0.2c1.6-0.2,2.9-0.8,4.3-1c0.5,0.3-1.2,0.4-0.6,0.7
				c2-0.6,4-1.7,5.8-2.3c-0.1,0-0.2,0.1-0.4,0.1c0-0.7,1.5-0.3,2.3-0.9c-0.2,0.1-0.2,0.4-0.1,0.4c1.3-0.5,2.5-1.3,4.2-2.5l-0.3-0.1
				c0.4-0.1,0.9-0.4,1.3-0.7c0.5-0.3,0.9-0.6,1.3-0.8c0.1-0.3,0.5-0.6,0.2-0.6c1.4-0.4,2.3-1.3,3.2-2.2c0.4-0.5,0.8-0.9,1.2-1.4
				c0.4-0.4,0.9-0.8,1.5-1.1C82,76.6,81.8,77,82,76.8l0.7-0.8c0.2-0.3,0.4-0.5,0.6-0.8c-0.3-0.1-0.3,0.1-0.7,0.3
				c0.1-0.3,0.3-0.8,0.7-1.2c-0.5,0.8,0.3,0.3,0.7,0.1c-0.1,0-0.1-0.2-0.2-0.2c1-0.5-0.3-0.5,0.8-1.4l0.1,0.1c0.3-0.5,0.4-1,0.8-1.4
				c0.4,0-0.2,0.6,0,0.7c0.4-0.7,0.4-1.7,1.1-2.1c-0.1,0.3-0.4,0.8-0.5,1.1c0.8-0.5,0.7-0.6,1.1-1.1l0,0l0.9-1.1l-0.3,0.3
				c0-0.3,0-0.6,0.1-0.9s0.2-0.5,0.3-0.8c0.2-0.5,0.6-1,0.6-1.8c-0.1,1.4,0.2,0.3,0.5,0.6c0.2-0.3,0.6-0.7,0.6-0.5
				c0-0.7,0.7-0.9,0.6-1.9c0.1,0,0.3-0.7,0.5-0.4c0.2-0.8-0.3,0.1-0.4,0c0-0.3,0.1-0.7,0.3-1c0.1-0.4,0.3-0.7,0.5-1.1
				c0.2-0.4,0.4-0.8,0.5-1.2c0.1-0.4,0.2-0.9,0.2-1.4c0.1-0.8,0.1-1.3,0-1.8c0-0.4-0.1-0.8,0-1.3c0-0.1,0.1-0.3,0.1-0.4
				c0.2-0.2,0.3,0.6,0.3,0.6c0.3-0.8,0.4-1.4,0.4-2.2c0.1,0.2,0.2,0,0.3-0.2c0.1-0.6-0.4-0.5-0.1-1.3c0.1,0.2,0.3,0.4,0.4,0.7
				c0-0.7-0.1-1.5-0.2-2.3c0.2-0.2,0.3,0.5,0.4,0.8c0-0.9,0-2.2-0.3-2.5c0,0.1-0.1,0.3-0.1,0.4c0.1-0.1,0.3,0,0.3,0.2
				c0.2,0.7-0.2,1-0.3,1.1v-0.5c-0.4,0.2-0.4,0.8-0.3,1.4c0,0.6,0.1,1.3,0,1.8l-0.3-0.4c0.4-2.7,0.6-5.4,0.5-8.1v-0.1
				c0.2,0.1,0.4,0.1,0.5,0.2c0,0.1,0,0.2,0,0.3l0.4,0.3l-0.1-0.6c0.2-0.1,0.4-0.4,0.6-1.2c-0.1-0.4-0.2-0.8-0.3-1.2l0.2-0.4
				C94.1,42.6,94.1,43,94.1,43.3z M68.7,4.5c0.2,0.1,0.4,0.1,0.5,0.2C69.1,4.5,69,4.5,68.7,4.5L68.7,4.5z M67.5,4
				c0,0.1-0.1,0.2-0.3,0.1c0.1,0-0.3-0.3-0.6-0.5C67,3.8,67.3,3.9,67.5,4z M79.7,78.2c-0.1,0-0.2-0.1-0.2-0.2
				c0.2-0.2,0.4-0.3,0.5-0.5C80.1,77.6,80,77.8,79.7,78.2z M91.1,59.8c-0.1,0.1-0.2,0.1-0.3,0.2c0.1-0.3,0.2-0.6,0.2-0.8
				C91,59.2,91.1,59.4,91.1,59.8z M92.4,54.2c-0.1,0.1-0.3,0.2-0.3,0.2c0.1-0.3,0.1-0.7,0.2-1C92.3,53.6,92.4,53.9,92.4,54.2z"/>
			<polygon class="st0" points="36.7,0.7 36.7,0.8 36.9,0.7 			"/>
			<path class="st0" d="M83.9,74.5c0,0,0.1,0,0.2-0.1C84.1,74.5,84,74.5,83.9,74.5z"/>
			<path class="st0" d="M86.9,70.3l0.5-0.6C87.2,69.9,87.1,70.1,86.9,70.3z"/>
			<path class="st0" d="M89,66.9C89,66.8,88.9,66.8,89,66.9L89,66.9L89,66.9z"/>
			<path class="st0" d="M33.5,88.6c-0.1,0-0.1,0-0.2,0C33,88.6,33.3,88.6,33.5,88.6z"/>
			<path class="st0" d="M52.5,89.1c-0.2,0.1-0.4,0.2-0.6,0.2C52.2,89.3,52.5,89.3,52.5,89.1z"/>
			<path class="st0" d="M14.1,79.6L14.1,79.6C14.1,79.6,14,79.5,14.1,79.6L14.1,79.6z"/>
			<path class="st0" d="M51,89.4c0.3,0.1,0.6,0,0.9,0C51.6,89.3,51.3,89.3,51,89.4z"/>
			<path class="st0" d="M93.6,50v-0.2c0,0,0,0-0.1,0L93.6,50z"/>
			<path class="st0" d="M93.6,49.8v-0.2C93.6,49.6,93.6,49.7,93.6,49.8z"/>
			<path class="st0" d="M93.5,49.2l0.1,0.5C93.6,49.5,93.6,49.3,93.5,49.2z"/>
			<path class="st0" d="M92.5,56.9c0.1-0.2,0.2-0.4,0.3-0.7c0.1-0.3,0.2-0.5,0.2-0.8l-0.1-0.1C93,55.7,92.4,56.5,92.5,56.9z"/>
			<path class="st0" d="M61.2,88.3l0.2-0.3c-0.3,0.1-0.5,0.2-0.8,0.3C60.9,88.2,61,88.2,61.2,88.3z"/>
		</g>
		<g>
			<g>
				<g>
					<path d="M47.2,27.2c-0.1,0-0.2,0-0.3,0s-0.2,0-0.2-0.1l0,0l0,0c-0.1-0.1-0.2-0.2-0.3-0.3c-0.6-0.6-1.2-1.2-1.8-1.7
						c-0.4-0.4-0.4-1-0.1-1.4c0.4-0.4,1-0.4,1.4-0.1c0.5,0.4,0.9,0.8,1.3,1.3c0.4-0.4,0.9-0.9,1.3-1.3c0.4-0.4,1-0.3,1.4,0.1
						c0.4,0.4,0.3,1-0.1,1.4c-0.6,0.5-1.2,1.1-1.8,1.8c-0.1,0.1-0.2,0.2-0.3,0.3C47.6,27.1,47.4,27.2,47.2,27.2z"/>
				</g>
				<g>
					<path d="M47.2,75.3c-0.8,0-1.5-0.2-2.2-0.5c-0.1,0-0.2-0.1-0.3-0.1l-0.5-0.2c-0.5-0.2-0.7-0.8-0.4-1.3c0.2-0.5,0.8-0.7,1.3-0.4
						l0.5,0.2c0.1,0,0.1,0.1,0.2,0.1c0.9,0.4,2,0.4,2.8,0c0.1,0,0.1-0.1,0.2-0.1l0.5-0.2c0.5-0.2,1.1,0,1.3,0.4
						c0.2,0.5,0,1.1-0.4,1.3l-0.5,0.2c-0.1,0.1-0.2,0.1-0.3,0.1C48.7,75.1,48,75.3,47.2,75.3z M40.2,72c-0.2,0-0.3,0-0.5-0.1
						c-0.4-0.2-0.7-0.4-1.1-0.7c-1.1-0.6-2.2-1.4-3.4-2.2c-0.4-0.3-0.5-0.9-0.2-1.3c0.3-0.4,0.9-0.5,1.3-0.2
						c1.1,0.8,2.2,1.5,3.3,2.2c0.4,0.2,0.7,0.5,1.1,0.7c0.5,0.3,0.6,0.9,0.3,1.3C40.7,71.8,40.5,72,40.2,72z M54.3,72
						c-0.3,0-0.7-0.2-0.8-0.5c-0.3-0.5-0.2-1,0.3-1.3h0.1c0.3-0.2,0.7-0.4,1.1-0.6c1.1-0.6,2.1-1.3,3.3-2.1c0.4-0.3,1-0.2,1.3,0.2
						c0.3,0.4,0.2,1-0.2,1.3c-1.2,0.8-2.3,1.6-3.4,2.2c-0.3,0.2-0.7,0.4-1.1,0.7C54.7,72,54.5,72,54.3,72z M62.8,66
						c-0.3,0-0.6-0.1-0.7-0.3c-0.3-0.4-0.3-1,0.1-1.4c1.3-1.1,2.6-2.3,3.9-3.5c0.4-0.4,1-0.4,1.4,0c0.4,0.4,0.4,1,0,1.4
						c-1.3,1.2-2.6,2.4-4,3.6C63.2,66,63,66,62.8,66z M31.5,66c-0.2,0-0.4-0.1-0.6-0.2c-1.4-1.1-2.7-2.4-4-3.6c-0.4-0.4-0.4-1,0-1.4
						s1-0.4,1.4,0c1.2,1.2,2.5,2.4,3.9,3.5c0.4,0.3,0.5,0.9,0.1,1.4C32.1,65.9,31.8,66,31.5,66z M70.3,58.7c-0.2,0-0.5-0.1-0.6-0.2
						c-0.4-0.4-0.4-1-0.1-1.4c0.7-0.9,1.4-1.7,2.1-2.5c0.4-0.5,0.8-1,1.1-1.5c0.3-0.4,0.9-0.5,1.3-0.2s0.5,0.9,0.2,1.3
						c-0.4,0.5-0.8,1.1-1.2,1.6c-0.7,0.9-1.4,1.7-2.2,2.6C70.8,58.6,70.5,58.7,70.3,58.7z M24.1,58.7c-0.3,0-0.5-0.1-0.7-0.3
						c-0.8-0.9-1.5-1.7-2.1-2.6c-0.4-0.5-0.8-1.1-1.2-1.6c-0.3-0.4-0.2-1,0.2-1.3c0.4-0.3,1-0.2,1.3,0.2c0.4,0.5,0.7,1,1.2,1.6
						c0.6,0.8,1.3,1.7,2,2.5c0.3,0.4,0.3,1-0.1,1.4C24.5,58.6,24.3,58.7,24.1,58.7z M76.2,50.1c-0.1,0-0.3,0-0.4-0.1
						c-0.5-0.2-0.7-0.8-0.5-1.3c0.7-1.6,1.3-3.2,1.7-4.7c0.1-0.5,0.6-0.8,1.2-0.7c0.5,0.1,0.8,0.6,0.7,1.2c-0.4,1.7-1,3.5-1.8,5.1
						C76.8,49.9,76.5,50.1,76.2,50.1z M18.3,50c-0.4,0-0.7-0.2-0.9-0.6c-0.8-1.7-1.4-3.4-1.8-5.1c-0.1-0.5,0.2-1,0.7-1.2
						c0.5-0.1,1,0.2,1.2,0.7c0.4,1.6,1,3.2,1.7,4.7c0.2,0.5,0,1.1-0.5,1.3C18.5,50,18.4,50,18.3,50z M78.5,40.1L78.5,40.1
						c-0.6,0-1-0.5-1-1v-0.4c0-0.6,0-1.3-0.1-1.9c-0.1-0.9-0.2-1.8-0.4-2.7c-0.1-0.5,0.2-1,0.7-1.2c0.5-0.1,1,0.2,1.2,0.7
						c0.2,1,0.4,2,0.5,3c0.1,0.7,0.1,1.4,0.1,2v0.5C79.5,39.7,79.1,40.1,78.5,40.1z M15.8,40c-0.5,0-1-0.4-1-1v-0.4
						c0-0.7,0-1.4,0.1-2c0.1-1,0.2-2,0.5-3c0.1-0.5,0.7-0.8,1.2-0.7s0.8,0.6,0.7,1.2c-0.2,0.9-0.4,1.8-0.4,2.7
						c-0.1,0.6-0.1,1.3-0.1,1.9v0.4C16.8,39.6,16.4,40,15.8,40L15.8,40z M76.1,30.1c-0.3,0-0.7-0.2-0.8-0.5
						c-0.8-1.4-1.9-2.7-3.1-3.9c-0.4-0.4-0.4-1,0-1.4c0.4-0.4,1-0.4,1.4,0c1.3,1.3,2.5,2.8,3.4,4.3c0.3,0.5,0.1,1.1-0.3,1.3
						C76.5,30,76.3,30.1,76.1,30.1z M18.4,30c-0.2,0-0.3,0-0.5-0.1c-0.5-0.3-0.6-0.9-0.3-1.3c0.9-1.6,2.1-3,3.4-4.3
						c0.4-0.4,1-0.4,1.4,0c0.4,0.4,0.4,1,0,1.4c-1.2,1.2-2.3,2.5-3.1,3.9C19,29.9,18.7,30,18.4,30z M68.6,22.8c-0.2,0-0.3,0-0.5-0.1
						c-1.5-0.8-3.1-1.4-4.6-1.7C63,21,62.6,20.5,62.7,20c0.1-0.5,0.6-0.9,1.1-0.8c1.8,0.3,3.5,1,5.1,1.9c0.5,0.3,0.6,0.8,0.4,1.3
						C69.3,22.6,69,22.8,68.6,22.8z M25.8,22.8c-0.3,0-0.7-0.2-0.8-0.5c-0.3-0.5-0.1-1.1,0.4-1.3c1.7-0.9,3.4-1.6,5.1-1.9
						c0.5-0.1,1,0.2,1.1,0.8c0.1,0.5-0.2,1-0.8,1.1c-1.6,0.3-3.2,0.9-4.6,1.7C26.1,22.8,26,22.8,25.8,22.8z M40.9,22.5
						c-0.1,0-0.3,0-0.4-0.1l-0.3-0.1c0,0-0.1,0-0.1-0.1h0.1c-1.5-0.6-2.9-1-4.5-1.2c-0.5-0.1-0.9-0.5-0.8-1.1
						c0.1-0.5,0.6-0.9,1.1-0.8c1.7,0.2,3.3,0.7,4.8,1.4c0,0,0.1,0,0.1,0.1h-0.1l0.4,0.2c0.5,0.2,0.7,0.8,0.5,1.3
						C41.6,22.3,41.2,22.5,40.9,22.5z M53.6,22.4c-0.4,0-0.7-0.2-0.9-0.6c-0.2-0.5,0-1.1,0.5-1.3l0.3-0.1c0,0,0.1,0,0.2-0.1
						c1.5-0.7,3.2-1.1,4.8-1.3c0.5-0.1,1,0.3,1.1,0.8c0.1,0.5-0.3,1-0.8,1.1c-1.6,0.2-3,0.6-4.4,1.2c0,0-0.1,0.1-0.2,0.1l-0.2,0.1
						C53.8,22.4,53.7,22.4,53.6,22.4z"/>
				</g>
			</g>
			<path d="M74.6,47.1C74.6,47.2,74.6,47.2,74.6,47.1C71.5,55.7,59.4,65.2,52,68.9c-0.7,0.4-1.3,0.7-1.9,1c-0.3,0.1-0.5,0.3-0.8,0.4
				l0,0c-0.3,0.1-0.5,0.2-0.7,0.3l0,0c-0.4,0.1-0.9,0.2-1.4,0.2c-0.6,0-1.1-0.1-1.6-0.3c-0.1,0-0.1-0.1-0.2-0.1
				c-0.3-0.2-0.7-0.3-1.1-0.5c-0.6-0.3-1.3-0.6-1.9-1c-0.5-0.3-1-0.5-1.5-0.8c-0.4-0.2-0.8-0.5-1.2-0.7c-5.2-2.9-11.7-8-15.8-13.3
				C19.8,49,18,43.6,18.5,38c0.6-8.7,9.6-15.6,17.7-14.6c1.7,0.1,3.4,0.5,4.9,1.2h0.1c2.2,0.9,4.2,2.3,6,4.3l0,0l0,0l0,0
				c1.2-1.3,2.6-2.4,4-3.3c1.3-0.8,2.7-1.4,4.2-1.8c0.4-0.1,0.7-0.2,1.1-0.3c0.3-0.1,0.6-0.1,0.9-0.1c0.1,0,0.2,0,0.2,0
				c0.2,0,0.5-0.1,0.7-0.1c0.1,0,0.1,0,0.2,0v18.3l3.2-2.3l0,0l3.2,2.5V24c5.8,2,10.9,7.6,11.3,13.9c0,0.4,0.1,0.8,0.1,1.2l0,0
				C76.2,41.9,75.7,44.5,74.6,47.1z"/>
		</g>
	</g>
</g>
</svg>
